<svg xmlns="http://www.w3.org/2000/svg" viewBox="0 0 1024 683"><filter id="b"><feGaussianBlur stdDeviation="12" /></filter><path d="M0 0h1024v683H0z" fill="#675c53" /><g filter="url(#b)" transform="scale(4.000000) translate(0.5 0.5)"><g transform="translate(19.826601 75.133176) rotate(318.889265) scale(50.330991 43.196108)"><ellipse fill="#000" fill-opacity=".501961" cx="0" cy="0" rx="1" ry="1" /></g><ellipse fill="#e26c74" fill-opacity=".501961" cx="100" cy="169" rx="75" ry="75" /><g transform="translate(99 35) rotate(-9) scale(55 24)"><path d="M0 0h1024v683H0z" fill="#fff" /></g><ellipse fill="#0b0800" fill-opacity=".501961" cx="103" cy="95" rx="26" ry="23" /><g transform="translate(49.205184 135.259507) rotate(42.268043) scale(13.313212 38.016276)"><ellipse fill="#a6f4fe" fill-opacity=".501961" cx="0" cy="0" rx="1" ry="1" /></g><ellipse fill="#e60000" fill-opacity=".501961" cx="80" cy="160" rx="19" ry="38" /><ellipse fill="#314427" fill-opacity=".501961" cx="214" cy="55" rx="87" ry="57" /><g transform="translate(139.858784 111.826066) rotate(283.396536) scale(10.457401 14.951194)"><ellipse fill="#fff9f8" fill-opacity=".501961" cx="0" cy="0" rx="1" ry="1" /></g></g></svg>