<svg xmlns="http://www.w3.org/2000/svg" viewBox="0 0 684 1024"><filter id="b"><feGaussianBlur stdDeviation="12" /></filter><path d="M0 0h684v1024H0z" fill="#aaa49f" /><g filter="url(#b)" transform="scale(4.000000) translate(0.5 0.5)"><g transform="translate(90.111557 0.000000) rotate(11.676688) scale(170.000000 93.587295)"><ellipse fill="#c26116" fill-opacity=".501961" cx="0" cy="0" rx="1" ry="1" /></g><ellipse fill="#98daff" fill-opacity=".501961" cx="82" cy="193" rx="77" ry="113" /><ellipse fill="#a4512a" fill-opacity=".501961" cx="86" cy="96" rx="20" ry="20" /><g transform="translate(89.792106 38.267473) rotate(165.583144) scale(17.668346 12.540291)"><ellipse fill="#fff" fill-opacity=".501961" cx="0" cy="0" rx="1" ry="1" /></g><g transform="translate(65.379075 140.454168) rotate(-55.354331) scale(38.634827 52.552297)"><ellipse fill="#d1e3fc" fill-opacity=".501961" cx="0" cy="0" rx="1" ry="1" /></g><g transform="translate(66.269678 0.000000) rotate(175.910363) scale(137.029569 28.675615)"><ellipse fill="#984c19" fill-opacity=".501961" cx="0" cy="0" rx="1" ry="1" /></g><ellipse fill="#5e4634" fill-opacity=".501961" cx="166" cy="210" rx="9" ry="70" /><path fill="#005095" fill-opacity=".501961" d="M141 134l4 62-21 16z" /></g></svg>