<svg xmlns="http://www.w3.org/2000/svg" viewBox="0 0 683 1024"><filter id="b"><feGaussianBlur stdDeviation="12" /></filter><path d="M0 0h683v1024H0z" fill="#505143" /><g filter="url(#b)" transform="scale(4.000000) translate(0.5 0.5)"><g transform="translate(79.653242 36.308198) rotate(370.458647) scale(38.394112 113.144563)"><ellipse fill="#9c9798" fill-opacity=".501961" cx="0" cy="0" rx="1" ry="1" /></g><g transform="translate(19.421654 134.799799) rotate(259.368692) scale(170.000000 26.313297)"><ellipse fill="#0d2800" fill-opacity=".501961" cx="0" cy="0" rx="1" ry="1" /></g><g transform="translate(92 57) rotate(343) scale(23 27)"><path d="M0 0h683v1024H0z" fill="#f3ffff" /></g><g transform="translate(118.877721 166.522552) rotate(35.967013) scale(41.308664 16.525815)"><ellipse fill="#0c0000" fill-opacity=".501961" cx="0" cy="0" rx="1" ry="1" /></g><g transform="translate(143.892851 66.699431) rotate(158.345601) scale(62.203009 30.670684)"><ellipse fill="#7e696a" fill-opacity=".501961" cx="0" cy="0" rx="1" ry="1" /></g><g transform="translate(23.691427 53.759369) rotate(189.507291) scale(13.926672 85.170980)"><ellipse fill="#10200c" fill-opacity=".501961" cx="0" cy="0" rx="1" ry="1" /></g><ellipse fill="#e4bb57" fill-opacity=".501961" cx="83" cy="115" rx="12" ry="27" /><g transform="translate(105 19) rotate(283) scale(45 70)"><path d="M0 0h683v1024H0z" fill="#363738" /></g></g></svg>