<svg xmlns="http://www.w3.org/2000/svg" viewBox="0 0 683 1024"><filter id="b"><feGaussianBlur stdDeviation="12" /></filter><path d="M0 0h683v1024H0z" fill="#5c5c5c" /><g filter="url(#b)" transform="scale(4.000000) translate(0.5 0.5)"><g transform="translate(5.758341 102.482838) rotate(379.359077) scale(64.811612 170.000000)"><ellipse fill="#000" fill-opacity=".501961" cx="0" cy="0" rx="1" ry="1" /></g><g transform="translate(140.698935 148.834911) rotate(280.191880) scale(170.000000 62.588281)"><ellipse fill="#b4b4b4" fill-opacity=".501961" cx="0" cy="0" rx="1" ry="1" /></g><ellipse fill="#000" fill-opacity=".501961" cx="11" cy="50" rx="40" ry="143" /><ellipse fill="#fff" fill-opacity=".501961" cx="56" cy="242" rx="7" ry="37" /><ellipse fill="#151515" fill-opacity=".501961" cx="6" cy="246" rx="42" ry="98" /><ellipse fill="#555" fill-opacity=".501961" cx="85" cy="132" rx="25" ry="62" /><g transform="translate(89 230) rotate(11) scale(58 57)"><path d="M0 0h683v1024H0z" fill="#989898" /></g><path fill="#d4d4d4" fill-opacity=".501961" d="M102.344148 140.272776 94.024347 166.393898 90.007121 147.07274 82.886792 141.065941z" /></g></svg>