<svg xmlns="http://www.w3.org/2000/svg" viewBox="0 0 1024 681"><filter id="b"><feGaussianBlur stdDeviation="12" /></filter><path d="M0 0h1024v681H0z" fill="#454c41" /><g filter="url(#b)" transform="scale(4.000000) translate(0.5 0.5)"><path d="M0 0h1024v681H0z" fill="#fff" /><g transform="translate(179.917462 21.311227) rotate(261.158605) scale(30.027892 58.873985)"><ellipse fill="#000700" fill-opacity=".501961" cx="0" cy="0" rx="1" ry="1" /></g><g transform="translate(143.753635 72.897007) rotate(152.092291) scale(37.136416 10.777821)"><ellipse fill="#c4b4b8" fill-opacity=".501961" cx="0" cy="0" rx="1" ry="1" /></g><g transform="translate(197.559098 139.442867) rotate(306.291028) scale(45.574245 16.438709)"><ellipse fill="#9b9e9c" fill-opacity=".501961" cx="0" cy="0" rx="1" ry="1" /></g><path fill="#fbcaae" fill-opacity=".501961" d="M58.015112 134.291389 72.503772 134.903427 94.042876 85.928165 69.072238 103.719084z" /><ellipse fill="#070001" fill-opacity=".501961" cx="146" cy="107" rx="61" ry="13" /><ellipse fill="#204b14" fill-opacity=".501961" cx="255" cy="48" rx="63" ry="63" /><g transform="translate(157.962833 158.027980) rotate(262.803136) scale(29.461707 67.106661)"><ellipse fill="#6c7577" fill-opacity=".501961" cx="0" cy="0" rx="1" ry="1" /></g></g></svg>