<svg xmlns="http://www.w3.org/2000/svg" viewBox="0 0 681 1024"><filter id="b"><feGaussianBlur stdDeviation="12" /></filter><path d="M0 0h681v1024H0z" fill="#818285" /><g filter="url(#b)" transform="scale(4.000000) translate(0.5 0.5)"><g transform="translate(86.619792 131.072076) rotate(197.724673) scale(21.202846 56.661914)"><ellipse fill="#00000b" fill-opacity=".501961" cx="0" cy="0" rx="1" ry="1" /></g><g transform="translate(146.212271 157.604522) rotate(379.443633) scale(36.754101 169.000000)"><ellipse fill="#b3b2b1" fill-opacity=".501961" cx="0" cy="0" rx="1" ry="1" /></g><ellipse fill="#c2bfbb" fill-opacity=".501961" cx="136" cy="6" rx="36" ry="36" /><ellipse fill="#000" fill-opacity=".501961" cx="95" cy="131" rx="16" ry="22" /><g transform="translate(55.054220 174.611154) rotate(279.905256) scale(48.565072 5.343378)"><ellipse fill="#1b2d3c" fill-opacity=".501961" cx="0" cy="0" rx="1" ry="1" /></g><g transform="translate(0.000000 211.886626) rotate(11.890108) scale(21.870482 35.660450)"><ellipse fill="#c6c9ca" fill-opacity=".501961" cx="0" cy="0" rx="1" ry="1" /></g><g transform="translate(169 255) rotate(257) scale(40 34)"><path d="M0 0h681v1024H0z" fill="#002c4c" /></g><g transform="translate(39.175014 65.639926) rotate(190.977664) scale(59.260931 30.625036)"><ellipse fill="#66666b" fill-opacity=".501961" cx="0" cy="0" rx="1" ry="1" /></g></g></svg>