<svg xmlns="http://www.w3.org/2000/svg" viewBox="0 0 1024 678"><filter id="b"><feGaussianBlur stdDeviation="12" /></filter><path d="M0 0h1024v678H0z" fill="#43403a" /><g filter="url(#b)" transform="scale(4.000000) translate(0.5 0.5)"><g transform="translate(141.517782 138.747427) rotate(190.444773) scale(75.402191 40.362407)"><ellipse fill="#a09a93" fill-opacity=".501961" cx="0" cy="0" rx="1" ry="1" /></g><path fill="#000" fill-opacity=".501961" d="M101 45 54 143-16 86z" /><ellipse fill="#000100" fill-opacity=".501961" cx="227" cy="79" rx="52" ry="34" /><g transform="translate(44.794855 50.191434) rotate(204.042520) scale(7.302556 29.295104)"><ellipse fill="#ddb4ab" fill-opacity=".501961" cx="0" cy="0" rx="1" ry="1" /></g><g transform="translate(7.971324 41.920362) rotate(363.565857) scale(20.304907 84.962032)"><ellipse fill="#010000" fill-opacity=".501961" cx="0" cy="0" rx="1" ry="1" /></g><path fill="#dfaead" fill-opacity=".501961" d="M182 83l-25-9-12 45z" /><path fill="#e2b9b7" fill-opacity=".501961" d="M105 86l-1-44-23 85z" /><g transform="translate(87.000518 139.115209) rotate(70.895485) scale(14.027203 17.707219)"><ellipse fill="#f3b9b2" fill-opacity=".501961" cx="0" cy="0" rx="1" ry="1" /></g></g></svg>