<svg xmlns="http://www.w3.org/2000/svg" viewBox="0 0 681 1024"><filter id="b"><feGaussianBlur stdDeviation="12" /></filter><path d="M0 0h681v1024H0z" fill="#656b56" /><g filter="url(#b)" transform="scale(4.000000) translate(0.5 0.5)"><g transform="translate(83.489152 108.332249) rotate(119.203368) scale(37.818753 50.320565)"><ellipse fill="#f5c9b8" fill-opacity=".501961" cx="0" cy="0" rx="1" ry="1" /></g><g transform="translate(38.619120 0.000000) rotate(170.010326) scale(105.151027 9.760194)"><ellipse fill="#e2ffff" fill-opacity=".501961" cx="0" cy="0" rx="1" ry="1" /></g><ellipse fill="#ff6d04" fill-opacity=".501961" cx="65" cy="203" rx="21" ry="37" /><ellipse fill="#1b4f30" fill-opacity=".501961" cx="154" cy="120" rx="22" ry="255" /><g transform="translate(7.807312 220.014783) rotate(303.972984) scale(14.242637 50.556558)"><ellipse fill="#b4bcc4" fill-opacity=".501961" cx="0" cy="0" rx="1" ry="1" /></g><g transform="translate(80 33) rotate(157) scale(35 22)"><path d="M0 0h681v1024H0z" fill="#140000" /></g><ellipse fill="#3c5a32" fill-opacity=".501961" cx="24" cy="142" rx="25" ry="71" /><g transform="translate(122 132) rotate(79) scale(40 26)"><path d="M0 0h681v1024H0z" fill="#d0a281" /></g></g></svg>