<svg xmlns="http://www.w3.org/2000/svg" viewBox="0 0 1024 684"><filter id="b"><feGaussianBlur stdDeviation="12" /></filter><path d="M0 0h1024v684H0z" fill="#7794aa" /><g filter="url(#b)" transform="scale(4.000000) translate(0.5 0.5)"><g transform="translate(201.467693 41.795837) rotate(76.923743) scale(255.000000 74.804012)"><ellipse fill="#24a5ff" fill-opacity=".501961" cx="0" cy="0" rx="1" ry="1" /></g><g transform="translate(53.114048 97.340437) rotate(165.028630) scale(73.871046 240.515811)"><ellipse fill="#ce8d55" fill-opacity=".501961" cx="0" cy="0" rx="1" ry="1" /></g><g transform="translate(127.940471 75.199687) rotate(354.049268) scale(13.457233 138.439529)"><ellipse fill="#0b334e" fill-opacity=".501961" cx="0" cy="0" rx="1" ry="1" /></g><g transform="translate(219.122782 149.305076) rotate(153.024509) scale(71.697627 48.504299)"><ellipse fill="#aad6ff" fill-opacity=".501961" cx="0" cy="0" rx="1" ry="1" /></g><ellipse fill="#0074cb" fill-opacity=".501961" cx="177" cy="21" rx="67" ry="41" /><g transform="translate(19.093537 72.644185) rotate(139.603591) scale(20.123689 99.047621)"><ellipse fill="#dbbb9e" fill-opacity=".501961" cx="0" cy="0" rx="1" ry="1" /></g><path fill="#0a0100" fill-opacity=".501961" d="M123 48l16 90-30-62z" /><g transform="translate(139.358647 133.953218) rotate(328.275150) scale(7.598124 25.766525)"><ellipse fill="#2d2627" fill-opacity=".501961" cx="0" cy="0" rx="1" ry="1" /></g></g></svg>