<svg xmlns="http://www.w3.org/2000/svg" viewBox="0 0 1024 684"><filter id="b"><feGaussianBlur stdDeviation="12" /></filter><path d="M0 0h1024v684H0z" fill="#8c794e" /><g filter="url(#b)" transform="scale(4.000000) translate(0.5 0.5)"><ellipse fill="#92a9ce" fill-opacity=".501961" cx="105" cy="142" rx="117" ry="52" /><g transform="translate(19.171477 46.325357) rotate(314.254083) scale(68.696378 60.065337)"><ellipse fill="#6f4d06" fill-opacity=".501961" cx="0" cy="0" rx="1" ry="1" /></g><g transform="translate(187.497173 46.270537) rotate(204.334002) scale(155.949322 56.131130)"><ellipse fill="#9e6800" fill-opacity=".501961" cx="0" cy="0" rx="1" ry="1" /></g><ellipse fill="#2e3a28" fill-opacity=".501961" cx="235" cy="29" rx="47" ry="18" /><g transform="translate(5.527957 101.272653) rotate(297.649273) scale(38.290068 22.616832)"><ellipse fill="#27342a" fill-opacity=".501961" cx="0" cy="0" rx="1" ry="1" /></g><g transform="translate(255.000000 144.934765) rotate(212.585738) scale(32.036206 19.255868)"><ellipse fill="#242e46" fill-opacity=".501961" cx="0" cy="0" rx="1" ry="1" /></g><g transform="translate(224.631765 170.000000) rotate(319.016360) scale(18.346310 91.559780)"><ellipse fill="#b4b9bd" fill-opacity=".501961" cx="0" cy="0" rx="1" ry="1" /></g><g transform="translate(123.408931 123.775947) rotate(363.463798) scale(26.603190 20.451945)"><ellipse fill="#c1c6c1" fill-opacity=".501961" cx="0" cy="0" rx="1" ry="1" /></g></g></svg>