<svg xmlns="http://www.w3.org/2000/svg" viewBox="0 0 1024 681"><filter id="b"><feGaussianBlur stdDeviation="12" /></filter><path d="M0 0h1024v681H0z" fill="#9d9484" /><g filter="url(#b)" transform="scale(4.000000) translate(0.5 0.5)"><g transform="translate(51.572435 19.737942) rotate(13.844648) scale(92.550554 39.149005)"><ellipse fill="#b5dfff" fill-opacity=".501961" cx="0" cy="0" rx="1" ry="1" /></g><g transform="translate(225.446448 27.106871) rotate(193.113297) scale(71.560046 39.188246)"><ellipse fill="#602d00" fill-opacity=".501961" cx="0" cy="0" rx="1" ry="1" /></g><path fill="#141610" fill-opacity=".501961" d="M151 122 79 132l48-50z" /><ellipse fill="#8eb8ff" fill-opacity=".501961" cx="38" cy="18" rx="68" ry="33" /><g transform="translate(221.632405 165.474172) rotate(361.778290) scale(37.706769 30.182729)"><ellipse fill="#856028" fill-opacity=".501961" cx="0" cy="0" rx="1" ry="1" /></g><g transform="translate(97.367317 153.558187) rotate(201.932637) scale(93.698241 19.695511)"><ellipse fill="#d2c2a0" fill-opacity=".501961" cx="0" cy="0" rx="1" ry="1" /></g><g transform="translate(156.714825 69.527859) rotate(113.570586) scale(29.355102 68.323708)"><ellipse fill="#cfb78d" fill-opacity=".501961" cx="0" cy="0" rx="1" ry="1" /></g><ellipse fill="#966a2b" fill-opacity=".501961" cx="30" cy="164" rx="40" ry="18" /></g></svg>