<svg xmlns="http://www.w3.org/2000/svg" viewBox="0 0 678 1024"><filter id="b"><feGaussianBlur stdDeviation="12" /></filter><path d="M0 0h678v1024H0z" fill="#4b4b3a" /><g filter="url(#b)" transform="scale(4.000000) translate(0.5 0.5)"><g transform="translate(120.181889 7.165430) rotate(371.276330) scale(45.005828 96.527426)"><ellipse fill="#ffffd3" fill-opacity=".501961" cx="0" cy="0" rx="1" ry="1" /></g><ellipse fill="#000" fill-opacity=".501961" cx="30" cy="61" rx="44" ry="121" /><g transform="translate(86.414223 220.198160) rotate(190.390795) scale(42.154701 73.105041)"><ellipse fill="#000" fill-opacity=".501961" cx="0" cy="0" rx="1" ry="1" /></g><g transform="translate(168 152) rotate(75) scale(25 99)"><path d="M0 0h678v1024H0z" fill="#e1ffbe" /></g><path fill="#fffff6" fill-opacity=".501961" d="M131.461337 169.91564 138.637698 261.872392 145.176049 271 148.840433 244.958058z" /><ellipse fill="#2c000d" fill-opacity=".501961" cx="119" cy="120" rx="33" ry="29" /><ellipse fill="#e1ffb2" fill-opacity=".501961" cx="117" cy="16" rx="48" ry="18" /><path fill="#f69aa7" fill-opacity=".501961" d="M88.944996 124.207038 79.974688 2.032555 76.847943 109.80876 40.530157 139.921101z" /></g></svg>