<svg xmlns="http://www.w3.org/2000/svg" viewBox="0 0 684 1024"><filter id="b"><feGaussianBlur stdDeviation="12" /></filter><path d="M0 0h684v1024H0z" fill="#787673" /><g filter="url(#b)" transform="scale(4.000000) translate(0.5 0.5)"><g transform="translate(57.630860 67.335809) rotate(186.699180) scale(26.818617 48.667125)"><ellipse fill="#e0fcff" fill-opacity=".501961" cx="0" cy="0" rx="1" ry="1" /></g><g transform="translate(128.889222 67.207019) rotate(332.591017) scale(26.452552 48.023396)"><ellipse fill="#e2e6d6" fill-opacity=".501961" cx="0" cy="0" rx="1" ry="1" /></g><ellipse fill="#172101" fill-opacity=".501961" cx="25" cy="0" rx="161" ry="24" /><g transform="translate(96.565263 145.611118) rotate(-37.899127) scale(28.708188 36.905119)"><ellipse fill="#0f152c" fill-opacity=".501961" cx="0" cy="0" rx="1" ry="1" /></g><g transform="translate(53.361017 187.465497) rotate(114.320110) scale(20.517712 42.198433)"><ellipse fill="#c7bbbe" fill-opacity=".501961" cx="0" cy="0" rx="1" ry="1" /></g><ellipse fill="#ffadc8" fill-opacity=".501961" cx="140" cy="191" rx="25" ry="16" /><ellipse fill="#ecf1ff" fill-opacity=".501961" cx="69" cy="92" rx="35" ry="15" /><g transform="translate(25.386832 247.842458) rotate(104.089764) scale(24.707457 63.173970)"><ellipse fill="#3a2421" fill-opacity=".501961" cx="0" cy="0" rx="1" ry="1" /></g></g></svg>