<svg xmlns="http://www.w3.org/2000/svg" viewBox="0 0 684 1024"><filter id="b"><feGaussianBlur stdDeviation="12" /></filter><path d="M0 0h684v1024H0z" fill="#6e6864" /><g filter="url(#b)" transform="scale(4.000000) translate(0.5 0.5)"><path fill="#000817" fill-opacity=".501961" d="M121 126 46 156l62 113z" /><g transform="translate(20.599652 105.346144) rotate(200.566109) scale(72.909434 135.916041)"><ellipse fill="#8b8b91" fill-opacity=".501961" cx="0" cy="0" rx="1" ry="1" /></g><g transform="translate(138.860382 32.349744) rotate(61.172566) scale(133.300194 57.007992)"><ellipse fill="#86652b" fill-opacity=".501961" cx="0" cy="0" rx="1" ry="1" /></g><g transform="translate(34.619836 117.933707) rotate(312.771092) scale(8.847141 19.707769)"><ellipse fill="#fff" fill-opacity=".501961" cx="0" cy="0" rx="1" ry="1" /></g><g transform="translate(75.746390 133.528817) rotate(246.725915) scale(7.905805 23.753099)"><ellipse fill="#ffeff1" fill-opacity=".501961" cx="0" cy="0" rx="1" ry="1" /></g><path d="M0 0h684v1024H0z" fill="#e9ea7b" /><g transform="translate(66.207384 111.131857) rotate(349.198368) scale(24.168650 15.206411)"><ellipse fill="#262d3d" fill-opacity=".501961" cx="0" cy="0" rx="1" ry="1" /></g><g transform="translate(50.313201 151.012100) rotate(317.002477) scale(5.529377 31.413279)"><ellipse fill="#14110f" fill-opacity=".501961" cx="0" cy="0" rx="1" ry="1" /></g></g></svg>