<svg xmlns="http://www.w3.org/2000/svg" viewBox="0 0 1024 684"><filter id="b"><feGaussianBlur stdDeviation="12" /></filter><path d="M0 0h1024v684H0z" fill="#454846" /><g filter="url(#b)" transform="scale(4.000000) translate(0.5 0.5)"><ellipse fill="#787e81" fill-opacity=".501961" cx="123" cy="107" rx="78" ry="78" /><g transform="translate(36.763628 26.344276) rotate(134.724335) scale(176.340805 46.330925)"><ellipse fill="#130900" fill-opacity=".501961" cx="0" cy="0" rx="1" ry="1" /></g><g transform="translate(252.666371 76.263417) rotate(355.361183) scale(45.998150 188.863185)"><ellipse fill="#0b0e14" fill-opacity=".501961" cx="0" cy="0" rx="1" ry="1" /></g><g transform="translate(115.477165 80.840616) rotate(33.188784) scale(18.888549 20.773814)"><ellipse fill="#000007" fill-opacity=".501961" cx="0" cy="0" rx="1" ry="1" /></g><g transform="translate(75.889696 92.560939) rotate(317.122563) scale(26.203505 17.972943)"><ellipse fill="#a3abac" fill-opacity=".501961" cx="0" cy="0" rx="1" ry="1" /></g><g transform="translate(122.322376 36.713050) rotate(328.953991) scale(46.663896 8.128491)"><ellipse fill="#788387" fill-opacity=".501961" cx="0" cy="0" rx="1" ry="1" /></g><g transform="translate(193.500596 11.487351) rotate(241.178326) scale(9.242388 62.803080)"><ellipse fill="#151a1d" fill-opacity=".501961" cx="0" cy="0" rx="1" ry="1" /></g><g transform="translate(0.000000 78.353321) rotate(360.916009) scale(18.767124 218.028773)"><ellipse fill="#1d1b14" fill-opacity=".501961" cx="0" cy="0" rx="1" ry="1" /></g></g></svg>