<svg xmlns="http://www.w3.org/2000/svg" viewBox="0 0 678 1024"><filter id="b"><feGaussianBlur stdDeviation="12" /></filter><path d="M0 0h678v1024H0z" fill="#6b7a5c" /><g filter="url(#b)" transform="scale(4.000000) translate(0.5 0.5)"><ellipse fill="#b7dd80" fill-opacity=".501961" cx="126" cy="24" rx="40" ry="123" /><ellipse fill="#0f2150" fill-opacity=".501961" cx="7" cy="200" rx="36" ry="221" /><path fill="#070000" fill-opacity=".501961" d="M71 157l31-36L63 50z" /><g transform="translate(140.211166 201.345710) rotate(280.780665) scale(93.215348 44.819106)"><ellipse fill="#88a433" fill-opacity=".501961" cx="0" cy="0" rx="1" ry="1" /></g><g transform="translate(110.655482 0.000000) rotate(50.008415) scale(42.761660 12.998524)"><ellipse fill="#d9e5f0" fill-opacity=".501961" cx="0" cy="0" rx="1" ry="1" /></g><g transform="translate(50.899542 62.621349) rotate(361.153423) scale(14.977084 64.806440)"><ellipse fill="#8387a6" fill-opacity=".501961" cx="0" cy="0" rx="1" ry="1" /></g><ellipse fill="#0a0c00" fill-opacity=".501961" cx="3" cy="198" rx="10" ry="70" /><g transform="translate(57.243124 250.778079) rotate(367.327892) scale(6.975766 20.551777)"><ellipse fill="#ffd6ca" fill-opacity=".501961" cx="0" cy="0" rx="1" ry="1" /></g></g></svg>