<svg xmlns="http://www.w3.org/2000/svg" viewBox="0 0 1024 684"><filter id="b"><feGaussianBlur stdDeviation="12" /></filter><path d="M0 0h1024v684H0z" fill="#6c6841" /><g filter="url(#b)" transform="scale(4.000000) translate(0.5 0.5)"><g transform="translate(111.058792 24.149863) rotate(340.267265) scale(76.943391 52.481905)"><ellipse fill="#ffffc0" fill-opacity=".501961" cx="0" cy="0" rx="1" ry="1" /></g><g transform="translate(152.169728 141.242891) rotate(122.920537) scale(81.538718 54.839569)"><ellipse fill="#000002" fill-opacity=".501961" cx="0" cy="0" rx="1" ry="1" /></g><ellipse fill="#000228" fill-opacity=".501961" cx="63" cy="157" rx="27" ry="62" /><g transform="translate(101.971987 23.999473) rotate(3.403018) scale(33.983171 54.695438)"><ellipse fill="#ffffac" fill-opacity=".501961" cx="0" cy="0" rx="1" ry="1" /></g><g transform="translate(148 49) rotate(166) scale(32 19)"><path d="M0 0h1024v684H0z" fill="#00000c" /></g><ellipse fill="#ffe4dc" fill-opacity=".501961" cx="86" cy="101" rx="8" ry="31" /><path d="M0 0h1024v684H0z" fill="#ede071" /><g transform="translate(153.865088 137.245934) rotate(251.820629) scale(51.099091 28.454153)"><ellipse fill="#00000d" fill-opacity=".501961" cx="0" cy="0" rx="1" ry="1" /></g></g></svg>