<svg xmlns="http://www.w3.org/2000/svg" viewBox="0 0 684 1024"><filter id="b"><feGaussianBlur stdDeviation="12" /></filter><path d="M0 0h684v1024H0z" fill="#605d4d" /><g filter="url(#b)" transform="scale(4.000000) translate(0.5 0.5)"><g transform="translate(34.340116 121.972202) rotate(174.984866) scale(21.178001 79.430734)"><ellipse fill="#c6ca5b" fill-opacity=".501961" cx="0" cy="0" rx="1" ry="1" /></g><g transform="translate(157.675112 113.042397) rotate(306.473048) scale(79.747711 15.061378)"><ellipse fill="#000200" fill-opacity=".501961" cx="0" cy="0" rx="1" ry="1" /></g><g transform="translate(16.042860 255.000000) rotate(124.770922) scale(37.933176 40.147672)"><ellipse fill="#080004" fill-opacity=".501961" cx="0" cy="0" rx="1" ry="1" /></g><ellipse fill="#a06a9b" fill-opacity=".501961" cx="100" cy="215" rx="54" ry="28" /><ellipse fill="#021000" fill-opacity=".501961" cx="0" cy="34" rx="42" ry="27" /><g transform="translate(158.468549 244.532415) rotate(298.503807) scale(88.694419 18.830002)"><ellipse fill="#000012" fill-opacity=".501961" cx="0" cy="0" rx="1" ry="1" /></g><g transform="translate(65.557832 60.493340) rotate(290.403622) scale(46.263780 24.047488)"><ellipse fill="#9ea165" fill-opacity=".501961" cx="0" cy="0" rx="1" ry="1" /></g><g transform="translate(90.439593 109.253247) rotate(192.969296) scale(17.743103 35.485303)"><ellipse fill="#2b53b0" fill-opacity=".501961" cx="0" cy="0" rx="1" ry="1" /></g></g></svg>