<svg xmlns="http://www.w3.org/2000/svg" viewBox="0 0 678 1024"><filter id="b"><feGaussianBlur stdDeviation="12" /></filter><path d="M0 0h678v1024H0z" fill="#464843" /><g filter="url(#b)" transform="scale(4.000000) translate(0.5 0.5)"><g transform="translate(22 193) rotate(210) scale(108 147)"><path d="M0 0h678v1024H0z" fill="#adb2b3" /></g><g transform="translate(135.958299 93.809676) rotate(75.521849) scale(168.000000 52.753738)"><ellipse fill="#020000" fill-opacity=".501961" cx="0" cy="0" rx="1" ry="1" /></g><ellipse fill="#83827b" fill-opacity=".501961" cx="28" cy="58" rx="41" ry="80" /><g transform="translate(88.947503 146.783078) rotate(104.240904) scale(34.690640 18.582540)"><ellipse fill="#cbc1c8" fill-opacity=".501961" cx="0" cy="0" rx="1" ry="1" /></g><g transform="translate(112.049710 226.014344) rotate(307.351733) scale(21.389821 78.998667)"><ellipse fill="#0e1a04" fill-opacity=".501961" cx="0" cy="0" rx="1" ry="1" /></g><g transform="translate(44 116) rotate(170) scale(8 91)"><path d="M0 0h678v1024H0z" fill="#fffaef" /></g><path fill="#000" fill-opacity=".501961" d="M56 138l77-9-40 21z" /><ellipse fill="#0b0e05" fill-opacity=".501961" cx="33" cy="12" rx="12" ry="48" /></g></svg>