<svg xmlns="http://www.w3.org/2000/svg" viewBox="0 0 1024 684"><filter id="b"><feGaussianBlur stdDeviation="12" /></filter><path d="M0 0h1024v684H0z" fill="#525e69" /><g filter="url(#b)" transform="scale(4.000000) translate(0.5 0.5)"><g transform="translate(39.487318 51.302275) rotate(97.148463) scale(50.915223 128.504908)"><ellipse fill="#d0d7db" fill-opacity=".501961" cx="0" cy="0" rx="1" ry="1" /></g><g transform="translate(140.177368 158.203521) rotate(270.254632) scale(45.871563 252.646744)"><ellipse fill="#000" fill-opacity=".501961" cx="0" cy="0" rx="1" ry="1" /></g><g transform="translate(191.315799 81.198582) rotate(12.281173) scale(17.872199 45.964710)"><ellipse fill="#000" fill-opacity=".501961" cx="0" cy="0" rx="1" ry="1" /></g><ellipse fill="#cacfd1" fill-opacity=".501961" cx="26" cy="52" rx="98" ry="23" /><ellipse fill="#235488" fill-opacity=".501961" cx="180" cy="16" rx="99" ry="28" /><ellipse fill="#16120c" fill-opacity=".501961" cx="79" cy="152" rx="134" ry="19" /><g transform="translate(196.071658 49.331080) rotate(59.271271) scale(31.422229 11.549679)"><ellipse fill="#050000" fill-opacity=".501961" cx="0" cy="0" rx="1" ry="1" /></g><path fill="#73797a" fill-opacity=".501961" d="M157 127l22-54-195 6z" /></g></svg>