<svg xmlns="http://www.w3.org/2000/svg" viewBox="0 0 1024 683"><filter id="b"><feGaussianBlur stdDeviation="12" /></filter><path d="M0 0h1024v683H0z" fill="#223444" /><g filter="url(#b)" transform="scale(4.000000) translate(0.5 0.5)"><g transform="translate(228.680648 129.428150) rotate(109.394749) scale(86.787211 41.523818)"><ellipse fill="#919baa" fill-opacity=".501961" cx="0" cy="0" rx="1" ry="1" /></g><g transform="translate(233.859335 161.165010) rotate(223.051448) scale(24.431586 26.816610)"><ellipse fill="#cdc7b0" fill-opacity=".501961" cx="0" cy="0" rx="1" ry="1" /></g><path fill="#000003" fill-opacity=".501961" d="M270 28-8 108 95 138z" /><g transform="translate(221.187349 120.967154) rotate(203.679666) scale(54.290429 4.822394)"><ellipse fill="#000" fill-opacity=".501961" cx="0" cy="0" rx="1" ry="1" /></g><ellipse fill="#00071d" fill-opacity=".501961" cx="54" cy="15" rx="92" ry="31" /><g transform="translate(43.841538 65.998437) rotate(123.044718) scale(20.285002 32.835167)"><ellipse fill="#91675b" fill-opacity=".501961" cx="0" cy="0" rx="1" ry="1" /></g><g transform="translate(10 100) rotate(300) scale(27 55)"><path d="M0 0h1024v683H0z" fill="#000" /></g><g transform="translate(113.076877 68.234247) rotate(311.283007) scale(213.291672 28.700091)"><ellipse fill="#00273f" fill-opacity=".501961" cx="0" cy="0" rx="1" ry="1" /></g></g></svg>