<svg xmlns="http://www.w3.org/2000/svg" viewBox="0 0 1024 682"><filter id="b"><feGaussianBlur stdDeviation="12" /></filter><path d="M0 0h1024v682H0z" fill="#41372f" /><g filter="url(#b)" transform="scale(4.000000) translate(0.5 0.5)"><g transform="translate(20.023433 0.000000) rotate(279.606772) scale(21.468614 120.251242)"><ellipse fill="#77ecff" fill-opacity=".501961" cx="0" cy="0" rx="1" ry="1" /></g><path fill="#f6cf9f" fill-opacity=".501961" d="M231 91 186 70l15 115z" /><g transform="translate(91.425143 67.869324) rotate(250.311017) scale(30.059387 26.406743)"><ellipse fill="#ff761e" fill-opacity=".501961" cx="0" cy="0" rx="1" ry="1" /></g><ellipse fill="#001a29" fill-opacity=".501961" cx="173" cy="28" rx="64" ry="64" /><g transform="translate(195.931124 167.976403) rotate(151.609424) scale(44.478510 26.768494)"><ellipse fill="#ff9943" fill-opacity=".501961" cx="0" cy="0" rx="1" ry="1" /></g><path fill="#000" fill-opacity=".501961" d="M255 118 124 163 30 85z" /><g transform="translate(74.215455 149.600933) rotate(130.550002) scale(22.162706 100.950494)"><ellipse fill="#b02b00" fill-opacity=".501961" cx="0" cy="0" rx="1" ry="1" /></g><path d="M0 0h1024v682H0z" fill="#fff" /></g></svg>