<svg xmlns="http://www.w3.org/2000/svg" viewBox="0 0 1024 684"><filter id="b"><feGaussianBlur stdDeviation="12" /></filter><path d="M0 0h1024v684H0z" fill="#9b9288" /><g filter="url(#b)" transform="scale(4.000000) translate(0.5 0.5)"><g transform="translate(111.491555 0.000000) rotate(197.533092) scale(163.823164 52.867819)"><ellipse fill="#fff" fill-opacity=".501961" cx="0" cy="0" rx="1" ry="1" /></g><g transform="translate(39.770792 163.570425) rotate(8.699434) scale(174.747854 43.240116)"><ellipse fill="#070300" fill-opacity=".501961" cx="0" cy="0" rx="1" ry="1" /></g><ellipse fill="#685832" fill-opacity=".501961" cx="202" cy="144" rx="77" ry="77" /><g transform="translate(125.686459 30.801358) rotate(231.145238) scale(50.127255 43.278151)"><ellipse fill="#fff" fill-opacity=".501961" cx="0" cy="0" rx="1" ry="1" /></g><g transform="translate(11.738376 143.487207) rotate(293.912089) scale(32.752864 58.898480)"><ellipse fill="#0e0d00" fill-opacity=".501961" cx="0" cy="0" rx="1" ry="1" /></g><ellipse fill="#cfc2a2" fill-opacity=".501961" cx="103" cy="135" rx="18" ry="18" /><g transform="translate(181 89) rotate(119) scale(30 44)"><path d="M0 0h1024v684H0z" fill="#e0cbb6" /></g><ellipse fill="#806452" fill-opacity=".501961" cx="31" cy="46" rx="44" ry="25" /></g></svg>