<svg xmlns="http://www.w3.org/2000/svg" viewBox="0 0 1024 683"><filter id="b"><feGaussianBlur stdDeviation="12" /></filter><path d="M0 0h1024v683H0z" fill="#6e6e5b" /><g filter="url(#b)" transform="scale(4.000000) translate(0.5 0.5)"><g transform="translate(109.286157 8.830891) rotate(174.492518) scale(223.622009 23.177324)"><ellipse fill="#fff" fill-opacity=".501961" cx="0" cy="0" rx="1" ry="1" /></g><g transform="translate(132.269598 132.038185) rotate(144.706308) scale(155.255468 96.137771)"><ellipse fill="#3b3b24" fill-opacity=".501961" cx="0" cy="0" rx="1" ry="1" /></g><g transform="translate(72.231181 0.000000) rotate(177.566332) scale(88.081407 36.758399)"><ellipse fill="#fff" fill-opacity=".501961" cx="0" cy="0" rx="1" ry="1" /></g><g transform="translate(98.886204 61.899335) rotate(239.594209) scale(23.947916 57.592251)"><ellipse fill="#ad984b" fill-opacity=".501961" cx="0" cy="0" rx="1" ry="1" /></g><ellipse fill="#fff" fill-opacity=".501961" cx="146" cy="7" rx="255" ry="10" /><g transform="translate(140.735498 103.245140) rotate(163.051842) scale(46.357646 23.668660)"><ellipse fill="#001a32" fill-opacity=".501961" cx="0" cy="0" rx="1" ry="1" /></g><g transform="translate(239.982278 136.617993) rotate(299.110645) scale(27.071581 61.390874)"><ellipse fill="#8f8605" fill-opacity=".501961" cx="0" cy="0" rx="1" ry="1" /></g><g transform="translate(68.149422 15.485319) rotate(180.210401) scale(74.919842 18.580417)"><ellipse fill="#fff" fill-opacity=".501961" cx="0" cy="0" rx="1" ry="1" /></g></g></svg>