<svg xmlns="http://www.w3.org/2000/svg" viewBox="0 0 1024 684"><filter id="b"><feGaussianBlur stdDeviation="12" /></filter><path d="M0 0h1024v684H0z" fill="#3d3c2a" /><g filter="url(#b)" transform="scale(4.000000) translate(0.5 0.5)"><g transform="translate(114.582393 72.343075) rotate(86.854566) scale(17.014567 118.191114)"><ellipse fill="#ffbf4a" fill-opacity=".501961" cx="0" cy="0" rx="1" ry="1" /></g><g transform="translate(98.926073 158.033973) rotate(104.536685) scale(40.746457 255.000000)"><ellipse fill="#000" fill-opacity=".501961" cx="0" cy="0" rx="1" ry="1" /></g><g transform="translate(142.304349 117.309475) rotate(272.603489) scale(10.273957 58.192570)"><ellipse fill="#ffc200" fill-opacity=".501961" cx="0" cy="0" rx="1" ry="1" /></g><g transform="translate(97.236085 26.629540) rotate(-8.467931) scale(216.583620 39.233934)"><ellipse fill="#1e637c" fill-opacity=".501961" cx="0" cy="0" rx="1" ry="1" /></g><ellipse fill="#000" fill-opacity=".501961" cx="219" cy="97" rx="195" ry="12" /><ellipse fill="#ffbf1a" fill-opacity=".501961" cx="72" cy="81" rx="101" ry="9" /><g transform="translate(182.319045 50.921279) rotate(102.887368) scale(22.082793 97.543158)"><ellipse fill="#7b6155" fill-opacity=".501961" cx="0" cy="0" rx="1" ry="1" /></g><ellipse fill="#000" fill-opacity=".501961" cx="41" cy="147" rx="58" ry="58" /></g></svg>