<svg xmlns="http://www.w3.org/2000/svg" viewBox="0 0 683 1024"><filter id="b"><feGaussianBlur stdDeviation="12" /></filter><path d="M0 0h683v1024H0z" fill="#565c51" /><g filter="url(#b)" transform="scale(4.000000) translate(0.5 0.5)"><g transform="translate(91.695830 112.231805) rotate(115.455389) scale(92.940724 55.330941)"><ellipse fill="#8c9a89" fill-opacity=".501961" cx="0" cy="0" rx="1" ry="1" /></g><g transform="translate(2.378759 123.446903) rotate(178.253943) scale(28.464117 170.000000)"><ellipse fill="#181116" fill-opacity=".501961" cx="0" cy="0" rx="1" ry="1" /></g><g transform="translate(27.381043 16.183796) rotate(242.357751) scale(25.142821 30.679575)"><ellipse fill="#030003" fill-opacity=".501961" cx="0" cy="0" rx="1" ry="1" /></g><g transform="translate(100.857606 247.719842) rotate(181.124421) scale(154.767507 21.298943)"><ellipse fill="#161611" fill-opacity=".501961" cx="0" cy="0" rx="1" ry="1" /></g><g transform="translate(153.184498 154.614542) rotate(10.362869) scale(78.931091 24.744984)"><ellipse fill="#39433d" fill-opacity=".501961" cx="0" cy="0" rx="1" ry="1" /></g><g transform="translate(137 0) rotate(274) scale(35 71)"><path d="M0 0h683v1024H0z" fill="#062100" /></g><ellipse fill="#95948f" fill-opacity=".501961" cx="67" cy="99" rx="42" ry="37" /><g transform="translate(115.620664 33.635751) rotate(179.196058) scale(11.356632 52.104559)"><ellipse fill="#384b32" fill-opacity=".501961" cx="0" cy="0" rx="1" ry="1" /></g></g></svg>