<svg xmlns="http://www.w3.org/2000/svg" viewBox="0 0 683 1024"><filter id="b"><feGaussianBlur stdDeviation="12" /></filter><path d="M0 0h683v1024H0z" fill="#3e4938" /><g filter="url(#b)" transform="scale(4.000000) translate(0.5 0.5)"><path d="M0 0h683v1024H0z" fill="#ceb6c5" /><ellipse fill="#17243d" fill-opacity=".501961" cx="73" cy="222" rx="112" ry="112" /><g transform="translate(45.902763 38.178253) rotate(151.785441) scale(90.585116 47.432944)"><ellipse fill="#717c24" fill-opacity=".501961" cx="0" cy="0" rx="1" ry="1" /></g><g transform="translate(75 224) rotate(288) scale(35 16)"><path d="M0 0h683v1024H0z" fill="#b5a697" /></g><path fill="#1d93b8" fill-opacity=".501961" d="M114 102l-2 75 26-68z" /><ellipse fill="#c4f2ff" fill-opacity=".501961" cx="92" cy="103" rx="11" ry="14" /><path d="M0 0h683v1024H0z" fill="#ff0469" /><g transform="translate(12.219031 193.051958) rotate(202.753981) scale(38.155614 20.206956)"><ellipse fill="#6c686b" fill-opacity=".501961" cx="0" cy="0" rx="1" ry="1" /></g></g></svg>