<svg xmlns="http://www.w3.org/2000/svg" viewBox="0 0 1024 682"><filter id="b"><feGaussianBlur stdDeviation="12" /></filter><path d="M0 0h1024v682H0z" fill="#4b4b4b" /><g filter="url(#b)" transform="scale(4.000000) translate(0.5 0.5)"><g transform="translate(140.561853 127.357052) rotate(185.897614) scale(67.697394 25.506943)"><ellipse fill="#fafafa" fill-opacity=".501961" cx="0" cy="0" rx="1" ry="1" /></g><g transform="translate(29.008503 77.540356) rotate(182.202668) scale(41.443231 158.018193)"><ellipse fill="#0f0f0f" fill-opacity=".501961" cx="0" cy="0" rx="1" ry="1" /></g><g transform="translate(121.415440 34.417098) rotate(39.617171) scale(31.516118 11.842287)"><ellipse fill="#c5c5c5" fill-opacity=".501961" cx="0" cy="0" rx="1" ry="1" /></g><ellipse fill="#9f9f9f" fill-opacity=".501961" cx="171" cy="169" rx="42" ry="67" /><g transform="translate(103.620916 122.919563) rotate(19.810736) scale(35.245571 8.428225)"><ellipse fill="#fff" fill-opacity=".501961" cx="0" cy="0" rx="1" ry="1" /></g><path d="M0 0h1024v682H0z" fill="#000" /><ellipse fill="#272727" fill-opacity=".501961" cx="216" cy="48" rx="68" ry="68" /><path fill="#d4d4d4" fill-opacity=".501961" d="M155.592289 29.574258 166.62193 19.343109 107.865729 37.424485 127.785895 9.580586z" /></g></svg>