<svg xmlns="http://www.w3.org/2000/svg" viewBox="0 0 1024 684"><filter id="b"><feGaussianBlur stdDeviation="12" /></filter><path d="M0 0h1024v684H0z" fill="#6d695d" /><g filter="url(#b)" transform="scale(4.000000) translate(0.5 0.5)"><g transform="translate(86.666672 1.559870) rotate(221.527906) scale(22.561938 32.055469)"><ellipse fill="#f7ffff" fill-opacity=".501961" cx="0" cy="0" rx="1" ry="1" /></g><g transform="translate(0.000000 45.941404) rotate(214.670824) scale(16.403922 122.659025)"><ellipse fill="#b3fcff" fill-opacity=".501961" cx="0" cy="0" rx="1" ry="1" /></g><g transform="translate(44.648028 67.959240) rotate(-83.888321) scale(53.623207 30.829335)"><ellipse fill="#29281c" fill-opacity=".501961" cx="0" cy="0" rx="1" ry="1" /></g><g transform="translate(75.430408 3.060842) rotate(260.891662) scale(29.531651 23.356013)"><ellipse fill="#b9f0ff" fill-opacity=".501961" cx="0" cy="0" rx="1" ry="1" /></g><path d="M0 0h1024v684H0z" fill="#1c1a15" /><g transform="translate(126.909823 96.566439) rotate(326.721626) scale(29.562647 63.484084)"><ellipse fill="#9d8e77" fill-opacity=".501961" cx="0" cy="0" rx="1" ry="1" /></g><path d="M0 0h1024v684H0z" fill="#231000" /><g transform="translate(68.283224 60.021755) rotate(89.028357) scale(16.755619 35.642146)"><ellipse fill="#84628d" fill-opacity=".501961" cx="0" cy="0" rx="1" ry="1" /></g></g></svg>