<svg xmlns="http://www.w3.org/2000/svg" viewBox="0 0 683 1024"><filter id="b"><feGaussianBlur stdDeviation="12" /></filter><path d="M0 0h683v1024H0z" fill="#595549" /><g filter="url(#b)" transform="scale(4.000000) translate(0.5 0.5)"><g transform="translate(75.282080 31.745213) rotate(221.663475) scale(43.058482 77.828766)"><ellipse fill="#fffff3" fill-opacity=".501961" cx="0" cy="0" rx="1" ry="1" /></g><ellipse fill="#000" fill-opacity=".501961" cx="78" cy="246" rx="83" ry="83" /><g transform="translate(45.137390 130.426993) rotate(339.071801) scale(15.473802 44.322793)"><ellipse fill="#fcdfc3" fill-opacity=".501961" cx="0" cy="0" rx="1" ry="1" /></g><g transform="translate(155.818942 87.342950) rotate(97.710420) scale(108.448674 34.612499)"><ellipse fill="#0e0800" fill-opacity=".501961" cx="0" cy="0" rx="1" ry="1" /></g><g transform="translate(170.000000 193.926696) rotate(223.363319) scale(13.847091 28.963360)"><ellipse fill="#fff" fill-opacity=".501961" cx="0" cy="0" rx="1" ry="1" /></g><path fill="#fff5e3" fill-opacity=".501961" d="M33-16-16 71 19 52z" /><g transform="translate(50 159) rotate(65) scale(14 52)"><path d="M0 0h683v1024H0z" fill="#fff" /></g><ellipse fill="#fff4e5" fill-opacity=".501961" cx="55" cy="37" rx="13" ry="69" /></g></svg>