<svg xmlns="http://www.w3.org/2000/svg" viewBox="0 0 1024 683"><filter id="b"><feGaussianBlur stdDeviation="12" /></filter><path d="M0 0h1024v683H0z" fill="#506656" /><g filter="url(#b)" transform="scale(4.000000) translate(0.5 0.5)"><g transform="translate(55.815836 0.000000) rotate(0.236823) scale(117.643140 35.603744)"><ellipse fill="#b0ffff" fill-opacity=".501961" cx="0" cy="0" rx="1" ry="1" /></g><g transform="translate(210.585718 63.303165) rotate(86.454769) scale(55.662473 123.059303)"><ellipse fill="#001610" fill-opacity=".501961" cx="0" cy="0" rx="1" ry="1" /></g><g transform="translate(10.200176 146.946111) rotate(292.789803) scale(23.239625 109.744163)"><ellipse fill="#e7b6a3" fill-opacity=".501961" cx="0" cy="0" rx="1" ry="1" /></g><g transform="translate(184.141062 162.708986) rotate(185.464406) scale(74.875623 49.598928)"><ellipse fill="#8c9827" fill-opacity=".501961" cx="0" cy="0" rx="1" ry="1" /></g><ellipse fill="#82bbf9" fill-opacity=".501961" cx="67" cy="9" rx="77" ry="30" /><path fill="#ffb0c4" fill-opacity=".501961" d="M89 84 49 67 30 91z" /><ellipse fill="#9dd3ff" fill-opacity=".501961" cx="225" cy="2" rx="91" ry="4" /><g transform="translate(9 86) rotate(308) scale(31 44)"><path d="M0 0h1024v683H0z" fill="#001505" /></g></g></svg>