<svg xmlns="http://www.w3.org/2000/svg" viewBox="0 0 1024 683"><filter id="b"><feGaussianBlur stdDeviation="12" /></filter><path d="M0 0h1024v683H0z" fill="#8e8b64" /><g filter="url(#b)" transform="scale(4.000000) translate(0.5 0.5)"><ellipse fill="#fff" fill-opacity=".501961" cx="255" cy="49" rx="72" ry="72" /><g transform="translate(124.932080 158.448600) rotate(167.610821) scale(118.546668 49.370020)"><ellipse fill="#2d0000" fill-opacity=".501961" cx="0" cy="0" rx="1" ry="1" /></g><g transform="translate(84 98) rotate(71) scale(33 91)"><path d="M0 0h1024v683H0z" fill="#fff" /></g><g transform="translate(211.014920 64.788480) rotate(248.833360) scale(24.974286 43.543961)"><ellipse fill="#fff" fill-opacity=".501961" cx="0" cy="0" rx="1" ry="1" /></g><g transform="translate(6.805426 27.576444) rotate(130.440511) scale(29.711247 45.905722)"><ellipse fill="#223a00" fill-opacity=".501961" cx="0" cy="0" rx="1" ry="1" /></g><g transform="translate(145.816233 74.240486) rotate(422.366989) scale(38.513369 14.010744)"><ellipse fill="#150000" fill-opacity=".501961" cx="0" cy="0" rx="1" ry="1" /></g><g transform="translate(206.931506 3.872540) rotate(103.517970) scale(25.792769 44.485191)"><ellipse fill="#fff" fill-opacity=".501961" cx="0" cy="0" rx="1" ry="1" /></g><g transform="translate(105.188669 77.620313) rotate(305.371203) scale(13.878769 34.429519)"><ellipse fill="#fff" fill-opacity=".501961" cx="0" cy="0" rx="1" ry="1" /></g></g></svg>