<svg xmlns="http://www.w3.org/2000/svg" viewBox="0 0 1024 684"><filter id="b"><feGaussianBlur stdDeviation="12" /></filter><path d="M0 0h1024v684H0z" fill="#969ba6" /><g filter="url(#b)" transform="scale(4.000000) translate(0.5 0.5)"><g transform="translate(31.660091 126.662949) rotate(39.747231) scale(38.849737 96.058950)"><ellipse fill="#00145e" fill-opacity=".501961" cx="0" cy="0" rx="1" ry="1" /></g><g transform="translate(230.755435 42.369155) rotate(269.493182) scale(118.271702 37.656075)"><ellipse fill="#ffffe8" fill-opacity=".501961" cx="0" cy="0" rx="1" ry="1" /></g><g transform="translate(183 114) rotate(191) scale(38 48)"><path d="M0 0h1024v684H0z" fill="#000" /></g><ellipse fill="#ffeed1" fill-opacity=".501961" cx="147" cy="14" rx="128" ry="33" /><ellipse fill="#0031aa" fill-opacity=".501961" cx="64" cy="169" rx="125" ry="13" /><g transform="translate(107.976158 135.061172) rotate(259.846877) scale(13.980023 59.292809)"><ellipse fill="#e5ffff" fill-opacity=".501961" cx="0" cy="0" rx="1" ry="1" /></g><g transform="translate(83.971022 88.874390) rotate(214.681188) scale(37.099934 27.842522)"><ellipse fill="#232227" fill-opacity=".501961" cx="0" cy="0" rx="1" ry="1" /></g><g transform="translate(33 56) rotate(-40) scale(33 54)"><path d="M0 0h1024v684H0z" fill="#f7e9db" /></g></g></svg>