<svg xmlns="http://www.w3.org/2000/svg" viewBox="0 0 1024 684"><filter id="b"><feGaussianBlur stdDeviation="12" /></filter><path d="M0 0h1024v684H0z" fill="#234b65" /><g filter="url(#b)" transform="scale(4.000000) translate(0.5 0.5)"><g transform="translate(84.877316 14.439114) rotate(5.692131) scale(255.000000 36.924889)"><ellipse fill="#44b4f8" fill-opacity=".501961" cx="0" cy="0" rx="1" ry="1" /></g><g transform="translate(179.930880 141.932997) rotate(162.307355) scale(144.187811 59.471811)"><ellipse fill="#080000" fill-opacity=".501961" cx="0" cy="0" rx="1" ry="1" /></g><g transform="translate(128.207520 58.017804) rotate(286.346447) scale(24.234611 52.984676)"><ellipse fill="#0b0c0f" fill-opacity=".501961" cx="0" cy="0" rx="1" ry="1" /></g><g transform="translate(30.432960 39.462340) rotate(79.860643) scale(11.824991 79.499119)"><ellipse fill="#a6d0ee" fill-opacity=".501961" cx="0" cy="0" rx="1" ry="1" /></g><g transform="translate(232.651108 54.835555) rotate(370.493406) scale(84.319840 11.727933)"><ellipse fill="#6ab4e0" fill-opacity=".501961" cx="0" cy="0" rx="1" ry="1" /></g><ellipse fill="#0067af" fill-opacity=".501961" cx="227" cy="8" rx="84" ry="20" /><g transform="translate(171.497586 151.335336) rotate(273.104958) scale(16.478133 100.665094)"><ellipse fill="#0b0501" fill-opacity=".501961" cx="0" cy="0" rx="1" ry="1" /></g><g transform="translate(5.915624 143.166637) rotate(251.480268) scale(64.015466 37.707629)"><ellipse fill="#17242e" fill-opacity=".501961" cx="0" cy="0" rx="1" ry="1" /></g></g></svg>