<svg xmlns="http://www.w3.org/2000/svg" viewBox="0 0 1024 684"><filter id="b"><feGaussianBlur stdDeviation="12" /></filter><path d="M0 0h1024v684H0z" fill="#2a5372" /><g filter="url(#b)" transform="scale(4.000000) translate(0.5 0.5)"><g transform="translate(66.531062 37.768142) rotate(266.331458) scale(50.062891 104.592710)"><ellipse fill="#46c7ff" fill-opacity=".501961" cx="0" cy="0" rx="1" ry="1" /></g><ellipse fill="#160000" fill-opacity=".501961" cx="119" cy="140" rx="155" ry="60" /><g transform="translate(44.743045 66.398251) rotate(356.463538) scale(51.852570 22.554662)"><ellipse fill="#c3d5fe" fill-opacity=".501961" cx="0" cy="0" rx="1" ry="1" /></g><g transform="translate(181.230622 4.596287) rotate(270.223219) scale(44.694976 184.962520)"><ellipse fill="#006dc4" fill-opacity=".501961" cx="0" cy="0" rx="1" ry="1" /></g><g transform="translate(253 72) rotate(174) scale(29 71)"><path d="M0 0h1024v684H0z" fill="#9df" /></g><path fill="#b4d7fe" fill-opacity=".501961" d="M189.186691 37.160742 215.363965 41.648237 207.832798 94.875945 189.262859 60.349381z" /><path fill="#bcf1ff" fill-opacity=".501961" d="M137.698661 66.999643 156.993681 76.874746 179.831016 73.196021 161.917877 48.861752z" /><g transform="translate(28.876022 133.572879) rotate(227.149257) scale(52.194100 32.746705)"><ellipse fill="#040300" fill-opacity=".501961" cx="0" cy="0" rx="1" ry="1" /></g></g></svg>