<svg xmlns="http://www.w3.org/2000/svg" viewBox="0 0 1024 684"><filter id="b"><feGaussianBlur stdDeviation="12" /></filter><path d="M0 0h1024v684H0z" fill="#19597c" /><g filter="url(#b)" transform="scale(4.000000) translate(0.5 0.5)"><g transform="translate(86.671674 35.276212) rotate(171.539684) scale(175.481000 41.444292)"><ellipse fill="#3fcfff" fill-opacity=".501961" cx="0" cy="0" rx="1" ry="1" /></g><g transform="translate(178.403122 102.809315) rotate(256.851729) scale(38.234471 239.910376)"><ellipse fill="#030003" fill-opacity=".501961" cx="0" cy="0" rx="1" ry="1" /></g><g transform="translate(57.545173 63.174850) rotate(104.051393) scale(19.491988 69.913975)"><ellipse fill="#cce4ff" fill-opacity=".501961" cx="0" cy="0" rx="1" ry="1" /></g><path d="M0 0h1024v684H0z" fill="#000005" /><g transform="translate(0.000000 86.732882) rotate(49.612501) scale(59.361971 21.782916)"><ellipse fill="#000" fill-opacity=".501961" cx="0" cy="0" rx="1" ry="1" /></g><ellipse fill="#0076d0" fill-opacity=".501961" cx="129" cy="11" rx="138" ry="30" /><g transform="translate(129.381210 162.194171) rotate(265.899321) scale(18.251043 58.719092)"><ellipse fill="#0082d3" fill-opacity=".501961" cx="0" cy="0" rx="1" ry="1" /></g><ellipse fill="#018ed5" fill-opacity=".501961" cx="7" cy="142" rx="77" ry="7" /></g></svg>