<svg xmlns="http://www.w3.org/2000/svg" viewBox="0 0 1024 683"><filter id="b"><feGaussianBlur stdDeviation="12" /></filter><path d="M0 0h1024v683H0z" fill="#b27f86" /><g filter="url(#b)" transform="scale(4.000000) translate(0.5 0.5)"><ellipse fill="#e20010" fill-opacity=".501961" cx="101" cy="165" rx="76" ry="80" /><path fill="#f2fffc" fill-opacity=".501961" d="M180.570508 125.826419 151.307165 119.110437 101.963139.402847 152.93192 1.018951z" /><ellipse fill="#99cebf" fill-opacity=".501961" cx="228" cy="86" rx="54" ry="140" /><g transform="translate(123.099542 84.961487) rotate(49.262256) scale(28.186933 18.755736)"><ellipse fill="#8d000f" fill-opacity=".501961" cx="0" cy="0" rx="1" ry="1" /></g><g transform="translate(61 111) rotate(45) scale(58 21)"><path d="M0 0h1024v683H0z" fill="#000413" /></g><ellipse fill="#e70040" fill-opacity=".501961" cx="117" cy="144" rx="46" ry="46" /><g transform="translate(4.037539 156.810407) rotate(25.432594) scale(16.216108 27.476248)"><ellipse fill="#e1ffff" fill-opacity=".501961" cx="0" cy="0" rx="1" ry="1" /></g><ellipse fill="#6a9180" fill-opacity=".501961" cx="20" cy="47" rx="32" ry="58" /></g></svg>