<svg xmlns="http://www.w3.org/2000/svg" viewBox="0 0 1024 684"><filter id="b"><feGaussianBlur stdDeviation="12" /></filter><path d="M0 0h1024v684H0z" fill="#736a80" /><g filter="url(#b)" transform="scale(4.000000) translate(0.5 0.5)"><g transform="translate(61.876444 135.886152) rotate(45.416320) scale(59.348864 75.578684)"><ellipse fill="#2e0000" fill-opacity=".501961" cx="0" cy="0" rx="1" ry="1" /></g><ellipse fill="#d5e3df" fill-opacity=".501961" cx="39" cy="32" rx="76" ry="35" /><path fill="#a1c5e5" fill-opacity=".501961" d="M210 34 113 186l158-20z" /><g transform="translate(133.853120 65.948992) rotate(231.125780) scale(36.748705 16.106361)"><ellipse fill="#000f1f" fill-opacity=".501961" cx="0" cy="0" rx="1" ry="1" /></g><ellipse fill="#4e0012" fill-opacity=".501961" cx="60" cy="162" rx="69" ry="68" /><g transform="translate(237.152768 21.774278) rotate(196.619575) scale(98.056979 11.095882)"><ellipse fill="#c5d0c4" fill-opacity=".501961" cx="0" cy="0" rx="1" ry="1" /></g><g transform="translate(68 15) rotate(340) scale(10 44)"><path d="M0 0h1024v684H0z" fill="#0c0e1f" /></g><g transform="translate(153.414877 114.535840) rotate(23.957731) scale(19.407563 10.653903)"><ellipse fill="#c6e3f9" fill-opacity=".501961" cx="0" cy="0" rx="1" ry="1" /></g></g></svg>