<svg xmlns="http://www.w3.org/2000/svg" viewBox="0 0 684 1024"><filter id="b"><feGaussianBlur stdDeviation="12" /></filter><path d="M0 0h684v1024H0z" fill="#565c5b" /><g filter="url(#b)" transform="scale(4.000000) translate(0.5 0.5)"><ellipse fill="#000" fill-opacity=".501961" cx="107" cy="207" rx="63" ry="63" /><ellipse fill="#d7d0bc" fill-opacity=".501961" cx="52" cy="4" rx="88" ry="88" /><g transform="translate(46.974744 200.114202) rotate(195.905694) scale(28.352810 92.264273)"><ellipse fill="#003038" fill-opacity=".501961" cx="0" cy="0" rx="1" ry="1" /></g><g transform="translate(88.707378 0.000000) rotate(293.038481) scale(24.431034 50.497759)"><ellipse fill="#c3fbff" fill-opacity=".501961" cx="0" cy="0" rx="1" ry="1" /></g><ellipse fill="#000009" fill-opacity=".501961" cx="112" cy="198" rx="51" ry="51" /><g transform="translate(44.244580 168.089066) rotate(40.610247) scale(19.696649 47.773934)"><ellipse fill="#009591" fill-opacity=".501961" cx="0" cy="0" rx="1" ry="1" /></g><g transform="translate(73 246) rotate(290) scale(25 22)"><path d="M0 0h684v1024H0z" fill="#b4dbff" /></g><ellipse fill="#a1885b" fill-opacity=".501961" cx="27" cy="66" rx="43" ry="68" /></g></svg>