<svg xmlns="http://www.w3.org/2000/svg" viewBox="0 0 1024 684"><filter id="b"><feGaussianBlur stdDeviation="12" /></filter><path d="M0 0h1024v684H0z" fill="#463c3b" /><g filter="url(#b)" transform="scale(4.000000) translate(0.5 0.5)"><g transform="translate(20.347655 120.164960) rotate(77.101960) scale(217.795123 30.497308)"><ellipse fill="#fafbff" fill-opacity=".501961" cx="0" cy="0" rx="1" ry="1" /></g><g transform="translate(246.977018 86.242698) rotate(281.314124) scale(87.552722 56.466017)"><ellipse fill="#000" fill-opacity=".501961" cx="0" cy="0" rx="1" ry="1" /></g><g transform="translate(48.285049 57.218044) rotate(172.518567) scale(27.136547 36.529210)"><ellipse fill="#7f0000" fill-opacity=".501961" cx="0" cy="0" rx="1" ry="1" /></g><g transform="translate(100.190341 170.000000) rotate(250.430290) scale(65.698647 35.247455)"><ellipse fill="#000" fill-opacity=".501961" cx="0" cy="0" rx="1" ry="1" /></g><g transform="translate(69.765570 91.694398) rotate(30.632704) scale(35.943855 7.460478)"><ellipse fill="#ffc8ba" fill-opacity=".501961" cx="0" cy="0" rx="1" ry="1" /></g><g transform="translate(156.429977 64.309330) rotate(28.722590) scale(129.660812 38.642326)"><ellipse fill="#0c0705" fill-opacity=".501961" cx="0" cy="0" rx="1" ry="1" /></g><g transform="translate(190.307601 25.319565) rotate(173.574808) scale(30.876376 17.342139)"><ellipse fill="#c1ac8d" fill-opacity=".501961" cx="0" cy="0" rx="1" ry="1" /></g><path fill="#fff" fill-opacity=".501961" d="M-1 11l38 2L5 65z" /></g></svg>