<svg xmlns="http://www.w3.org/2000/svg" viewBox="0 0 684 1024"><filter id="b"><feGaussianBlur stdDeviation="12" /></filter><path d="M0 0h684v1024H0z" fill="#605244" /><g filter="url(#b)" transform="scale(4.000000) translate(0.5 0.5)"><g transform="translate(50.014453 201.468116) rotate(127.106306) scale(72.701543 62.755166)"><ellipse fill="#b07447" fill-opacity=".501961" cx="0" cy="0" rx="1" ry="1" /></g><g transform="translate(153.718558 217.331481) rotate(65.497984) scale(61.933597 28.337689)"><ellipse fill="#000812" fill-opacity=".501961" cx="0" cy="0" rx="1" ry="1" /></g><path d="M0 0h684v1024H0z" fill="#f1aaac" /><path fill="#000009" fill-opacity=".501961" d="M59 112l14 42-27 55z" /><path fill="#0f0002" fill-opacity=".501961" d="M130.362423 59.840836 97.874744 76.144131 72.971666 61.960743 164.3072 54.05039z" /><g transform="translate(26.417636 182.162896) rotate(283.432008) scale(57.614412 16.249456)"><ellipse fill="#c58f68" fill-opacity=".501961" cx="0" cy="0" rx="1" ry="1" /></g><g transform="translate(70.667048 14.601102) rotate(180.960692) scale(79.107233 31.808275)"><ellipse fill="#273a3d" fill-opacity=".501961" cx="0" cy="0" rx="1" ry="1" /></g><path fill="#281c11" fill-opacity=".501961" d="M-16 161l65-43L74 28z" /></g></svg>