<svg xmlns="http://www.w3.org/2000/svg" viewBox="0 0 1024 684"><filter id="b"><feGaussianBlur stdDeviation="12" /></filter><path d="M0 0h1024v684H0z" fill="#6c6841" /><g filter="url(#b)" transform="scale(4.000000) translate(0.5 0.5)"><g transform="translate(113.453191 24.260847) rotate(241.890915) scale(49.008904 82.632999)"><ellipse fill="#ffffc2" fill-opacity=".501961" cx="0" cy="0" rx="1" ry="1" /></g><g transform="translate(148.525573 170.000000) rotate(290.498385) scale(105.414724 61.277940)"><ellipse fill="#000" fill-opacity=".501961" cx="0" cy="0" rx="1" ry="1" /></g><ellipse fill="#000229" fill-opacity=".501961" cx="64" cy="170" rx="27" ry="79" /><g transform="translate(111.605130 7.660945) rotate(18.087102) scale(34.676465 86.044476)"><ellipse fill="#fffea7" fill-opacity=".501961" cx="0" cy="0" rx="1" ry="1" /></g><ellipse fill="#280420" fill-opacity=".501961" cx="147" cy="52" rx="16" ry="16" /><ellipse fill="#ffd5d4" fill-opacity=".501961" cx="85" cy="105" rx="8" ry="27" /><ellipse fill="#1f0e0e" fill-opacity=".501961" cx="199" cy="0" rx="13" ry="145" /><g transform="translate(179 47) rotate(-12) scale(23 34)"><path d="M0 0h1024v684H0z" fill="#d9f2d7" /></g></g></svg>