<svg xmlns="http://www.w3.org/2000/svg" viewBox="0 0 1024 684"><filter id="b"><feGaussianBlur stdDeviation="12" /></filter><path d="M0 0h1024v684H0z" fill="#686f71" /><g filter="url(#b)" transform="scale(4.000000) translate(0.5 0.5)"><g transform="translate(111.898113 149.185824) rotate(132.535605) scale(101.850301 32.183502)"><ellipse fill="#001" fill-opacity=".501961" cx="0" cy="0" rx="1" ry="1" /></g><g transform="translate(31.263803 22.366237) rotate(265.978648) scale(42.076721 92.549373)"><ellipse fill="#f2d3a8" fill-opacity=".501961" cx="0" cy="0" rx="1" ry="1" /></g><ellipse fill="#9dc2fb" fill-opacity=".501961" cx="204" cy="153" rx="51" ry="41" /><ellipse fill="#c8efff" fill-opacity=".501961" cx="24" cy="168" rx="40" ry="21" /><g transform="translate(91.406430 107.808845) rotate(309.523339) scale(48.041891 26.303967)"><ellipse fill="#005e5e" fill-opacity=".501961" cx="0" cy="0" rx="1" ry="1" /></g><g transform="translate(222.644264 48.908488) rotate(350.918663) scale(17.524336 89.778811)"><ellipse fill="#30281e" fill-opacity=".501961" cx="0" cy="0" rx="1" ry="1" /></g><path fill="#ff313a" fill-opacity=".501961" d="M106 137l57 49H107z" /><g transform="translate(30.202599 104.273128) rotate(81.772161) scale(34.144308 24.138302)"><ellipse fill="#2f2b38" fill-opacity=".501961" cx="0" cy="0" rx="1" ry="1" /></g></g></svg>