<svg xmlns="http://www.w3.org/2000/svg" viewBox="0 0 1024 678"><filter id="b"><feGaussianBlur stdDeviation="12" /></filter><path d="M0 0h1024v678H0z" fill="#8b8886" /><g filter="url(#b)" transform="scale(4.000000) translate(0.5 0.5)"><g transform="translate(61.004854 116.816181) rotate(263.743741) scale(20.165064 131.470346)"><ellipse fill="#2b0100" fill-opacity=".501961" cx="0" cy="0" rx="1" ry="1" /></g><g transform="translate(124.928653 12.405593) rotate(86.530553) scale(41.896426 176.411111)"><ellipse fill="#daf0ff" fill-opacity=".501961" cx="0" cy="0" rx="1" ry="1" /></g><g transform="translate(220.690027 82.699705) rotate(372.647575) scale(32.866459 13.340724)"><ellipse fill="#080d00" fill-opacity=".501961" cx="0" cy="0" rx="1" ry="1" /></g><path fill="#2e2925" fill-opacity=".501961" d="M-16 72 93 145l10-97z" /><path d="M0 0h1024v678H0z" fill="#b3673a" /><ellipse fill="#ddf4fe" fill-opacity=".501961" cx="255" cy="59" rx="20" ry="21" /><ellipse fill="#a2a697" fill-opacity=".501961" cx="2" cy="109" rx="27" ry="25" /><g transform="translate(64.085911 114.936296) rotate(266.242719) scale(19.306840 32.896306)"><ellipse fill="#000308" fill-opacity=".501961" cx="0" cy="0" rx="1" ry="1" /></g></g></svg>