<svg xmlns="http://www.w3.org/2000/svg" viewBox="0 0 1024 678"><filter id="b"><feGaussianBlur stdDeviation="12" /></filter><path d="M0 0h1024v678H0z" fill="#1e1f1f" /><g filter="url(#b)" transform="scale(4.000000) translate(0.5 0.5)"><path d="M0 0h1024v678H0z" fill="#9e5b07" /><g transform="translate(93.637849 78.321380) rotate(16.649099) scale(87.817499 32.232344)"><ellipse fill="#41454e" fill-opacity=".501961" cx="0" cy="0" rx="1" ry="1" /></g><g transform="translate(13.032796 139.884923) rotate(380.907611) scale(153.896069 56.681783)"><ellipse fill="#000" fill-opacity=".501961" cx="0" cy="0" rx="1" ry="1" /></g><g transform="translate(95.370775 103.788755) rotate(197.776902) scale(28.189025 10.186158)"><ellipse fill="#7d4200" fill-opacity=".501961" cx="0" cy="0" rx="1" ry="1" /></g><g transform="translate(212.760463 125.140367) rotate(49.970535) scale(44.665685 26.664624)"><ellipse fill="#263344" fill-opacity=".501961" cx="0" cy="0" rx="1" ry="1" /></g><g transform="translate(206.470805 16.026185) rotate(211.168911) scale(245.138784 43.047377)"><ellipse fill="#040b14" fill-opacity=".501961" cx="0" cy="0" rx="1" ry="1" /></g><path fill="#b66e16" fill-opacity=".501961" d="M150 113l18 33-27 13z" /><path fill="#000" fill-opacity=".501961" d="M132 162l84 16-56-28z" /></g></svg>