<svg xmlns="http://www.w3.org/2000/svg" viewBox="0 0 1024 684"><filter id="b"><feGaussianBlur stdDeviation="12" /></filter><path d="M0 0h1024v684H0z" fill="#89665c" /><g filter="url(#b)" transform="scale(4.000000) translate(0.5 0.5)"><g transform="translate(59.682439 20.323835) rotate(339.510926) scale(113.073684 55.514043)"><ellipse fill="#f9ffff" fill-opacity=".501961" cx="0" cy="0" rx="1" ry="1" /></g><g transform="translate(73.453106 123.761403) rotate(304.614811) scale(80.219546 50.171986)"><ellipse fill="#730000" fill-opacity=".501961" cx="0" cy="0" rx="1" ry="1" /></g><g transform="translate(185.595712 151.898387) rotate(161.282082) scale(65.206183 23.821275)"><ellipse fill="#000700" fill-opacity=".501961" cx="0" cy="0" rx="1" ry="1" /></g><g transform="translate(165.940071 112.032787) rotate(94.828284) scale(29.994298 33.375756)"><ellipse fill="#ffbf0d" fill-opacity=".501961" cx="0" cy="0" rx="1" ry="1" /></g><ellipse fill="#f6ffff" fill-opacity=".501961" cx="44" cy="0" rx="49" ry="40" /><g transform="translate(2.522062 146.396023) rotate(180.452952) scale(20.094979 30.895130)"><ellipse fill="#000e0b" fill-opacity=".501961" cx="0" cy="0" rx="1" ry="1" /></g><path fill="#162f31" fill-opacity=".501961" d="M271 15 234-16 214 158z" /><ellipse fill="#ca001f" fill-opacity=".501961" cx="82" cy="109" rx="42" ry="35" /></g></svg>