<svg xmlns="http://www.w3.org/2000/svg" viewBox="0 0 1024 684"><filter id="b"><feGaussianBlur stdDeviation="12" /></filter><path d="M0 0h1024v684H0z" fill="#050820" /><g filter="url(#b)" transform="scale(4.000000) translate(0.5 0.5)"><g transform="translate(135.284787 154.663663) rotate(265.137348) scale(18.874575 98.138604)"><ellipse fill="#1e339f" fill-opacity=".501961" cx="0" cy="0" rx="1" ry="1" /></g><g transform="translate(129.807206 157.654879) rotate(266.129538) scale(5.831766 29.958874)"><ellipse fill="#56b2ff" fill-opacity=".501961" cx="0" cy="0" rx="1" ry="1" /></g><g transform="translate(194.102709 54.649703) rotate(171.244200) scale(14.901480 43.415607)"><ellipse fill="#4c2d7c" fill-opacity=".501961" cx="0" cy="0" rx="1" ry="1" /></g><g transform="translate(49.837730 35.288215) rotate(336.529736) scale(143.278461 84.202521)"><ellipse fill="#000" fill-opacity=".501961" cx="0" cy="0" rx="1" ry="1" /></g><ellipse fill="#000" fill-opacity=".501961" cx="246" cy="46" rx="29" ry="88" /><ellipse fill="#0d054c" fill-opacity=".501961" cx="206" cy="155" rx="57" ry="24" /><g transform="translate(188.739947 63.401735) rotate(-68.322172) scale(31.250244 12.286887)"><ellipse fill="#3e2876" fill-opacity=".501961" cx="0" cy="0" rx="1" ry="1" /></g><g transform="translate(49.337225 153.337448) rotate(257.245582) scale(14.110792 71.184105)"><ellipse fill="#000841" fill-opacity=".501961" cx="0" cy="0" rx="1" ry="1" /></g></g></svg>