<svg xmlns="http://www.w3.org/2000/svg" viewBox="0 0 1024 684"><filter id="b"><feGaussianBlur stdDeviation="12" /></filter><path d="M0 0h1024v684H0z" fill="#665954" /><g filter="url(#b)" transform="scale(4.000000) translate(0.5 0.5)"><g transform="translate(69.908408 13.404931) rotate(191.742726) scale(94.062436 26.033245)"><ellipse fill="#fffabc" fill-opacity=".501961" cx="0" cy="0" rx="1" ry="1" /></g><g transform="translate(163.297763 86.647802) rotate(169.529942) scale(66.121603 32.478423)"><ellipse fill="#000006" fill-opacity=".501961" cx="0" cy="0" rx="1" ry="1" /></g><ellipse fill="#273a55" fill-opacity=".501961" cx="222" cy="36" rx="53" ry="80" /><g transform="translate(24.604488 121.867508) rotate(296.158464) scale(28.359791 34.125140)"><ellipse fill="#c98a59" fill-opacity=".501961" cx="0" cy="0" rx="1" ry="1" /></g><g transform="translate(55 71) rotate(275) scale(52 60)"><path d="M0 0h1024v684H0z" fill="#271d22" /></g><g transform="translate(33.016377 0.000000) rotate(320.211284) scale(26.463080 51.365216)"><ellipse fill="#ffd3b1" fill-opacity=".501961" cx="0" cy="0" rx="1" ry="1" /></g><g transform="translate(201.000442 161.694995) rotate(-14.348427) scale(111.907178 45.763518)"><ellipse fill="#6b778d" fill-opacity=".501961" cx="0" cy="0" rx="1" ry="1" /></g><g transform="translate(68.673681 147.619362) rotate(44.978779) scale(12.364067 125.513239)"><ellipse fill="#351706" fill-opacity=".501961" cx="0" cy="0" rx="1" ry="1" /></g></g></svg>