<svg xmlns="http://www.w3.org/2000/svg" viewBox="0 0 678 1024"><filter id="b"><feGaussianBlur stdDeviation="12" /></filter><path d="M0 0h678v1024H0z" fill="#9ba9b0" /><g filter="url(#b)" transform="scale(4.000000) translate(0.5 0.5)"><g transform="translate(75.756815 160.108615) rotate(178.251241) scale(17.328014 80.812696)"><ellipse fill="#000015" fill-opacity=".501961" cx="0" cy="0" rx="1" ry="1" /></g><g transform="translate(20.106098 218.292354) rotate(392.732036) scale(38.571479 58.741837)"><ellipse fill="#fff" fill-opacity=".501961" cx="0" cy="0" rx="1" ry="1" /></g><g transform="translate(122 25) rotate(284) scale(81 52)"><path d="M0 0h678v1024H0z" fill="#1b4e6d" /></g><g transform="translate(140.609830 192.564014) rotate(89.393561) scale(25.088139 52.430304)"><ellipse fill="#fff" fill-opacity=".501961" cx="0" cy="0" rx="1" ry="1" /></g><g transform="translate(41.290805 71.960542) rotate(111.286400) scale(89.660810 22.936116)"><ellipse fill="#e4e8e4" fill-opacity=".501961" cx="0" cy="0" rx="1" ry="1" /></g><g transform="translate(0.000000 47.266820) rotate(91.857938) scale(73.098202 15.419404)"><ellipse fill="#25251e" fill-opacity=".501961" cx="0" cy="0" rx="1" ry="1" /></g><path fill="#192a45" fill-opacity=".501961" d="M104 152 62 235 70 89z" /><g transform="translate(54.666786 251.101589) rotate(60.237835) scale(92.739596 18.889345)"><ellipse fill="#fffef9" fill-opacity=".501961" cx="0" cy="0" rx="1" ry="1" /></g></g></svg>