<svg xmlns="http://www.w3.org/2000/svg" viewBox="0 0 1024 683"><filter id="b"><feGaussianBlur stdDeviation="12" /></filter><path d="M0 0h1024v683H0z" fill="#6e6e5b" /><g filter="url(#b)" transform="scale(4.000000) translate(0.5 0.5)"><g transform="translate(103.821222 0.000000) rotate(264.553846) scale(33.232218 210.053226)"><ellipse fill="#fff" fill-opacity=".501961" cx="0" cy="0" rx="1" ry="1" /></g><ellipse fill="#3a3b1f" fill-opacity=".501961" cx="187" cy="161" rx="149" ry="149" /><ellipse fill="#fff" fill-opacity=".501961" cx="62" cy="0" rx="114" ry="31" /><g transform="translate(225.083670 8.864348) rotate(184.519507) scale(135.620653 7.996559)"><ellipse fill="#fff" fill-opacity=".501961" cx="0" cy="0" rx="1" ry="1" /></g><g transform="translate(107.289008 61.026129) rotate(58.035548) scale(24.057490 68.713562)"><ellipse fill="#9f8b4a" fill-opacity=".501961" cx="0" cy="0" rx="1" ry="1" /></g><ellipse fill="#fff" fill-opacity=".501961" cx="66" cy="13" rx="76" ry="21" /><ellipse fill="#38354c" fill-opacity=".501961" cx="49" cy="149" rx="148" ry="59" /><g transform="translate(242.090015 134.577089) rotate(116.544901) scale(27.877999 59.805708)"><ellipse fill="#928903" fill-opacity=".501961" cx="0" cy="0" rx="1" ry="1" /></g></g></svg>