<svg xmlns="http://www.w3.org/2000/svg" viewBox="0 0 1024 683"><filter id="b"><feGaussianBlur stdDeviation="12" /></filter><path d="M0 0h1024v683H0z" fill="#506656" /><g filter="url(#b)" transform="scale(4.000000) translate(0.5 0.5)"><g transform="translate(86.491662 0.000000) rotate(352.205149) scale(102.147864 35.843526)"><ellipse fill="#adfeff" fill-opacity=".501961" cx="0" cy="0" rx="1" ry="1" /></g><g transform="translate(196.855508 63.720272) rotate(81.606319) scale(55.237306 120.379243)"><ellipse fill="#001a14" fill-opacity=".501961" cx="0" cy="0" rx="1" ry="1" /></g><g transform="translate(27.021135 169.000000) rotate(387.745373) scale(144.795536 36.265615)"><ellipse fill="#eab8a5" fill-opacity=".501961" cx="0" cy="0" rx="1" ry="1" /></g><g transform="translate(183.802627 154.957680) rotate(196.287377) scale(69.268536 46.163505)"><ellipse fill="#8c992c" fill-opacity=".501961" cx="0" cy="0" rx="1" ry="1" /></g><path fill="#fda7bc" fill-opacity=".501961" d="M35 84l69 4L53 65z" /><g transform="translate(62.209043 14.246347) rotate(360.772466) scale(75.651934 24.402965)"><ellipse fill="#7fb9f7" fill-opacity=".501961" cx="0" cy="0" rx="1" ry="1" /></g><g transform="translate(219 0) rotate(269) scale(12 84)"><path d="M0 0h1024v683H0z" fill="#b2e1ff" /></g><ellipse fill="#000c00" fill-opacity=".501961" cx="5" cy="90" rx="24" ry="18" /></g></svg>