<svg xmlns="http://www.w3.org/2000/svg" viewBox="0 0 1024 683"><filter id="b"><feGaussianBlur stdDeviation="12" /></filter><path d="M0 0h1024v683H0z" fill="#5d5f31" /><g filter="url(#b)" transform="scale(4.000000) translate(0.5 0.5)"><g transform="translate(65.128941 7.627746) rotate(176.323840) scale(119.289751 42.108907)"><ellipse fill="#fff" fill-opacity=".501961" cx="0" cy="0" rx="1" ry="1" /></g><g transform="translate(200.542748 124.061410) rotate(385.499067) scale(68.801990 130.188619)"><ellipse fill="#1e2400" fill-opacity=".501961" cx="0" cy="0" rx="1" ry="1" /></g><g transform="translate(93.896838 135.990247) rotate(209.199656) scale(31.956582 19.616892)"><ellipse fill="#a7a5d9" fill-opacity=".501961" cx="0" cy="0" rx="1" ry="1" /></g><g transform="translate(27.673372 143.555660) rotate(144.896316) scale(38.249107 101.598271)"><ellipse fill="#002b00" fill-opacity=".501961" cx="0" cy="0" rx="1" ry="1" /></g><g transform="translate(31.104148 18.231590) rotate(9.908476) scale(96.442001 18.432277)"><ellipse fill="#ffeaab" fill-opacity=".501961" cx="0" cy="0" rx="1" ry="1" /></g><ellipse fill="#886800" fill-opacity=".501961" cx="126" cy="70" rx="56" ry="30" /><ellipse fill="#010" fill-opacity=".501961" cx="73" cy="104" rx="53" ry="11" /><g transform="translate(230.886775 54.692653) rotate(-50.463856) scale(57.812361 37.250937)"><ellipse fill="#011f12" fill-opacity=".501961" cx="0" cy="0" rx="1" ry="1" /></g></g></svg>