<svg xmlns="http://www.w3.org/2000/svg" viewBox="0 0 1024 683"><filter id="b"><feGaussianBlur stdDeviation="12" /></filter><path d="M0 0h1024v683H0z" fill="#333d33" /><g filter="url(#b)" transform="scale(4.000000) translate(0.5 0.5)"><g transform="translate(56.162215 64.171544) rotate(104.584915) scale(30.917102 19.804840)"><ellipse fill="#fff" fill-opacity=".501961" cx="0" cy="0" rx="1" ry="1" /></g><g transform="translate(50.745428 71.171510) rotate(-31.904267) scale(23.705838 18.072613)"><ellipse fill="#feffff" fill-opacity=".501961" cx="0" cy="0" rx="1" ry="1" /></g><path fill="#edeced" fill-opacity=".501961" d="M271 148 261 98l-38-8z" /><g transform="translate(205.221116 14.826898) rotate(282.665024) scale(28.093267 111.900983)"><ellipse fill="#000800" fill-opacity=".501961" cx="0" cy="0" rx="1" ry="1" /></g><g transform="translate(216.027019 144.339848) rotate(231.739964) scale(59.036410 32.348685)"><ellipse fill="#040600" fill-opacity=".501961" cx="0" cy="0" rx="1" ry="1" /></g><g transform="translate(168 98) rotate(225) scale(15 60)"><path d="M0 0h1024v683H0z" fill="#7da9d5" /></g><path fill="#6da2d2" fill-opacity=".501961" d="M121.540032 116.517495 122.693073 92.972861 56.971173 64.958876 91.829196 91.658956z" /><ellipse fill="#0c0900" fill-opacity=".501961" cx="103" cy="169" rx="98" ry="24" /></g></svg>