<svg xmlns="http://www.w3.org/2000/svg" viewBox="0 0 1024 683"><filter id="b"><feGaussianBlur stdDeviation="12" /></filter><path d="M0 0h1024v683H0z" fill="#2e2e25" /><g filter="url(#b)" transform="scale(4.000000) translate(0.5 0.5)"><g transform="translate(207.072358 65.956538) rotate(235.001107) scale(61.821755 19.335274)"><ellipse fill="#fffff8" fill-opacity=".501961" cx="0" cy="0" rx="1" ry="1" /></g><g transform="translate(126 93) rotate(73) scale(52 31)"><path d="M0 0h1024v683H0z" fill="#ffe5e8" /></g><g transform="translate(121.541025 162.670278) rotate(335.858308) scale(84.841136 7.951498)"><ellipse fill="#e2dfd6" fill-opacity=".501961" cx="0" cy="0" rx="1" ry="1" /></g><ellipse fill="#000" fill-opacity=".501961" cx="3" cy="64" rx="105" ry="105" /><g transform="translate(197.895383 76.251893) rotate(202.043328) scale(42.276017 30.237388)"><ellipse fill="#c6bdaa" fill-opacity=".501961" cx="0" cy="0" rx="1" ry="1" /></g><ellipse fill="#000200" fill-opacity=".501961" cx="94" cy="20" rx="105" ry="39" /><g transform="translate(248.363476 120.905964) rotate(89.329784) scale(64.195725 10.146233)"><ellipse fill="#000" fill-opacity=".501961" cx="0" cy="0" rx="1" ry="1" /></g><g transform="translate(187.183826 130.404289) rotate(66.195614) scale(14.196292 6.190557)"><ellipse fill="#fff" fill-opacity=".501961" cx="0" cy="0" rx="1" ry="1" /></g></g></svg>