<svg xmlns="http://www.w3.org/2000/svg" viewBox="0 0 1024 683"><filter id="b"><feGaussianBlur stdDeviation="12" /></filter><path d="M0 0h1024v683H0z" fill="#64707b" /><g filter="url(#b)" transform="scale(4.000000) translate(0.5 0.5)"><g transform="translate(236.245002 55.277198) rotate(214.547374) scale(75.024847 52.680154)"><ellipse fill="#baedff" fill-opacity=".501961" cx="0" cy="0" rx="1" ry="1" /></g><ellipse fill="#522c00" fill-opacity=".501961" cx="163" cy="152" rx="102" ry="57" /><g transform="translate(46.033859 16.920455) rotate(-19.343114) scale(83.525707 54.697339)"><ellipse fill="#1c396f" fill-opacity=".501961" cx="0" cy="0" rx="1" ry="1" /></g><ellipse fill="#8aaace" fill-opacity=".501961" cx="32" cy="114" rx="58" ry="22" /><ellipse fill="#648ccb" fill-opacity=".501961" cx="173" cy="33" rx="48" ry="48" /><g transform="translate(46.496522 169.000000) rotate(70.326750) scale(30.232515 48.622218)"><ellipse fill="#5e4400" fill-opacity=".501961" cx="0" cy="0" rx="1" ry="1" /></g><g transform="translate(246.566528 68.003157) rotate(288.072458) scale(49.336518 28.377737)"><ellipse fill="#badbff" fill-opacity=".501961" cx="0" cy="0" rx="1" ry="1" /></g><g transform="translate(132.035830 98.835299) rotate(173.756911) scale(11.762374 43.327854)"><ellipse fill="#3d1f00" fill-opacity=".501961" cx="0" cy="0" rx="1" ry="1" /></g></g></svg>