<svg xmlns="http://www.w3.org/2000/svg" viewBox="0 0 1024 683"><filter id="b"><feGaussianBlur stdDeviation="12" /></filter><path d="M0 0h1024v683H0z" fill="#8f8e8b" /><g filter="url(#b)" transform="scale(4.000000) translate(0.5 0.5)"><g transform="translate(120 115) rotate(27) scale(22 71)"><path d="M0 0h1024v683H0z" fill="#000010" /></g><g transform="translate(167.776055 151.557707) rotate(271.528521) scale(26.458988 58.408105)"><ellipse fill="#d5e2e7" fill-opacity=".501961" cx="0" cy="0" rx="1" ry="1" /></g><g transform="translate(16.175431 14.544905) rotate(86.945374) scale(47.799666 39.517661)"><ellipse fill="#f3dbc1" fill-opacity=".501961" cx="0" cy="0" rx="1" ry="1" /></g><g transform="translate(252.330376 50.469930) rotate(163.806569) scale(30.930016 36.724257)"><ellipse fill="#25313e" fill-opacity=".501961" cx="0" cy="0" rx="1" ry="1" /></g><g transform="translate(175.740732 26.497730) rotate(286.452181) scale(37.627467 53.903507)"><ellipse fill="#d0c1a7" fill-opacity=".501961" cx="0" cy="0" rx="1" ry="1" /></g><g transform="translate(15.205044 98.128137) rotate(319.798984) scale(30.513300 37.657344)"><ellipse fill="#4a4a48" fill-opacity=".501961" cx="0" cy="0" rx="1" ry="1" /></g><path fill="#39372f" fill-opacity=".501961" d="M70.865185 19.400629 123.863749-16 103.872532 19.489726 88.602107 45.378665z" /><g transform="translate(213.652922 97.544053) rotate(191.049487) scale(25.525014 16.391586)"><ellipse fill="#c2cccf" fill-opacity=".501961" cx="0" cy="0" rx="1" ry="1" /></g></g></svg>