<svg xmlns="http://www.w3.org/2000/svg" viewBox="0 0 1024 683"><filter id="b"><feGaussianBlur stdDeviation="12" /></filter><path d="M0 0h1024v683H0z" fill="#8e8b64" /><g filter="url(#b)" transform="scale(4.000000) translate(0.5 0.5)"><g transform="translate(255.000000 40.164844) rotate(186.547019) scale(65.785182 82.654405)"><ellipse fill="#fff" fill-opacity=".501961" cx="0" cy="0" rx="1" ry="1" /></g><g transform="translate(138.609075 169.000000) rotate(175.571999) scale(124.727911 57.933493)"><ellipse fill="#260000" fill-opacity=".501961" cx="0" cy="0" rx="1" ry="1" /></g><g transform="translate(91.076553 93.760650) rotate(74.992321) scale(19.348353 45.198844)"><ellipse fill="#fff" fill-opacity=".501961" cx="0" cy="0" rx="1" ry="1" /></g><g transform="translate(208.829823 68.276089) rotate(342.347809) scale(40.991865 20.462729)"><ellipse fill="#fff" fill-opacity=".501961" cx="0" cy="0" rx="1" ry="1" /></g><g transform="translate(2.940248 40.673610) rotate(251.769477) scale(65.062548 40.249598)"><ellipse fill="#3b5400" fill-opacity=".501961" cx="0" cy="0" rx="1" ry="1" /></g><g transform="translate(221.860031 26.471129) rotate(86.337599) scale(81.010473 25.824820)"><ellipse fill="#fff" fill-opacity=".501961" cx="0" cy="0" rx="1" ry="1" /></g><g transform="translate(147.607373 75.817763) rotate(239.222401) scale(41.831128 15.169323)"><ellipse fill="#190002" fill-opacity=".501961" cx="0" cy="0" rx="1" ry="1" /></g><g transform="translate(49.047876 113.147203) rotate(140.115974) scale(32.726236 22.596172)"><ellipse fill="#fff48f" fill-opacity=".501961" cx="0" cy="0" rx="1" ry="1" /></g></g></svg>