<svg xmlns="http://www.w3.org/2000/svg" viewBox="0 0 1024 684"><filter id="b"><feGaussianBlur stdDeviation="12" /></filter><path d="M0 0h1024v684H0z" fill="#757f70" /><g filter="url(#b)" transform="scale(4.000000) translate(0.5 0.5)"><g transform="translate(167.477794 14.869077) rotate(108.836129) scale(66.041268 105.407534)"><ellipse fill="#d8ffff" fill-opacity=".501961" cx="0" cy="0" rx="1" ry="1" /></g><g transform="translate(195.703213 139.219488) rotate(378.824099) scale(119.045079 53.477125)"><ellipse fill="#011600" fill-opacity=".501961" cx="0" cy="0" rx="1" ry="1" /></g><ellipse fill="#2e1300" fill-opacity=".501961" cx="58" cy="15" rx="19" ry="48" /><path fill="#b9ddff" fill-opacity=".501961" d="M165-16 271 77 74 70z" /><path d="M0 0h1024v684H0z" fill="#273600" /><g transform="translate(223.056276 14.679799) rotate(90.989661) scale(33.448943 107.134376)"><ellipse fill="#68b2f3" fill-opacity=".501961" cx="0" cy="0" rx="1" ry="1" /></g><g transform="translate(55.160365 136.337139) rotate(-8.779484) scale(40.627481 68.957063)"><ellipse fill="#bf8e6b" fill-opacity=".501961" cx="0" cy="0" rx="1" ry="1" /></g><g transform="translate(95 7) rotate(212) scale(30 54)"><path d="M0 0h1024v684H0z" fill="#fff" /></g></g></svg>