<svg xmlns="http://www.w3.org/2000/svg" viewBox="0 0 1024 678"><filter id="b"><feGaussianBlur stdDeviation="12" /></filter><path d="M0 0h1024v678H0z" fill="#5e5c53" /><g filter="url(#b)" transform="scale(4.000000) translate(0.5 0.5)"><g transform="translate(101.219102 155.664046) rotate(80.082381) scale(26.624498 111.261963)"><ellipse fill="#000" fill-opacity=".501961" cx="0" cy="0" rx="1" ry="1" /></g><g transform="translate(146.626159 61.793978) rotate(-56.200338) scale(35.678911 111.352439)"><ellipse fill="#bbaba3" fill-opacity=".501961" cx="0" cy="0" rx="1" ry="1" /></g><g transform="translate(116.881409 152.274360) rotate(163.462394) scale(66.678235 33.837891)"><ellipse fill="#000" fill-opacity=".501961" cx="0" cy="0" rx="1" ry="1" /></g><path fill="#f7e1e4" fill-opacity=".501961" d="M129 25l73 36-43 24z" /><g transform="translate(232.230055 155.899956) rotate(313.371539) scale(15.251614 33.157208)"><ellipse fill="#000" fill-opacity=".501961" cx="0" cy="0" rx="1" ry="1" /></g><path fill="#2a0e04" fill-opacity=".501961" d="M192 78l7 32-64-16z" /><g transform="translate(199.785662 155.025305) rotate(57.990026) scale(22.551544 9.832147)"><ellipse fill="#9abcca" fill-opacity=".501961" cx="0" cy="0" rx="1" ry="1" /></g><g transform="translate(95.308865 162.570056) rotate(90.582970) scale(17.661987 95.839041)"><ellipse fill="#000" fill-opacity=".501961" cx="0" cy="0" rx="1" ry="1" /></g></g></svg>