<svg xmlns="http://www.w3.org/2000/svg" viewBox="0 0 1024 682"><filter id="b"><feGaussianBlur stdDeviation="12" /></filter><path d="M0 0h1024v682H0z" fill="#4b4b4b" /><g filter="url(#b)" transform="scale(4.000000) translate(0.5 0.5)"><g transform="translate(135.806546 125.453117) rotate(183.346483) scale(68.534837 23.406762)"><ellipse fill="#fff" fill-opacity=".501961" cx="0" cy="0" rx="1" ry="1" /></g><g transform="translate(26.903979 101.527031) rotate(364.087904) scale(41.862209 217.802734)"><ellipse fill="#0f0f0f" fill-opacity=".501961" cx="0" cy="0" rx="1" ry="1" /></g><g transform="translate(125.677683 37.423941) rotate(314.940191) scale(13.586604 27.081905)"><ellipse fill="#c6c6c6" fill-opacity=".501961" cx="0" cy="0" rx="1" ry="1" /></g><g transform="translate(176.002827 151.821360) rotate(256.777974) scale(50.129227 34.530965)"><ellipse fill="#aaa" fill-opacity=".501961" cx="0" cy="0" rx="1" ry="1" /></g><g transform="translate(92 71) rotate(165) scale(24 58)"><path d="M0 0h1024v682H0z" fill="#000" /></g><ellipse fill="#292929" fill-opacity=".501961" cx="231" cy="32" rx="88" ry="88" /><path fill="#fdfdfd" fill-opacity=".501961" d="M92.36663 108.292472 74.371022 118.959234 108.14898 135.288606 168.285441 134.939548z" /><g transform="translate(127.843145 23.712946) rotate(266.789373) scale(7.981614 35.370145)"><ellipse fill="#b8b8b8" fill-opacity=".501961" cx="0" cy="0" rx="1" ry="1" /></g></g></svg>