<svg xmlns="http://www.w3.org/2000/svg" viewBox="0 0 1024 683"><filter id="b"><feGaussianBlur stdDeviation="12" /></filter><path d="M0 0h1024v683H0z" fill="#4b544c" /><g filter="url(#b)" transform="scale(4.000000) translate(0.5 0.5)"><ellipse fill="#aaaab0" fill-opacity=".501961" cx="78" cy="169" rx="120" ry="120" /><g transform="translate(164.926511 24.091476) rotate(91.801243) scale(29.443816 226.340833)"><ellipse fill="#000" fill-opacity=".501961" cx="0" cy="0" rx="1" ry="1" /></g><g transform="translate(240 85) rotate(130) scale(127 133)"><path d="M0 0h1024v683H0z" fill="#000700" /></g><g transform="translate(99.732363 83.805130) rotate(303.336128) scale(20.650725 32.134842)"><ellipse fill="#1e2f35" fill-opacity=".501961" cx="0" cy="0" rx="1" ry="1" /></g><path fill="#dcd3d6" fill-opacity=".501961" d="M165 61 140 97 96 48z" /><ellipse fill="#001500" fill-opacity=".501961" cx="56" cy="28" rx="30" ry="31" /><ellipse fill="#959a95" fill-opacity=".501961" cx="186" cy="168" rx="45" ry="45" /><g transform="translate(102.509174 169.000000) rotate(391.536390) scale(53.271914 18.492336)"><ellipse fill="#3d342f" fill-opacity=".501961" cx="0" cy="0" rx="1" ry="1" /></g></g></svg>