<svg xmlns="http://www.w3.org/2000/svg" viewBox="0 0 683 1024"><filter id="b"><feGaussianBlur stdDeviation="12" /></filter><path d="M0 0h683v1024H0z" fill="#5b5a59" /><g filter="url(#b)" transform="scale(4.000000) translate(0.5 0.5)"><g transform="translate(16.301760 108.713663) rotate(277.783795) scale(168.727170 37.038867)"><ellipse fill="#000" fill-opacity=".501961" cx="0" cy="0" rx="1" ry="1" /></g><g transform="translate(138.872362 102.323091) rotate(-75.311180) scale(146.405171 61.066263)"><ellipse fill="#b1acac" fill-opacity=".501961" cx="0" cy="0" rx="1" ry="1" /></g><ellipse fill="#000" fill-opacity=".501961" cx="10" cy="231" rx="23" ry="255" /><g transform="translate(95 116) rotate(200) scale(18 44)"><path d="M0 0h683v1024H0z" fill="#0d0000" /></g><ellipse fill="#605f60" fill-opacity=".501961" cx="53" cy="147" rx="26" ry="66" /><g transform="translate(14.582911 234.956174) rotate(36.574080) scale(122.818281 15.901922)"><ellipse fill="#000" fill-opacity=".501961" cx="0" cy="0" rx="1" ry="1" /></g><g transform="translate(27.352050 20.171017) rotate(376.450180) scale(33.625699 95.132052)"><ellipse fill="#000" fill-opacity=".501961" cx="0" cy="0" rx="1" ry="1" /></g><ellipse fill="#a8afb4" fill-opacity=".501961" cx="140" cy="89" rx="20" ry="77" /></g></svg>