<svg xmlns="http://www.w3.org/2000/svg" viewBox="0 0 1024 678"><filter id="b"><feGaussianBlur stdDeviation="12" /></filter><path d="M0 0h1024v678H0z" fill="#aa9780" /><g filter="url(#b)" transform="scale(4.000000) translate(0.5 0.5)"><g transform="translate(77.231343 162.589189) rotate(225.034671) scale(26.234739 51.050111)"><ellipse fill="#190000" fill-opacity=".501961" cx="0" cy="0" rx="1" ry="1" /></g><g transform="translate(129.256925 72.409932) rotate(106.427766) scale(91.218362 5.790971)"><ellipse fill="#130000" fill-opacity=".501961" cx="0" cy="0" rx="1" ry="1" /></g><g transform="translate(168.922869 129.751069) rotate(194.995063) scale(39.751837 109.870343)"><ellipse fill="#d9c8b5" fill-opacity=".501961" cx="0" cy="0" rx="1" ry="1" /></g><g transform="translate(251.295441 30.328297) rotate(359.416456) scale(19.631441 142.125291)"><ellipse fill="#6a594a" fill-opacity=".501961" cx="0" cy="0" rx="1" ry="1" /></g><g transform="translate(66.704570 59.413744) rotate(216.312554) scale(43.498593 96.227118)"><ellipse fill="#ccb499" fill-opacity=".501961" cx="0" cy="0" rx="1" ry="1" /></g><g transform="translate(118.501901 101.822183) rotate(218.854846) scale(14.868954 30.116673)"><ellipse fill="#554030" fill-opacity=".501961" cx="0" cy="0" rx="1" ry="1" /></g><g transform="translate(221.347763 75.902867) rotate(330.604503) scale(30.279342 45.087160)"><ellipse fill="#ae9c8b" fill-opacity=".501961" cx="0" cy="0" rx="1" ry="1" /></g><g transform="translate(159.625357 37.495119) rotate(205.831659) scale(13.583608 52.496747)"><ellipse fill="#cabaa7" fill-opacity=".501961" cx="0" cy="0" rx="1" ry="1" /></g></g></svg>