<svg xmlns="http://www.w3.org/2000/svg" viewBox="0 0 1024 683"><filter id="b"><feGaussianBlur stdDeviation="12" /></filter><path d="M0 0h1024v683H0z" fill="#8e98a5" /><g filter="url(#b)" transform="scale(4.000000) translate(0.5 0.5)"><g transform="translate(112.813046 117.315405) rotate(2.484847) scale(132.857279 27.571176)"><ellipse fill="#383653" fill-opacity=".501961" cx="0" cy="0" rx="1" ry="1" /></g><g transform="translate(115 17) rotate(177) scale(217 109)"><path d="M0 0h1024v683H0z" fill="#efefdc" /></g><g transform="translate(144 113) rotate(130) scale(36 59)"><path d="M0 0h1024v683H0z" fill="#561400" /></g><ellipse fill="#fff095" fill-opacity=".501961" cx="72" cy="1" rx="210" ry="14" /><g transform="translate(12.101584 143.759500) rotate(132.352827) scale(70.970319 65.221574)"><ellipse fill="#4a759e" fill-opacity=".501961" cx="0" cy="0" rx="1" ry="1" /></g><g transform="translate(234.569099 124.886315) rotate(27.739342) scale(54.488986 42.512758)"><ellipse fill="#4d7aa5" fill-opacity=".501961" cx="0" cy="0" rx="1" ry="1" /></g><g transform="translate(25.732358 35.442114) rotate(5.269394) scale(50.259268 18.218629)"><ellipse fill="#6990b5" fill-opacity=".501961" cx="0" cy="0" rx="1" ry="1" /></g><ellipse fill="#73a0c7" fill-opacity=".501961" cx="182" cy="24" rx="77" ry="13" /></g></svg>