<svg xmlns="http://www.w3.org/2000/svg" viewBox="0 0 678 1024"><filter id="b"><feGaussianBlur stdDeviation="12" /></filter><path d="M0 0h678v1024H0z" fill="#7f8e99" /><g filter="url(#b)" transform="scale(4.000000) translate(0.5 0.5)"><g transform="translate(125.414633 18.748887) rotate(126.767263) scale(40.894897 167.984461)"><ellipse fill="#040000" fill-opacity=".501961" cx="0" cy="0" rx="1" ry="1" /></g><g transform="translate(28.450138 134.671013) rotate(68.064762) scale(76.754684 115.635561)"><ellipse fill="#d2eafc" fill-opacity=".501961" cx="0" cy="0" rx="1" ry="1" /></g><g transform="translate(160.712603 151.365929) rotate(275.022924) scale(87.726120 23.752182)"><ellipse fill="#221a11" fill-opacity=".501961" cx="0" cy="0" rx="1" ry="1" /></g><path fill="#add9ff" fill-opacity=".501961" d="M-16 8 7 172 42 8z" /><g transform="translate(37.504650 122.581190) rotate(155.855416) scale(69.045288 24.881982)"><ellipse fill="#d0f2ff" fill-opacity=".501961" cx="0" cy="0" rx="1" ry="1" /></g><path fill="#9d9379" fill-opacity=".501961" d="M-16 174l74 27 37-77z" /><g transform="translate(96.171033 226.790767) rotate(190.119390) scale(57.149682 38.867740)"><ellipse fill="#516b86" fill-opacity=".501961" cx="0" cy="0" rx="1" ry="1" /></g><ellipse fill="#8baabd" fill-opacity=".501961" cx="51" cy="65" rx="78" ry="21" /></g></svg>