<svg xmlns="http://www.w3.org/2000/svg" viewBox="0 0 1024 683"><filter id="b"><feGaussianBlur stdDeviation="12" /></filter><path d="M0 0h1024v683H0z" fill="#595f4b" /><g filter="url(#b)" transform="scale(4.000000) translate(0.5 0.5)"><g transform="translate(172.203846 152.687118) rotate(257.783084) scale(31.952553 176.136440)"><ellipse fill="#c9c6d8" fill-opacity=".501961" cx="0" cy="0" rx="1" ry="1" /></g><ellipse fill="#1e3400" fill-opacity=".501961" cx="43" cy="17" rx="180" ry="67" /><g transform="translate(63.557288 92.311439) rotate(173.417997) scale(35.663068 9.961935)"><ellipse fill="#feffff" fill-opacity=".501961" cx="0" cy="0" rx="1" ry="1" /></g><ellipse fill="#040110" fill-opacity=".501961" cx="71" cy="125" rx="52" ry="22" /><g transform="translate(249.276427 85.787515) rotate(199.953313) scale(16.943111 24.080161)"><ellipse fill="#e0d8dc" fill-opacity=".501961" cx="0" cy="0" rx="1" ry="1" /></g><g transform="translate(86.617341 14.293062) rotate(2.087950) scale(104.140799 15.372322)"><ellipse fill="#091b00" fill-opacity=".501961" cx="0" cy="0" rx="1" ry="1" /></g><g transform="translate(0.552437 110.044418) rotate(344.648692) scale(49.494449 12.751294)"><ellipse fill="#c6b3ad" fill-opacity=".501961" cx="0" cy="0" rx="1" ry="1" /></g><g transform="translate(190.712517 89.319900) rotate(104.637609) scale(18.755303 37.271259)"><ellipse fill="#181b2d" fill-opacity=".501961" cx="0" cy="0" rx="1" ry="1" /></g></g></svg>