<svg xmlns="http://www.w3.org/2000/svg" viewBox="0 0 2048 1367"><filter id="b"><feGaussianBlur stdDeviation="12" /></filter><path d="M0 0h2048v1367H0z" fill="#447c9d" /><g filter="url(#b)" transform="scale(8.000000) translate(0.5 0.5)"><g transform="translate(206.440949 57.147539) rotate(88.795365) scale(24.769635 94.981208)"><ellipse fill="#f4f9f0" fill-opacity=".501961" cx="0" cy="0" rx="1" ry="1" /></g><g transform="translate(70.717797 85.689965) rotate(90.320131) scale(11.499491 120.313400)"><ellipse fill="#000" fill-opacity=".501961" cx="0" cy="0" rx="1" ry="1" /></g><ellipse fill="#0096e1" fill-opacity=".501961" cx="73" cy="20" rx="195" ry="37" /><g transform="translate(155.733257 34.408529) rotate(292.292678) scale(34.389224 16.981576)"><ellipse fill="#e6d4c9" fill-opacity=".501961" cx="0" cy="0" rx="1" ry="1" /></g><path d="M0 0h2048v1367H0z" fill="#060000" /><path d="M0 0h2048v1367H0z" fill="#010000" /><g transform="translate(32.147093 146.764166) rotate(272.604704) scale(33.334436 65.324982)"><ellipse fill="#144169" fill-opacity=".501961" cx="0" cy="0" rx="1" ry="1" /></g><ellipse fill="#a0a8bd" fill-opacity=".501961" cx="223" cy="107" rx="149" ry="13" /></g></svg>