<svg xmlns="http://www.w3.org/2000/svg" viewBox="0 0 1024 684"><filter id="b"><feGaussianBlur stdDeviation="12" /></filter><path d="M0 0h1024v684H0z" fill="#516d7b" /><g filter="url(#b)" transform="scale(4.000000) translate(0.5 0.5)"><ellipse fill="#100000" fill-opacity=".501961" cx="67" cy="144" rx="199" ry="52" /><g transform="translate(72.311269 51.290255) rotate(273.568743) scale(40.966001 122.867108)"><ellipse fill="#d8f0ff" fill-opacity=".501961" cx="0" cy="0" rx="1" ry="1" /></g><g transform="translate(223.786498 64.399489) rotate(196.009910) scale(121.359150 46.836886)"><ellipse fill="#36ceff" fill-opacity=".501961" cx="0" cy="0" rx="1" ry="1" /></g><g transform="translate(247.253262 18.200962) rotate(459.789609) scale(40.663699 182.967306)"><ellipse fill="#006ec5" fill-opacity=".501961" cx="0" cy="0" rx="1" ry="1" /></g><ellipse fill="#0e0000" fill-opacity=".501961" cx="19" cy="136" rx="97" ry="48" /><g transform="translate(239.475576 96.635847) rotate(363.249276) scale(49.472098 17.759569)"><ellipse fill="#dff" fill-opacity=".501961" cx="0" cy="0" rx="1" ry="1" /></g><g transform="translate(60.870187 14.767285) rotate(287.915039) scale(12.929717 92.443366)"><ellipse fill="#cedaf6" fill-opacity=".501961" cx="0" cy="0" rx="1" ry="1" /></g><g transform="translate(141.744911 129.094016) rotate(39.967496) scale(49.811376 40.980696)"><ellipse fill="#573004" fill-opacity=".501961" cx="0" cy="0" rx="1" ry="1" /></g></g></svg>