<svg xmlns="http://www.w3.org/2000/svg" viewBox="0 0 1024 684"><filter id="b"><feGaussianBlur stdDeviation="12" /></filter><path d="M0 0h1024v684H0z" fill="#264e66" /><g filter="url(#b)" transform="scale(4.000000) translate(0.5 0.5)"><ellipse fill="#b6c0ca" fill-opacity=".501961" cx="58" cy="89" rx="197" ry="29" /><g transform="translate(147.959893 158.560578) rotate(87.625209) scale(43.897665 255.000000)"><ellipse fill="#000" fill-opacity=".501961" cx="0" cy="0" rx="1" ry="1" /></g><g transform="translate(125.012175 34.192700) rotate(2.642172) scale(255.000000 38.437121)"><ellipse fill="#0077c2" fill-opacity=".501961" cx="0" cy="0" rx="1" ry="1" /></g><ellipse fill="#000" fill-opacity=".501961" cx="176" cy="146" rx="255" ry="30" /><path fill="#ffe4cc" fill-opacity=".501961" d="M54.580166 72.41249 174.430379 99.702461 257.166311 113.46411 150.645249 70.345491z" /><g transform="translate(97.197128 100.054923) rotate(276.404689) scale(7.224911 132.805302)"><ellipse fill="#182c3f" fill-opacity=".501961" cx="0" cy="0" rx="1" ry="1" /></g><g transform="translate(234.227287 78.634413) rotate(287.683072) scale(24.932699 87.091110)"><ellipse fill="#2c78a8" fill-opacity=".501961" cx="0" cy="0" rx="1" ry="1" /></g><path fill="#000" fill-opacity=".501961" d="M-16 147l245-46 28 85z" /></g></svg>