<svg xmlns="http://www.w3.org/2000/svg" viewBox="0 0 1024 684"><filter id="b"><feGaussianBlur stdDeviation="12" /></filter><path d="M0 0h1024v684H0z" fill="#4a728d" /><g filter="url(#b)" transform="scale(4.000000) translate(0.5 0.5)"><g transform="translate(205.961798 52.551807) rotate(179.981692) scale(79.841794 31.998995)"><ellipse fill="#e3f3f0" fill-opacity=".501961" cx="0" cy="0" rx="1" ry="1" /></g><g transform="translate(79.998493 86.407504) rotate(0.080205) scale(122.283894 12.191358)"><ellipse fill="#000" fill-opacity=".501961" cx="0" cy="0" rx="1" ry="1" /></g><path fill="#0071be" fill-opacity=".501961" d="M-16 61 235 25-3-8z" /><path fill="#162a44" fill-opacity=".501961" d="M-16 186-10.908568 125.305707 71.742268 96.534686 104.325687 159.146606z" /><path fill="#aab4b5" fill-opacity=".501961" d="M168-16 188 85 113 70z" /><path fill="#532700" fill-opacity=".501961" d="M271 92.981505l-37.334993 4.150948L192.81741 95.802215 236.423415 72.810675z" /><g transform="translate(226.395096 63.483048) rotate(180.075530) scale(66.117684 9.949224)"><ellipse fill="#fff8ee" fill-opacity=".501961" cx="0" cy="0" rx="1" ry="1" /></g><g transform="translate(222.232424 114.254511) rotate(276.064240) scale(16.616158 84.435871)"><ellipse fill="#9599a8" fill-opacity=".501961" cx="0" cy="0" rx="1" ry="1" /></g></g></svg>