<svg xmlns="http://www.w3.org/2000/svg" viewBox="0 0 1024 684"><filter id="b"><feGaussianBlur stdDeviation="12" /></filter><path d="M0 0h1024v684H0z" fill="#53554f" /><g filter="url(#b)" transform="scale(4.000000) translate(0.5 0.5)"><g transform="translate(74.058846 7.034877) rotate(181.271986) scale(53.852074 31.561340)"><ellipse fill="#fff" fill-opacity=".501961" cx="0" cy="0" rx="1" ry="1" /></g><g transform="translate(218.547313 41.876794) rotate(180.708895) scale(101.234677 44.664621)"><ellipse fill="#000" fill-opacity=".501961" cx="0" cy="0" rx="1" ry="1" /></g><ellipse fill="#c3d0dc" fill-opacity=".501961" cx="63" cy="139" rx="55" ry="29" /><g transform="translate(59.018546 60.446845) rotate(8.073957) scale(86.032258 16.775007)"><ellipse fill="#100d00" fill-opacity=".501961" cx="0" cy="0" rx="1" ry="1" /></g><g transform="translate(59.732385 34.181308) rotate(89.291277) scale(19.162118 8.902666)"><ellipse fill="#f0f6fa" fill-opacity=".501961" cx="0" cy="0" rx="1" ry="1" /></g><path fill="#8e8e89" fill-opacity=".501961" d="M16 81l137 2 72 68z" /><ellipse fill="#0c0d08" fill-opacity=".501961" cx="254" cy="129" rx="29" ry="170" /><g transform="translate(9.711381 21.318780) rotate(309.792926) scale(14.708113 32.718297)"><ellipse fill="#000" fill-opacity=".501961" cx="0" cy="0" rx="1" ry="1" /></g></g></svg>