<svg xmlns="http://www.w3.org/2000/svg" viewBox="0 0 1024 683"><filter id="b"><feGaussianBlur stdDeviation="12" /></filter><path d="M0 0h1024v683H0z" fill="#675c53" /><g filter="url(#b)" transform="scale(4.000000) translate(0.5 0.5)"><g transform="translate(25.698751 74.989144) rotate(33.857898) scale(38.225625 49.711847)"><ellipse fill="#000" fill-opacity=".501961" cx="0" cy="0" rx="1" ry="1" /></g><g transform="translate(96.955255 162.832647) rotate(256.609395) scale(61.582047 82.093015)"><ellipse fill="#e1727b" fill-opacity=".501961" cx="0" cy="0" rx="1" ry="1" /></g><path d="M0 0h1024v683H0z" fill="#fff" /><path fill="#243311" fill-opacity=".501961" d="M88 122 75 72 271 62z" /><g transform="translate(86.786096 156.363347) rotate(226.970885) scale(28.611760 25.139449)"><ellipse fill="#e70000" fill-opacity=".501961" cx="0" cy="0" rx="1" ry="1" /></g><g transform="translate(52.419858 129.881950) rotate(316.798755) scale(36.536068 11.776432)"><ellipse fill="#b1fcff" fill-opacity=".501961" cx="0" cy="0" rx="1" ry="1" /></g><g transform="translate(237.542024 27.962916) rotate(149.130458) scale(21.676601 37.295714)"><ellipse fill="#160901" fill-opacity=".501961" cx="0" cy="0" rx="1" ry="1" /></g><path fill="#efffff" fill-opacity=".501961" d="M147.484559 99.584863 126.74378 105.342839 159.081011 133.484223 165.680147 135.422225z" /></g></svg>