<svg xmlns="http://www.w3.org/2000/svg" viewBox="0 0 1024 683"><filter id="b"><feGaussianBlur stdDeviation="12" /></filter><path d="M0 0h1024v683H0z" fill="#727870" /><g filter="url(#b)" transform="scale(4.000000) translate(0.5 0.5)"><g transform="translate(216.352773 10.827445) rotate(107.256596) scale(47.101885 119.512415)"><ellipse fill="#fff" fill-opacity=".501961" cx="0" cy="0" rx="1" ry="1" /></g><g transform="translate(40.451266 153.056706) rotate(19.521765) scale(180.096575 37.295564)"><ellipse fill="#000007" fill-opacity=".501961" cx="0" cy="0" rx="1" ry="1" /></g><g transform="translate(25.068646 93.903797) rotate(353.370963) scale(22.000959 147.091292)"><ellipse fill="#18161f" fill-opacity=".501961" cx="0" cy="0" rx="1" ry="1" /></g><g transform="translate(72.160215 37.564808) rotate(34.695414) scale(28.456390 15.404520)"><ellipse fill="#e4faff" fill-opacity=".501961" cx="0" cy="0" rx="1" ry="1" /></g><g transform="translate(210.683378 20.168175) rotate(192.072687) scale(104.845215 18.859187)"><ellipse fill="#ebffff" fill-opacity=".501961" cx="0" cy="0" rx="1" ry="1" /></g><g transform="translate(255.000000 135.110254) rotate(70.840166) scale(65.794288 38.304677)"><ellipse fill="#3d4529" fill-opacity=".501961" cx="0" cy="0" rx="1" ry="1" /></g><path fill="#c2c0c1" fill-opacity=".501961" d="M188.431106 81.831377 178.548041 97.720558 215.495109 185 206.095914 73.61068z" /><g transform="translate(143.127836 81.091672) rotate(238.443397) scale(82.842066 32.052251)"><ellipse fill="#859553" fill-opacity=".501961" cx="0" cy="0" rx="1" ry="1" /></g></g></svg>