<svg xmlns="http://www.w3.org/2000/svg" viewBox="0 0 681 1024"><filter id="b"><feGaussianBlur stdDeviation="12" /></filter><path d="M0 0h681v1024H0z" fill="#676e64" /><g filter="url(#b)" transform="scale(4.000000) translate(0.5 0.5)"><g transform="translate(128.378091 107.046461) rotate(13.507061) scale(34.802125 169.000000)"><ellipse fill="#283623" fill-opacity=".501961" cx="0" cy="0" rx="1" ry="1" /></g><g transform="translate(169.000000 156.886692) rotate(20.106117) scale(15.357075 161.869055)"><ellipse fill="#e5e7e6" fill-opacity=".501961" cx="0" cy="0" rx="1" ry="1" /></g><g transform="translate(36.656082 94.401195) rotate(98.728281) scale(134.270119 47.041785)"><ellipse fill="#8f8f8c" fill-opacity=".501961" cx="0" cy="0" rx="1" ry="1" /></g><ellipse fill="#737868" fill-opacity=".501961" cx="83" cy="190" rx="67" ry="27" /><ellipse fill="#0f2017" fill-opacity=".501961" cx="140" cy="135" rx="10" ry="71" /><g transform="translate(162.291549 150.801861) rotate(96.174462) scale(22.199401 9.912188)"><ellipse fill="#fff" fill-opacity=".501961" cx="0" cy="0" rx="1" ry="1" /></g><g transform="translate(90.461861 144.110633) rotate(73.563639) scale(26.567935 12.676991)"><ellipse fill="#0b1a2e" fill-opacity=".501961" cx="0" cy="0" rx="1" ry="1" /></g><ellipse fill="#687063" fill-opacity=".501961" cx="111" cy="65" rx="15" ry="89" /></g></svg>