<svg xmlns="http://www.w3.org/2000/svg" viewBox="0 0 1024 684"><filter id="b"><feGaussianBlur stdDeviation="12" /></filter><path d="M0 0h1024v684H0z" fill="#757575" /><g filter="url(#b)" transform="scale(4.000000) translate(0.5 0.5)"><ellipse fill="#fff" fill-opacity=".501961" cx="123" cy="19" rx="87" ry="87" /><g transform="translate(6.609776 91.678962) rotate(-58.002755) scale(52.912465 88.938717)"><ellipse fill="#000" fill-opacity=".501961" cx="0" cy="0" rx="1" ry="1" /></g><g transform="translate(255.000000 89.402075) rotate(339.631359) scale(104.591860 49.206884)"><ellipse fill="#000" fill-opacity=".501961" cx="0" cy="0" rx="1" ry="1" /></g><g transform="translate(29.553785 102.005644) rotate(111.905044) scale(30.880921 77.381747)"><ellipse fill="#000" fill-opacity=".501961" cx="0" cy="0" rx="1" ry="1" /></g><ellipse fill="#eaeaea" fill-opacity=".501961" cx="122" cy="33" rx="73" ry="80" /><g transform="translate(240.214217 97.513469) rotate(75.359437) scale(35.095316 107.163970)"><ellipse fill="#000" fill-opacity=".501961" cx="0" cy="0" rx="1" ry="1" /></g><ellipse fill="#b7b7b7" fill-opacity=".501961" cx="133" cy="153" rx="96" ry="16" /><g transform="translate(0.000000 97.227460) rotate(265.556785) scale(76.395310 40.626552)"><ellipse fill="#000" fill-opacity=".501961" cx="0" cy="0" rx="1" ry="1" /></g></g></svg>