<svg xmlns="http://www.w3.org/2000/svg" viewBox="0 0 1024 684"><filter id="b"><feGaussianBlur stdDeviation="12" /></filter><path d="M0 0h1024v684H0z" fill="#83868f" /><g filter="url(#b)" transform="scale(4.000000) translate(0.5 0.5)"><g transform="translate(107.623005 57.057431) rotate(177.640459) scale(104.851958 32.067558)"><ellipse fill="#fff" fill-opacity=".501961" cx="0" cy="0" rx="1" ry="1" /></g><g transform="translate(107.115072 110.828527) rotate(85.056214) scale(21.820785 231.755778)"><ellipse fill="#1a0500" fill-opacity=".501961" cx="0" cy="0" rx="1" ry="1" /></g><g transform="translate(107.079993 47.252645) rotate(298.229258) scale(34.784187 65.609805)"><ellipse fill="#e7ffff" fill-opacity=".501961" cx="0" cy="0" rx="1" ry="1" /></g><g transform="translate(10 155) rotate(171) scale(33 35)"><path d="M0 0h1024v684H0z" fill="#000" /></g><ellipse fill="#f7d9b7" fill-opacity=".501961" cx="145" cy="137" rx="39" ry="17" /><g transform="translate(199.051258 17.296051) rotate(286.629702) scale(32.610276 108.338260)"><ellipse fill="#4571bb" fill-opacity=".501961" cx="0" cy="0" rx="1" ry="1" /></g><g transform="translate(161.031360 169.572655) rotate(360.812524) scale(194.197706 11.788286)"><ellipse fill="#603918" fill-opacity=".501961" cx="0" cy="0" rx="1" ry="1" /></g><g transform="translate(31.474150 24.272436) rotate(77.309717) scale(30.432865 61.411370)"><ellipse fill="#5682c4" fill-opacity=".501961" cx="0" cy="0" rx="1" ry="1" /></g></g></svg>