<svg xmlns="http://www.w3.org/2000/svg" viewBox="0 0 683 1024"><filter id="b"><feGaussianBlur stdDeviation="12" /></filter><path d="M0 0h683v1024H0z" fill="#5b5a59" /><g filter="url(#b)" transform="scale(4.000000) translate(0.5 0.5)"><ellipse fill="#000" fill-opacity=".501961" cx="3" cy="10" rx="53" ry="255" /><g transform="translate(129.781168 106.149804) rotate(280.850911) scale(139.919238 52.176279)"><ellipse fill="#b3aeaf" fill-opacity=".501961" cx="0" cy="0" rx="1" ry="1" /></g><g transform="translate(8.958121 150.580468) rotate(357.418271) scale(23.004863 170.000000)"><ellipse fill="#000" fill-opacity=".501961" cx="0" cy="0" rx="1" ry="1" /></g><path fill="#3c2a1e" fill-opacity=".501961" d="M124 129 87 46l4 94z" /><g transform="translate(26.340623 26.540293) rotate(376.394903) scale(35.849189 76.766902)"><ellipse fill="#000" fill-opacity=".501961" cx="0" cy="0" rx="1" ry="1" /></g><g transform="translate(39.108384 158.593386) rotate(356.298116) scale(10.866333 42.051987)"><ellipse fill="#848181" fill-opacity=".501961" cx="0" cy="0" rx="1" ry="1" /></g><g transform="translate(25.158684 244.416483) rotate(32.336418) scale(60.838801 16.817914)"><ellipse fill="#000" fill-opacity=".501961" cx="0" cy="0" rx="1" ry="1" /></g><path d="M0 0h683v1024H0z" fill="#a8afb5" /></g></svg>