<svg xmlns="http://www.w3.org/2000/svg" viewBox="0 0 1024 684"><filter id="b"><feGaussianBlur stdDeviation="12" /></filter><path d="M0 0h1024v684H0z" fill="#666" /><g filter="url(#b)" transform="scale(4.000000) translate(0.5 0.5)"><g transform="translate(135.359504 44.244797) rotate(85.314206) scale(29.136146 120.760925)"><ellipse fill="#fff" fill-opacity=".501961" cx="0" cy="0" rx="1" ry="1" /></g><ellipse fill="#090909" fill-opacity=".501961" cx="149" cy="115" rx="255" ry="40" /><g transform="translate(222.052407 158.312169) rotate(99.672997) scale(16.143879 49.432271)"><ellipse fill="#000" fill-opacity=".501961" cx="0" cy="0" rx="1" ry="1" /></g><ellipse fill="#b2b2b2" fill-opacity=".501961" cx="108" cy="167" rx="68" ry="21" /><g transform="translate(151.295317 42.668989) rotate(62.244444) scale(21.509513 57.904977)"><ellipse fill="#f8f8f8" fill-opacity=".501961" cx="0" cy="0" rx="1" ry="1" /></g><path fill="#212121" fill-opacity=".501961" d="M111 38 53-16-16 5z" /><path fill="#e7e7e7" fill-opacity=".501961" d="M117-10 243 75l-55-1z" /><g transform="translate(136.419483 118.897511) rotate(183.839758) scale(58.624286 11.769215)"><ellipse fill="#838383" fill-opacity=".501961" cx="0" cy="0" rx="1" ry="1" /></g></g></svg>