<svg xmlns="http://www.w3.org/2000/svg" viewBox="0 0 1024 683"><filter id="b"><feGaussianBlur stdDeviation="12" /></filter><path d="M0 0h1024v683H0z" fill="#8e98a5" /><g filter="url(#b)" transform="scale(4.000000) translate(0.5 0.5)"><g transform="translate(112.167655 117.141971) rotate(91.813528) scale(25.273452 142.010314)"><ellipse fill="#343451" fill-opacity=".501961" cx="0" cy="0" rx="1" ry="1" /></g><g transform="translate(109.977258 23.337305) rotate(267.783359) scale(51.151670 157.060829)"><ellipse fill="#e9eada" fill-opacity=".501961" cx="0" cy="0" rx="1" ry="1" /></g><g transform="translate(146.708101 123.932735) rotate(75.659222) scale(44.576497 21.006483)"><ellipse fill="#612217" fill-opacity=".501961" cx="0" cy="0" rx="1" ry="1" /></g><g transform="translate(91.948747 4.739976) rotate(358.915076) scale(116.577928 10.087135)"><ellipse fill="#fffb90" fill-opacity=".501961" cx="0" cy="0" rx="1" ry="1" /></g><g transform="translate(18.289160 134.614392) rotate(242.217194) scale(56.167252 64.595806)"><ellipse fill="#4a749d" fill-opacity=".501961" cx="0" cy="0" rx="1" ry="1" /></g><ellipse fill="#527da8" fill-opacity=".501961" cx="239" cy="130" rx="59" ry="51" /><path d="M0 0h1024v683H0z" fill="#6999c1" /><g transform="translate(12.712493 35.527151) rotate(365.357168) scale(60.871491 18.181433)"><ellipse fill="#638db2" fill-opacity=".501961" cx="0" cy="0" rx="1" ry="1" /></g></g></svg>