<svg xmlns="http://www.w3.org/2000/svg" viewBox="0 0 683 1024"><filter id="b"><feGaussianBlur stdDeviation="12" /></filter><path d="M0 0h683v1024H0z" fill="#335159" /><g filter="url(#b)" transform="scale(4.000000) translate(0.5 0.5)"><g transform="translate(53.023912 121.969843) rotate(231.234219) scale(17.780153 59.936060)"><ellipse fill="#93b7e6" fill-opacity=".501961" cx="0" cy="0" rx="1" ry="1" /></g><path fill="#000" fill-opacity=".501961" d="M181 270 12 264l174-79z" /><ellipse fill="#000" fill-opacity=".501961" cx="97" cy="165" rx="55" ry="22" /><g transform="translate(90.483518 209.641376) rotate(258.276722) scale(20.844498 49.080935)"><ellipse fill="#6eaad0" fill-opacity=".501961" cx="0" cy="0" rx="1" ry="1" /></g><path fill="#a6cdf0" fill-opacity=".501961" d="M124 141l20-29 42 51z" /><g transform="translate(49.746279 0.000000) rotate(156.435693) scale(81.336874 62.745478)"><ellipse fill="#4aa376" fill-opacity=".501961" cx="0" cy="0" rx="1" ry="1" /></g><g transform="translate(57.181873 75.211995) rotate(80.335543) scale(13.732832 92.516462)"><ellipse fill="#03000a" fill-opacity=".501961" cx="0" cy="0" rx="1" ry="1" /></g><g transform="translate(0.000000 241.472487) rotate(186.913324) scale(108.574120 17.723106)"><ellipse fill="#0d0315" fill-opacity=".501961" cx="0" cy="0" rx="1" ry="1" /></g></g></svg>