<svg xmlns="http://www.w3.org/2000/svg" viewBox="0 0 1024 683"><filter id="b"><feGaussianBlur stdDeviation="12" /></filter><path d="M0 0h1024v683H0z" fill="#6c7066" /><g filter="url(#b)" transform="scale(4.000000) translate(0.5 0.5)"><g transform="translate(169.662606 15.272386) rotate(98.969300) scale(29.875775 121.708456)"><ellipse fill="#fff" fill-opacity=".501961" cx="0" cy="0" rx="1" ry="1" /></g><g transform="translate(42.273901 98.232179) rotate(214.850630) scale(141.610134 76.970390)"><ellipse fill="#101015" fill-opacity=".501961" cx="0" cy="0" rx="1" ry="1" /></g><g transform="translate(177.003608 0.000000) rotate(357.170914) scale(69.277196 56.216196)"><ellipse fill="#fff" fill-opacity=".501961" cx="0" cy="0" rx="1" ry="1" /></g><g transform="translate(184.856077 77.200636) rotate(303.969260) scale(28.344781 56.854840)"><ellipse fill="#b0bf94" fill-opacity=".501961" cx="0" cy="0" rx="1" ry="1" /></g><g transform="translate(66.328556 36.036890) rotate(353.563008) scale(54.013086 21.584904)"><ellipse fill="#79655b" fill-opacity=".501961" cx="0" cy="0" rx="1" ry="1" /></g><g transform="translate(174.023988 9.774373) rotate(253.766425) scale(30.137576 57.317629)"><ellipse fill="#fff" fill-opacity=".501961" cx="0" cy="0" rx="1" ry="1" /></g><ellipse fill="#fff" fill-opacity=".501961" cx="83" cy="5" rx="36" ry="10" /><g transform="translate(210.433760 163.891832) rotate(20.920509) scale(37.690274 24.242176)"><ellipse fill="#5a6600" fill-opacity=".501961" cx="0" cy="0" rx="1" ry="1" /></g></g></svg>