<svg xmlns="http://www.w3.org/2000/svg" viewBox="0 0 683 1024"><filter id="b"><feGaussianBlur stdDeviation="12" /></filter><path d="M0 0h683v1024H0z" fill="#45423d" /><g filter="url(#b)" transform="scale(4.000000) translate(0.5 0.5)"><g transform="translate(169.554250 148.176999) rotate(273.510142) scale(112.596602 52.485402)"><ellipse fill="#9aa4a8" fill-opacity=".501961" cx="0" cy="0" rx="1" ry="1" /></g><g transform="translate(57.244828 183.158028) rotate(165.364285) scale(60.134862 112.416753)"><ellipse fill="#130300" fill-opacity=".501961" cx="0" cy="0" rx="1" ry="1" /></g><g transform="translate(85.980377 142.609437) rotate(144.165646) scale(28.951674 5.336630)"><ellipse fill="#fffffd" fill-opacity=".501961" cx="0" cy="0" rx="1" ry="1" /></g><g transform="translate(54.964765 127.365567) rotate(336.956293) scale(12.690370 30.144804)"><ellipse fill="#ff084c" fill-opacity=".501961" cx="0" cy="0" rx="1" ry="1" /></g><g transform="translate(132.925293 53.319862) rotate(213.822389) scale(96.444446 59.274247)"><ellipse fill="#63686c" fill-opacity=".501961" cx="0" cy="0" rx="1" ry="1" /></g><g transform="translate(17 34) rotate(177) scale(50 51)"><path d="M0 0h683v1024H0z" fill="#000" /></g><g transform="translate(86.619701 232.104845) rotate(212.887472) scale(36.350570 48.146310)"><ellipse fill="#000" fill-opacity=".501961" cx="0" cy="0" rx="1" ry="1" /></g><g transform="translate(142.155294 183.246421) rotate(325.386551) scale(12.627843 53.624291)"><ellipse fill="#b9b7b5" fill-opacity=".501961" cx="0" cy="0" rx="1" ry="1" /></g></g></svg>