<svg xmlns="http://www.w3.org/2000/svg" viewBox="0 0 678 1024"><filter id="b"><feGaussianBlur stdDeviation="12" /></filter><path d="M0 0h678v1024H0z" fill="#7f8e99" /><g filter="url(#b)" transform="scale(4.000000) translate(0.5 0.5)"><g transform="translate(132.218633 20.379534) rotate(216.127480) scale(161.182522 43.728421)"><ellipse fill="#040000" fill-opacity=".501961" cx="0" cy="0" rx="1" ry="1" /></g><g transform="translate(51.861653 128.676913) rotate(48.562848) scale(75.172666 96.358429)"><ellipse fill="#cfe7f7" fill-opacity=".501961" cx="0" cy="0" rx="1" ry="1" /></g><g transform="translate(168.000000 140.192651) rotate(98.928843) scale(100.219956 28.389030)"><ellipse fill="#21190f" fill-opacity=".501961" cx="0" cy="0" rx="1" ry="1" /></g><ellipse fill="#b0d8ff" fill-opacity=".501961" cx="12" cy="34" rx="21" ry="132" /><g transform="translate(99.374754 251.652739) rotate(311.784782) scale(62.064165 73.293239)"><ellipse fill="#526e89" fill-opacity=".501961" cx="0" cy="0" rx="1" ry="1" /></g><g transform="translate(37.054350 123.252638) rotate(156.100870) scale(69.282608 26.559455)"><ellipse fill="#cfefff" fill-opacity=".501961" cx="0" cy="0" rx="1" ry="1" /></g><g transform="translate(35.101924 171.824859) rotate(-104.945470) scale(20.982697 38.102849)"><ellipse fill="#a8997b" fill-opacity=".501961" cx="0" cy="0" rx="1" ry="1" /></g><g transform="translate(48 56) rotate(139) scale(68 29)"><path d="M0 0h678v1024H0z" fill="#718680" /></g></g></svg>