<svg xmlns="http://www.w3.org/2000/svg" viewBox="0 0 683 1024"><filter id="b"><feGaussianBlur stdDeviation="12" /></filter><path d="M0 0h683v1024H0z" fill="#747c6e" /><g filter="url(#b)" transform="scale(4.000000) translate(0.5 0.5)"><g transform="translate(104.443638 19.534898) rotate(269.770515) scale(24.837947 170.000000)"><ellipse fill="#fff" fill-opacity=".501961" cx="0" cy="0" rx="1" ry="1" /></g><ellipse fill="#423324" fill-opacity=".501961" cx="170" cy="184" rx="112" ry="112" /><g transform="translate(67.793716 18.114272) rotate(272.654142) scale(19.144923 158.518665)"><ellipse fill="#fff" fill-opacity=".501961" cx="0" cy="0" rx="1" ry="1" /></g><ellipse fill="#375f00" fill-opacity=".501961" cx="10" cy="105" rx="58" ry="58" /><g transform="translate(132.986578 216.729470) rotate(344.729297) scale(33.447215 31.078621)"><ellipse fill="#9f8d84" fill-opacity=".501961" cx="0" cy="0" rx="1" ry="1" /></g><path fill="#4b8eb8" fill-opacity=".501961" d="M186 62.879509 103.653134 65.052959-7.933486 42.667016 99.736454 31.695954z" /><g transform="translate(76.736279 51.495749) rotate(1.994495) scale(12.139570 18.504663)"><ellipse fill="#3f1407" fill-opacity=".501961" cx="0" cy="0" rx="1" ry="1" /></g><path fill="#171b1c" fill-opacity=".501961" d="M86 205 67 150l72-63z" /></g></svg>