<svg xmlns="http://www.w3.org/2000/svg" viewBox="0 0 683 1024"><filter id="b"><feGaussianBlur stdDeviation="12" /></filter><path d="M0 0h683v1024H0z" fill="#081e14" /><g filter="url(#b)" transform="scale(4.000000) translate(0.5 0.5)"><path fill="#124a37" fill-opacity=".501961" d="M86 104-16 37 186 17z" /><path d="M0 0h683v1024H0z" fill="#d3fdff" /><g transform="translate(16 255) rotate(289) scale(28 16)"><path d="M0 0h683v1024H0z" fill="#1047ff" /></g><ellipse fill="#f8ffff" fill-opacity=".501961" cx="137" cy="158" rx="5" ry="5" /><ellipse fill="#6dbaff" fill-opacity=".501961" cx="90" cy="223" rx="8" ry="5" /><path fill="#326400" fill-opacity=".501961" d="M125.034304 3.117254 118.086679 27.478427 171.043735 18.84807 179.490479-12.146851z" /><g transform="translate(26.578949 178.741010) rotate(82.605077) scale(3.595044 14.685669)"><ellipse fill="#1957f2" fill-opacity=".501961" cx="0" cy="0" rx="1" ry="1" /></g><g transform="translate(145.308591 219.416840) rotate(66.689223) scale(58.441890 49.597007)"><ellipse fill="#000" fill-opacity=".501961" cx="0" cy="0" rx="1" ry="1" /></g></g></svg>