<svg xmlns="http://www.w3.org/2000/svg" viewBox="0 0 683 1024"><filter id="b"><feGaussianBlur stdDeviation="12" /></filter><path d="M0 0h683v1024H0z" fill="#4a4e45" /><g filter="url(#b)" transform="scale(4.000000) translate(0.5 0.5)"><g transform="translate(155.252532 180.900896) rotate(96.708780) scale(114.444096 27.961100)"><ellipse fill="#b6c1c4" fill-opacity=".501961" cx="0" cy="0" rx="1" ry="1" /></g><ellipse fill="#132800" fill-opacity=".501961" cx="23" cy="135" rx="38" ry="132" /><g transform="translate(85.381188 227.643342) rotate(269.776121) scale(49.248490 33.902985)"><ellipse fill="#000" fill-opacity=".501961" cx="0" cy="0" rx="1" ry="1" /></g><path fill="#ff7d70" fill-opacity=".501961" d="M36.046479 128.184575 68.640292 133.38248 68.212375 82.152226 45.881067 170.41881z" /><g transform="translate(85.798458 171.370812) rotate(108.735866) scale(9.281567 26.257527)"><ellipse fill="#ff5a7f" fill-opacity=".501961" cx="0" cy="0" rx="1" ry="1" /></g><ellipse fill="#747b7f" fill-opacity=".501961" cx="128" cy="87" rx="55" ry="54" /><g transform="translate(80.641736 140.689952) rotate(79.827502) scale(24.991439 23.986242)"><ellipse fill="#470002" fill-opacity=".501961" cx="0" cy="0" rx="1" ry="1" /></g><g transform="translate(57.120122 38.303888) rotate(344.884909) scale(34.763741 14.505769)"><ellipse fill="#8d858b" fill-opacity=".501961" cx="0" cy="0" rx="1" ry="1" /></g></g></svg>