<svg xmlns="http://www.w3.org/2000/svg" viewBox="0 0 1024 683"><filter id="b"><feGaussianBlur stdDeviation="12" /></filter><path d="M0 0h1024v683H0z" fill="#706b52" /><g filter="url(#b)" transform="scale(4.000000) translate(0.5 0.5)"><g transform="translate(43.848205 3.327878) rotate(138.406590) scale(55.312399 49.691423)"><ellipse fill="#fbffe3" fill-opacity=".501961" cx="0" cy="0" rx="1" ry="1" /></g><ellipse fill="#273415" fill-opacity=".501961" cx="242" cy="105" rx="52" ry="169" /><g transform="translate(178.420101 51.418102) rotate(363.594585) scale(15.535119 50.471831)"><ellipse fill="#e6fcb1" fill-opacity=".501961" cx="0" cy="0" rx="1" ry="1" /></g><g transform="translate(104.647836 108.953003) rotate(392.901615) scale(41.305879 30.849086)"><ellipse fill="#7d0013" fill-opacity=".501961" cx="0" cy="0" rx="1" ry="1" /></g><path d="M0 0h1024v683H0z" fill="#afdc98" /><ellipse fill="#3f3330" fill-opacity=".501961" cx="45" cy="169" rx="80" ry="80" /><path fill="#ffcfc9" fill-opacity=".501961" d="M161 92l-40 69 42-40z" /><path fill="#eab8a0" fill-opacity=".501961" d="M117 65l36 25 1-57z" /></g></svg>