<svg xmlns="http://www.w3.org/2000/svg" viewBox="0 0 1024 684"><filter id="b"><feGaussianBlur stdDeviation="12" /></filter><path d="M0 0h1024v684H0z" fill="#665954" /><g filter="url(#b)" transform="scale(4.000000) translate(0.5 0.5)"><g transform="translate(70.304147 16.576746) rotate(277.997819) scale(24.050863 88.240849)"><ellipse fill="#fffbbd" fill-opacity=".501961" cx="0" cy="0" rx="1" ry="1" /></g><g transform="translate(159.648307 85.032683) rotate(-8.021219) scale(66.369217 33.689441)"><ellipse fill="#000007" fill-opacity=".501961" cx="0" cy="0" rx="1" ry="1" /></g><ellipse fill="#273a55" fill-opacity=".501961" cx="239" cy="38" rx="72" ry="72" /><g transform="translate(17.342075 119.444404) rotate(196.457340) scale(40.745869 27.793915)"><ellipse fill="#cc8c5a" fill-opacity=".501961" cx="0" cy="0" rx="1" ry="1" /></g><g transform="translate(35.649512 66.000584) rotate(122.429722) scale(20.168561 57.151598)"><ellipse fill="#2c1f21" fill-opacity=".501961" cx="0" cy="0" rx="1" ry="1" /></g><g transform="translate(28 11) rotate(209) scale(83 29)"><path d="M0 0h1024v684H0z" fill="#ffe1c0" /></g><g transform="translate(179.848128 165.575849) rotate(-8.526208) scale(76.742138 40.543957)"><ellipse fill="#727c92" fill-opacity=".501961" cx="0" cy="0" rx="1" ry="1" /></g><g transform="translate(65.001479 153.601144) rotate(313.045845) scale(88.476947 12.428011)"><ellipse fill="#3c1b04" fill-opacity=".501961" cx="0" cy="0" rx="1" ry="1" /></g></g></svg>