<svg xmlns="http://www.w3.org/2000/svg" viewBox="0 0 681 1024"><filter id="b"><feGaussianBlur stdDeviation="12" /></filter><path d="M0 0h681v1024H0z" fill="#818285" /><g filter="url(#b)" transform="scale(4.000000) translate(0.5 0.5)"><g transform="translate(83.646897 133.726511) rotate(20.198468) scale(22.217929 57.635381)"><ellipse fill="#00000e" fill-opacity=".501961" cx="0" cy="0" rx="1" ry="1" /></g><g transform="translate(139.276815 172.837657) rotate(287.145248) scale(168.874605 35.102390)"><ellipse fill="#b3b1b1" fill-opacity=".501961" cx="0" cy="0" rx="1" ry="1" /></g><path d="M0 0h681v1024H0z" fill="#000" /><g transform="translate(138.591494 14.369969) rotate(76.763591) scale(24.603836 41.236825)"><ellipse fill="#c1beba" fill-opacity=".501961" cx="0" cy="0" rx="1" ry="1" /></g><g transform="translate(4.148888 211.732945) rotate(99.382164) scale(32.932871 19.078143)"><ellipse fill="#c5c9ca" fill-opacity=".501961" cx="0" cy="0" rx="1" ry="1" /></g><path fill="#00304e" fill-opacity=".501961" d="M185 258.986507 144.237312 270.754156 150.343657 238.607627 185 230.405186z" /><g transform="translate(60.081376 77.513176) rotate(21.675449) scale(54.411569 35.472656)"><ellipse fill="#61656e" fill-opacity=".501961" cx="0" cy="0" rx="1" ry="1" /></g><ellipse fill="#4f5b67" fill-opacity=".501961" cx="61" cy="205" rx="18" ry="41" /></g></svg>