<svg xmlns="http://www.w3.org/2000/svg" viewBox="0 0 1024 681"><filter id="b"><feGaussianBlur stdDeviation="12" /></filter><path d="M0 0h1024v681H0z" fill="#9d9484" /><g filter="url(#b)" transform="scale(4.000000) translate(0.5 0.5)"><g transform="translate(43.878946 21.501031) rotate(101.614704) scale(37.749947 99.378358)"><ellipse fill="#b3deff" fill-opacity=".501961" cx="0" cy="0" rx="1" ry="1" /></g><g transform="translate(212.931583 24.273589) rotate(42.331074) scale(89.008801 36.983652)"><ellipse fill="#603100" fill-opacity=".501961" cx="0" cy="0" rx="1" ry="1" /></g><g transform="translate(119 113) rotate(257) scale(26 50)"><path d="M0 0h1024v681H0z" fill="#090a09" /></g><g transform="translate(49.510215 3.940949) rotate(83.870973) scale(47.891363 65.970628)"><ellipse fill="#93bbff" fill-opacity=".501961" cx="0" cy="0" rx="1" ry="1" /></g><g transform="translate(219.309647 169.000000) rotate(168.814856) scale(40.317358 32.223588)"><ellipse fill="#856028" fill-opacity=".501961" cx="0" cy="0" rx="1" ry="1" /></g><g transform="translate(150.980096 74.253099) rotate(238.948472) scale(81.987501 19.891321)"><ellipse fill="#cfb689" fill-opacity=".501961" cx="0" cy="0" rx="1" ry="1" /></g><g transform="translate(47.515468 133.055119) rotate(17.677236) scale(51.384474 9.664745)"><ellipse fill="#ebdec4" fill-opacity=".501961" cx="0" cy="0" rx="1" ry="1" /></g><path fill="#6c4518" fill-opacity=".501961" d="M162.927616 51.898076 271-4.29695 157.937745 17.437202 150.985447 33.797053z" /></g></svg>