<svg xmlns="http://www.w3.org/2000/svg" viewBox="0 0 1024 683"><filter id="b"><feGaussianBlur stdDeviation="12" /></filter><path d="M0 0h1024v683H0z" fill="#252f2d" /><g filter="url(#b)" transform="scale(4.000000) translate(0.5 0.5)"><g transform="translate(81.690511 61.115839) rotate(145.435119) scale(29.344456 60.498742)"><ellipse fill="#c9d9d5" fill-opacity=".501961" cx="0" cy="0" rx="1" ry="1" /></g><ellipse fill="#000" fill-opacity=".501961" cx="226" cy="85" rx="102" ry="102" /><g transform="translate(199.182127 62.168937) rotate(73.536987) scale(31.304827 17.597255)"><ellipse fill="#a4bbcf" fill-opacity=".501961" cx="0" cy="0" rx="1" ry="1" /></g><g transform="translate(39.273413 104.409026) rotate(289.698659) scale(10.509348 18.422224)"><ellipse fill="#e8ffff" fill-opacity=".501961" cx="0" cy="0" rx="1" ry="1" /></g><g transform="translate(80 5) rotate(84) scale(19 66)"><path d="M0 0h1024v683H0z" fill="#9cc6d6" /></g><g transform="translate(49 73) rotate(103) scale(22 29)"><path d="M0 0h1024v683H0z" fill="#d7ddd5" /></g><g transform="translate(106.783006 140.643720) rotate(113.463158) scale(8.195277 27.902677)"><ellipse fill="#76c2b0" fill-opacity=".501961" cx="0" cy="0" rx="1" ry="1" /></g><ellipse fill="#aebac1" fill-opacity=".501961" cx="114" cy="59" rx="16" ry="16" /></g></svg>