<svg xmlns="http://www.w3.org/2000/svg" viewBox="0 0 1024 683"><filter id="b"><feGaussianBlur stdDeviation="12" /></filter><path d="M0 0h1024v683H0z" fill="#64512c" /><g filter="url(#b)" transform="scale(4.000000) translate(0.5 0.5)"><g transform="translate(131.320353 5.856635) rotate(177.069064) scale(180.022915 15.220072)"><ellipse fill="#fff88a" fill-opacity=".501961" cx="0" cy="0" rx="1" ry="1" /></g><g transform="translate(85.386853 102.792451) rotate(200.884183) scale(13.865627 47.557521)"><ellipse fill="#fff" fill-opacity=".501961" cx="0" cy="0" rx="1" ry="1" /></g><g transform="translate(208.666134 127.956299) rotate(79.865804) scale(94.045276 41.329637)"><ellipse fill="#000" fill-opacity=".501961" cx="0" cy="0" rx="1" ry="1" /></g><g transform="translate(32.595440 161.495016) rotate(438.932240) scale(108.246235 32.009556)"><ellipse fill="#000" fill-opacity=".501961" cx="0" cy="0" rx="1" ry="1" /></g><g transform="translate(147.001811 70.696963) rotate(334.177933) scale(9.442457 45.620931)"><ellipse fill="#ccd1ca" fill-opacity=".501961" cx="0" cy="0" rx="1" ry="1" /></g><ellipse fill="#ffffe9" fill-opacity=".501961" cx="94" cy="6" rx="37" ry="10" /><ellipse fill="#1f201b" fill-opacity=".501961" cx="131" cy="125" rx="26" ry="60" /><g transform="translate(226.559505 8.192871) rotate(-26.221803) scale(62.552421 32.408536)"><ellipse fill="#ba6f00" fill-opacity=".501961" cx="0" cy="0" rx="1" ry="1" /></g></g></svg>