<svg xmlns="http://www.w3.org/2000/svg" viewBox="0 0 683 1024"><filter id="b"><feGaussianBlur stdDeviation="12" /></filter><path d="M0 0h683v1024H0z" fill="#6b6155" /><g filter="url(#b)" transform="scale(4.000000) translate(0.5 0.5)"><g transform="translate(28.288940 92.938770) rotate(228.150519) scale(60.640411 45.968386)"><ellipse fill="#e4eaf3" fill-opacity=".501961" cx="0" cy="0" rx="1" ry="1" /></g><ellipse fill="#001c34" fill-opacity=".501961" cx="92" cy="222" rx="109" ry="62" /><ellipse fill="#db6d00" fill-opacity=".501961" cx="114" cy="20" rx="57" ry="83" /><g transform="translate(71.972301 145.098878) rotate(160.052654) scale(40.118354 22.582384)"><ellipse fill="#17375e" fill-opacity=".501961" cx="0" cy="0" rx="1" ry="1" /></g><g transform="translate(105.525352 83.174557) rotate(120.935694) scale(37.752500 23.327434)"><ellipse fill="#ffa05f" fill-opacity=".501961" cx="0" cy="0" rx="1" ry="1" /></g><g transform="translate(152.939517 120.280028) rotate(127.018050) scale(48.812855 34.586354)"><ellipse fill="#2a476a" fill-opacity=".501961" cx="0" cy="0" rx="1" ry="1" /></g><path fill="#feeae0" fill-opacity=".501961" d="M40.736708 127.897285 29.437199 165.029647 8.347982 127.822608 28.353793 107.791176z" /><g transform="translate(16.966101 31.825267) rotate(228.108190) scale(121.149285 14.958700)"><ellipse fill="#b8bcbc" fill-opacity=".501961" cx="0" cy="0" rx="1" ry="1" /></g></g></svg>