<svg xmlns="http://www.w3.org/2000/svg" viewBox="0 0 1024 683"><filter id="b"><feGaussianBlur stdDeviation="12" /></filter><path d="M0 0h1024v683H0z" fill="#5f727c" /><g filter="url(#b)" transform="scale(4.000000) translate(0.5 0.5)"><ellipse fill="#552a00" fill-opacity=".501961" cx="36" cy="70" rx="43" ry="169" /><ellipse fill="#9fb5d1" fill-opacity=".501961" cx="145" cy="79" rx="69" ry="69" /><g transform="translate(210.033623 0.000000) rotate(58.150811) scale(146.943695 40.707226)"><ellipse fill="#002c79" fill-opacity=".501961" cx="0" cy="0" rx="1" ry="1" /></g><g transform="translate(153.905719 55.453843) rotate(136.179205) scale(23.935857 171.635652)"><ellipse fill="#9eafc1" fill-opacity=".501961" cx="0" cy="0" rx="1" ry="1" /></g><g transform="translate(247.300395 41.102942) rotate(54.831564) scale(150.827469 36.044159)"><ellipse fill="#004376" fill-opacity=".501961" cx="0" cy="0" rx="1" ry="1" /></g><g transform="translate(179.284306 169.000000) rotate(283.849119) scale(33.403538 103.667156)"><ellipse fill="#4682a7" fill-opacity=".501961" cx="0" cy="0" rx="1" ry="1" /></g><ellipse fill="#202000" fill-opacity=".501961" cx="71" cy="68" rx="6" ry="158" /><g transform="translate(50.062699 122.674171) rotate(85.346776) scale(124.574370 17.651475)"><ellipse fill="#7f6f57" fill-opacity=".501961" cx="0" cy="0" rx="1" ry="1" /></g></g></svg>