<svg xmlns="http://www.w3.org/2000/svg" viewBox="0 0 1024 683"><filter id="b"><feGaussianBlur stdDeviation="12" /></filter><path d="M0 0h1024v683H0z" fill="#52533d" /><g filter="url(#b)" transform="scale(4.000000) translate(0.5 0.5)"><g transform="translate(132.820585 113.161916) rotate(168.430708) scale(224.534417 34.046192)"><ellipse fill="#98888a" fill-opacity=".501961" cx="0" cy="0" rx="1" ry="1" /></g><g transform="translate(95.661915 20.365750) rotate(161.249727) scale(255.000000 49.527941)"><ellipse fill="#051a00" fill-opacity=".501961" cx="0" cy="0" rx="1" ry="1" /></g><ellipse fill="#ceffff" fill-opacity=".501961" cx="119" cy="67" rx="14" ry="14" /><path fill="#210500" fill-opacity=".501961" d="M186.353453 142.151985 169.975562 158.888968 115.88304 73.724906 98.785738 113.563119z" /><g transform="translate(206.873460 41.878906) rotate(158.911273) scale(77.849767 21.890137)"><ellipse fill="#324500" fill-opacity=".501961" cx="0" cy="0" rx="1" ry="1" /></g><g transform="translate(97 126) rotate(138) scale(30 41)"><path d="M0 0h1024v683H0z" fill="#ceaea0" /></g><g transform="translate(206.589219 145.880547) rotate(228.281318) scale(16.490553 37.223061)"><ellipse fill="#8b868c" fill-opacity=".501961" cx="0" cy="0" rx="1" ry="1" /></g><ellipse fill="#090b00" fill-opacity=".501961" cx="18" cy="77" rx="62" ry="22" /></g></svg>