<svg xmlns="http://www.w3.org/2000/svg" viewBox="0 0 684 1024"><filter id="b"><feGaussianBlur stdDeviation="12" /></filter><path d="M0 0h684v1024H0z" fill="#7b8e99" /><g filter="url(#b)" transform="scale(4.000000) translate(0.5 0.5)"><path fill="#a7bfe1" fill-opacity=".501961" d="M147 22l25 182L26-6z" /><g transform="translate(41.318793 97.191766) rotate(189.993860) scale(11.766982 64.103768)"><ellipse fill="#1d2b00" fill-opacity=".501961" cx="0" cy="0" rx="1" ry="1" /></g><ellipse fill="#0a2a43" fill-opacity=".501961" cx="62" cy="233" rx="14" ry="112" /><path fill="#ffffe0" fill-opacity=".501961" d="M50-10-10 44 42 54z" /><g transform="translate(98 135) rotate(92) scale(22 34)"><path d="M0 0h684v1024H0z" fill="#001" /></g><g transform="translate(4.983088 219.163167) rotate(-82.380489) scale(18.486077 45.782523)"><ellipse fill="#f5e0a2" fill-opacity=".501961" cx="0" cy="0" rx="1" ry="1" /></g><path d="M0 0h684v1024H0z" fill="#fffff6" /><ellipse fill="#436998" fill-opacity=".501961" cx="118" cy="229" rx="50" ry="43" /></g></svg>