<svg xmlns="http://www.w3.org/2000/svg" viewBox="0 0 683 1024"><filter id="b"><feGaussianBlur stdDeviation="12" /></filter><path d="M0 0h683v1024H0z" fill="#4d5b60" /><g filter="url(#b)" transform="scale(4.000000) translate(0.5 0.5)"><g transform="translate(36.825922 120.611279) rotate(229.451467) scale(38.696927 62.050576)"><ellipse fill="#9fc0db" fill-opacity=".501961" cx="0" cy="0" rx="1" ry="1" /></g><ellipse fill="#000" fill-opacity=".501961" cx="70" cy="221" rx="28" ry="66" /><ellipse fill="#211808" fill-opacity=".501961" cx="149" cy="212" rx="29" ry="78" /><path fill="#e6ceab" fill-opacity=".501961" d="M127 271 101 144l-6 98z" /><g transform="translate(22.421796 221.596333) rotate(188.144204) scale(19.379895 65.213005)"><ellipse fill="#429cd3" fill-opacity=".501961" cx="0" cy="0" rx="1" ry="1" /></g><g transform="translate(156.564123 49.853255) rotate(78.372348) scale(60.406703 24.113509)"><ellipse fill="#241a0a" fill-opacity=".501961" cx="0" cy="0" rx="1" ry="1" /></g><g transform="translate(34.819610 36.655143) rotate(125.109820) scale(41.641601 58.673071)"><ellipse fill="#155c96" fill-opacity=".501961" cx="0" cy="0" rx="1" ry="1" /></g><ellipse fill="#9c8060" fill-opacity=".501961" cx="111" cy="31" rx="14" ry="122" /></g></svg>