<svg xmlns="http://www.w3.org/2000/svg" viewBox="0 0 1024 683"><filter id="b"><feGaussianBlur stdDeviation="12" /></filter><path d="M0 0h1024v683H0z" fill="#6b7d69" /><g filter="url(#b)" transform="scale(4.000000) translate(0.5 0.5)"><g transform="translate(118.028691 0.000000) rotate(174.955159) scale(122.606012 38.393751)"><ellipse fill="#fff" fill-opacity=".501961" cx="0" cy="0" rx="1" ry="1" /></g><ellipse fill="#1d401f" fill-opacity=".501961" cx="241" cy="115" rx="106" ry="106" /><g transform="translate(52.995110 107.884319) rotate(228.316326) scale(138.969825 24.496169)"><ellipse fill="#605300" fill-opacity=".501961" cx="0" cy="0" rx="1" ry="1" /></g><g transform="translate(0.000000 134.818961) rotate(147.552044) scale(27.679211 200.981671)"><ellipse fill="#fdd2d2" fill-opacity=".501961" cx="0" cy="0" rx="1" ry="1" /></g><ellipse fill="#d9f7ff" fill-opacity=".501961" cx="50" cy="10" rx="37" ry="43" /><g transform="translate(91 54) rotate(216) scale(33 41)"><path d="M0 0h1024v683H0z" fill="#00398a" /></g><path fill="#a7b8cc" fill-opacity=".501961" d="M117.902121 140.735098 87.97117 114.136544 106.461599 101.299837 179.863655 149.721757z" /><ellipse fill="#fff" fill-opacity=".501961" cx="122" cy="25" rx="24" ry="12" /></g></svg>