<svg xmlns="http://www.w3.org/2000/svg" viewBox="0 0 2048 1365"><filter id="b"><feGaussianBlur stdDeviation="12" /></filter><path d="M0 0h2048v1365H0z" fill="#38361c" /><g filter="url(#b)" transform="scale(8.000000) translate(0.5 0.5)"><g transform="translate(136.892328 15.167360) rotate(293.408780) scale(30.949630 45.230198)"><ellipse fill="#ffec74" fill-opacity=".501961" cx="0" cy="0" rx="1" ry="1" /></g><g transform="translate(127.951659 131.186724) rotate(76.311448) scale(14.669094 18.794411)"><ellipse fill="#fee8f4" fill-opacity=".501961" cx="0" cy="0" rx="1" ry="1" /></g><g transform="translate(230.329448 130.259011) rotate(141.898192) scale(140.965251 53.360247)"><ellipse fill="#000" fill-opacity=".501961" cx="0" cy="0" rx="1" ry="1" /></g><ellipse fill="#000700" fill-opacity=".501961" cx="33" cy="129" rx="61" ry="76" /><g transform="translate(80.232231 15.269073) rotate(-29.214796) scale(35.976863 101.993610)"><ellipse fill="#72763f" fill-opacity=".501961" cx="0" cy="0" rx="1" ry="1" /></g><g transform="translate(137.669507 0.000000) rotate(190.324905) scale(18.470366 33.273629)"><ellipse fill="#ffffa9" fill-opacity=".501961" cx="0" cy="0" rx="1" ry="1" /></g><g transform="translate(171.514528 30.727221) rotate(53.887730) scale(21.952004 37.719392)"><ellipse fill="#6b6016" fill-opacity=".501961" cx="0" cy="0" rx="1" ry="1" /></g><path fill="#efd6ea" fill-opacity=".501961" d="M131 102l-4-23-13 12z" /></g></svg>