<svg xmlns="http://www.w3.org/2000/svg" viewBox="0 0 1024 683"><filter id="b"><feGaussianBlur stdDeviation="12" /></filter><path d="M0 0h1024v683H0z" fill="#262e1d" /><g filter="url(#b)" transform="scale(4.000000) translate(0.5 0.5)"><g transform="translate(91.176746 51.435135) rotate(109.435347) scale(90.275000 29.155995)"><ellipse fill="#574f46" fill-opacity=".501961" cx="0" cy="0" rx="1" ry="1" /></g><g transform="translate(205.284257 27.032482) rotate(392.754128) scale(48.318316 44.135913)"><ellipse fill="#43662a" fill-opacity=".501961" cx="0" cy="0" rx="1" ry="1" /></g><g transform="translate(3.359213 86.661038) rotate(272.796628) scale(199.043114 40.901663)"><ellipse fill="#040000" fill-opacity=".501961" cx="0" cy="0" rx="1" ry="1" /></g><ellipse fill="#030b00" fill-opacity=".501961" cx="220" cy="158" rx="102" ry="39" /><g transform="translate(72.925209 161.802123) rotate(201.346400) scale(11.215864 18.046258)"><ellipse fill="#72675a" fill-opacity=".501961" cx="0" cy="0" rx="1" ry="1" /></g><path fill="#b3a7ac" fill-opacity=".501961" d="M127.458919 55.584122 131.936736 75.118173 112.480899 52.164623 106.056744 45.202813z" /><ellipse fill="#203c17" fill-opacity=".501961" cx="205" cy="86" rx="55" ry="55" /><path d="M0 0h1024v683H0z" fill="#6d864d" /></g></svg>