<svg xmlns="http://www.w3.org/2000/svg" viewBox="0 0 683 1024"><filter id="b"><feGaussianBlur stdDeviation="12" /></filter><path d="M0 0h683v1024H0z" fill="#6b665a" /><g filter="url(#b)" transform="scale(4.000000) translate(0.5 0.5)"><ellipse fill="#030000" fill-opacity=".501961" cx="59" cy="227" rx="88" ry="88" /><g transform="translate(111.958365 60.503285) rotate(188.964110) scale(170.000000 72.588481)"><ellipse fill="#b4afab" fill-opacity=".501961" cx="0" cy="0" rx="1" ry="1" /></g><path fill="#ffcb94" fill-opacity=".501961" d="M42 217 85 105l12 39z" /><g transform="translate(12.377549 19.017037) rotate(78.773712) scale(75.726798 19.491226)"><ellipse fill="#ede0ce" fill-opacity=".501961" cx="0" cy="0" rx="1" ry="1" /></g><ellipse fill="#643e22" fill-opacity=".501961" cx="59" cy="98" rx="19" ry="72" /><path fill="#0e0000" fill-opacity=".501961" d="M105 93l23 90-44-78z" /><g transform="translate(121.849798 248.785243) rotate(141.493971) scale(32.401777 88.529790)"><ellipse fill="#010800" fill-opacity=".501961" cx="0" cy="0" rx="1" ry="1" /></g><g transform="translate(0 215) rotate(323) scale(37 41)"><path d="M0 0h683v1024H0z" fill="#b6c2bc" /></g></g></svg>