<svg xmlns="http://www.w3.org/2000/svg" viewBox="0 0 683 1024"><filter id="b"><feGaussianBlur stdDeviation="12" /></filter><path d="M0 0h683v1024H0z" fill="#505f46" /><g filter="url(#b)" transform="scale(4.000000) translate(0.5 0.5)"><g transform="translate(19.808622 81.619346) rotate(184.355206) scale(52.101826 117.934228)"><ellipse fill="#002600" fill-opacity=".501961" cx="0" cy="0" rx="1" ry="1" /></g><path fill="#ffe9ff" fill-opacity=".501961" d="M92 106l12 30-65 61z" /><g transform="translate(85.015052 219.100298) rotate(169.084591) scale(122.356163 37.621658)"><ellipse fill="#878285" fill-opacity=".501961" cx="0" cy="0" rx="1" ry="1" /></g><g transform="translate(115.333776 59.420476) rotate(233.197883) scale(63.063361 37.010492)"><ellipse fill="#798b8f" fill-opacity=".501961" cx="0" cy="0" rx="1" ry="1" /></g><ellipse fill="#003b00" fill-opacity=".501961" cx="157" cy="140" rx="34" ry="31" /><g transform="translate(143.600949 0.000000) rotate(330.013983) scale(24.854493 137.375862)"><ellipse fill="#3f5f00" fill-opacity=".501961" cx="0" cy="0" rx="1" ry="1" /></g><g transform="translate(53.267380 182.065781) rotate(137.717830) scale(53.080040 6.468337)"><ellipse fill="#eeb6bb" fill-opacity=".501961" cx="0" cy="0" rx="1" ry="1" /></g><g transform="translate(43 139) rotate(219) scale(57 44)"><path d="M0 0h683v1024H0z" fill="#4a8506" /></g></g></svg>