<svg xmlns="http://www.w3.org/2000/svg" viewBox="0 0 683 1024"><filter id="b"><feGaussianBlur stdDeviation="12" /></filter><path d="M0 0h683v1024H0z" fill="#4a4e45" /><g filter="url(#b)" transform="scale(4.000000) translate(0.5 0.5)"><g transform="translate(159.058883 176.577475) rotate(10.059041) scale(29.614762 142.641711)"><ellipse fill="#b6c0c4" fill-opacity=".501961" cx="0" cy="0" rx="1" ry="1" /></g><g transform="translate(46.502696 172.274473) rotate(252.137552) scale(170.000000 40.856510)"><ellipse fill="#0f1000" fill-opacity=".501961" cx="0" cy="0" rx="1" ry="1" /></g><path fill="#ffd88a" fill-opacity=".501961" d="M37.655581 144.729309 45.980341 164.299501 58.920012 125.465561 37.447472 132.668992z" /><ellipse fill="#777a7e" fill-opacity=".501961" cx="146" cy="87" rx="88" ry="47" /><g transform="translate(84.100538 171.860324) rotate(196.608451) scale(23.525688 11.647960)"><ellipse fill="#ff5e88" fill-opacity=".501961" cx="0" cy="0" rx="1" ry="1" /></g><g transform="translate(162.372526 11.127863) rotate(324.952738) scale(30.143764 23.545212)"><ellipse fill="#000" fill-opacity=".501961" cx="0" cy="0" rx="1" ry="1" /></g><path fill="#b9a8a3" fill-opacity=".501961" d="M83 18 54 21l5 58z" /><ellipse fill="#000409" fill-opacity=".501961" cx="91" cy="229" rx="28" ry="48" /></g></svg>