<svg xmlns="http://www.w3.org/2000/svg" viewBox="0 0 683 1024"><filter id="b"><feGaussianBlur stdDeviation="12" /></filter><path d="M0 0h683v1024H0z" fill="#45423d" /><g filter="url(#b)" transform="scale(4.000000) translate(0.5 0.5)"><g transform="translate(161.028499 160.514876) rotate(263.804049) scale(125.183425 45.217988)"><ellipse fill="#949ea3" fill-opacity=".501961" cx="0" cy="0" rx="1" ry="1" /></g><g transform="translate(36.986260 196.558638) rotate(-35.599405) scale(45.005097 170.000000)"><ellipse fill="#000500" fill-opacity=".501961" cx="0" cy="0" rx="1" ry="1" /></g><ellipse fill="#900" fill-opacity=".501961" cx="64" cy="118" rx="27" ry="27" /><g transform="translate(5.628284 33.183673) rotate(387.560058) scale(42.108117 23.961034)"><ellipse fill="#000" fill-opacity=".501961" cx="0" cy="0" rx="1" ry="1" /></g><g transform="translate(80.452121 147.119781) rotate(234.952072) scale(6.232715 32.815973)"><ellipse fill="#ffd2ce" fill-opacity=".501961" cx="0" cy="0" rx="1" ry="1" /></g><g transform="translate(96.822006 223.841404) rotate(180.671965) scale(27.627350 78.428534)"><ellipse fill="#000" fill-opacity=".501961" cx="0" cy="0" rx="1" ry="1" /></g><g transform="translate(108.812275 36.347379) rotate(62.243142) scale(142.896785 53.745194)"><ellipse fill="#5b6165" fill-opacity=".501961" cx="0" cy="0" rx="1" ry="1" /></g><g transform="translate(144.784078 184.881239) rotate(233.198263) scale(54.772074 13.282950)"><ellipse fill="#bab8b6" fill-opacity=".501961" cx="0" cy="0" rx="1" ry="1" /></g></g></svg>