<svg xmlns="http://www.w3.org/2000/svg" viewBox="0 0 683 1024"><filter id="b"><feGaussianBlur stdDeviation="12" /></filter><path d="M0 0h683v1024H0z" fill="#747c6e" /><g filter="url(#b)" transform="scale(4.000000) translate(0.5 0.5)"><g transform="translate(91.829097 19.380542) rotate(270.243241) scale(25.316642 154.345092)"><ellipse fill="#fff" fill-opacity=".501961" cx="0" cy="0" rx="1" ry="1" /></g><g transform="translate(141.128954 168.119599) rotate(119.547425) scale(105.559588 76.560689)"><ellipse fill="#433524" fill-opacity=".501961" cx="0" cy="0" rx="1" ry="1" /></g><g transform="translate(49.510604 10.300931) rotate(181.556374) scale(143.992298 27.086066)"><ellipse fill="#fff" fill-opacity=".501961" cx="0" cy="0" rx="1" ry="1" /></g><g transform="translate(23.043944 106.804945) rotate(362.805769) scale(46.031763 57.542867)"><ellipse fill="#386002" fill-opacity=".501961" cx="0" cy="0" rx="1" ry="1" /></g><ellipse fill="#9f8d85" fill-opacity=".501961" cx="133" cy="216" rx="34" ry="31" /><g transform="translate(92.576816 211.516023) rotate(272.462414) scale(86.969532 8.066744)"><ellipse fill="#020c19" fill-opacity=".501961" cx="0" cy="0" rx="1" ry="1" /></g><ellipse fill="#458ec1" fill-opacity=".501961" cx="75" cy="45" rx="78" ry="10" /><ellipse fill="#290000" fill-opacity=".501961" cx="79" cy="53" rx="9" ry="20" /></g></svg>