<svg xmlns="http://www.w3.org/2000/svg" viewBox="0 0 683 1024"><filter id="b"><feGaussianBlur stdDeviation="12" /></filter><path d="M0 0h683v1024H0z" fill="#4a443e" /><g filter="url(#b)" transform="scale(4.000000) translate(0.5 0.5)"><g transform="translate(142.234984 203.391233) rotate(5.683430) scale(44.428969 170.000000)"><ellipse fill="#a1a0a5" fill-opacity=".501961" cx="0" cy="0" rx="1" ry="1" /></g><ellipse fill="#000" fill-opacity=".501961" cx="28" cy="179" rx="47" ry="255" /><path fill="#c06573" fill-opacity=".501961" d="M65 166 43 70l94-86z" /><g transform="translate(132.948134 220.615067) rotate(155.863597) scale(14.052475 70.867937)"><ellipse fill="#c7c1bc" fill-opacity=".501961" cx="0" cy="0" rx="1" ry="1" /></g><ellipse fill="#170000" fill-opacity=".501961" cx="90" cy="143" rx="15" ry="42" /><g transform="translate(170.000000 75.775448) rotate(359.535160) scale(71.557695 111.563124)"><ellipse fill="#565a5c" fill-opacity=".501961" cx="0" cy="0" rx="1" ry="1" /></g><g transform="translate(69.617234 129.730935) rotate(-5.408999) scale(7.404488 34.520082)"><ellipse fill="#fe0034" fill-opacity=".501961" cx="0" cy="0" rx="1" ry="1" /></g><g transform="translate(54.012550 204.741965) rotate(262.124747) scale(129.203138 18.797605)"><ellipse fill="#000" fill-opacity=".501961" cx="0" cy="0" rx="1" ry="1" /></g></g></svg>