<svg xmlns="http://www.w3.org/2000/svg" viewBox="0 0 1024 683"><filter id="b"><feGaussianBlur stdDeviation="12" /></filter><path d="M0 0h1024v683H0z" fill="#706b52" /><g filter="url(#b)" transform="scale(4.000000) translate(0.5 0.5)"><g transform="translate(41.357605 0.000000) rotate(360.013993) scale(54.122174 58.465062)"><ellipse fill="#f7ffdf" fill-opacity=".501961" cx="0" cy="0" rx="1" ry="1" /></g><g transform="translate(233.315410 158.876456) rotate(348.800991) scale(34.631063 131.244830)"><ellipse fill="#1b220e" fill-opacity=".501961" cx="0" cy="0" rx="1" ry="1" /></g><ellipse fill="#f4ffbc" fill-opacity=".501961" cx="177" cy="51" rx="14" ry="50" /><g transform="translate(107.078012 109.258782) rotate(212.690433) scale(41.356000 30.257221)"><ellipse fill="#7c0013" fill-opacity=".501961" cx="0" cy="0" rx="1" ry="1" /></g><path d="M0 0h1024v683H0z" fill="#b2de9b" /><g transform="translate(38.322892 161.390282) rotate(259.089585) scale(68.849348 87.567179)"><ellipse fill="#403130" fill-opacity=".501961" cx="0" cy="0" rx="1" ry="1" /></g><path fill="#d77e82" fill-opacity=".501961" d="M169 127l-45 32L145 32z" /><path d="M0 0h1024v683H0z" fill="#000" /></g></svg>