<svg xmlns="http://www.w3.org/2000/svg" viewBox="0 0 1024 683"><filter id="b"><feGaussianBlur stdDeviation="12" /></filter><path d="M0 0h1024v683H0z" fill="#3b2d30" /><g filter="url(#b)" transform="scale(4.000000) translate(0.5 0.5)"><path fill="#eb9f7e" fill-opacity=".501961" d="M271 132 118 48 32 137z" /><ellipse fill="#000" fill-opacity=".501961" cx="167" cy="157" rx="255" ry="20" /><ellipse fill="#00031f" fill-opacity=".501961" cx="26" cy="2" rx="255" ry="67" /><g transform="translate(178.025421 78.429427) rotate(357.109870) scale(99.662508 12.003417)"><ellipse fill="#004a8c" fill-opacity=".501961" cx="0" cy="0" rx="1" ry="1" /></g><g transform="translate(167.997554 120.101337) rotate(183.263443) scale(43.105503 18.879734)"><ellipse fill="#ff9f4c" fill-opacity=".501961" cx="0" cy="0" rx="1" ry="1" /></g><g transform="translate(142.115100 58.666918) rotate(359.405529) scale(65.445830 12.328237)"><ellipse fill="#9e554a" fill-opacity=".501961" cx="0" cy="0" rx="1" ry="1" /></g><ellipse fill="#000" fill-opacity=".501961" cx="127" cy="160" rx="48" ry="30" /><g transform="translate(63.746817 99.610047) rotate(348.522131) scale(60.269925 22.383210)"><ellipse fill="#9b5140" fill-opacity=".501961" cx="0" cy="0" rx="1" ry="1" /></g></g></svg>