<svg xmlns="http://www.w3.org/2000/svg" viewBox="0 0 1024 683"><filter id="b"><feGaussianBlur stdDeviation="12" /></filter><path d="M0 0h1024v683H0z" fill="#333d33" /><g filter="url(#b)" transform="scale(4.000000) translate(0.5 0.5)"><g transform="translate(54.205824 62.886582) rotate(201.524479) scale(19.667351 32.550610)"><ellipse fill="#fff" fill-opacity=".501961" cx="0" cy="0" rx="1" ry="1" /></g><ellipse fill="#fdffff" fill-opacity=".501961" cx="55" cy="67" rx="17" ry="27" /><g transform="translate(255.000000 110.991399) rotate(118.009445) scale(11.917838 32.109997)"><ellipse fill="#dddbdb" fill-opacity=".501961" cx="0" cy="0" rx="1" ry="1" /></g><ellipse fill="#0f1000" fill-opacity=".501961" cx="203" cy="157" rx="54" ry="63" /><g transform="translate(213.009123 14.891630) rotate(12.987455) scale(128.666468 29.132594)"><ellipse fill="#000800" fill-opacity=".501961" cx="0" cy="0" rx="1" ry="1" /></g><g transform="translate(169.463063 100.513574) rotate(49.447178) scale(6.411111 32.804565)"><ellipse fill="#7db1e5" fill-opacity=".501961" cx="0" cy="0" rx="1" ry="1" /></g><path fill="#71a9db" fill-opacity=".501961" d="M116 112l8-17L61 66z" /><g transform="translate(80.669468 167.894030) rotate(178.280587) scale(74.371078 21.155210)"><ellipse fill="#030000" fill-opacity=".501961" cx="0" cy="0" rx="1" ry="1" /></g></g></svg>