<svg xmlns="http://www.w3.org/2000/svg" viewBox="0 0 1024 683"><filter id="b"><feGaussianBlur stdDeviation="12" /></filter><path d="M0 0h1024v683H0z" fill="#564a64" /><g filter="url(#b)" transform="scale(4.000000) translate(0.5 0.5)"><ellipse fill="#ffffb4" fill-opacity=".501961" cx="48" cy="91" rx="148" ry="15" /><g transform="translate(210.929181 116.435488) rotate(-2.352673) scale(121.091288 16.250779)"><ellipse fill="#ee3a20" fill-opacity=".501961" cx="0" cy="0" rx="1" ry="1" /></g><g transform="translate(76.119130 24.415119) rotate(80.610530) scale(45.543420 121.421007)"><ellipse fill="#001b74" fill-opacity=".501961" cx="0" cy="0" rx="1" ry="1" /></g><g transform="translate(123.038516 169.000000) rotate(182.292399) scale(255.000000 41.963239)"><ellipse fill="#191a1f" fill-opacity=".501961" cx="0" cy="0" rx="1" ry="1" /></g><ellipse fill="#818ba8" fill-opacity=".501961" cx="195" cy="72" rx="142" ry="16" /><g transform="translate(47.123886 93.708503) rotate(262.632364) scale(7.922962 62.409847)"><ellipse fill="#ffffaf" fill-opacity=".501961" cx="0" cy="0" rx="1" ry="1" /></g><path d="M0 0h1024v683H0z" fill="#03396e" /><ellipse fill="#004288" fill-opacity=".501961" cx="226" cy="42" rx="255" ry="8" /></g></svg>