<svg xmlns="http://www.w3.org/2000/svg" viewBox="0 0 1024 683"><filter id="b"><feGaussianBlur stdDeviation="12" /></filter><path d="M0 0h1024v683H0z" fill="#724d2b" /><g filter="url(#b)" transform="scale(4.000000) translate(0.5 0.5)"><g transform="translate(155.017882 125.307569) rotate(88.282501) scale(39.839947 122.596760)"><ellipse fill="#c98d4f" fill-opacity=".501961" cx="0" cy="0" rx="1" ry="1" /></g><g transform="translate(88.936336 0.000000) rotate(241.837392) scale(55.269509 120.038386)"><ellipse fill="#161926" fill-opacity=".501961" cx="0" cy="0" rx="1" ry="1" /></g><g transform="translate(17.572828 169.000000) rotate(95.487547) scale(28.369085 30.846903)"><ellipse fill="#000" fill-opacity=".501961" cx="0" cy="0" rx="1" ry="1" /></g><path fill="#000" fill-opacity=".501961" d="M138 176l133-34-24 42z" /><ellipse fill="#2c1b15" fill-opacity=".501961" cx="233" cy="22" rx="61" ry="25" /><g transform="translate(170.422076 145.303272) rotate(260.197834) scale(9.042558 71.624949)"><ellipse fill="#ffaf30" fill-opacity=".501961" cx="0" cy="0" rx="1" ry="1" /></g><g transform="translate(234.527411 91.079134) rotate(263.264053) scale(10.642868 130.538135)"><ellipse fill="#3b5c76" fill-opacity=".501961" cx="0" cy="0" rx="1" ry="1" /></g><g transform="translate(211 74) rotate(255) scale(8 144)"><path d="M0 0h1024v683H0z" fill="#ffbc2f" /></g></g></svg>