<svg xmlns="http://www.w3.org/2000/svg" viewBox="0 0 1024 683"><filter id="b"><feGaussianBlur stdDeviation="12" /></filter><path d="M0 0h1024v683H0z" fill="#2e2e25" /><g filter="url(#b)" transform="scale(4.000000) translate(0.5 0.5)"><g transform="translate(209.195322 73.778442) rotate(148.710021) scale(19.554477 51.907541)"><ellipse fill="#fff" fill-opacity=".501961" cx="0" cy="0" rx="1" ry="1" /></g><g transform="translate(125.365930 93.308190) rotate(160.105091) scale(18.056244 30.197713)"><ellipse fill="#efd8db" fill-opacity=".501961" cx="0" cy="0" rx="1" ry="1" /></g><path fill="#000" fill-opacity=".501961" d="M-16-16H188L11 185z" /><g transform="translate(142.492960 151.628171) rotate(64.622248) scale(10.283066 57.895067)"><ellipse fill="#c6c4ba" fill-opacity=".501961" cx="0" cy="0" rx="1" ry="1" /></g><path fill="#d9cebf" fill-opacity=".501961" d="M207 26l38 68-97-10z" /><ellipse fill="#63624f" fill-opacity=".501961" cx="188" cy="104" rx="22" ry="43" /><ellipse fill="#000" fill-opacity=".501961" cx="79" cy="130" rx="40" ry="40" /><g transform="translate(249.107877 75.569378) rotate(0.532998) scale(10.757244 140.660993)"><ellipse fill="#000" fill-opacity=".501961" cx="0" cy="0" rx="1" ry="1" /></g></g></svg>