<svg xmlns="http://www.w3.org/2000/svg" viewBox="0 0 1024 684"><filter id="b"><feGaussianBlur stdDeviation="12" /></filter><path d="M0 0h1024v684H0z" fill="#7794aa" /><g filter="url(#b)" transform="scale(4.000000) translate(0.5 0.5)"><g transform="translate(206.573519 50.174848) rotate(168.298264) scale(78.026474 196.434944)"><ellipse fill="#25a5ff" fill-opacity=".501961" cx="0" cy="0" rx="1" ry="1" /></g><ellipse fill="#db975c" fill-opacity=".501961" cx="46" cy="117" rx="74" ry="170" /><g transform="translate(130.584441 112.817475) rotate(168.972611) scale(12.897571 60.246385)"><ellipse fill="#1e1309" fill-opacity=".501961" cx="0" cy="0" rx="1" ry="1" /></g><g transform="translate(208.977234 157.321242) rotate(227.617437) scale(44.364081 83.642392)"><ellipse fill="#aad7ff" fill-opacity=".501961" cx="0" cy="0" rx="1" ry="1" /></g><g transform="translate(168.230107 18.304794) rotate(72.679856) scale(44.979077 60.332208)"><ellipse fill="#0068ba" fill-opacity=".501961" cx="0" cy="0" rx="1" ry="1" /></g><g transform="translate(114.397066 145.147931) rotate(309.206910) scale(23.565600 34.872723)"><ellipse fill="#756e67" fill-opacity=".501961" cx="0" cy="0" rx="1" ry="1" /></g><g transform="translate(31.058564 88.386601) rotate(49.474753) scale(78.952592 19.419937)"><ellipse fill="#d6b79a" fill-opacity=".501961" cx="0" cy="0" rx="1" ry="1" /></g><path fill="#3a240e" fill-opacity=".501961" d="M147.319884 58.472323 128.821721 44.954572 126.157146 100.11701 106.59389 77.546048z" /></g></svg>