<svg xmlns="http://www.w3.org/2000/svg" viewBox="0 0 684 1024"><filter id="b"><feGaussianBlur stdDeviation="12" /></filter><path d="M0 0h684v1024H0z" fill="#6e6864" /><g filter="url(#b)" transform="scale(4.000000) translate(0.5 0.5)"><g transform="translate(93.823774 182.171794) rotate(193.013877) scale(24.389199 52.148712)"><ellipse fill="#00000e" fill-opacity=".501961" cx="0" cy="0" rx="1" ry="1" /></g><ellipse fill="#9396a5" fill-opacity=".501961" cx="50" cy="98" rx="53" ry="53" /><ellipse fill="#5b4109" fill-opacity=".501961" cx="159" cy="22" rx="26" ry="84" /><path fill="#1c2432" fill-opacity=".501961" d="M105 1e2 37 95l25 38z" /><g transform="translate(100.785223 29.010435) rotate(239.205200) scale(67.136081 22.079138)"><ellipse fill="#b58e44" fill-opacity=".501961" cx="0" cy="0" rx="1" ry="1" /></g><path fill="#fff8ef" fill-opacity=".501961" d="M40 104l-30 3 52 38z" /><g transform="translate(74 135) rotate(62) scale(17 29)"><path d="M0 0h684v1024H0z" fill="#fffce6" /></g><g transform="translate(49.324313 152.577571) rotate(230.644738) scale(26.210562 8.403198)"><ellipse fill="#121012" fill-opacity=".501961" cx="0" cy="0" rx="1" ry="1" /></g></g></svg>