<svg xmlns="http://www.w3.org/2000/svg" viewBox="0 0 684 1024"><filter id="b"><feGaussianBlur stdDeviation="12" /></filter><path d="M0 0h684v1024H0z" fill="#787673" /><g filter="url(#b)" transform="scale(4.000000) translate(0.5 0.5)"><ellipse fill="#dffaff" fill-opacity=".501961" cx="58" cy="68" rx="29" ry="48" /><g transform="translate(129.077827 66.362235) rotate(147.233031) scale(22.454976 44.634690)"><ellipse fill="#edf1e4" fill-opacity=".501961" cx="0" cy="0" rx="1" ry="1" /></g><ellipse fill="#172102" fill-opacity=".501961" cx="48" cy="0" rx="144" ry="23" /><g transform="translate(101 151) rotate(161) scale(49 51)"><path d="M0 0h684v1024H0z" fill="#000015" /></g><ellipse fill="#ffb1ce" fill-opacity=".501961" cx="143" cy="191" rx="22" ry="16" /><g transform="translate(53.453669 185.944931) rotate(25.078088) scale(37.981181 21.863370)"><ellipse fill="#c8bdbf" fill-opacity=".501961" cx="0" cy="0" rx="1" ry="1" /></g><path fill="#212212" fill-opacity=".501961" d="M98 38 50 74l52 4z" /><g transform="translate(170.000000 232.401014) rotate(290.518583) scale(50.979314 20.052439)"><ellipse fill="#150c0c" fill-opacity=".501961" cx="0" cy="0" rx="1" ry="1" /></g></g></svg>