<svg xmlns="http://www.w3.org/2000/svg" viewBox="0 0 1024 684"><filter id="b"><feGaussianBlur stdDeviation="12" /></filter><path d="M0 0h1024v684H0z" fill="#8c794e" /><g filter="url(#b)" transform="scale(4.000000) translate(0.5 0.5)"><ellipse fill="#93aacf" fill-opacity=".501961" cx="111" cy="138" rx="112" ry="47" /><g transform="translate(165.085772 35.592282) rotate(287.430552) scale(61.023142 255.000000)"><ellipse fill="#9e6700" fill-opacity=".501961" cx="0" cy="0" rx="1" ry="1" /></g><g transform="translate(11.685930 90.135309) rotate(-11.824311) scale(56.249948 21.781536)"><ellipse fill="#202b03" fill-opacity=".501961" cx="0" cy="0" rx="1" ry="1" /></g><ellipse fill="#2f3b29" fill-opacity=".501961" cx="242" cy="29" rx="54" ry="19" /><g transform="translate(214.756697 157.211788) rotate(46.743968) scale(75.670129 17.288257)"><ellipse fill="#b3b9be" fill-opacity=".501961" cx="0" cy="0" rx="1" ry="1" /></g><g transform="translate(251 135) rotate(53) scale(47 40)"><path d="M0 0h1024v684H0z" fill="#2c2f33" /></g><ellipse fill="#575d62" fill-opacity=".501961" cx="62" cy="170" rx="35" ry="31" /><g transform="translate(128.271800 126.480073) rotate(124.721211) scale(20.631266 18.219271)"><ellipse fill="#cbcfc7" fill-opacity=".501961" cx="0" cy="0" rx="1" ry="1" /></g></g></svg>