<?xml version="1.0" standalone="no"?>
<!DOCTYPE svg PUBLIC "-//W3C//DTD SVG 20010904//EN"
 "http://www.w3.org/TR/2001/REC-SVG-20010904/DTD/svg10.dtd">
<svg version="1.0" xmlns="http://www.w3.org/2000/svg"
 width="500.000000pt" height="500.000000pt" viewBox="0 0 500.000000 500.000000"
 preserveAspectRatio="xMidYMid meet">
<metadata>
Created by potrace 1.16, written by Peter Selinger 2001-2019
</metadata>
<g transform="translate(0.000000,500.000000) scale(0.100000,-0.100000)"
fill="#000000" stroke="none">
<path d="M727 3950 c-150 -27 -286 -88 -398 -179 -179 -144 -240 -299 -226
-576 7 -137 32 -246 76 -333 33 -66 353 -455 429 -523 114 -101 218 -144 337
-137 l63 3 -6 -345 c-5 -334 -4 -347 16 -390 30 -67 282 -391 319 -413 69 -39
243 -31 292 14 16 15 25 17 40 9 11 -5 81 -10 156 -10 138 0 186 9 213 42 11
14 16 12 45 -17 39 -39 102 -55 223 -55 91 0 131 13 158 52 l15 21 38 -26
c132 -91 448 -68 546 41 17 19 18 19 55 -18 27 -27 51 -40 90 -49 107 -23 174
-9 224 47 l34 38 42 -27 c75 -47 145 -64 272 -64 104 0 121 3 172 27 108 50
180 139 209 258 8 31 14 109 14 180 l0 125 -66 170 -66 170 8 75 c4 41 4 94 0
116 l-8 41 86 6 c47 4 176 9 286 13 169 5 206 9 242 26 76 35 101 128 67 249
l-16 56 52 64 c103 128 149 270 137 419 -6 78 -104 410 -138 468 -116 200
-174 262 -316 335 -136 70 -164 75 -441 76 -271 1 -384 -9 -423 -38 -26 -19
-26 -19 -89 12 -61 31 -70 32 -205 35 -130 3 -143 1 -185 -20 -25 -13 -54 -37
-65 -53 l-20 -31 -54 38 c-90 63 -151 82 -266 82 -88 1 -107 -2 -158 -26 -45
-21 -63 -25 -85 -18 -43 14 -294 30 -438 27 -122 -2 -133 -4 -170 -28 -28 -19
-45 -24 -56 -18 -64 36 -278 62 -391 48 -102 -12 -143 -33 -171 -84 -11 -22
-22 -42 -23 -44 -1 -2 -20 12 -42 32 -49 44 -65 53 -155 83 -79 28 -202 38
-279 24z m218 -132 c65 -16 127 -53 179 -106 40 -41 47 -55 42 -75 -3 -14 -47
-62 -97 -108 l-90 -82 -52 25 c-29 15 -84 34 -123 43 -91 22 -164 9 -227 -39
-64 -49 -90 -104 -95 -203 -5 -101 12 -156 70 -219 56 -61 110 -79 233 -78
100 1 143 10 223 47 l43 20 -3 66 -3 66 -40 -1 c-22 -1 -60 -3 -85 -5 l-45 -4
-8 65 c-4 36 -5 80 -2 98 l6 33 147 -7 c81 -4 157 -11 169 -15 l23 -8 -6 -253
c-7 -296 -5 -290 -105 -326 -142 -52 -281 -83 -396 -89 -111 -6 -113 -6 -177
26 -90 44 -198 147 -236 224 -52 109 -63 171 -58 357 4 163 4 166 37 238 26
56 51 88 105 140 84 80 137 113 237 146 129 43 230 51 334 24z m1868 -4 c72
-25 165 -103 197 -165 67 -130 -2 -372 -124 -436 -16 -8 -61 -18 -100 -22
l-71 -6 -9 -90 c-6 -62 -5 -133 4 -226 7 -75 9 -142 6 -148 -4 -6 -36 -11 -77
-11 -67 0 -70 1 -80 28 -8 19 -9 128 -4 357 4 182 7 414 6 516 -1 148 2 189
13 198 36 30 159 33 239 5z m-1193 -5 c91 -14 136 -37 208 -103 82 -77 128
-165 118 -232 -9 -69 -54 -160 -97 -199 -21 -19 -66 -48 -99 -65 -33 -17 -60
-32 -60 -34 0 -11 90 -162 143 -238 l60 -87 265 -1 c145 0 269 -3 274 -6 12
-8 0 -124 -14 -141 -14 -17 -589 -18 -636 -2 -37 13 -62 50 -143 210 -71 143
-117 215 -130 202 -5 -5 -10 -96 -11 -203 l-3 -194 -70 -1 c-38 -1 -80 2 -92
6 l-23 8 7 343 c4 189 8 427 8 530 0 111 4 191 10 196 6 6 19 12 30 15 38 9
190 7 255 -4z m649 -4 c76 -3 140 -10 148 -16 8 -8 13 -35 13 -79 0 -78 -2
-80 -90 -80 -32 0 -61 -3 -63 -7 -3 -5 -8 -110 -12 -235 l-7 -228 69 0 c94 0
103 -8 110 -101 4 -55 2 -78 -7 -84 -17 -11 -482 -17 -499 -6 -16 11 -26 95
-17 145 l7 36 87 0 c55 0 92 4 100 12 13 13 15 236 4 388 l-7 85 -53 3 c-52 3
-54 4 -72 46 -10 24 -32 59 -49 79 -29 33 -30 36 -14 46 11 6 59 8 118 6 55
-3 160 -7 234 -10z m1137 0 c91 -27 171 -136 181 -245 14 -151 -82 -275 -245
-319 l-42 -12 0 -97 c-1 -53 -2 -171 -3 -262 l-2 -165 -65 -3 c-110 -5 -101
-56 -101 548 -1 289 0 531 0 538 1 7 11 17 24 22 36 14 198 11 253 -5z m578
-11 c3 -9 6 -42 6 -75 0 -55 -2 -60 -26 -69 -14 -6 -51 -9 -82 -8 l-57 3 -6
-105 c-6 -99 -31 -195 -60 -224 -23 -25 -4 -29 101 -22 l110 7 0 -70 c0 -38
-4 -72 -9 -75 -15 -10 -90 -15 -213 -15 -92 -1 -120 -4 -132 -17 -13 -13 -16
-42 -16 -160 l0 -144 313 5 c171 2 367 7 433 11 116 6 123 5 143 -15 18 -18
21 -32 19 -69 l-3 -47 -275 -13 c-191 -9 -354 -11 -535 -5 l-260 8 -3 230 -2
231 34 12 c52 19 129 93 158 154 58 119 75 332 32 420 -10 21 -14 41 -10 45
10 11 109 20 232 21 85 2 103 -1 108 -14z m281 1 c80 -21 204 -89 269 -146 95
-85 144 -218 132 -363 -10 -138 -92 -261 -211 -317 -58 -28 -66 -29 -211 -29
-135 0 -153 2 -160 18 -4 9 -8 200 -10 424 -2 372 -1 409 14 418 25 14 110 12
177 -5z m-2681 -1225 c116 -44 183 -137 174 -243 -10 -122 -139 -211 -326
-224 -77 -6 -84 -8 -93 -30 -5 -13 -11 -146 -13 -295 -4 -211 -7 -273 -18
-279 -24 -16 -142 -10 -167 8 l-24 16 9 341 c5 188 9 418 9 513 0 128 3 175
13 185 16 16 99 24 259 26 101 2 132 -2 177 -18z m567 -31 c5 -8 9 -207 9
-444 0 -236 3 -459 6 -496 9 -89 -2 -99 -104 -99 -42 0 -83 4 -91 9 -9 6 -15
39 -19 107 -2 55 -9 105 -14 112 -13 15 -224 17 -233 2 -3 -5 -7 -48 -8 -95
-2 -52 -8 -90 -15 -97 -14 -14 -200 -13 -215 1 -4 4 -8 108 -10 232 l-2 224
54 7 c29 5 74 17 99 28 24 11 48 20 53 20 5 0 9 -29 9 -64 0 -43 5 -67 15 -76
18 -15 207 -3 231 14 13 10 16 53 20 315 2 167 7 308 11 313 9 16 193 4 204
-13z m1432 -4 c165 0 199 -3 207 -15 6 -8 9 -46 9 -83 -1 -51 -6 -70 -18 -76
-9 -4 -142 -9 -295 -10 -154 -1 -283 -4 -287 -6 -3 -3 -10 -188 -14 -412 -4
-225 -9 -412 -12 -417 -9 -13 -134 0 -144 15 -5 8 -9 194 -9 413 1 260 -3 403
-9 409 -7 7 -132 13 -328 16 l-318 6 0 80 0 80 150 6 c83 4 312 4 510 0 198
-3 449 -6 558 -6z m-843 -310 c81 -41 120 -90 166 -211 24 -63 26 -78 21 -170
-9 -167 -63 -266 -175 -321 -54 -26 -65 -28 -187 -28 -119 0 -133 2 -168 23
-82 52 -121 149 -121 307 0 108 18 168 75 252 61 87 106 130 163 152 90 35
149 34 226 -4z m982 -1 c69 -35 111 -83 160 -181 43 -86 43 -87 42 -192 -1
-174 -34 -251 -132 -308 -38 -22 -61 -28 -132 -31 -163 -8 -257 40 -322 165
-51 100 -56 153 -24 280 34 133 41 149 82 199 45 56 94 85 157 94 67 10 111 3
169 -26z"/>
<path d="M2712 3558 c-18 -18 -16 -162 2 -177 21 -18 93 4 128 39 38 39 37 73
-6 116 -27 27 -42 34 -73 34 -21 0 -44 -5 -51 -12z"/>
<path d="M1542 3518 c-13 -13 -16 -136 -6 -200 8 -46 28 -49 89 -13 75 43 95
107 55 173 -29 47 -108 70 -138 40z"/>
<path d="M3292 3578 c-7 -7 -12 -44 -12 -95 0 -80 1 -83 25 -89 35 -9 116 33
133 69 11 22 11 32 0 54 -26 55 -115 92 -146 61z"/>
<path d="M4251 3414 c1 -55 4 -139 8 -189 l6 -90 42 1 c93 2 140 77 130 206
-10 114 -45 159 -132 166 l-55 4 1 -98z"/>
<path d="M1350 2404 c-6 -15 -10 -51 -8 -78 l3 -51 51 1 c92 2 143 48 110 99
-21 31 -45 44 -100 51 -43 6 -46 5 -56 -22z"/>
<path d="M2542 1955 c-24 -10 -39 -28 -54 -61 -29 -66 -20 -119 26 -161 48
-44 94 -45 130 -3 24 30 46 86 46 123 0 36 -29 86 -59 101 -36 19 -47 19 -89
1z"/>
<path d="M3563 1955 c-67 -29 -97 -116 -65 -188 23 -53 61 -81 108 -81 59 0
114 76 114 157 0 52 -23 87 -74 111 -41 19 -42 19 -83 1z"/>
</g>
</svg>
