<svg xmlns="http://www.w3.org/2000/svg" viewBox="0 0 1024 683"><filter id="b"><feGaussianBlur stdDeviation="12" /></filter><path d="M0 0h1024v683H0z" fill="#6c7066" /><g filter="url(#b)" transform="scale(4.000000) translate(0.5 0.5)"><g transform="translate(168.731184 0.000000) rotate(187.378754) scale(117.308263 51.839981)"><ellipse fill="#fff" fill-opacity=".501961" cx="0" cy="0" rx="1" ry="1" /></g><g transform="translate(20.248323 104.951229) rotate(106.040001) scale(102.983050 145.696924)"><ellipse fill="#161519" fill-opacity=".501961" cx="0" cy="0" rx="1" ry="1" /></g><g transform="translate(158.665281 6.014959) rotate(12.312946) scale(93.917719 28.847697)"><ellipse fill="#fff" fill-opacity=".501961" cx="0" cy="0" rx="1" ry="1" /></g><g transform="translate(182.899930 79.699003) rotate(-66.965174) scale(33.220842 50.846687)"><ellipse fill="#adbf94" fill-opacity=".501961" cx="0" cy="0" rx="1" ry="1" /></g><g transform="translate(66.013388 4.625252) rotate(306.113445) scale(58.840693 14.537806)"><ellipse fill="#dedbba" fill-opacity=".501961" cx="0" cy="0" rx="1" ry="1" /></g><g transform="translate(108.139442 30.773347) rotate(34.526004) scale(25.289151 10.335002)"><ellipse fill="#482b2a" fill-opacity=".501961" cx="0" cy="0" rx="1" ry="1" /></g><ellipse fill="#fff" fill-opacity=".501961" cx="152" cy="4" rx="41" ry="41" /><g transform="translate(208.573840 153.975177) rotate(119.419631) scale(17.665209 50.131664)"><ellipse fill="#506306" fill-opacity=".501961" cx="0" cy="0" rx="1" ry="1" /></g></g></svg>