<svg xmlns="http://www.w3.org/2000/svg" viewBox="0 0 1024 683"><filter id="b"><feGaussianBlur stdDeviation="12" /></filter><path d="M0 0h1024v683H0z" fill="#727870" /><g filter="url(#b)" transform="scale(4.000000) translate(0.5 0.5)"><g transform="translate(183.071597 0.000000) rotate(297.494841) scale(45.922511 102.108553)"><ellipse fill="#fff" fill-opacity=".501961" cx="0" cy="0" rx="1" ry="1" /></g><path fill="#000008" fill-opacity=".501961" d="M7 99l174 66L-4 180z" /><g transform="translate(16.230886 88.476407) rotate(352.876343) scale(30.809617 132.957730)"><ellipse fill="#191720" fill-opacity=".501961" cx="0" cy="0" rx="1" ry="1" /></g><g transform="translate(68.302033 35.750294) rotate(298.234735) scale(16.398674 32.644855)"><ellipse fill="#d7edff" fill-opacity=".501961" cx="0" cy="0" rx="1" ry="1" /></g><g transform="translate(207.520810 14.846873) rotate(192.008988) scale(105.866971 22.898338)"><ellipse fill="#e8feff" fill-opacity=".501961" cx="0" cy="0" rx="1" ry="1" /></g><g transform="translate(248.564501 126.763686) rotate(258.983672) scale(55.136054 36.793661)"><ellipse fill="#3f472a" fill-opacity=".501961" cx="0" cy="0" rx="1" ry="1" /></g><path fill="#b9b5af" fill-opacity=".501961" d="M205 66l-36 37 55 82z" /><g transform="translate(145.525508 106.527188) rotate(156.547049) scale(32.514076 102.883750)"><ellipse fill="#7c8c51" fill-opacity=".501961" cx="0" cy="0" rx="1" ry="1" /></g></g></svg>