<svg xmlns="http://www.w3.org/2000/svg" viewBox="0 0 1024 683"><filter id="b"><feGaussianBlur stdDeviation="12" /></filter><path d="M0 0h1024v683H0z" fill="#262e1d" /><g filter="url(#b)" transform="scale(4.000000) translate(0.5 0.5)"><g transform="translate(91.239332 49.289314) rotate(199.395563) scale(28.758401 90.552441)"><ellipse fill="#584f47" fill-opacity=".501961" cx="0" cy="0" rx="1" ry="1" /></g><g transform="translate(210 26) rotate(90) scale(85 79)"><path d="M0 0h1024v683H0z" fill="#45692c" /></g><g transform="translate(15.807596 87.305490) rotate(182.675620) scale(28.728148 177.188830)"><ellipse fill="#040000" fill-opacity=".501961" cx="0" cy="0" rx="1" ry="1" /></g><ellipse fill="#020b00" fill-opacity=".501961" cx="223" cy="157" rx="104" ry="38" /><path fill="#aea2a5" fill-opacity=".501961" d="M103 44l30 29-13-26z" /><g transform="translate(73 164) rotate(285) scale(35 22)"><path d="M0 0h1024v683H0z" fill="#726659" /></g><path fill="#193611" fill-opacity=".501961" d="M192 154 184 30l87 77z" /><path fill="#6a824d" fill-opacity=".501961" d="M219.578969 4.4729 203.1916 30.478255 161.813719 24.572142 231.584328 9.891969z" /></g></svg>