<svg xmlns="http://www.w3.org/2000/svg" viewBox="0 0 1024 683"><filter id="b"><feGaussianBlur stdDeviation="12" /></filter><path d="M0 0h1024v683H0z" fill="#52533d" /><g filter="url(#b)" transform="scale(4.000000) translate(0.5 0.5)"><ellipse fill="#000800" fill-opacity=".501961" cx="33" cy="45" rx="77" ry="53" /><g transform="translate(226.599887 102.399936) rotate(90.609994) scale(40.257993 93.167420)"><ellipse fill="#9a9398" fill-opacity=".501961" cx="0" cy="0" rx="1" ry="1" /></g><ellipse fill="#9f9092" fill-opacity=".501961" cx="58" cy="132" rx="62" ry="38" /><g transform="translate(185.078848 27.636937) rotate(91.951439) scale(38.555285 98.587755)"><ellipse fill="#213300" fill-opacity=".501961" cx="0" cy="0" rx="1" ry="1" /></g><g transform="translate(121.055298 65.636538) rotate(208.424321) scale(13.743485 9.909741)"><ellipse fill="#d8ffff" fill-opacity=".501961" cx="0" cy="0" rx="1" ry="1" /></g><path fill="#d69975" fill-opacity=".501961" d="M81 68l14 79 14-84z" /><path fill="#c7bfc7" fill-opacity=".501961" d="M200.344155 166.061805 201.862934 185 172.786604 158.274713 190.223826 155.879589z" /><path fill="#fcc9b9" fill-opacity=".501961" d="M116.067415 120.639261 120.082977 138.665076 94.247017 122.039245 84.884523 106.28402z" /></g></svg>