<svg xmlns="http://www.w3.org/2000/svg" viewBox="0 0 683 1024"><filter id="b"><feGaussianBlur stdDeviation="12" /></filter><path d="M0 0h683v1024H0z" fill="#505f46" /><g filter="url(#b)" transform="scale(4.000000) translate(0.5 0.5)"><g transform="translate(10.656632 64.231095) rotate(264.726518) scale(130.430477 58.350062)"><ellipse fill="#002700" fill-opacity=".501961" cx="0" cy="0" rx="1" ry="1" /></g><path fill="#ffd3ec" fill-opacity=".501961" d="M83 116 30 209l91-87z" /><g transform="translate(127.116515 218.835065) rotate(271.272184) scale(39.530421 123.719306)"><ellipse fill="#8b8789" fill-opacity=".501961" cx="0" cy="0" rx="1" ry="1" /></g><ellipse fill="#003a00" fill-opacity=".501961" cx="170" cy="140" rx="48" ry="32" /><path fill="#84959b" fill-opacity=".501961" d="M160.823115 111.896507 159.152668 54.31115 90.810183-10.385209 90.630558 94.859307z" /><g transform="translate(44.514012 137.847583) rotate(-4.510323) scale(28.049984 31.286684)"><ellipse fill="#47800c" fill-opacity=".501961" cx="0" cy="0" rx="1" ry="1" /></g><g transform="translate(168.309207 22.574696) rotate(238.960261) scale(130.645184 34.087909)"><ellipse fill="#3d5f00" fill-opacity=".501961" cx="0" cy="0" rx="1" ry="1" /></g><path fill="#240301" fill-opacity=".501961" d="M96.390953 188.055712 111.826149 120.135042 82.73033 166.349216 89.692399 214.313326z" /></g></svg>