<svg xmlns="http://www.w3.org/2000/svg" viewBox="0 0 682 1024"><filter id="b"><feGaussianBlur stdDeviation="12" /></filter><path d="M0 0h682v1024H0z" fill="#585f4a" /><g filter="url(#b)" transform="scale(4.000000) translate(0.5 0.5)"><g transform="translate(157.804752 111.164540) rotate(344.038485) scale(31.948424 165.904527)"><ellipse fill="#bddabb" fill-opacity=".501961" cx="0" cy="0" rx="1" ry="1" /></g><path fill="#000" fill-opacity=".501961" d="M39 271 27 102 98-16z" /><g transform="translate(132.716644 231.090326) rotate(80.148680) scale(61.229423 23.256549)"><ellipse fill="#000" fill-opacity=".501961" cx="0" cy="0" rx="1" ry="1" /></g><g transform="translate(21.551275 0.000000) rotate(129.027307) scale(169.000000 34.205179)"><ellipse fill="#030200" fill-opacity=".501961" cx="0" cy="0" rx="1" ry="1" /></g><g transform="translate(96.652005 133.510621) rotate(268.248852) scale(86.093004 9.544308)"><ellipse fill="#adbaa2" fill-opacity=".501961" cx="0" cy="0" rx="1" ry="1" /></g><ellipse fill="#000" fill-opacity=".501961" cx="61" cy="255" rx="43" ry="43" /><ellipse fill="#c2bdb8" fill-opacity=".501961" cx="0" cy="210" rx="35" ry="35" /><path fill="#f7feff" fill-opacity=".501961" d="M123 89l55-2-42 60z" /></g></svg>