<svg xmlns="http://www.w3.org/2000/svg" viewBox="0 0 1024 683"><filter id="b"><feGaussianBlur stdDeviation="12" /></filter><path d="M0 0h1024v683H0z" fill="#64707b" /><g filter="url(#b)" transform="scale(4.000000) translate(0.5 0.5)"><g transform="translate(241.583583 50.794459) rotate(-64.412024) scale(63.030992 66.480552)"><ellipse fill="#bff0ff" fill-opacity=".501961" cx="0" cy="0" rx="1" ry="1" /></g><ellipse fill="#532d00" fill-opacity=".501961" cx="165" cy="169" rx="124" ry="72" /><g transform="translate(48.382554 20.347202) rotate(-20.399960) scale(81.165725 49.556296)"><ellipse fill="#1b396f" fill-opacity=".501961" cx="0" cy="0" rx="1" ry="1" /></g><g transform="translate(49.127884 119.929125) rotate(246.496503) scale(15.513947 73.737804)"><ellipse fill="#96b5ce" fill-opacity=".501961" cx="0" cy="0" rx="1" ry="1" /></g><g transform="translate(167.062787 31.135415) rotate(189.745265) scale(28.529971 66.185213)"><ellipse fill="#6e9ad6" fill-opacity=".501961" cx="0" cy="0" rx="1" ry="1" /></g><ellipse fill="#bce2ff" fill-opacity=".501961" cx="243" cy="82" rx="32" ry="32" /><ellipse fill="#492600" fill-opacity=".501961" cx="131" cy="94" rx="14" ry="37" /><g transform="translate(33.587700 155.437572) rotate(176.748783) scale(28.376822 20.072917)"><ellipse fill="#7b5f00" fill-opacity=".501961" cx="0" cy="0" rx="1" ry="1" /></g></g></svg>