<svg xmlns="http://www.w3.org/2000/svg" viewBox="0 0 684 1024"><filter id="b"><feGaussianBlur stdDeviation="12" /></filter><path d="M0 0h684v1024H0z" fill="#8e97ad" /><g filter="url(#b)" transform="scale(4.000000) translate(0.5 0.5)"><g transform="translate(42.282590 28.919916) rotate(155.959626) scale(170.000000 43.622584)"><ellipse fill="#022959" fill-opacity=".501961" cx="0" cy="0" rx="1" ry="1" /></g><g transform="translate(147.754215 96.371541) rotate(110.493836) scale(35.856476 67.035698)"><ellipse fill="#fffdff" fill-opacity=".501961" cx="0" cy="0" rx="1" ry="1" /></g><ellipse fill="#000025" fill-opacity=".501961" cx="79" cy="131" rx="30" ry="16" /><g transform="translate(22.223980 177.814085) rotate(185.102646) scale(33.166590 72.605276)"><ellipse fill="#eae7ed" fill-opacity=".501961" cx="0" cy="0" rx="1" ry="1" /></g><ellipse fill="#69b3fd" fill-opacity=".501961" cx="70" cy="48" rx="31" ry="21" /><g transform="translate(57.117316 9.163090) rotate(143.716388) scale(88.058094 12.040434)"><ellipse fill="#130909" fill-opacity=".501961" cx="0" cy="0" rx="1" ry="1" /></g><g transform="translate(131 148) rotate(156) scale(41 54)"><path d="M0 0h684v1024H0z" fill="#e1dce4" /></g><g transform="translate(101 156) rotate(83) scale(38 12)"><path d="M0 0h684v1024H0z" fill="#00003a" /></g></g></svg>