<svg xmlns="http://www.w3.org/2000/svg" viewBox="0 0 1024 684"><filter id="b"><feGaussianBlur stdDeviation="12" /></filter><path d="M0 0h1024v684H0z" fill="#858883" /><g filter="url(#b)" transform="scale(4.000000) translate(0.5 0.5)"><g transform="translate(246.159659 75.915128) rotate(195.397203) scale(42.788228 244.331027)"><ellipse fill="#f1feff" fill-opacity=".501961" cx="0" cy="0" rx="1" ry="1" /></g><g transform="translate(19.102276 42.026436) rotate(191.395309) scale(26.937391 200.085195)"><ellipse fill="#000" fill-opacity=".501961" cx="0" cy="0" rx="1" ry="1" /></g><g transform="translate(154.108771 26.661950) rotate(99.155407) scale(50.490821 25.129743)"><ellipse fill="#fff" fill-opacity=".501961" cx="0" cy="0" rx="1" ry="1" /></g><g transform="translate(116.001586 117.660340) rotate(233.869525) scale(74.496277 42.529934)"><ellipse fill="#3e3d34" fill-opacity=".501961" cx="0" cy="0" rx="1" ry="1" /></g><path fill="#e2f3ff" fill-opacity=".501961" d="M107 185 17 54 36 176z" /><g transform="translate(68.669667 39.989457) rotate(307.391299) scale(64.701862 11.776567)"><ellipse fill="#fff" fill-opacity=".501961" cx="0" cy="0" rx="1" ry="1" /></g><g transform="translate(176.048424 68.076166) rotate(204.153476) scale(12.876934 35.222793)"><ellipse fill="#270000" fill-opacity=".501961" cx="0" cy="0" rx="1" ry="1" /></g><g transform="translate(15.191889 150.415231) rotate(354.415552) scale(15.890821 61.272489)"><ellipse fill="#000" fill-opacity=".501961" cx="0" cy="0" rx="1" ry="1" /></g></g></svg>