<svg xmlns="http://www.w3.org/2000/svg" viewBox="0 0 684 1024"><filter id="b"><feGaussianBlur stdDeviation="12" /></filter><path d="M0 0h684v1024H0z" fill="#5f7b9e" /><g filter="url(#b)" transform="scale(4.000000) translate(0.5 0.5)"><ellipse fill="#2f2317" fill-opacity=".501961" cx="170" cy="144" rx="110" ry="30" /><g transform="translate(78.355857 11.010910) rotate(271.641266) scale(16.099582 162.110085)"><ellipse fill="#9ce4ff" fill-opacity=".501961" cx="0" cy="0" rx="1" ry="1" /></g><g transform="translate(113.673618 84.564532) rotate(348.934107) scale(32.515708 73.610695)"><ellipse fill="#8c9aaf" fill-opacity=".501961" cx="0" cy="0" rx="1" ry="1" /></g><ellipse fill="#060000" fill-opacity=".501961" cx="163" cy="147" rx="9" ry="30" /><ellipse fill="#3562a8" fill-opacity=".501961" cx="79" cy="255" rx="80" ry="80" /><g transform="translate(50.249395 33.658898) rotate(262.225829) scale(18.308082 40.816332)"><ellipse fill="#7c6455" fill-opacity=".501961" cx="0" cy="0" rx="1" ry="1" /></g><g transform="translate(160 36) rotate(121) scale(16 30)"><path d="M0 0h684v1024H0z" fill="#1f2000" /></g><g transform="translate(68.097980 122.785752) rotate(32.003044) scale(41.227179 11.392164)"><ellipse fill="#362a27" fill-opacity=".501961" cx="0" cy="0" rx="1" ry="1" /></g></g></svg>