<svg xmlns="http://www.w3.org/2000/svg" viewBox="0 0 684 1024"><filter id="b"><feGaussianBlur stdDeviation="12" /></filter><path d="M0 0h684v1024H0z" fill="#415d79" /><g filter="url(#b)" transform="scale(4.000000) translate(0.5 0.5)"><ellipse fill="#0af" fill-opacity=".501961" cx="80" cy="19" rx="41" ry="64" /><g transform="translate(17.075858 68.620762) rotate(341.639966) scale(35.850685 61.574404)"><ellipse fill="#000006" fill-opacity=".501961" cx="0" cy="0" rx="1" ry="1" /></g><g transform="translate(168.426999 44.779405) rotate(350.228862) scale(42.476857 53.795563)"><ellipse fill="#000" fill-opacity=".501961" cx="0" cy="0" rx="1" ry="1" /></g><g transform="translate(51 173) rotate(250) scale(84 120)"><path d="M0 0h684v1024H0z" fill="#918a9c" /></g><path d="M0 0h684v1024H0z" fill="#089bf6" /><ellipse fill="#918ca6" fill-opacity=".501961" cx="55" cy="250" rx="47" ry="22" /><g transform="translate(150.025709 119.922229) rotate(41.589558) scale(55.140272 25.385086)"><ellipse fill="#7d717d" fill-opacity=".501961" cx="0" cy="0" rx="1" ry="1" /></g><g transform="translate(16.847806 31.885551) rotate(1.257098) scale(24.930821 81.029036)"><ellipse fill="#00253f" fill-opacity=".501961" cx="0" cy="0" rx="1" ry="1" /></g></g></svg>