<svg xmlns="http://www.w3.org/2000/svg" viewBox="0 0 684 1024"><filter id="b"><feGaussianBlur stdDeviation="12" /></filter><path d="M0 0h684v1024H0z" fill="#737c85" /><g filter="url(#b)" transform="scale(4.000000) translate(0.5 0.5)"><g transform="translate(148.735018 220.493616) rotate(286.286371) scale(33.560283 44.927322)"><ellipse fill="#fff" fill-opacity=".501961" cx="0" cy="0" rx="1" ry="1" /></g><g transform="translate(25.717099 215.278277) rotate(230.226406) scale(141.891702 55.495872)"><ellipse fill="#002350" fill-opacity=".501961" cx="0" cy="0" rx="1" ry="1" /></g><g transform="translate(42.308201 108.107598) rotate(26.478009) scale(38.403156 21.997978)"><ellipse fill="#fffff9" fill-opacity=".501961" cx="0" cy="0" rx="1" ry="1" /></g><g transform="translate(144.729502 43.079478) rotate(41.796329) scale(32.129286 50.475948)"><ellipse fill="#e2deda" fill-opacity=".501961" cx="0" cy="0" rx="1" ry="1" /></g><g transform="translate(127.989291 112.734523) rotate(282.414544) scale(31.703956 51.436963)"><ellipse fill="#002246" fill-opacity=".501961" cx="0" cy="0" rx="1" ry="1" /></g><g transform="translate(45.267275 60.792986) rotate(260.144013) scale(45.355671 14.845311)"><ellipse fill="#d8bf9e" fill-opacity=".501961" cx="0" cy="0" rx="1" ry="1" /></g><path fill="#71602e" fill-opacity=".501961" d="M105 32 38-14 76 101z" /><ellipse fill="#3f324a" fill-opacity=".501961" cx="62" cy="150" rx="10" ry="37" /></g></svg>