<svg xmlns="http://www.w3.org/2000/svg" viewBox="0 0 1024 684"><filter id="b"><feGaussianBlur stdDeviation="12" /></filter><path d="M0 0h1024v684H0z" fill="#8e9cb2" /><g filter="url(#b)" transform="scale(4.000000) translate(0.5 0.5)"><g transform="translate(232.395395 7.209744) rotate(290.699628) scale(76.030594 37.215794)"><ellipse fill="#18160e" fill-opacity=".501961" cx="0" cy="0" rx="1" ry="1" /></g><ellipse fill="#bec6d5" fill-opacity=".501961" cx="122" cy="154" rx="99" ry="99" /><g transform="translate(145 117) rotate(30) scale(26 32)"><path d="M0 0h1024v684H0z" fill="#020623" /></g><g transform="translate(12.550972 25.970634) rotate(211.828850) scale(45.660695 40.092701)"><ellipse fill="#2e547a" fill-opacity=".501961" cx="0" cy="0" rx="1" ry="1" /></g><g transform="translate(131.985626 30.106976) rotate(299.421860) scale(48.798975 61.216558)"><ellipse fill="#afcde9" fill-opacity=".501961" cx="0" cy="0" rx="1" ry="1" /></g><g transform="translate(255.000000 122.652411) rotate(217.674985) scale(44.499636 16.946528)"><ellipse fill="#1c3a72" fill-opacity=".501961" cx="0" cy="0" rx="1" ry="1" /></g><path fill="#0c1313" fill-opacity=".501961" d="M200.054963 8.256761 188.837624 55.837992 271-16 182.495309 93.098648z" /><ellipse fill="#fff" fill-opacity=".501961" cx="243" cy="39" rx="6" ry="17" /></g></svg>