<svg xmlns="http://www.w3.org/2000/svg" viewBox="0 0 684 1024"><filter id="b"><feGaussianBlur stdDeviation="12" /></filter><path d="M0 0h684v1024H0z" fill="#8e93a2" /><g filter="url(#b)" transform="scale(4.000000) translate(0.5 0.5)"><g transform="translate(67.156473 136.922600) rotate(345.560135) scale(28.959815 54.882619)"><ellipse fill="#231724" fill-opacity=".501961" cx="0" cy="0" rx="1" ry="1" /></g><g transform="translate(60.694211 229.499099) rotate(212.097011) scale(170.000000 38.655945)"><ellipse fill="#bdb4b9" fill-opacity=".501961" cx="0" cy="0" rx="1" ry="1" /></g><g transform="translate(137.345953 104.457550) rotate(338.117408) scale(40.558022 149.362917)"><ellipse fill="#a1b1c7" fill-opacity=".501961" cx="0" cy="0" rx="1" ry="1" /></g><g transform="translate(80 149) rotate(-1) scale(25 96)"><path d="M0 0h684v1024H0z" fill="#3e2b36" /></g><path fill="#190d07" fill-opacity=".501961" d="M186 231l-21 25-8-18z" /><path fill="#75879c" fill-opacity=".501961" d="M7.369518-12.528953 90.012827 80.655404 73.958409 115.289296-.068953 31.476122z" /><path fill="#a1a3b0" fill-opacity=".501961" d="M79 169l69 102 37-123z" /><g transform="translate(9.970714 129.920949) rotate(359.516257) scale(19.108445 36.279008)"><ellipse fill="#bcbabb" fill-opacity=".501961" cx="0" cy="0" rx="1" ry="1" /></g></g></svg>