<svg xmlns="http://www.w3.org/2000/svg" viewBox="0 0 1024 684"><filter id="b"><feGaussianBlur stdDeviation="12" /></filter><path d="M0 0h1024v684H0z" fill="#746b61" /><g filter="url(#b)" transform="scale(4.000000) translate(0.5 0.5)"><g transform="translate(204.754848 13.251278) rotate(41.850675) scale(78.630717 40.776080)"><ellipse fill="#fff" fill-opacity=".501961" cx="0" cy="0" rx="1" ry="1" /></g><ellipse fill="#000" fill-opacity=".501961" cx="170" cy="138" rx="69" ry="69" /><g transform="translate(11.351108 64.366404) rotate(291.971598) scale(69.068332 21.049986)"><ellipse fill="#fff" fill-opacity=".501961" cx="0" cy="0" rx="1" ry="1" /></g><g transform="translate(117.731737 60.897753) rotate(108.075001) scale(44.128727 16.217124)"><ellipse fill="#fff" fill-opacity=".501961" cx="0" cy="0" rx="1" ry="1" /></g><g transform="translate(82.654987 133.287226) rotate(278.782150) scale(22.717735 41.963761)"><ellipse fill="#000" fill-opacity=".501961" cx="0" cy="0" rx="1" ry="1" /></g><path fill="#fbffff" fill-opacity=".501961" d="M155.122632 103.385649 159.583918 82.682395 137.333211 69.40086 133.941403 98.149488z" /><g transform="translate(87.541143 28.182677) rotate(100.136522) scale(89.792943 17.125891)"><ellipse fill="#160600" fill-opacity=".501961" cx="0" cy="0" rx="1" ry="1" /></g><g transform="translate(250.028788 112.239382) rotate(355.755840) scale(32.612222 10.039430)"><ellipse fill="#fff" fill-opacity=".501961" cx="0" cy="0" rx="1" ry="1" /></g></g></svg>