<svg xmlns="http://www.w3.org/2000/svg" viewBox="0 0 684 1024"><filter id="b"><feGaussianBlur stdDeviation="12" /></filter><path d="M0 0h684v1024H0z" fill="#9a9ea8" /><g filter="url(#b)" transform="scale(4.000000) translate(0.5 0.5)"><g transform="translate(126.328211 54.451232) rotate(83.775498) scale(34.523953 74.046601)"><ellipse fill="#344052" fill-opacity=".501961" cx="0" cy="0" rx="1" ry="1" /></g><g transform="translate(0.320646 102.904148) rotate(103.090691) scale(67.641374 56.009222)"><ellipse fill="#fbffff" fill-opacity=".501961" cx="0" cy="0" rx="1" ry="1" /></g><g transform="translate(90.873101 147.797647) rotate(203.601396) scale(17.581666 23.366553)"><ellipse fill="#141331" fill-opacity=".501961" cx="0" cy="0" rx="1" ry="1" /></g><path fill="#1e1111" fill-opacity=".501961" d="M9-10-16-8 40 51z" /><ellipse fill="#c7c9d2" fill-opacity=".501961" cx="170" cy="149" rx="56" ry="56" /><ellipse fill="#8aa2cc" fill-opacity=".501961" cx="133" cy="74" rx="31" ry="26" /><g transform="translate(124.101973 37.867750) rotate(362.810111) scale(64.196153 12.071613)"><ellipse fill="#3d3733" fill-opacity=".501961" cx="0" cy="0" rx="1" ry="1" /></g><ellipse fill="#fff" fill-opacity=".501961" cx="138" cy="8" rx="10" ry="20" /></g></svg>