<svg xmlns="http://www.w3.org/2000/svg" viewBox="0 0 684 1024"><filter id="b"><feGaussianBlur stdDeviation="12" /></filter><path d="M0 0h684v1024H0z" fill="#8e96b0" /><g filter="url(#b)" transform="scale(4.000000) translate(0.5 0.5)"><path fill="#1a1d2d" fill-opacity=".501961" d="M40 0 174 83 41 113z" /><g transform="translate(14.382880 31.349033) rotate(170.517945) scale(22.778333 57.589704)"><ellipse fill="#ffffec" fill-opacity=".501961" cx="0" cy="0" rx="1" ry="1" /></g><g transform="translate(118.879814 216.851088) rotate(176.762006) scale(168.407346 46.522481)"><ellipse fill="#d0cdea" fill-opacity=".501961" cx="0" cy="0" rx="1" ry="1" /></g><path fill="#14182c" fill-opacity=".501961" d="M16 90l64 11-96 23z" /><ellipse fill="#000029" fill-opacity=".501961" cx="83" cy="163" rx="11" ry="18" /><g transform="translate(153.885802 82.701648) rotate(148.168609) scale(123.697659 22.879762)"><ellipse fill="#2a60a1" fill-opacity=".501961" cx="0" cy="0" rx="1" ry="1" /></g><g transform="translate(90.073366 7.646643) rotate(77.966921) scale(31.621146 14.975228)"><ellipse fill="#ffffd0" fill-opacity=".501961" cx="0" cy="0" rx="1" ry="1" /></g><g transform="translate(150 149) rotate(243) scale(47 97)"><path d="M0 0h684v1024H0z" fill="#d5c9da" /></g></g></svg>