<svg xmlns="http://www.w3.org/2000/svg" viewBox="0 0 684 1024"><filter id="b"><feGaussianBlur stdDeviation="12" /></filter><path d="M0 0h684v1024H0z" fill="#737778" /><g filter="url(#b)" transform="scale(4.000000) translate(0.5 0.5)"><g transform="translate(148.923040 190.668341) rotate(84.244238) scale(90.312301 39.051361)"><ellipse fill="#000" fill-opacity=".501961" cx="0" cy="0" rx="1" ry="1" /></g><g transform="translate(82.756011 7.429124) rotate(374.630841) scale(170.000000 32.864866)"><ellipse fill="#fff" fill-opacity=".501961" cx="0" cy="0" rx="1" ry="1" /></g><ellipse fill="#fff" fill-opacity=".501961" cx="1" cy="80" rx="21" ry="123" /><g transform="translate(18.745721 221.524451) rotate(188.868235) scale(20.744367 82.487531)"><ellipse fill="#000" fill-opacity=".501961" cx="0" cy="0" rx="1" ry="1" /></g><g transform="translate(159.963851 82.360559) rotate(308.955172) scale(21.854803 48.682762)"><ellipse fill="#fff" fill-opacity=".501961" cx="0" cy="0" rx="1" ry="1" /></g><g transform="translate(149.231109 196.422809) rotate(261.537614) scale(85.498321 34.196758)"><ellipse fill="#000" fill-opacity=".501961" cx="0" cy="0" rx="1" ry="1" /></g><g transform="translate(39.046145 67.647120) rotate(361.800025) scale(19.809311 44.041525)"><ellipse fill="#1b1614" fill-opacity=".501961" cx="0" cy="0" rx="1" ry="1" /></g><ellipse fill="#9bbdcb" fill-opacity=".501961" cx="71" cy="222" rx="33" ry="43" /></g></svg>