<svg xmlns="http://www.w3.org/2000/svg" viewBox="0 0 1024 683"><filter id="b"><feGaussianBlur stdDeviation="12" /></filter><path d="M0 0h1024v683H0z" fill="#b27f86" /><g filter="url(#b)" transform="scale(4.000000) translate(0.5 0.5)"><g transform="translate(105.325302 158.703711) rotate(306.470262) scale(72.499984 79.606018)"><ellipse fill="#e20015" fill-opacity=".501961" cx="0" cy="0" rx="1" ry="1" /></g><g transform="translate(137.842571 37.543464) rotate(337.647092) scale(21.229135 101.533839)"><ellipse fill="#edfff7" fill-opacity=".501961" cx="0" cy="0" rx="1" ry="1" /></g><ellipse fill="#9bcfc0" fill-opacity=".501961" cx="235" cy="105" rx="57" ry="152" /><g transform="translate(121.007919 89.693546) rotate(330.003624) scale(22.289999 32.947204)"><ellipse fill="#9e0021" fill-opacity=".501961" cx="0" cy="0" rx="1" ry="1" /></g><g transform="translate(56 109) rotate(51) scale(51 16)"><path d="M0 0h1024v683H0z" fill="#000" /></g><path fill="#d9fff5" fill-opacity=".501961" d="M56.643314 110.177952 18.532152 104.987369 22.206797 183.907202-16 153.559364z" /><g transform="translate(122.048096 148.502135) rotate(79.402502) scale(37.413625 56.278298)"><ellipse fill="#f10043" fill-opacity=".501961" cx="0" cy="0" rx="1" ry="1" /></g><g transform="translate(15.035003 53.611680) rotate(10.452517) scale(30.050811 92.275093)"><ellipse fill="#6c9885" fill-opacity=".501961" cx="0" cy="0" rx="1" ry="1" /></g></g></svg>