<svg xmlns="http://www.w3.org/2000/svg" viewBox="0 0 684 1024"><filter id="b"><feGaussianBlur stdDeviation="12" /></filter><path d="M0 0h684v1024H0z" fill="#605d4d" /><g filter="url(#b)" transform="scale(4.000000) translate(0.5 0.5)"><path fill="#b0b35a" fill-opacity=".501961" d="M40 223-5 74 1e2 2z" /><path fill="#040901" fill-opacity=".501961" d="M171 47l15 69-93 78z" /><ellipse fill="#a16b9a" fill-opacity=".501961" cx="95" cy="215" rx="56" ry="26" /><g transform="translate(19.029781 248.173323) rotate(248.081686) scale(33.094432 35.257262)"><ellipse fill="#0b0008" fill-opacity=".501961" cx="0" cy="0" rx="1" ry="1" /></g><g transform="translate(0.000000 34.219220) rotate(346.138523) scale(38.958360 26.072672)"><ellipse fill="#010f00" fill-opacity=".501961" cx="0" cy="0" rx="1" ry="1" /></g><g transform="translate(163.240182 237.694576) rotate(36.943286) scale(18.286051 65.396393)"><ellipse fill="#00000f" fill-opacity=".501961" cx="0" cy="0" rx="1" ry="1" /></g><g transform="translate(87.881940 103.257130) rotate(350.028399) scale(24.165331 36.451674)"><ellipse fill="#3a54a4" fill-opacity=".501961" cx="0" cy="0" rx="1" ry="1" /></g><g transform="translate(158.566298 15.097678) rotate(388.089680) scale(49.364667 28.705405)"><ellipse fill="#182b2c" fill-opacity=".501961" cx="0" cy="0" rx="1" ry="1" /></g></g></svg>