<svg xmlns="http://www.w3.org/2000/svg" viewBox="0 0 1024 684"><filter id="b"><feGaussianBlur stdDeviation="12" /></filter><path d="M0 0h1024v684H0z" fill="#395460" /><g filter="url(#b)" transform="scale(4.000000) translate(0.5 0.5)"><g transform="translate(93.248781 11.265763) rotate(260.639180) scale(43.371320 238.827278)"><ellipse fill="#2cbdff" fill-opacity=".501961" cx="0" cy="0" rx="1" ry="1" /></g><g transform="translate(80.378341 103.311836) rotate(250.147919) scale(44.983372 149.903985)"><ellipse fill="#1b0902" fill-opacity=".501961" cx="0" cy="0" rx="1" ry="1" /></g><g transform="translate(198.668339 114.599349) rotate(318.950557) scale(50.007143 33.411264)"><ellipse fill="#b9a491" fill-opacity=".501961" cx="0" cy="0" rx="1" ry="1" /></g><g transform="translate(80.927446 149.452424) rotate(163.474531) scale(105.664004 25.673038)"><ellipse fill="#3a260c" fill-opacity=".501961" cx="0" cy="0" rx="1" ry="1" /></g><g transform="translate(152.545302 170.000000) rotate(286.808011) scale(13.335690 31.573682)"><ellipse fill="#ffebda" fill-opacity=".501961" cx="0" cy="0" rx="1" ry="1" /></g><g transform="translate(255.000000 141.096954) rotate(164.474131) scale(46.332057 29.679812)"><ellipse fill="#3c1e00" fill-opacity=".501961" cx="0" cy="0" rx="1" ry="1" /></g><g transform="translate(234.212412 15.455352) rotate(5.216375) scale(95.678393 25.426066)"><ellipse fill="#0083d3" fill-opacity=".501961" cx="0" cy="0" rx="1" ry="1" /></g><ellipse fill="#90b3d4" fill-opacity=".501961" cx="36" cy="44" rx="65" ry="19" /></g></svg>