<svg xmlns="http://www.w3.org/2000/svg" viewBox="0 0 1024 684"><filter id="b"><feGaussianBlur stdDeviation="12" /></filter><path d="M0 0h1024v684H0z" fill="#19597c" /><g filter="url(#b)" transform="scale(4.000000) translate(0.5 0.5)"><g transform="translate(105.512093 27.664094) rotate(259.037681) scale(47.309696 151.112859)"><ellipse fill="#41d1ff" fill-opacity=".501961" cx="0" cy="0" rx="1" ry="1" /></g><g transform="translate(216.068058 119.127953) rotate(91.848107) scale(31.441067 255.000000)"><ellipse fill="#000" fill-opacity=".501961" cx="0" cy="0" rx="1" ry="1" /></g><g transform="translate(50.011177 61.697096) rotate(284.844436) scale(19.130647 68.851297)"><ellipse fill="#d3e4ff" fill-opacity=".501961" cx="0" cy="0" rx="1" ry="1" /></g><g transform="translate(239.054068 69.252532) rotate(268.479614) scale(21.742852 97.576744)"><ellipse fill="#0e0d0f" fill-opacity=".501961" cx="0" cy="0" rx="1" ry="1" /></g><g transform="translate(25.765527 159.614229) rotate(260.017794) scale(9.284134 65.090418)"><ellipse fill="#020000" fill-opacity=".501961" cx="0" cy="0" rx="1" ry="1" /></g><path fill="#000008" fill-opacity=".501961" d="M30.203377 88.151589-.237326 148.917303-7.217736 17.584726-16 37.192528z" /><ellipse fill="#000" fill-opacity=".501961" cx="214" cy="167" rx="23" ry="42" /><g transform="translate(150.990614 3.938627) rotate(269.842833) scale(40.372891 166.614161)"><ellipse fill="#007ad3" fill-opacity=".501961" cx="0" cy="0" rx="1" ry="1" /></g></g></svg>