<svg xmlns="http://www.w3.org/2000/svg" viewBox="0 0 1024 684"><filter id="b"><feGaussianBlur stdDeviation="12" /></filter><path d="M0 0h1024v684H0z" fill="#6c6841" /><g filter="url(#b)" transform="scale(4.000000) translate(0.5 0.5)"><g transform="translate(107.315112 22.876734) rotate(57.390838) scale(51.088254 77.900392)"><ellipse fill="#ffffc2" fill-opacity=".501961" cx="0" cy="0" rx="1" ry="1" /></g><g transform="translate(124.242533 149.130542) rotate(437.341634) scale(56.819334 98.127836)"><ellipse fill="#000010" fill-opacity=".501961" cx="0" cy="0" rx="1" ry="1" /></g><path fill="#fdcfc9" fill-opacity=".501961" d="M103.677644 121.014663 91.653802 134.727731 73.663976 132.753489 85.901827 75.866658z" /><path fill="#fffea0" fill-opacity=".501961" d="M29.296667 9.945881 150.827107 38.045445 192.114742 61.764782 181.643474-16z" /><ellipse fill="#140207" fill-opacity=".501961" cx="199" cy="46" rx="12" ry="98" /><g transform="translate(145.956935 49.758219) rotate(244.205713) scale(11.602906 15.859457)"><ellipse fill="#0b0014" fill-opacity=".501961" cx="0" cy="0" rx="1" ry="1" /></g><g transform="translate(153.816316 134.817012) rotate(76.705375) scale(58.271902 29.215313)"><ellipse fill="#00000a" fill-opacity=".501961" cx="0" cy="0" rx="1" ry="1" /></g><g transform="translate(103.184604 44.869365) rotate(215.407544) scale(27.004213 38.980379)"><ellipse fill="#fffdaf" fill-opacity=".501961" cx="0" cy="0" rx="1" ry="1" /></g></g></svg>