<svg xmlns="http://www.w3.org/2000/svg" viewBox="0 0 678 1024"><filter id="b"><feGaussianBlur stdDeviation="12" /></filter><path d="M0 0h678v1024H0z" fill="#62595b" /><g filter="url(#b)" transform="scale(4.000000) translate(0.5 0.5)"><ellipse fill="#000" fill-opacity=".501961" cx="89" cy="231" rx="85" ry="85" /><g transform="translate(115.728697 34.634830) rotate(-27.078781) scale(168.000000 71.086764)"><ellipse fill="#b6c3c6" fill-opacity=".501961" cx="0" cy="0" rx="1" ry="1" /></g><g transform="translate(87 95) rotate(267) scale(44 43)"><path d="M0 0h678v1024H0z" fill="#000" /></g><g transform="translate(61.438432 168.170716) rotate(288.727382) scale(30.557729 62.563569)"><ellipse fill="#480400" fill-opacity=".501961" cx="0" cy="0" rx="1" ry="1" /></g><g transform="translate(95.768215 246.649845) rotate(349.385309) scale(144.233633 49.561531)"><ellipse fill="#000" fill-opacity=".501961" cx="0" cy="0" rx="1" ry="1" /></g><g transform="translate(163.140656 127.279320) rotate(77.350508) scale(50.531229 12.773306)"><ellipse fill="#bfced8" fill-opacity=".501961" cx="0" cy="0" rx="1" ry="1" /></g><g transform="translate(44.712820 71.814492) rotate(231.248802) scale(23.719417 80.971563)"><ellipse fill="#c6c7c5" fill-opacity=".501961" cx="0" cy="0" rx="1" ry="1" /></g><g transform="translate(3.528387 197.147786) rotate(239.101497) scale(20.528485 41.073497)"><ellipse fill="#99a4aa" fill-opacity=".501961" cx="0" cy="0" rx="1" ry="1" /></g></g></svg>