<svg xmlns="http://www.w3.org/2000/svg" viewBox="0 0 678 1024"><filter id="b"><feGaussianBlur stdDeviation="12" /></filter><path d="M0 0h678v1024H0z" fill="#888c8d" /><g filter="url(#b)" transform="scale(4.000000) translate(0.5 0.5)"><g transform="translate(79.006219 129.641309) rotate(178.106844) scale(18.436102 45.309357)"><ellipse fill="#00031e" fill-opacity=".501961" cx="0" cy="0" rx="1" ry="1" /></g><ellipse fill="#57300e" fill-opacity=".501961" cx="23" cy="8" rx="19" ry="99" /><g transform="translate(131.270691 69.064724) rotate(-1.130762) scale(33.855335 126.012143)"><ellipse fill="#bdc2c1" fill-opacity=".501961" cx="0" cy="0" rx="1" ry="1" /></g><g transform="translate(65.986830 42.008569) rotate(16.360672) scale(22.144826 83.269322)"><ellipse fill="#c8cfd1" fill-opacity=".501961" cx="0" cy="0" rx="1" ry="1" /></g><path fill="#2a2419" fill-opacity=".501961" d="M.310461 269.015878-16 245.535734 18.34766 170.2449 16.225801 271z" /><ellipse fill="#abbcca" fill-opacity=".501961" cx="56" cy="183" rx="27" ry="38" /><ellipse fill="#203345" fill-opacity=".501961" cx="168" cy="201" rx="13" ry="58" /><g transform="translate(73.643713 130.343051) rotate(140.924231) scale(22.939488 23.619427)"><ellipse fill="#002536" fill-opacity=".501961" cx="0" cy="0" rx="1" ry="1" /></g></g></svg>