<svg xmlns="http://www.w3.org/2000/svg" viewBox="0 0 1024 684"><filter id="b"><feGaussianBlur stdDeviation="12" /></filter><path d="M0 0h1024v684H0z" fill="#463c3b" /><g filter="url(#b)" transform="scale(4.000000) translate(0.5 0.5)"><g transform="translate(17.412890 107.221359) rotate(-102.724239) scale(182.491068 31.406353)"><ellipse fill="#f9f8fe" fill-opacity=".501961" cx="0" cy="0" rx="1" ry="1" /></g><ellipse fill="#000" fill-opacity=".501961" cx="255" cy="95" rx="76" ry="78" /><ellipse fill="#7f0000" fill-opacity=".501961" cx="46" cy="55" rx="25" ry="37" /><g transform="translate(97.867693 151.908707) rotate(324.861077) scale(31.576703 44.770579)"><ellipse fill="#000" fill-opacity=".501961" cx="0" cy="0" rx="1" ry="1" /></g><g transform="translate(74.022205 90.810307) rotate(120.890871) scale(9.046587 37.022998)"><ellipse fill="#ffbdb0" fill-opacity=".501961" cx="0" cy="0" rx="1" ry="1" /></g><ellipse fill="#1b0602" fill-opacity=".501961" cx="108" cy="43" rx="53" ry="53" /><g transform="translate(6.194937 32.476936) rotate(51.034291) scale(15.610527 32.745655)"><ellipse fill="#fff" fill-opacity=".501961" cx="0" cy="0" rx="1" ry="1" /></g><path fill="#b3a082" fill-opacity=".501961" d="M190.057745 48.93008 221.308233 27.400443 219.358115 7.326226l-84.33649 11.1807z" /></g></svg>