<svg xmlns="http://www.w3.org/2000/svg" viewBox="0 0 1024 684"><filter id="b"><feGaussianBlur stdDeviation="12" /></filter><path d="M0 0h1024v684H0z" fill="#606b6b" /><g filter="url(#b)" transform="scale(4.000000) translate(0.5 0.5)"><g transform="translate(70.822913 29.698329) rotate(122.908318) scale(59.743419 135.056024)"><ellipse fill="#a9b6c7" fill-opacity=".501961" cx="0" cy="0" rx="1" ry="1" /></g><g transform="translate(142.342852 170.000000) rotate(262.355079) scale(33.979966 255.000000)"><ellipse fill="#190800" fill-opacity=".501961" cx="0" cy="0" rx="1" ry="1" /></g><ellipse fill="#004fb7" fill-opacity=".501961" cx="203" cy="18" rx="79" ry="29" /><g transform="translate(69.538242 11.431356) rotate(321.336802) scale(71.484672 35.439740)"><ellipse fill="#9fc4ef" fill-opacity=".501961" cx="0" cy="0" rx="1" ry="1" /></g><g transform="translate(254.717912 128.481425) rotate(94.197535) scale(255.000000 33.599996)"><ellipse fill="#162217" fill-opacity=".501961" cx="0" cy="0" rx="1" ry="1" /></g><g transform="translate(12.117546 148.669676) rotate(74.021738) scale(16.079611 33.144152)"><ellipse fill="#150600" fill-opacity=".501961" cx="0" cy="0" rx="1" ry="1" /></g><ellipse fill="#8f7b61" fill-opacity=".501961" cx="114" cy="97" rx="90" ry="52" /><g transform="translate(227.477977 17.774506) rotate(175.215377) scale(74.126547 28.119052)"><ellipse fill="#005696" fill-opacity=".501961" cx="0" cy="0" rx="1" ry="1" /></g></g></svg>