<svg xmlns="http://www.w3.org/2000/svg" viewBox="0 0 684 1024"><filter id="b"><feGaussianBlur stdDeviation="12" /></filter><path d="M0 0h684v1024H0z" fill="#6e6864" /><g filter="url(#b)" transform="scale(4.000000) translate(0.5 0.5)"><g transform="translate(93.298536 180.676179) rotate(19.626425) scale(26.446334 55.615696)"><ellipse fill="#000516" fill-opacity=".501961" cx="0" cy="0" rx="1" ry="1" /></g><g transform="translate(48.070789 75.939435) rotate(365.530303) scale(81.762651 69.962268)"><ellipse fill="#908f93" fill-opacity=".501961" cx="0" cy="0" rx="1" ry="1" /></g><g transform="translate(151.658456 26.474046) rotate(152.595788) scale(70.932554 156.235136)"><ellipse fill="#846329" fill-opacity=".501961" cx="0" cy="0" rx="1" ry="1" /></g><g transform="translate(43.811158 125.092801) rotate(216.275925) scale(36.265929 7.456818)"><ellipse fill="#ffe9e1" fill-opacity=".501961" cx="0" cy="0" rx="1" ry="1" /></g><path fill="#181d2f" fill-opacity=".501961" d="M131 85 42 113l17 20z" /><path fill="#fff" fill-opacity=".501961" d="M61 136l26-19 4 20z" /><ellipse fill="#fff5f5" fill-opacity=".501961" cx="91" cy="84" rx="11" ry="11" /><g transform="translate(84.264830 207.623755) rotate(146.617709) scale(14.865977 90.001545)"><ellipse fill="#37383e" fill-opacity=".501961" cx="0" cy="0" rx="1" ry="1" /></g></g></svg>