<svg xmlns="http://www.w3.org/2000/svg" viewBox="0 0 1024 684"><filter id="b"><feGaussianBlur stdDeviation="12" /></filter><path d="M0 0h1024v684H0z" fill="#878e96" /><g filter="url(#b)" transform="scale(4.000000) translate(0.5 0.5)"><g transform="translate(228.257151 72.335954) rotate(249.299243) scale(255.000000 53.936851)"><ellipse fill="#fff" fill-opacity=".501961" cx="0" cy="0" rx="1" ry="1" /></g><g transform="translate(92.014237 135.652055) rotate(155.705178) scale(111.826595 60.097143)"><ellipse fill="#00000b" fill-opacity=".501961" cx="0" cy="0" rx="1" ry="1" /></g><g transform="translate(100.421545 87.467993) rotate(-168.530299) scale(22.691360 45.999733)"><ellipse fill="#ede7fa" fill-opacity=".501961" cx="0" cy="0" rx="1" ry="1" /></g><g transform="translate(196.444910 36.690246) rotate(211.036589) scale(255.000000 42.662779)"><ellipse fill="#fcffff" fill-opacity=".501961" cx="0" cy="0" rx="1" ry="1" /></g><ellipse fill="#fff" fill-opacity=".501961" cx="230" cy="86" rx="31" ry="160" /><g transform="translate(56.767606 151.532975) rotate(296.007358) scale(35.340495 30.542436)"><ellipse fill="#000" fill-opacity=".501961" cx="0" cy="0" rx="1" ry="1" /></g><g transform="translate(151.544602 140.903793) rotate(348.138548) scale(23.303900 95.869255)"><ellipse fill="#0b141f" fill-opacity=".501961" cx="0" cy="0" rx="1" ry="1" /></g><g transform="translate(120.740843 91.875753) rotate(185.083050) scale(14.684461 22.950288)"><ellipse fill="#d69cc1" fill-opacity=".501961" cx="0" cy="0" rx="1" ry="1" /></g></g></svg>