<svg xmlns="http://www.w3.org/2000/svg" viewBox="0 0 1024 681"><filter id="b"><feGaussianBlur stdDeviation="12" /></filter><path d="M0 0h1024v681H0z" fill="#9d9484" /><g filter="url(#b)" transform="scale(4.000000) translate(0.5 0.5)"><g transform="translate(55.445110 0.000000) rotate(106.996923) scale(61.447272 89.944676)"><ellipse fill="#b4dcff" fill-opacity=".501961" cx="0" cy="0" rx="1" ry="1" /></g><g transform="translate(226.375951 32.251759) rotate(215.482806) scale(88.883088 39.999222)"><ellipse fill="#603100" fill-opacity=".501961" cx="0" cy="0" rx="1" ry="1" /></g><g transform="translate(122.153302 112.533143) rotate(80.236128) scale(16.381214 28.124539)"><ellipse fill="#151510" fill-opacity=".501961" cx="0" cy="0" rx="1" ry="1" /></g><g transform="translate(47.942963 19.727993) rotate(81.801387) scale(30.523446 65.686464)"><ellipse fill="#90bbff" fill-opacity=".501961" cx="0" cy="0" rx="1" ry="1" /></g><ellipse fill="#845f27" fill-opacity=".501961" cx="221" cy="168" rx="38" ry="34" /><path fill="#c6b085" fill-opacity=".501961" d="M188 185 237 67 96 10z" /><g transform="translate(36.322833 130.695389) rotate(206.287632) scale(35.347033 8.802876)"><ellipse fill="#f3e8d3" fill-opacity=".501961" cx="0" cy="0" rx="1" ry="1" /></g><g transform="translate(97 154) rotate(68) scale(36 58)"><path d="M0 0h1024v681H0z" fill="#ddcba6" /></g></g></svg>