<svg xmlns="http://www.w3.org/2000/svg" viewBox="0 0 1024 684"><filter id="b"><feGaussianBlur stdDeviation="12" /></filter><path d="M0 0h1024v684H0z" fill="#837c82" /><g filter="url(#b)" transform="scale(4.000000) translate(0.5 0.5)"><ellipse fill="#fbffff" fill-opacity=".501961" cx="184" cy="10" rx="94" ry="94" /><g transform="translate(51.555204 102.576374) rotate(323.421339) scale(74.411871 147.729146)"><ellipse fill="#382936" fill-opacity=".501961" cx="0" cy="0" rx="1" ry="1" /></g><g transform="translate(215.042236 3.555400) rotate(-1.812911) scale(135.723779 20.980828)"><ellipse fill="#419eff" fill-opacity=".501961" cx="0" cy="0" rx="1" ry="1" /></g><g transform="translate(193.130831 63.710643) rotate(64.251945) scale(35.576260 67.311173)"><ellipse fill="#ffdfa7" fill-opacity=".501961" cx="0" cy="0" rx="1" ry="1" /></g><ellipse fill="#00034f" fill-opacity=".501961" cx="96" cy="121" rx="30" ry="23" /><g transform="translate(231.630141 137.798129) rotate(9.040948) scale(60.011679 35.143642)"><ellipse fill="#4e3d49" fill-opacity=".501961" cx="0" cy="0" rx="1" ry="1" /></g><g transform="translate(62 84) rotate(214) scale(46 27)"><path d="M0 0h1024v684H0z" fill="#bfa4a9" /></g><g transform="translate(56.460929 170.000000) rotate(78.262302) scale(12.187106 50.785559)"><ellipse fill="#00000c" fill-opacity=".501961" cx="0" cy="0" rx="1" ry="1" /></g></g></svg>