<svg xmlns="http://www.w3.org/2000/svg" viewBox="0 0 683 1024"><filter id="b"><feGaussianBlur stdDeviation="12" /></filter><path d="M0 0h683v1024H0z" fill="#707369" /><g filter="url(#b)" transform="scale(4.000000) translate(0.5 0.5)"><g transform="translate(56 67) rotate(385) scale(88 235)"><path d="M0 0h683v1024H0z" fill="#bad0ce" /></g><ellipse fill="#302518" fill-opacity=".501961" cx="132" cy="189" rx="63" ry="127" /><path fill="#9ac5f8" fill-opacity=".501961" d="M146 118l-82 7 48 23z" /><g transform="translate(161.267520 36.751602) rotate(264.735315) scale(43.466951 22.512868)"><ellipse fill="#481c00" fill-opacity=".501961" cx="0" cy="0" rx="1" ry="1" /></g><path fill="#95a6a0" fill-opacity=".501961" d="M-16 171l134-8L-1 268z" /><g transform="translate(110.268322 24.537078) rotate(-63.881879) scale(100.917587 16.482354)"><ellipse fill="#d3d8d0" fill-opacity=".501961" cx="0" cy="0" rx="1" ry="1" /></g><g transform="translate(87.835272 235.329373) rotate(230.147068) scale(31.671199 67.796104)"><ellipse fill="#422c10" fill-opacity=".501961" cx="0" cy="0" rx="1" ry="1" /></g><g transform="translate(10.653227 149.809201) rotate(22.671953) scale(30.190812 99.655846)"><ellipse fill="#667a76" fill-opacity=".501961" cx="0" cy="0" rx="1" ry="1" /></g></g></svg>