<svg xmlns="http://www.w3.org/2000/svg" viewBox="0 0 1024 684"><filter id="b"><feGaussianBlur stdDeviation="12" /></filter><path d="M0 0h1024v684H0z" fill="#3d3c2a" /><g filter="url(#b)" transform="scale(4.000000) translate(0.5 0.5)"><g transform="translate(114.416635 70.009305) rotate(266.707346) scale(19.043330 128.091701)"><ellipse fill="#ffb452" fill-opacity=".501961" cx="0" cy="0" rx="1" ry="1" /></g><ellipse fill="#000" fill-opacity=".501961" cx="41" cy="156" rx="67" ry="67" /><g transform="translate(146.426001 118.599558) rotate(2.620374) scale(61.176053 11.798629)"><ellipse fill="#ffab00" fill-opacity=".501961" cx="0" cy="0" rx="1" ry="1" /></g><g transform="translate(100.388549 26.913042) rotate(263.401710) scale(38.991400 239.339397)"><ellipse fill="#1a607a" fill-opacity=".501961" cx="0" cy="0" rx="1" ry="1" /></g><g transform="translate(116.300589 153.228162) rotate(89.021996) scale(26.408210 239.330933)"><ellipse fill="#000" fill-opacity=".501961" cx="0" cy="0" rx="1" ry="1" /></g><g transform="translate(217.281305 96.226078) rotate(-0.857854) scale(100.410866 15.191719)"><ellipse fill="#000" fill-opacity=".501961" cx="0" cy="0" rx="1" ry="1" /></g><g transform="translate(107.144152 81.171525) rotate(-1.667904) scale(71.749375 9.367712)"><ellipse fill="#ffc400" fill-opacity=".501961" cx="0" cy="0" rx="1" ry="1" /></g><g transform="translate(175.436006 55.624184) rotate(283.074500) scale(19.380551 76.602621)"><ellipse fill="#896150" fill-opacity=".501961" cx="0" cy="0" rx="1" ry="1" /></g></g></svg>