<svg xmlns="http://www.w3.org/2000/svg" viewBox="0 0 684 1024"><filter id="b"><feGaussianBlur stdDeviation="12" /></filter><path d="M0 0h684v1024H0z" fill="#8e827f" /><g filter="url(#b)" transform="scale(4.000000) translate(0.5 0.5)"><g transform="translate(130.579245 72.572836) rotate(40.706351) scale(165.592476 46.145812)"><ellipse fill="#fff" fill-opacity=".501961" cx="0" cy="0" rx="1" ry="1" /></g><g transform="translate(67.509952 171.487518) rotate(90.871639) scale(130.097396 41.855990)"><ellipse fill="#1c0c08" fill-opacity=".501961" cx="0" cy="0" rx="1" ry="1" /></g><g transform="translate(113.131057 166.474297) rotate(228.339730) scale(65.094024 23.766096)"><ellipse fill="#050820" fill-opacity=".501961" cx="0" cy="0" rx="1" ry="1" /></g><g transform="translate(131.276472 56.956412) rotate(116.992968) scale(24.606626 138.231016)"><ellipse fill="#fff" fill-opacity=".501961" cx="0" cy="0" rx="1" ry="1" /></g><g transform="translate(17.044330 241.321069) rotate(278.628162) scale(96.070194 16.958682)"><ellipse fill="#ea6500" fill-opacity=".501961" cx="0" cy="0" rx="1" ry="1" /></g><path fill="#fff" fill-opacity=".501961" d="M156 137 126 6 99 124z" /><ellipse fill="#f2e5ee" fill-opacity=".501961" cx="87" cy="199" rx="24" ry="11" /><g transform="translate(143.256997 255.000000) rotate(257.958229) scale(12.607592 86.210873)"><ellipse fill="#140000" fill-opacity=".501961" cx="0" cy="0" rx="1" ry="1" /></g></g></svg>