<svg xmlns="http://www.w3.org/2000/svg" viewBox="0 0 683 1024"><filter id="b"><feGaussianBlur stdDeviation="12" /></filter><path d="M0 0h683v1024H0z" fill="#8b8478" /><g filter="url(#b)" transform="scale(4.000000) translate(0.5 0.5)"><g transform="translate(87.765374 75.819929) rotate(107.311098) scale(43.160157 51.877101)"><ellipse fill="#181510" fill-opacity=".501961" cx="0" cy="0" rx="1" ry="1" /></g><ellipse fill="#fffffe" fill-opacity=".501961" cx="36" cy="200" rx="39" ry="23" /><g transform="translate(147.826359 162.493745) rotate(322.690159) scale(38.549873 33.333033)"><ellipse fill="#fffae3" fill-opacity=".501961" cx="0" cy="0" rx="1" ry="1" /></g><ellipse fill="#e1e5ef" fill-opacity=".501961" cx="53" cy="0" rx="124" ry="26" /><g transform="translate(17.471042 85.905697) rotate(226.528825) scale(27.181095 42.703297)"><ellipse fill="#0b0f14" fill-opacity=".501961" cx="0" cy="0" rx="1" ry="1" /></g><g transform="translate(146 67) rotate(333) scale(31 31)"><path d="M0 0h683v1024H0z" fill="#fffef0" /></g><ellipse fill="#0e1010" fill-opacity=".501961" cx="95" cy="169" rx="15" ry="22" /><path fill="#010000" fill-opacity=".501961" d="M95.876335 112.242194 88.038682 55.438669 114.460742 23.199642 129.14086 55.308278z" /></g></svg>