<svg xmlns="http://www.w3.org/2000/svg" viewBox="0 0 1024 684"><filter id="b"><feGaussianBlur stdDeviation="12" /></filter><path d="M0 0h1024v684H0z" fill="#79808d" /><g filter="url(#b)" transform="scale(4.000000) translate(0.5 0.5)"><g transform="translate(30.311006 100.222364) rotate(342.238455) scale(42.637923 251.862674)"><ellipse fill="#fff" fill-opacity=".501961" cx="0" cy="0" rx="1" ry="1" /></g><g transform="translate(146.079747 137.119904) rotate(188.840135) scale(59.131681 44.989743)"><ellipse fill="#00003e" fill-opacity=".501961" cx="0" cy="0" rx="1" ry="1" /></g><g transform="translate(135.696702 8.705209) rotate(258.639275) scale(31.156869 50.776656)"><ellipse fill="#160f00" fill-opacity=".501961" cx="0" cy="0" rx="1" ry="1" /></g><g transform="translate(228.383162 13.443990) rotate(166.124231) scale(46.660523 68.942784)"><ellipse fill="#302519" fill-opacity=".501961" cx="0" cy="0" rx="1" ry="1" /></g><g transform="translate(75.221075 35.181434) rotate(71.325179) scale(52.813867 12.200406)"><ellipse fill="#f4f8f7" fill-opacity=".501961" cx="0" cy="0" rx="1" ry="1" /></g><g transform="translate(168.277265 52.553268) rotate(108.072478) scale(15.048048 31.163694)"><ellipse fill="#f4ffff" fill-opacity=".501961" cx="0" cy="0" rx="1" ry="1" /></g><g transform="translate(87 101) rotate(381) scale(34 28)"><path d="M0 0h1024v684H0z" fill="#00001a" /></g><g transform="translate(44.111289 100.551723) rotate(263.142263) scale(101.008770 23.184694)"><ellipse fill="#e6f6ff" fill-opacity=".501961" cx="0" cy="0" rx="1" ry="1" /></g></g></svg>