<svg xmlns="http://www.w3.org/2000/svg" viewBox="0 0 1024 678"><filter id="b"><feGaussianBlur stdDeviation="12" /></filter><path d="M0 0h1024v678H0z" fill="#7a8383" /><g filter="url(#b)" transform="scale(4.000000) translate(0.5 0.5)"><g transform="translate(56.018175 142.379755) rotate(-10.242571) scale(30.006231 51.392572)"><ellipse fill="#000100" fill-opacity=".501961" cx="0" cy="0" rx="1" ry="1" /></g><g transform="translate(228.876854 117.171641) rotate(303.241009) scale(150.574916 68.059440)"><ellipse fill="#d2ced1" fill-opacity=".501961" cx="0" cy="0" rx="1" ry="1" /></g><ellipse fill="#000" fill-opacity=".501961" cx="123" cy="0" rx="12" ry="51" /><g transform="translate(54 11) rotate(250) scale(54 168)"><path d="M0 0h1024v678H0z" fill="#3d4d4f" /></g><g transform="translate(66.505053 111.437259) rotate(95.602605) scale(44.836844 8.148274)"><ellipse fill="#98a298" fill-opacity=".501961" cx="0" cy="0" rx="1" ry="1" /></g><g transform="translate(200.873490 0.000000) rotate(246.623976) scale(25.952146 48.709814)"><ellipse fill="#455254" fill-opacity=".501961" cx="0" cy="0" rx="1" ry="1" /></g><path fill="#121f22" fill-opacity=".501961" d="M115.948502 98.099688 115.967466 65.431441 124.554381 57.710424 130.139117 94.414745z" /><path fill="#191c1a" fill-opacity=".501961" d="M16.596464 184 23.732949 152.8426 59.506322 66.378574 57.719011 184z" /></g></svg>