<svg xmlns="http://www.w3.org/2000/svg" viewBox="0 0 1024 684"><filter id="b"><feGaussianBlur stdDeviation="12" /></filter><path d="M0 0h1024v684H0z" fill="#969ba6" /><g filter="url(#b)" transform="scale(4.000000) translate(0.5 0.5)"><g transform="translate(34.549109 123.325852) rotate(40.160042) scale(38.923911 96.304969)"><ellipse fill="#00165e" fill-opacity=".501961" cx="0" cy="0" rx="1" ry="1" /></g><g transform="translate(236.174998 54.498252) rotate(231.050028) scale(255.000000 55.009697)"><ellipse fill="#ffd" fill-opacity=".501961" cx="0" cy="0" rx="1" ry="1" /></g><path d="M0 0h1024v684H0z" fill="#2b1013" /><g transform="translate(107.501679 11.929316) rotate(190.360184) scale(34.413666 35.142998)"><ellipse fill="#ffffe9" fill-opacity=".501961" cx="0" cy="0" rx="1" ry="1" /></g><path fill="#389bf5" fill-opacity=".501961" d="M62 186 5 108l213 45z" /><g transform="translate(110.091065 135.229128) rotate(161.955890) scale(55.458163 14.585231)"><ellipse fill="#fff" fill-opacity=".501961" cx="0" cy="0" rx="1" ry="1" /></g><g transform="translate(34.266944 40.601881) rotate(83.487138) scale(47.645715 20.429813)"><ellipse fill="#f9e3ce" fill-opacity=".501961" cx="0" cy="0" rx="1" ry="1" /></g><g transform="translate(84.799432 95.779298) rotate(24.066022) scale(36.226869 17.252619)"><ellipse fill="#0c0f1a" fill-opacity=".501961" cx="0" cy="0" rx="1" ry="1" /></g></g></svg>