<svg xmlns="http://www.w3.org/2000/svg" viewBox="0 0 1024 681"><filter id="b"><feGaussianBlur stdDeviation="12" /></filter><path d="M0 0h1024v681H0z" fill="#454c41" /><g filter="url(#b)" transform="scale(4.000000) translate(0.5 0.5)"><path d="M0 0h1024v681H0z" fill="#fff" /><ellipse fill="#001200" fill-opacity=".501961" cx="178" cy="22" rx="74" ry="30" /><path fill="#cab4b2" fill-opacity=".501961" d="M130.338615 96.254507 109.956022 93.797927 115.046144 71.740638 187.178315 55.821608z" /><g transform="translate(191.039285 161.390035) rotate(297.467339) scale(71.336872 19.243316)"><ellipse fill="#979a97" fill-opacity=".501961" cx="0" cy="0" rx="1" ry="1" /></g><g transform="translate(75.065507 113.984285) rotate(119.990155) scale(29.796247 9.155042)"><ellipse fill="#e2b79a" fill-opacity=".501961" cx="0" cy="0" rx="1" ry="1" /></g><ellipse fill="#0b0102" fill-opacity=".501961" cx="146" cy="106" rx="62" ry="14" /><path fill="#6c7575" fill-opacity=".501961" d="M51 185l85-58 104 30z" /><g transform="translate(244.058472 64.323980) rotate(3.045823) scale(16.043208 133.576363)"><ellipse fill="#224c13" fill-opacity=".501961" cx="0" cy="0" rx="1" ry="1" /></g></g></svg>