<svg xmlns="http://www.w3.org/2000/svg" viewBox="0 0 684 1024"><filter id="b"><feGaussianBlur stdDeviation="12" /></filter><path d="M0 0h684v1024H0z" fill="#8e97ad" /><g filter="url(#b)" transform="scale(4.000000) translate(0.5 0.5)"><path fill="#002452" fill-opacity=".501961" d="M186-3-6-1 6 91z" /><g transform="translate(153.731088 98.042242) rotate(293.297099) scale(35.670932 72.566449)"><ellipse fill="#fffeff" fill-opacity=".501961" cx="0" cy="0" rx="1" ry="1" /></g><ellipse fill="#000026" fill-opacity=".501961" cx="79" cy="131" rx="29" ry="17" /><g transform="translate(18.200156 180.678999) rotate(96.604587) scale(70.354158 38.833503)"><ellipse fill="#eae6ed" fill-opacity=".501961" cx="0" cy="0" rx="1" ry="1" /></g><g transform="translate(71.975773 66.202996) rotate(54.104768) scale(26.477337 61.721716)"><ellipse fill="#81afe4" fill-opacity=".501961" cx="0" cy="0" rx="1" ry="1" /></g><g transform="translate(130.351152 146.699504) rotate(242.173370) scale(31.183811 24.405181)"><ellipse fill="#dedbe4" fill-opacity=".501961" cx="0" cy="0" rx="1" ry="1" /></g><path fill="#1b1214" fill-opacity=".501961" d="M126-16-16 67 29-16z" /><path fill="#f5dfd1" fill-opacity=".501961" d="M97.424575 66.940217 20.232922 109.528478 28.372879 120.888537 105.223999 109.057465z" /></g></svg>