<svg xmlns="http://www.w3.org/2000/svg" viewBox="0 0 684 1024"><filter id="b"><feGaussianBlur stdDeviation="12" /></filter><path d="M0 0h684v1024H0z" fill="#5d717f" /><g filter="url(#b)" transform="scale(4.000000) translate(0.5 0.5)"><ellipse fill="#8fffff" fill-opacity=".501961" cx="140" cy="58" rx="54" ry="73" /><g transform="translate(85.693037 243.352603) rotate(390.979583) scale(170.000000 73.923796)"><ellipse fill="#342216" fill-opacity=".501961" cx="0" cy="0" rx="1" ry="1" /></g><ellipse fill="#fff" fill-opacity=".501961" cx="108" cy="97" rx="14" ry="72" /><path fill="#21b2ff" fill-opacity=".501961" d="M35-16l136 5 15 128z" /><g transform="translate(3.116690 26.819435) rotate(18.839314) scale(24.825215 53.502242)"><ellipse fill="#8ef8ff" fill-opacity=".501961" cx="0" cy="0" rx="1" ry="1" /></g><g transform="translate(144.357431 149.392312) rotate(46.723532) scale(35.925341 21.349603)"><ellipse fill="#291a00" fill-opacity=".501961" cx="0" cy="0" rx="1" ry="1" /></g><ellipse fill="#422b24" fill-opacity=".501961" cx="53" cy="66" rx="35" ry="57" /><g transform="translate(143 98) rotate(36) scale(119 38)"><path d="M0 0h684v1024H0z" fill="#dbf7ff" /></g></g></svg>