<svg xmlns="http://www.w3.org/2000/svg" viewBox="0 0 1024 678"><filter id="b"><feGaussianBlur stdDeviation="12" /></filter><path d="M0 0h1024v678H0z" fill="#737572" /><g filter="url(#b)" transform="scale(4.000000) translate(0.5 0.5)"><g transform="translate(214.920594 131.521571) rotate(70.424229) scale(92.622026 51.622563)"><ellipse fill="#000" fill-opacity=".501961" cx="0" cy="0" rx="1" ry="1" /></g><g transform="translate(56.881835 57.145163) rotate(-9.237864) scale(98.719322 76.931738)"><ellipse fill="#c0c1c0" fill-opacity=".501961" cx="0" cy="0" rx="1" ry="1" /></g><g transform="translate(228.732753 147.990475) rotate(318.042493) scale(42.372337 105.513659)"><ellipse fill="#000100" fill-opacity=".501961" cx="0" cy="0" rx="1" ry="1" /></g><g transform="translate(0.000000 79.936842) rotate(72.703848) scale(21.985408 38.616711)"><ellipse fill="#292b2c" fill-opacity=".501961" cx="0" cy="0" rx="1" ry="1" /></g><g transform="translate(199.151459 22.513703) rotate(11.815716) scale(105.182742 40.954829)"><ellipse fill="#828c97" fill-opacity=".501961" cx="0" cy="0" rx="1" ry="1" /></g><g transform="translate(100.513279 149.327060) rotate(75.220824) scale(8.518333 81.712867)"><ellipse fill="#cac7bf" fill-opacity=".501961" cx="0" cy="0" rx="1" ry="1" /></g><path fill="#000" fill-opacity=".501961" d="M141 124l12-19-58 5z" /><g transform="translate(56.805409 28.190879) rotate(235.661935) scale(63.254687 29.657293)"><ellipse fill="#c6cac8" fill-opacity=".501961" cx="0" cy="0" rx="1" ry="1" /></g></g></svg>