<svg xmlns="http://www.w3.org/2000/svg" viewBox="0 0 768 1024"><filter id="b"><feGaussianBlur stdDeviation="12" /></filter><path d="M0 0h768v1024H0z" fill="#516578" /><g filter="url(#b)" transform="scale(4.000000) translate(0.5 0.5)"><g transform="translate(172.925902 79.464982) rotate(100.762667) scale(87.664147 36.626806)"><ellipse fill="#dbfbff" fill-opacity=".501961" cx="0" cy="0" rx="1" ry="1" /></g><g transform="translate(25 76) rotate(0) scale(78 187)"><path d="M0 0h768v1024H0z" fill="#000" /></g><g transform="translate(109.749612 78.095591) rotate(188.495791) scale(19.944403 77.072755)"><ellipse fill="#090000" fill-opacity=".501961" cx="0" cy="0" rx="1" ry="1" /></g><g transform="translate(120.384393 227.538115) rotate(-3.864134) scale(106.170035 55.753662)"><ellipse fill="#7993bb" fill-opacity=".501961" cx="0" cy="0" rx="1" ry="1" /></g><ellipse fill="#cfecff" fill-opacity=".501961" cx="167" cy="117" rx="37" ry="37" /><g transform="translate(18.799452 45.258744) rotate(196.981724) scale(32.805791 85.881827)"><ellipse fill="#000" fill-opacity=".501961" cx="0" cy="0" rx="1" ry="1" /></g><g transform="translate(113.582600 134.151326) rotate(51.366227) scale(27.299877 17.808522)"><ellipse fill="#070602" fill-opacity=".501961" cx="0" cy="0" rx="1" ry="1" /></g><g transform="translate(74.566833 67.924658) rotate(12.791963) scale(17.734073 81.191812)"><ellipse fill="#43879c" fill-opacity=".501961" cx="0" cy="0" rx="1" ry="1" /></g></g></svg>