<svg xmlns="http://www.w3.org/2000/svg" viewBox="0 0 684 1024"><filter id="b"><feGaussianBlur stdDeviation="12" /></filter><path d="M0 0h684v1024H0z" fill="#837e83" /><g filter="url(#b)" transform="scale(4.000000) translate(0.5 0.5)"><g transform="translate(88.987113 21.294135) rotate(84.539201) scale(40.312773 170.000000)"><ellipse fill="#000" fill-opacity=".501961" cx="0" cy="0" rx="1" ry="1" /></g><g transform="translate(106.315374 147.679786) rotate(299.967614) scale(67.243808 90.644321)"><ellipse fill="#f3f0fb" fill-opacity=".501961" cx="0" cy="0" rx="1" ry="1" /></g><g transform="translate(11.053767 208.066096) rotate(300.826333) scale(67.925831 31.295255)"><ellipse fill="#35231e" fill-opacity=".501961" cx="0" cy="0" rx="1" ry="1" /></g><ellipse fill="#e7e8f4" fill-opacity=".501961" cx="109" cy="203" rx="26" ry="122" /><g transform="translate(63.827493 15.723523) rotate(269.278256) scale(23.072651 170.000000)"><ellipse fill="#060000" fill-opacity=".501961" cx="0" cy="0" rx="1" ry="1" /></g><g transform="translate(156.829220 252.634846) rotate(142.253440) scale(81.164577 16.612083)"><ellipse fill="#000" fill-opacity=".501961" cx="0" cy="0" rx="1" ry="1" /></g><g transform="translate(51.871582 170.630089) rotate(226.490428) scale(42.718958 26.893699)"><ellipse fill="#978887" fill-opacity=".501961" cx="0" cy="0" rx="1" ry="1" /></g><g transform="translate(98.602960 62.133518) rotate(-81.828685) scale(25.005910 60.855793)"><ellipse fill="#6a6168" fill-opacity=".501961" cx="0" cy="0" rx="1" ry="1" /></g></g></svg>