<svg xmlns="http://www.w3.org/2000/svg" viewBox="0 0 1024 684"><filter id="b"><feGaussianBlur stdDeviation="12" /></filter><path d="M0 0h1024v684H0z" fill="#574a5b" /><g filter="url(#b)" transform="scale(4.000000) translate(0.5 0.5)"><g transform="translate(141.119321 20.641210) rotate(-85.840430) scale(63.738439 160.684593)"><ellipse fill="#c7c2ec" fill-opacity=".501961" cx="0" cy="0" rx="1" ry="1" /></g><g transform="translate(111.000695 137.264767) rotate(365.482191) scale(255.000000 51.134184)"><ellipse fill="#000" fill-opacity=".501961" cx="0" cy="0" rx="1" ry="1" /></g><path d="M0 0h1024v684H0z" fill="#070000" /><ellipse fill="#97e6ff" fill-opacity=".501961" cx="99" cy="0" rx="126" ry="11" /><ellipse fill="#1d0700" fill-opacity=".501961" cx="105" cy="164" rx="70" ry="70" /><g transform="translate(78.114922 69.102843) rotate(116.515245) scale(15.387104 46.276260)"><ellipse fill="#989bc4" fill-opacity=".501961" cx="0" cy="0" rx="1" ry="1" /></g><ellipse fill="#35154c" fill-opacity=".501961" cx="198" cy="94" rx="92" ry="16" /><g transform="translate(101.955978 29.185363) rotate(91.870710) scale(14.103524 106.346181)"><ellipse fill="#84607b" fill-opacity=".501961" cx="0" cy="0" rx="1" ry="1" /></g></g></svg>