<svg xmlns="http://www.w3.org/2000/svg" viewBox="0 0 684 1024"><filter id="b"><feGaussianBlur stdDeviation="12" /></filter><path d="M0 0h684v1024H0z" fill="#8692a0" /><g filter="url(#b)" transform="scale(4.000000) translate(0.5 0.5)"><g transform="translate(27.186760 137.719243) rotate(96.338005) scale(61.493962 116.854468)"><ellipse fill="#112330" fill-opacity=".501961" cx="0" cy="0" rx="1" ry="1" /></g><g transform="translate(137.550950 49.726305) rotate(209.941897) scale(131.775570 54.428883)"><ellipse fill="#e7f6ff" fill-opacity=".501961" cx="0" cy="0" rx="1" ry="1" /></g><g transform="translate(84.238585 255.000000) rotate(250.279062) scale(43.598790 156.147099)"><ellipse fill="#cdd6e9" fill-opacity=".501961" cx="0" cy="0" rx="1" ry="1" /></g><ellipse fill="#002270" fill-opacity=".501961" cx="88" cy="108" rx="23" ry="45" /><g transform="translate(16.436930 78.100527) rotate(-12.914772) scale(23.493951 119.443355)"><ellipse fill="#655841" fill-opacity=".501961" cx="0" cy="0" rx="1" ry="1" /></g><ellipse fill="#e3edfd" fill-opacity=".501961" cx="163" cy="112" rx="33" ry="33" /><g transform="translate(119 150) rotate(186) scale(21 37)"><path d="M0 0h684v1024H0z" fill="#cad6e6" /></g><ellipse fill="#000" fill-opacity=".501961" cx="71" cy="161" rx="9" ry="31" /></g></svg>