<svg xmlns="http://www.w3.org/2000/svg" viewBox="0 0 1024 683"><filter id="b"><feGaussianBlur stdDeviation="12" /></filter><path d="M0 0h1024v683H0z" fill="#8a807b" /><g filter="url(#b)" transform="scale(4.000000) translate(0.5 0.5)"><g transform="translate(193.106910 82.159573) rotate(259.045790) scale(74.992543 34.582530)"><ellipse fill="#fff" fill-opacity=".501961" cx="0" cy="0" rx="1" ry="1" /></g><path fill="#000" fill-opacity=".501961" d="M70 118l177 55L-9 185z" /><ellipse fill="#13020a" fill-opacity=".501961" cx="240" cy="105" rx="11" ry="169" /><g transform="translate(47.955875 89.747235) rotate(273.759747) scale(45.966674 16.261289)"><ellipse fill="#fbfffd" fill-opacity=".501961" cx="0" cy="0" rx="1" ry="1" /></g><g transform="translate(110.240168 45.173811) rotate(-14.403083) scale(55.506930 23.617183)"><ellipse fill="#3d1e16" fill-opacity=".501961" cx="0" cy="0" rx="1" ry="1" /></g><g transform="translate(108.022033 11.051137) rotate(179.155520) scale(41.036570 13.991492)"><ellipse fill="#eaffff" fill-opacity=".501961" cx="0" cy="0" rx="1" ry="1" /></g><g transform="translate(181.588747 101.641400) rotate(157.791998) scale(51.126030 23.169169)"><ellipse fill="#f9f8f0" fill-opacity=".501961" cx="0" cy="0" rx="1" ry="1" /></g><g transform="translate(181.143716 139.635532) rotate(335.530588) scale(9.449585 18.811940)"><ellipse fill="#000006" fill-opacity=".501961" cx="0" cy="0" rx="1" ry="1" /></g></g></svg>