<svg xmlns="http://www.w3.org/2000/svg" viewBox="0 0 684 1024"><filter id="b"><feGaussianBlur stdDeviation="12" /></filter><path d="M0 0h684v1024H0z" fill="#8f8e8c" /><g filter="url(#b)" transform="scale(4.000000) translate(0.5 0.5)"><g transform="translate(99.598148 76.464900) rotate(413.921993) scale(17.838213 44.113964)"><ellipse fill="#000" fill-opacity=".501961" cx="0" cy="0" rx="1" ry="1" /></g><g transform="translate(25.414186 25.988944) rotate(123.058023) scale(95.444551 48.854445)"><ellipse fill="#0051af" fill-opacity=".501961" cx="0" cy="0" rx="1" ry="1" /></g><g transform="translate(149.696283 134.166387) rotate(392.508088) scale(36.052230 138.899959)"><ellipse fill="#f4d8be" fill-opacity=".501961" cx="0" cy="0" rx="1" ry="1" /></g><ellipse fill="#7ac9ff" fill-opacity=".501961" cx="24" cy="101" rx="35" ry="43" /><g transform="translate(84.224548 135.669527) rotate(349.469727) scale(12.596014 48.131303)"><ellipse fill="#1c1a09" fill-opacity=".501961" cx="0" cy="0" rx="1" ry="1" /></g><path fill="#000" fill-opacity=".501961" d="M169 94 69 85 95 56z" /><path fill="#ffdbb7" fill-opacity=".501961" d="M146 21 99-6 52 88z" /><g transform="translate(13.010308 184.244639) rotate(351.905361) scale(24.583176 38.794447)"><ellipse fill="#564631" fill-opacity=".501961" cx="0" cy="0" rx="1" ry="1" /></g></g></svg>