<svg xmlns="http://www.w3.org/2000/svg" viewBox="0 0 684 1024"><filter id="b"><feGaussianBlur stdDeviation="12" /></filter><path d="M0 0h684v1024H0z" fill="#716b7a" /><g filter="url(#b)" transform="scale(4.000000) translate(0.5 0.5)"><g transform="translate(94.034388 19.069348) rotate(87.812393) scale(66.307271 170.000000)"><ellipse fill="#fff" fill-opacity=".501961" cx="0" cy="0" rx="1" ry="1" /></g><g transform="translate(94.829272 208.633407) rotate(219.528656) scale(96.466814 134.240513)"><ellipse fill="#120521" fill-opacity=".501961" cx="0" cy="0" rx="1" ry="1" /></g><ellipse fill="#f3f4fa" fill-opacity=".501961" cx="63" cy="19" rx="69" ry="69" /><ellipse fill="#726c68" fill-opacity=".501961" cx="121" cy="145" rx="34" ry="87" /><g transform="translate(34.677157 230.400476) rotate(29.544858) scale(43.621021 105.820220)"><ellipse fill="#10013a" fill-opacity=".501961" cx="0" cy="0" rx="1" ry="1" /></g><g transform="translate(30.241057 49.418510) rotate(305.571159) scale(113.336205 3.932191)"><ellipse fill="#3a3640" fill-opacity=".501961" cx="0" cy="0" rx="1" ry="1" /></g><g transform="translate(62.949880 48.621572) rotate(123.543539) scale(48.753594 21.445460)"><ellipse fill="#fff" fill-opacity=".501961" cx="0" cy="0" rx="1" ry="1" /></g><path fill="#c1b9b7" fill-opacity=".501961" d="M105.78931 177.990297 136.493354 210.944125 109.203793 244.462154 117.795304 208.989519z" /></g></svg>