<svg xmlns="http://www.w3.org/2000/svg" viewBox="0 0 684 1024"><filter id="b"><feGaussianBlur stdDeviation="12" /></filter><path d="M0 0h684v1024H0z" fill="#8a7f77" /><g filter="url(#b)" transform="scale(4.000000) translate(0.5 0.5)"><g transform="translate(150.706396 94.065984) rotate(278.417617) scale(118.729404 45.325105)"><ellipse fill="#fff" fill-opacity=".501961" cx="0" cy="0" rx="1" ry="1" /></g><g transform="translate(32.993858 32.392743) rotate(63.895592) scale(55.866909 35.850822)"><ellipse fill="#090d00" fill-opacity=".501961" cx="0" cy="0" rx="1" ry="1" /></g><ellipse fill="#250013" fill-opacity=".501961" cx="68" cy="168" rx="24" ry="86" /><ellipse fill="#000004" fill-opacity=".501961" cx="149" cy="235" rx="42" ry="33" /><g transform="translate(8.048737 238.458708) rotate(311.284956) scale(38.046604 17.006683)"><ellipse fill="#000" fill-opacity=".501961" cx="0" cy="0" rx="1" ry="1" /></g><g transform="translate(40 238) rotate(296) scale(41 18)"><path d="M0 0h684v1024H0z" fill="#fff" /></g><g transform="translate(83.609543 22.196220) rotate(175.556393) scale(11.212597 49.096297)"><ellipse fill="#ffecd6" fill-opacity=".501961" cx="0" cy="0" rx="1" ry="1" /></g><path fill="#fff" fill-opacity=".501961" d="M20.023166 168.967507 5.47377 207.535288 45.971335 194.439816 30.539542 169.068034z" /></g></svg>