<svg xmlns="http://www.w3.org/2000/svg" viewBox="0 0 684 1024"><filter id="b"><feGaussianBlur stdDeviation="12" /></filter><path d="M0 0h684v1024H0z" fill="#97746f" /><g filter="url(#b)" transform="scale(4.000000) translate(0.5 0.5)"><g transform="translate(152.194783 76.832506) rotate(406.590827) scale(86.345170 45.134106)"><ellipse fill="#ffe7d6" fill-opacity=".501961" cx="0" cy="0" rx="1" ry="1" /></g><g transform="translate(70.036392 139.028314) rotate(17.068583) scale(31.532367 37.080103)"><ellipse fill="#261510" fill-opacity=".501961" cx="0" cy="0" rx="1" ry="1" /></g><ellipse fill="#433547" fill-opacity=".501961" cx="4" cy="37" rx="40" ry="123" /><g transform="translate(15.523533 255.000000) rotate(197.921722) scale(42.102094 67.911911)"><ellipse fill="#4c3d45" fill-opacity=".501961" cx="0" cy="0" rx="1" ry="1" /></g><g transform="translate(162.982629 179.601596) rotate(252.911760) scale(49.038983 31.802479)"><ellipse fill="#d9a8a7" fill-opacity=".501961" cx="0" cy="0" rx="1" ry="1" /></g><g transform="translate(139.232129 87.962506) rotate(296.453899) scale(19.152602 67.115605)"><ellipse fill="#fbcfc6" fill-opacity=".501961" cx="0" cy="0" rx="1" ry="1" /></g><g transform="translate(168.718744 255.000000) rotate(58.957312) scale(32.231684 17.527931)"><ellipse fill="#362021" fill-opacity=".501961" cx="0" cy="0" rx="1" ry="1" /></g><path fill="#cf9895" fill-opacity=".501961" d="M72.80853 145.033382 53.32267 145.715187 61.590344 138.884204 67.022657 78.909783z" /></g></svg>