<svg xmlns="http://www.w3.org/2000/svg" viewBox="0 0 684 1024"><filter id="b"><feGaussianBlur stdDeviation="12" /></filter><path d="M0 0h684v1024H0z" fill="#636764" /><g filter="url(#b)" transform="scale(4.000000) translate(0.5 0.5)"><g transform="translate(132.842478 226.890493) rotate(-123.559021) scale(55.371840 79.355926)"><ellipse fill="#000002" fill-opacity=".501961" cx="0" cy="0" rx="1" ry="1" /></g><g transform="translate(72.054533 66.340839) rotate(148.887140) scale(29.988213 98.296768)"><ellipse fill="#d9c9bb" fill-opacity=".501961" cx="0" cy="0" rx="1" ry="1" /></g><g transform="translate(101.334176 54.237460) rotate(186.372547) scale(13.315363 107.742122)"><ellipse fill="#eac2ba" fill-opacity=".501961" cx="0" cy="0" rx="1" ry="1" /></g><g transform="translate(81.294402 135.807736) rotate(70.592783) scale(22.117151 17.363836)"><ellipse fill="#e0000b" fill-opacity=".501961" cx="0" cy="0" rx="1" ry="1" /></g><ellipse fill="#2f4b6d" fill-opacity=".501961" cx="35" cy="210" rx="60" ry="60" /><g transform="translate(132 28) rotate(322) scale(19 113)"><path d="M0 0h684v1024H0z" fill="#ccc4ab" /></g><g transform="translate(114.106417 101.212348) rotate(13.763088) scale(8.264255 27.708513)"><ellipse fill="#1e3f00" fill-opacity=".501961" cx="0" cy="0" rx="1" ry="1" /></g><path fill="#131a00" fill-opacity=".501961" d="M186 3V62L111-16z" /></g></svg>