<svg xmlns="http://www.w3.org/2000/svg" viewBox="0 0 684 1024"><filter id="b"><feGaussianBlur stdDeviation="12" /></filter><path d="M0 0h684v1024H0z" fill="#c2a997" /><g filter="url(#b)" transform="scale(4.000000) translate(0.5 0.5)"><g transform="translate(77.905114 103.035226) rotate(79.217864) scale(48.606908 29.191568)"><ellipse fill="#853300" fill-opacity=".501961" cx="0" cy="0" rx="1" ry="1" /></g><path fill="#f5e9e0" fill-opacity=".501961" d="M83 2l80 269L186-7z" /><ellipse fill="#000" fill-opacity=".501961" cx="24" cy="13" rx="9" ry="31" /><g transform="translate(47 198) rotate(238) scale(13 33)"><path d="M0 0h684v1024H0z" fill="#000" /></g><path d="M0 0h684v1024H0z" fill="#353036" /><path fill="#463122" fill-opacity=".501961" d="M-16 42.068466.704966 10.713332 6.008748 104.854016 40.671916-16z" /><g transform="translate(59.860695 101.361746) rotate(151.003405) scale(15.680472 25.912349)"><ellipse fill="#ff9b00" fill-opacity=".501961" cx="0" cy="0" rx="1" ry="1" /></g><g transform="translate(115.801476 238.405291) rotate(70.146146) scale(77.883173 58.668375)"><ellipse fill="#dccabf" fill-opacity=".501961" cx="0" cy="0" rx="1" ry="1" /></g></g></svg>