<svg xmlns="http://www.w3.org/2000/svg" viewBox="0 0 1024 684"><filter id="b"><feGaussianBlur stdDeviation="12" /></filter><path d="M0 0h1024v684H0z" fill="#395460" /><g filter="url(#b)" transform="scale(4.000000) translate(0.5 0.5)"><g transform="translate(113.564490 15.410934) rotate(260.315439) scale(35.283237 255.000000)"><ellipse fill="#2cbdff" fill-opacity=".501961" cx="0" cy="0" rx="1" ry="1" /></g><ellipse fill="#140000" fill-opacity=".501961" cx="65" cy="116" rx="92" ry="55" /><g transform="translate(184.146458 131.961027) rotate(317.368611) scale(74.489633 31.418436)"><ellipse fill="#bca490" fill-opacity=".501961" cx="0" cy="0" rx="1" ry="1" /></g><ellipse fill="#0f0000" fill-opacity=".501961" cx="195" cy="59" rx="109" ry="18" /><g transform="translate(255.000000 142.575904) rotate(375.290986) scale(27.275470 161.900534)"><ellipse fill="#3e1f00" fill-opacity=".501961" cx="0" cy="0" rx="1" ry="1" /></g><g transform="translate(52.015746 44.701126) rotate(-8.266472) scale(56.168208 18.933988)"><ellipse fill="#8cb2d3" fill-opacity=".501961" cx="0" cy="0" rx="1" ry="1" /></g><g transform="translate(233.829638 19.980428) rotate(185.915377) scale(150.085790 20.109365)"><ellipse fill="#007fcc" fill-opacity=".501961" cx="0" cy="0" rx="1" ry="1" /></g><path d="M0 0h1024v684H0z" fill="#3f311f" /></g></svg>