<svg xmlns="http://www.w3.org/2000/svg" viewBox="0 0 1024 684"><filter id="b"><feGaussianBlur stdDeviation="12" /></filter><path d="M0 0h1024v684H0z" fill="#68746f" /><g filter="url(#b)" transform="scale(4.000000) translate(0.5 0.5)"><g transform="translate(20.899825 21.363902) rotate(206.469424) scale(58.703054 39.214731)"><ellipse fill="#000" fill-opacity=".501961" cx="0" cy="0" rx="1" ry="1" /></g><g transform="translate(247.883944 93.710120) rotate(-65.567870) scale(40.499291 60.797276)"><ellipse fill="#000600" fill-opacity=".501961" cx="0" cy="0" rx="1" ry="1" /></g><g transform="translate(112.190060 138.457334) rotate(212.696470) scale(102.889601 54.353372)"><ellipse fill="#afbbc1" fill-opacity=".501961" cx="0" cy="0" rx="1" ry="1" /></g><g transform="translate(128.268516 38.532289) rotate(112.222714) scale(30.512034 66.806335)"><ellipse fill="#b2ccd4" fill-opacity=".501961" cx="0" cy="0" rx="1" ry="1" /></g><ellipse fill="#1e1121" fill-opacity=".501961" cx="119" cy="96" rx="24" ry="24" /><g transform="translate(212.801505 0.000000) rotate(94.615076) scale(15.302030 123.471896)"><ellipse fill="#060000" fill-opacity=".501961" cx="0" cy="0" rx="1" ry="1" /></g><ellipse fill="#000" fill-opacity=".501961" cx="12" cy="10" rx="58" ry="53" /><path fill="#ffe8e1" fill-opacity=".501961" d="M148.27282 80.813579 192.954996 150.039111 138.526265 95.184672 139.469271 76.303166z" /></g></svg>