<svg xmlns="http://www.w3.org/2000/svg" viewBox="0 0 1024 684"><filter id="b"><feGaussianBlur stdDeviation="12" /></filter><path d="M0 0h1024v684H0z" fill="#697e9c" /><g filter="url(#b)" transform="scale(4.000000) translate(0.5 0.5)"><g transform="translate(97.046250 126.894633) rotate(336.904272) scale(53.032014 94.029861)"><ellipse fill="#000" fill-opacity=".501961" cx="0" cy="0" rx="1" ry="1" /></g><ellipse fill="#fff" fill-opacity=".501961" cx="151" cy="13" rx="44" ry="64" /><ellipse fill="#fff" fill-opacity=".501961" cx="0" cy="142" rx="50" ry="50" /><g transform="translate(183.634570 73.952452) rotate(36.509623) scale(16.484038 68.690918)"><ellipse fill="#000008" fill-opacity=".501961" cx="0" cy="0" rx="1" ry="1" /></g><g transform="translate(189.658680 128.373653) rotate(349.822766) scale(39.875853 19.884444)"><ellipse fill="#fff" fill-opacity=".501961" cx="0" cy="0" rx="1" ry="1" /></g><path d="M0 0h1024v684H0z" fill="#f7ffff" /><g transform="translate(0.000000 76.210048) rotate(220.864593) scale(17.577252 148.732261)"><ellipse fill="#c1ecff" fill-opacity=".501961" cx="0" cy="0" rx="1" ry="1" /></g><ellipse fill="#00062d" fill-opacity=".501961" cx="101" cy="138" rx="54" ry="54" /></g></svg>