<svg xmlns="http://www.w3.org/2000/svg" viewBox="0 0 684 1024"><filter id="b"><feGaussianBlur stdDeviation="12" /></filter><path d="M0 0h684v1024H0z" fill="#747e83" /><g filter="url(#b)" transform="scale(4.000000) translate(0.5 0.5)"><ellipse fill="#000" fill-opacity=".501961" cx="11" cy="172" rx="26" ry="188" /><g transform="translate(140 31) rotate(257) scale(115 62)"><path d="M0 0h684v1024H0z" fill="#fff" /></g><g transform="translate(85.849263 174.605481) rotate(348.079731) scale(27.522606 156.347473)"><ellipse fill="#e8f9ff" fill-opacity=".501961" cx="0" cy="0" rx="1" ry="1" /></g><g transform="translate(148.906212 160.158669) rotate(68.338958) scale(52.169202 37.085808)"><ellipse fill="#06050f" fill-opacity=".501961" cx="0" cy="0" rx="1" ry="1" /></g><g transform="translate(123.021636 223.491342) rotate(337.459856) scale(18.602182 40.297329)"><ellipse fill="#eaf7ff" fill-opacity=".501961" cx="0" cy="0" rx="1" ry="1" /></g><g transform="translate(78.165989 7.210183) rotate(69.333430) scale(62.850976 21.211826)"><ellipse fill="#150f15" fill-opacity=".501961" cx="0" cy="0" rx="1" ry="1" /></g><path fill="#100" fill-opacity=".501961" d="M71.062649 104.259594 80.643478 174.043912 92.027357 122.654898 74.588081 98.681883z" /><g transform="translate(138.897231 31.349845) rotate(354.687750) scale(27.852059 46.839681)"><ellipse fill="#fff" fill-opacity=".501961" cx="0" cy="0" rx="1" ry="1" /></g></g></svg>