<svg xmlns="http://www.w3.org/2000/svg" viewBox="0 0 684 1024"><filter id="b"><feGaussianBlur stdDeviation="12" /></filter><path d="M0 0h684v1024H0z" fill="#63676c" /><g filter="url(#b)" transform="scale(4.000000) translate(0.5 0.5)"><g transform="translate(126.811304 24.360748) rotate(-2.956576) scale(90.153444 39.043381)"><ellipse fill="#b5ffff" fill-opacity=".501961" cx="0" cy="0" rx="1" ry="1" /></g><g transform="translate(44.726715 149.540481) rotate(396.483025) scale(72.184295 76.719597)"><ellipse fill="#281c18" fill-opacity=".501961" cx="0" cy="0" rx="1" ry="1" /></g><g transform="translate(146.231008 32.970098) rotate(395.915371) scale(96.083264 34.442019)"><ellipse fill="#89d8ff" fill-opacity=".501961" cx="0" cy="0" rx="1" ry="1" /></g><g transform="translate(6.274083 14.334913) rotate(285.180336) scale(170.000000 20.687053)"><ellipse fill="#000e00" fill-opacity=".501961" cx="0" cy="0" rx="1" ry="1" /></g><ellipse fill="#6e466a" fill-opacity=".501961" cx="95" cy="77" rx="42" ry="42" /><g transform="translate(56.567512 53.228807) rotate(54.873297) scale(31.917634 17.924921)"><ellipse fill="#b7b8d3" fill-opacity=".501961" cx="0" cy="0" rx="1" ry="1" /></g><g transform="translate(166.771630 123.276508) rotate(331.436613) scale(68.767446 21.776049)"><ellipse fill="#ab9c99" fill-opacity=".501961" cx="0" cy="0" rx="1" ry="1" /></g><ellipse fill="#161e07" fill-opacity=".501961" cx="68" cy="172" rx="22" ry="47" /></g></svg>