<svg xmlns="http://www.w3.org/2000/svg" viewBox="0 0 684 1024"><filter id="b"><feGaussianBlur stdDeviation="12" /></filter><path d="M0 0h684v1024H0z" fill="#9a9ea8" /><g filter="url(#b)" transform="scale(4.000000) translate(0.5 0.5)"><g transform="translate(117.778116 54.210653) rotate(269.680533) scale(39.558211 64.634719)"><ellipse fill="#3a4557" fill-opacity=".501961" cx="0" cy="0" rx="1" ry="1" /></g><ellipse fill="#f4fbff" fill-opacity=".501961" cx="0" cy="106" rx="57" ry="75" /><g transform="translate(88 147) rotate(329) scale(41 32)"><path d="M0 0h684v1024H0z" fill="#0e0c29" /></g><g transform="translate(155.488383 154.134860) rotate(67.551250) scale(110.377630 28.764746)"><ellipse fill="#b9bfce" fill-opacity=".501961" cx="0" cy="0" rx="1" ry="1" /></g><path fill="#30221e" fill-opacity=".501961" d="M5.660227-16 23.40447 20.520559 45.762745 58.651275-16-5.673408z" /><path fill="#2f2521" fill-opacity=".501961" d="M186 52.024509 62.187049 42.391589 143.839055 26.13243 179.832937-7.882951z" /><g transform="translate(137.062105 13.589639) rotate(250.398881) scale(16.730350 11.188814)"><ellipse fill="#fffdfa" fill-opacity=".501961" cx="0" cy="0" rx="1" ry="1" /></g><g transform="translate(0.947842 108.298186) rotate(419.977238) scale(19.639125 34.122564)"><ellipse fill="#fff" fill-opacity=".501961" cx="0" cy="0" rx="1" ry="1" /></g></g></svg>