<svg xmlns="http://www.w3.org/2000/svg" viewBox="0 0 1024 678"><filter id="b"><feGaussianBlur stdDeviation="12" /></filter><path d="M0 0h1024v678H0z" fill="#527182" /><g filter="url(#b)" transform="scale(4.000000) translate(0.5 0.5)"><ellipse fill="#ffedb5" fill-opacity=".501961" cx="34" cy="26" rx="75" ry="75" /><g transform="translate(143.168419 149.660005) rotate(174.015091) scale(255.000000 52.234379)"><ellipse fill="#000027" fill-opacity=".501961" cx="0" cy="0" rx="1" ry="1" /></g><g transform="translate(190.945972 29.986195) rotate(30.012379) scale(82.248716 34.666583)"><ellipse fill="#95ddff" fill-opacity=".501961" cx="0" cy="0" rx="1" ry="1" /></g><g transform="translate(41.915919 62.908926) rotate(101.990196) scale(18.706653 94.862660)"><ellipse fill="#ffefb9" fill-opacity=".501961" cx="0" cy="0" rx="1" ry="1" /></g><g transform="translate(113.733587 38.698062) rotate(371.643438) scale(48.043496 20.433898)"><ellipse fill="#155085" fill-opacity=".501961" cx="0" cy="0" rx="1" ry="1" /></g><g transform="translate(227.024575 6.279398) rotate(192.705383) scale(86.934026 21.659978)"><ellipse fill="#007fd4" fill-opacity=".501961" cx="0" cy="0" rx="1" ry="1" /></g><ellipse fill="#002e58" fill-opacity=".501961" cx="192" cy="156" rx="69" ry="69" /><g transform="translate(207.634878 62.227817) rotate(171.059255) scale(36.962738 22.183121)"><ellipse fill="#c3d2cd" fill-opacity=".501961" cx="0" cy="0" rx="1" ry="1" /></g></g></svg>