<svg xmlns="http://www.w3.org/2000/svg" viewBox="0 0 684 1024"><filter id="b"><feGaussianBlur stdDeviation="12" /></filter><path d="M0 0h684v1024H0z" fill="#797169" /><g filter="url(#b)" transform="scale(4.000000) translate(0.5 0.5)"><g transform="translate(132.319848 23.041342) rotate(320.829038) scale(42.009143 170.000000)"><ellipse fill="#d3ffff" fill-opacity=".501961" cx="0" cy="0" rx="1" ry="1" /></g><g transform="translate(67.814723 127.126835) rotate(158.961804) scale(28.158273 72.053428)"><ellipse fill="#000" fill-opacity=".501961" cx="0" cy="0" rx="1" ry="1" /></g><g transform="translate(148 57) rotate(-15) scale(57 94)"><path d="M0 0h684v1024H0z" fill="#bcf8ff" /></g><g transform="translate(85.439624 235.934480) rotate(184.835536) scale(100.600826 46.028759)"><ellipse fill="#5a3f28" fill-opacity=".501961" cx="0" cy="0" rx="1" ry="1" /></g><g transform="translate(125.091915 10.673110) rotate(200.718993) scale(72.039750 29.260711)"><ellipse fill="#8cd5ff" fill-opacity=".501961" cx="0" cy="0" rx="1" ry="1" /></g><g transform="translate(96.185944 61.537800) rotate(234.033790) scale(45.277155 23.366485)"><ellipse fill="#926b51" fill-opacity=".501961" cx="0" cy="0" rx="1" ry="1" /></g><g transform="translate(61.161829 113.466572) rotate(354.269938) scale(20.674255 43.090897)"><ellipse fill="#040912" fill-opacity=".501961" cx="0" cy="0" rx="1" ry="1" /></g><ellipse fill="#b6855c" fill-opacity=".501961" cx="150" cy="156" rx="41" ry="41" /></g></svg>