<svg xmlns="http://www.w3.org/2000/svg" viewBox="0 0 684 1024"><filter id="b"><feGaussianBlur stdDeviation="12" /></filter><path d="M0 0h684v1024H0z" fill="#737c85" /><g filter="url(#b)" transform="scale(4.000000) translate(0.5 0.5)"><g transform="translate(150.522589 220.940653) rotate(285.664818) scale(35.020608 45.420989)"><ellipse fill="#fff" fill-opacity=".501961" cx="0" cy="0" rx="1" ry="1" /></g><ellipse fill="#052652" fill-opacity=".501961" cx="33" cy="213" rx="57" ry="81" /><g transform="translate(43.509510 108.138523) rotate(208.039354) scale(38.970133 20.632193)"><ellipse fill="#fffffd" fill-opacity=".501961" cx="0" cy="0" rx="1" ry="1" /></g><g transform="translate(151.205039 36.815669) rotate(48.820246) scale(33.328737 57.226443)"><ellipse fill="#e5e0db" fill-opacity=".501961" cx="0" cy="0" rx="1" ry="1" /></g><g transform="translate(137.657147 111.924236) rotate(189.800921) scale(67.769287 27.872278)"><ellipse fill="#002142" fill-opacity=".501961" cx="0" cy="0" rx="1" ry="1" /></g><g transform="translate(46.363233 58.694743) rotate(78.405415) scale(41.086256 14.923434)"><ellipse fill="#dec5a2" fill-opacity=".501961" cx="0" cy="0" rx="1" ry="1" /></g><ellipse fill="#163554" fill-opacity=".501961" cx="65" cy="244" rx="44" ry="44" /><g transform="translate(94.004172 188.561517) rotate(77.360963) scale(12.190986 19.142801)"><ellipse fill="#ccd5e2" fill-opacity=".501961" cx="0" cy="0" rx="1" ry="1" /></g></g></svg>