<svg xmlns="http://www.w3.org/2000/svg" viewBox="0 0 1024 684"><filter id="b"><feGaussianBlur stdDeviation="12" /></filter><path d="M0 0h1024v684H0z" fill="#7f6c6a" /><g filter="url(#b)" transform="scale(4.000000) translate(0.5 0.5)"><g transform="translate(41.028714 11.532380) rotate(100.881058) scale(28.569641 110.836844)"><ellipse fill="#ffffe3" fill-opacity=".501961" cx="0" cy="0" rx="1" ry="1" /></g><g transform="translate(155.925421 95.473954) rotate(253.057679) scale(28.093902 70.879226)"><ellipse fill="#22000c" fill-opacity=".501961" cx="0" cy="0" rx="1" ry="1" /></g><g transform="translate(49.610675 77.057034) rotate(363.228175) scale(44.607282 30.111802)"><ellipse fill="#3e3332" fill-opacity=".501961" cx="0" cy="0" rx="1" ry="1" /></g><ellipse fill="#364255" fill-opacity=".501961" cx="202" cy="35" rx="39" ry="84" /><g transform="translate(25.900516 127.632272) rotate(88.811644) scale(27.064262 64.901727)"><ellipse fill="#d7a17a" fill-opacity=".501961" cx="0" cy="0" rx="1" ry="1" /></g><g transform="translate(115 127) rotate(53) scale(20 160)"><path d="M0 0h1024v684H0z" fill="#390500" /></g><ellipse fill="#8995a5" fill-opacity=".501961" cx="201" cy="151" rx="78" ry="40" /><g transform="translate(38 16) rotate(240) scale(69 28)"><path d="M0 0h1024v684H0z" fill="#fff9d5" /></g></g></svg>