<svg xmlns="http://www.w3.org/2000/svg" viewBox="0 0 684 1024"><filter id="b"><feGaussianBlur stdDeviation="12" /></filter><path d="M0 0h684v1024H0z" fill="#5a6154" /><g filter="url(#b)" transform="scale(4.000000) translate(0.5 0.5)"><g transform="translate(51.865362 135.933190) rotate(198.167771) scale(51.311132 91.737901)"><ellipse fill="#9199a4" fill-opacity=".501961" cx="0" cy="0" rx="1" ry="1" /></g><g transform="translate(30.174570 23.460879) rotate(24.456088) scale(36.341694 67.770137)"><ellipse fill="#191213" fill-opacity=".501961" cx="0" cy="0" rx="1" ry="1" /></g><g transform="translate(146.492148 202.164343) rotate(331.366896) scale(49.836814 75.940433)"><ellipse fill="#3f4617" fill-opacity=".501961" cx="0" cy="0" rx="1" ry="1" /></g><g transform="translate(143 11) rotate(341) scale(57 208)"><path d="M0 0h684v1024H0z" fill="#314214" /></g><path fill="#fdd8ce" fill-opacity=".501961" d="M96 83 67 173l27-25z" /><path fill="#3b3334" fill-opacity=".501961" d="M67.033059 161.042683 55.706111 210.543231 56.07913 125.441008 100.197228 126.074403z" /><path fill="#b6bfc6" fill-opacity=".501961" d="M79 43l32 87L60 83z" /><ellipse fill="#000" fill-opacity=".501961" cx="37" cy="13" rx="14" ry="33" /></g></svg>