<svg xmlns="http://www.w3.org/2000/svg" viewBox="0 0 683 1024"><filter id="b"><feGaussianBlur stdDeviation="12" /></filter><path d="M0 0h683v1024H0z" fill="#71736e" /><g filter="url(#b)" transform="scale(4.000000) translate(0.5 0.5)"><g transform="translate(95.873037 133.328994) rotate(355.723193) scale(21.254492 79.846417)"><ellipse fill="#001a47" fill-opacity=".501961" cx="0" cy="0" rx="1" ry="1" /></g><g transform="translate(170.000000 41.926704) rotate(198.133853) scale(23.456059 158.376010)"><ellipse fill="#c3c4c1" fill-opacity=".501961" cx="0" cy="0" rx="1" ry="1" /></g><g transform="translate(87.729043 31.051484) rotate(24.591224) scale(13.672817 31.516587)"><ellipse fill="#eaeceb" fill-opacity=".501961" cx="0" cy="0" rx="1" ry="1" /></g><path fill="#08101a" fill-opacity=".501961" d="M35.129608 200.185134 16.340434 249.129511 67.077034 271 70.667418 221.314926z" /><ellipse fill="#a17f4a" fill-opacity=".501961" cx="29" cy="77" rx="37" ry="128" /><g transform="translate(77.267467 248.497503) rotate(274.781730) scale(57.007090 8.073205)"><ellipse fill="#e3f5fe" fill-opacity=".501961" cx="0" cy="0" rx="1" ry="1" /></g><g transform="translate(116.199268 251.471059) rotate(106.575423) scale(44.933974 9.250869)"><ellipse fill="#cae2f1" fill-opacity=".501961" cx="0" cy="0" rx="1" ry="1" /></g><g transform="translate(50.204020 167.442608) rotate(181.523423) scale(10.563075 44.414355)"><ellipse fill="#c2c2bc" fill-opacity=".501961" cx="0" cy="0" rx="1" ry="1" /></g></g></svg>