<svg xmlns="http://www.w3.org/2000/svg" viewBox="0 0 684 1024"><filter id="b"><feGaussianBlur stdDeviation="12" /></filter><path d="M0 0h684v1024H0z" fill="#b5c2c5" /><g filter="url(#b)" transform="scale(4.000000) translate(0.5 0.5)"><g transform="translate(81.461959 145.156608) rotate(335.677899) scale(33.112919 68.265030)"><ellipse fill="#2f3137" fill-opacity=".501961" cx="0" cy="0" rx="1" ry="1" /></g><g transform="translate(118 125) rotate(16) scale(20 28)"><path d="M0 0h684v1024H0z" fill="#000c00" /></g><g transform="translate(28.681195 157.259256) rotate(325.415837) scale(21.392588 170.000000)"><ellipse fill="#f4feff" fill-opacity=".501961" cx="0" cy="0" rx="1" ry="1" /></g><ellipse fill="#e94411" fill-opacity=".501961" cx="49" cy="121" rx="13" ry="32" /><g transform="translate(31 210) rotate(-45) scale(15 30)"><path d="M0 0h684v1024H0z" fill="#00412b" /></g><g transform="translate(15.785837 91.000720) rotate(371.921773) scale(30.497557 168.679971)"><ellipse fill="#dbebf4" fill-opacity=".501961" cx="0" cy="0" rx="1" ry="1" /></g><g transform="translate(87.757032 180.028251) rotate(133.748432) scale(19.636752 40.092695)"><ellipse fill="#0d68ae" fill-opacity=".501961" cx="0" cy="0" rx="1" ry="1" /></g><g transform="translate(138.259350 233.107489) rotate(80.001221) scale(28.698649 155.058518)"><ellipse fill="#def" fill-opacity=".501961" cx="0" cy="0" rx="1" ry="1" /></g></g></svg>