<svg xmlns="http://www.w3.org/2000/svg" viewBox="0 0 1024 684"><filter id="b"><feGaussianBlur stdDeviation="12" /></filter><path d="M0 0h1024v684H0z" fill="#606060" /><g filter="url(#b)" transform="scale(4.000000) translate(0.5 0.5)"><g transform="translate(114.577831 33.614077) rotate(155.886698) scale(115.430121 46.083253)"><ellipse fill="#f7f7f7" fill-opacity=".501961" cx="0" cy="0" rx="1" ry="1" /></g><g transform="translate(70.332268 140.535953) rotate(183.804467) scale(255.000000 39.200398)"><ellipse fill="#000" fill-opacity=".501961" cx="0" cy="0" rx="1" ry="1" /></g><g transform="translate(242.372572 83.466520) rotate(203.833155) scale(45.256320 148.072214)"><ellipse fill="#0e0e0e" fill-opacity=".501961" cx="0" cy="0" rx="1" ry="1" /></g><g transform="translate(128.269850 109.703951) rotate(177.768623) scale(59.887035 37.728788)"><ellipse fill="#878787" fill-opacity=".501961" cx="0" cy="0" rx="1" ry="1" /></g><g transform="translate(44.253793 152.900640) rotate(102.164907) scale(31.189498 79.663430)"><ellipse fill="#000" fill-opacity=".501961" cx="0" cy="0" rx="1" ry="1" /></g><g transform="translate(109.548355 51.582547) rotate(60.259721) scale(18.835793 78.209244)"><ellipse fill="#e7e7e7" fill-opacity=".501961" cx="0" cy="0" rx="1" ry="1" /></g><g transform="translate(179.904504 70.959229) rotate(256.026082) scale(31.167299 56.104212)"><ellipse fill="#767676" fill-opacity=".501961" cx="0" cy="0" rx="1" ry="1" /></g><g transform="translate(39.480530 35.967689) rotate(314.352530) scale(84.881719 24.739521)"><ellipse fill="#838383" fill-opacity=".501961" cx="0" cy="0" rx="1" ry="1" /></g></g></svg>