<svg xmlns="http://www.w3.org/2000/svg" viewBox="0 0 678 1024"><filter id="b"><feGaussianBlur stdDeviation="12" /></filter><path d="M0 0h678v1024H0z" fill="#5e5c66" /><g filter="url(#b)" transform="scale(4.000000) translate(0.5 0.5)"><g transform="translate(152.677081 156.124337) rotate(135.304212) scale(96.727611 21.239911)"><ellipse fill="#ecf7f5" fill-opacity=".501961" cx="0" cy="0" rx="1" ry="1" /></g><ellipse fill="#350000" fill-opacity=".501961" cx="96" cy="125" rx="42" ry="49" /><g transform="translate(101.533555 130.370056) rotate(394.382026) scale(30.956158 57.258094)"><ellipse fill="#3f0003" fill-opacity=".501961" cx="0" cy="0" rx="1" ry="1" /></g><g transform="translate(163.739789 138.884942) rotate(22.341396) scale(11.665659 34.137812)"><ellipse fill="#fefbf4" fill-opacity=".501961" cx="0" cy="0" rx="1" ry="1" /></g><path fill="#590111" fill-opacity=".501961" d="M52.056454 65.987976l16.326279 85.636708L139.367257 145.368846 106.377852 85.238605z" /><g transform="translate(103.809371 217.308915) rotate(164.217082) scale(84.169731 22.340456)"><ellipse fill="#728595" fill-opacity=".501961" cx="0" cy="0" rx="1" ry="1" /></g><g transform="translate(37.112090 120.501403) rotate(15.425689) scale(23.292649 41.359413)"><ellipse fill="#77858f" fill-opacity=".501961" cx="0" cy="0" rx="1" ry="1" /></g><path fill="#08171a" fill-opacity=".501961" d="M102.427135 169.930656 85.29345 196.149373 65.776033 201.752869 81.829621 137.10917z" /></g></svg>