<svg xmlns="http://www.w3.org/2000/svg" viewBox="0 0 1024 684"><filter id="b"><feGaussianBlur stdDeviation="12" /></filter><path d="M0 0h1024v684H0z" fill="#525869" /><g filter="url(#b)" transform="scale(4.000000) translate(0.5 0.5)"><g transform="translate(90.629403 56.092287) rotate(261.954809) scale(37.797965 77.215661)"><ellipse fill="#fcc4c9" fill-opacity=".501961" cx="0" cy="0" rx="1" ry="1" /></g><ellipse fill="#000" fill-opacity=".501961" cx="182" cy="121" rx="234" ry="31" /><g transform="translate(162.420599 12.657797) rotate(277.310540) scale(36.098100 124.578879)"><ellipse fill="#009ada" fill-opacity=".501961" cx="0" cy="0" rx="1" ry="1" /></g><g transform="translate(42.571354 78.246209) rotate(172.269721) scale(58.497129 23.978350)"><ellipse fill="#ff8350" fill-opacity=".501961" cx="0" cy="0" rx="1" ry="1" /></g><g transform="translate(187.852481 63.455398) rotate(175.659183) scale(101.304039 19.351776)"><ellipse fill="#9b8ba4" fill-opacity=".501961" cx="0" cy="0" rx="1" ry="1" /></g><g transform="translate(28.254779 134.571152) rotate(392.782444) scale(24.658255 47.803040)"><ellipse fill="#260f17" fill-opacity=".501961" cx="0" cy="0" rx="1" ry="1" /></g><g transform="translate(224.924181 110.988912) rotate(357.012786) scale(122.132226 30.857975)"><ellipse fill="#111a24" fill-opacity=".501961" cx="0" cy="0" rx="1" ry="1" /></g><g transform="translate(235.432306 170.000000) rotate(372.555156) scale(51.969583 24.679335)"><ellipse fill="#7d86aa" fill-opacity=".501961" cx="0" cy="0" rx="1" ry="1" /></g></g></svg>