<svg xmlns="http://www.w3.org/2000/svg" viewBox="0 0 684 1024"><filter id="b"><feGaussianBlur stdDeviation="12" /></filter><path d="M0 0h684v1024H0z" fill="#787673" /><g filter="url(#b)" transform="scale(4.000000) translate(0.5 0.5)"><g transform="translate(59.159522 67.517795) rotate(276.080460) scale(47.176440 28.877347)"><ellipse fill="#def8fd" fill-opacity=".501961" cx="0" cy="0" rx="1" ry="1" /></g><g transform="translate(130.507126 67.309127) rotate(331.339042) scale(27.526540 43.094440)"><ellipse fill="#e6eadb" fill-opacity=".501961" cx="0" cy="0" rx="1" ry="1" /></g><g transform="translate(94.542220 144.709648) rotate(189.026396) scale(66.804882 27.500231)"><ellipse fill="#222b38" fill-opacity=".501961" cx="0" cy="0" rx="1" ry="1" /></g><ellipse fill="#172101" fill-opacity=".501961" cx="20" cy="6" rx="161" ry="17" /><path fill="#bebfc6" fill-opacity=".501961" d="M106 207 8 198-14 121z" /><g transform="translate(138.612027 189.027919) rotate(286.701185) scale(17.836890 25.987222)"><ellipse fill="#ffa9c0" fill-opacity=".501961" cx="0" cy="0" rx="1" ry="1" /></g><g transform="translate(37.413688 255.000000) rotate(303.056493) scale(26.001054 110.649394)"><ellipse fill="#3a2322" fill-opacity=".501961" cx="0" cy="0" rx="1" ry="1" /></g><g transform="translate(80 64) rotate(166) scale(36 21)"><path d="M0 0h684v1024H0z" fill="#1d1f0e" /></g></g></svg>