<svg xmlns="http://www.w3.org/2000/svg" viewBox="0 0 684 1024"><filter id="b"><feGaussianBlur stdDeviation="12" /></filter><path d="M0 0h684v1024H0z" fill="#595b3d" /><g filter="url(#b)" transform="scale(4.000000) translate(0.5 0.5)"><g transform="translate(98.843290 236.570962) rotate(176.041746) scale(167.102014 27.139478)"><ellipse fill="#3d8af1" fill-opacity=".501961" cx="0" cy="0" rx="1" ry="1" /></g><ellipse fill="#d5b11e" fill-opacity=".501961" cx="83" cy="23" rx="170" ry="45" /><g transform="translate(80.159138 171.106968) rotate(177.065331) scale(98.035375 44.709610)"><ellipse fill="#03090e" fill-opacity=".501961" cx="0" cy="0" rx="1" ry="1" /></g><g transform="translate(101.395828 114.596396) rotate(280.286106) scale(49.384156 106.407821)"><ellipse fill="#53410f" fill-opacity=".501961" cx="0" cy="0" rx="1" ry="1" /></g><ellipse fill="#4d90de" fill-opacity=".501961" cx="170" cy="203" rx="32" ry="11" /><g transform="translate(134.782660 20.747705) rotate(339.644876) scale(71.509247 10.833663)"><ellipse fill="#d6af04" fill-opacity=".501961" cx="0" cy="0" rx="1" ry="1" /></g><g transform="translate(19.952445 226.764123) rotate(368.692165) scale(86.592848 19.719484)"><ellipse fill="#597fa9" fill-opacity=".501961" cx="0" cy="0" rx="1" ry="1" /></g><ellipse fill="#355943" fill-opacity=".501961" cx="88" cy="0" rx="24" ry="17" /></g></svg>