<svg xmlns="http://www.w3.org/2000/svg" viewBox="0 0 1024 684"><filter id="b"><feGaussianBlur stdDeviation="12" /></filter><path d="M0 0h1024v684H0z" fill="#050820" /><g filter="url(#b)" transform="scale(4.000000) translate(0.5 0.5)"><g transform="translate(127.374650 161.050541) rotate(261.337164) scale(24.565320 96.470590)"><ellipse fill="#1f349f" fill-opacity=".501961" cx="0" cy="0" rx="1" ry="1" /></g><ellipse fill="#503087" fill-opacity=".501961" cx="193" cy="65" rx="18" ry="32" /><g transform="translate(123 158) rotate(175) scale(54 10)"><path d="M0 0h1024v684H0z" fill="#61bdff" /></g><g transform="translate(79.217274 22.395934) rotate(-137.513646) scale(76.364147 128.415309)"><ellipse fill="#000" fill-opacity=".501961" cx="0" cy="0" rx="1" ry="1" /></g><g transform="translate(251.581407 50.707016) rotate(166.184865) scale(36.820227 98.628552)"><ellipse fill="#000" fill-opacity=".501961" cx="0" cy="0" rx="1" ry="1" /></g><ellipse fill="#0c044d" fill-opacity=".501961" cx="213" cy="156" rx="58" ry="25" /><path fill="#4f3080" fill-opacity=".501961" d="M205.785746 47.369119 204.405096 65.921117 181.279417 45.891785 184.117424 4.438903z" /><g transform="translate(55.167435 153.809400) rotate(258.642080) scale(16.135924 73.134506)"><ellipse fill="#010c49" fill-opacity=".501961" cx="0" cy="0" rx="1" ry="1" /></g></g></svg>