<svg xmlns="http://www.w3.org/2000/svg" viewBox="0 0 684 1024"><filter id="b"><feGaussianBlur stdDeviation="12" /></filter><path d="M0 0h684v1024H0z" fill="#716e6c" /><g filter="url(#b)" transform="scale(4.000000) translate(0.5 0.5)"><g transform="translate(115.518334 45.381992) rotate(106.140382) scale(20.579015 127.283218)"><ellipse fill="#c1d4e5" fill-opacity=".501961" cx="0" cy="0" rx="1" ry="1" /></g><path fill="#b4d1d7" fill-opacity=".501961" d="M24 251l118-2L21 206z" /><g transform="translate(68.037422 207.845427) rotate(301.967818) scale(12.613743 25.998155)"><ellipse fill="#0e0000" fill-opacity=".501961" cx="0" cy="0" rx="1" ry="1" /></g><g transform="translate(165.324364 232.712222) rotate(392.829835) scale(60.151464 24.581461)"><ellipse fill="#342925" fill-opacity=".501961" cx="0" cy="0" rx="1" ry="1" /></g><g transform="translate(128 123) rotate(207) scale(139 61)"><path d="M0 0h684v1024H0z" fill="#503c37" /></g><g transform="translate(96.252911 213.429080) rotate(53.756185) scale(35.150853 5.751365)"><ellipse fill="#ffc800" fill-opacity=".501961" cx="0" cy="0" rx="1" ry="1" /></g><ellipse fill="#fff" fill-opacity=".501961" cx="54" cy="175" rx="9" ry="9" /><g transform="translate(143.046686 4.162349) rotate(201.004237) scale(95.513875 17.803489)"><ellipse fill="#0a63a5" fill-opacity=".501961" cx="0" cy="0" rx="1" ry="1" /></g></g></svg>