<svg xmlns="http://www.w3.org/2000/svg" viewBox="0 0 683 1024"><filter id="b"><feGaussianBlur stdDeviation="12" /></filter><path d="M0 0h683v1024H0z" fill="#606768" /><g filter="url(#b)" transform="scale(4.000000) translate(0.5 0.5)"><g transform="translate(121.097495 121.865493) rotate(252.649117) scale(77.602866 47.843011)"><ellipse fill="#000003" fill-opacity=".501961" cx="0" cy="0" rx="1" ry="1" /></g><g transform="translate(31.441725 58.894733) rotate(179.611585) scale(40.019266 157.631733)"><ellipse fill="#a2b0b1" fill-opacity=".501961" cx="0" cy="0" rx="1" ry="1" /></g><ellipse fill="#b7bec1" fill-opacity=".501961" cx="63" cy="36" rx="28" ry="35" /><g transform="translate(90.316442 104.801386) rotate(307.258439) scale(21.462605 44.706216)"><ellipse fill="#001617" fill-opacity=".501961" cx="0" cy="0" rx="1" ry="1" /></g><path fill="#929a9b" fill-opacity=".501961" d="M123.594585 194.018683 118.156141 144.945727 161.424105 205.99098 178.777989 271z" /><path fill="#7e8686" fill-opacity=".501961" d="M30 232l90 25L76 111z" /><g transform="translate(13.949115 241.427880) rotate(151.168801) scale(23.408129 104.207047)"><ellipse fill="#4b3428" fill-opacity=".501961" cx="0" cy="0" rx="1" ry="1" /></g><g transform="translate(169 133) rotate(74) scale(63 23)"><path d="M0 0h683v1024H0z" fill="#777d7b" /></g></g></svg>