<svg xmlns="http://www.w3.org/2000/svg" viewBox="0 0 678 1024"><filter id="b"><feGaussianBlur stdDeviation="12" /></filter><path d="M0 0h678v1024H0z" fill="#6b7a5c" /><g filter="url(#b)" transform="scale(4.000000) translate(0.5 0.5)"><g transform="translate(140.922612 90.734786) rotate(74.616619) scale(127.262846 45.925853)"><ellipse fill="#add06f" fill-opacity=".501961" cx="0" cy="0" rx="1" ry="1" /></g><g transform="translate(0.000000 151.747408) rotate(87.069541) scale(167.970198 44.920112)"><ellipse fill="#0f214f" fill-opacity=".501961" cx="0" cy="0" rx="1" ry="1" /></g><path fill="#000" fill-opacity=".501961" d="M99 126 72 155 64 52z" /><g transform="translate(116.318354 18.005609) rotate(190.480728) scale(24.347277 18.830992)"><ellipse fill="#c7d9d8" fill-opacity=".501961" cx="0" cy="0" rx="1" ry="1" /></g><g transform="translate(147.954329 191.037307) rotate(111.944352) scale(105.570010 51.636445)"><ellipse fill="#7d9331" fill-opacity=".501961" cx="0" cy="0" rx="1" ry="1" /></g><path fill="#a09bb3" fill-opacity=".501961" d="M37 117 69 74 50-16z" /><g transform="translate(0.000000 176.727460) rotate(86.461013) scale(48.027894 14.381585)"><ellipse fill="#000400" fill-opacity=".501961" cx="0" cy="0" rx="1" ry="1" /></g><ellipse fill="#fff4e0" fill-opacity=".501961" cx="58" cy="249" rx="6" ry="18" /></g></svg>