<svg xmlns="http://www.w3.org/2000/svg" viewBox="0 0 683 1024"><filter id="b"><feGaussianBlur stdDeviation="12" /></filter><path d="M0 0h683v1024H0z" fill="#505143" /><g filter="url(#b)" transform="scale(4.000000) translate(0.5 0.5)"><ellipse fill="#a29d9a" fill-opacity=".501961" cx="73" cy="59" rx="35" ry="83" /><g transform="translate(18.152280 132.321083) rotate(347.773017) scale(25.702418 170.000000)"><ellipse fill="#0b2700" fill-opacity=".501961" cx="0" cy="0" rx="1" ry="1" /></g><path fill="#feffff" fill-opacity=".501961" d="M107 36 75 53 89 76z" /><g transform="translate(112.707181 165.265431) rotate(322.293619) scale(16.122235 33.310685)"><ellipse fill="#000" fill-opacity=".501961" cx="0" cy="0" rx="1" ry="1" /></g><g transform="translate(154.261582 73.421841) rotate(66.217349) scale(21.545113 52.860337)"><ellipse fill="#937979" fill-opacity=".501961" cx="0" cy="0" rx="1" ry="1" /></g><g transform="translate(21.873115 28.105703) rotate(365.545329) scale(20.360522 77.114147)"><ellipse fill="#14260d" fill-opacity=".501961" cx="0" cy="0" rx="1" ry="1" /></g><g transform="translate(61.969876 115.043376) rotate(262.572136) scale(50.708418 23.163558)"><ellipse fill="#85816e" fill-opacity=".501961" cx="0" cy="0" rx="1" ry="1" /></g><g transform="translate(102.305769 77.968626) rotate(337.629930) scale(27.323593 4.324240)"><ellipse fill="#160200" fill-opacity=".501961" cx="0" cy="0" rx="1" ry="1" /></g></g></svg>