<svg xmlns="http://www.w3.org/2000/svg" viewBox="0 0 1024 684"><filter id="b"><feGaussianBlur stdDeviation="12" /></filter><path d="M0 0h1024v684H0z" fill="#7fa2c4" /><g filter="url(#b)" transform="scale(4.000000) translate(0.5 0.5)"><g transform="translate(165.499780 151.214175) rotate(350.314938) scale(50.396603 109.666385)"><ellipse fill="#000" fill-opacity=".501961" cx="0" cy="0" rx="1" ry="1" /></g><g transform="translate(58.790632 109.159457) rotate(188.016399) scale(58.074407 134.096260)"><ellipse fill="azure" fill-opacity=".501961" cx="0" cy="0" rx="1" ry="1" /></g><g transform="translate(166.951581 136.383423) rotate(327.836353) scale(65.160994 34.841402)"><ellipse fill="#00001e" fill-opacity=".501961" cx="0" cy="0" rx="1" ry="1" /></g><ellipse fill="#a8e2ff" fill-opacity=".501961" cx="231" cy="46" rx="57" ry="57" /><g transform="translate(241.655958 146.357848) rotate(274.823013) scale(44.866941 24.386737)"><ellipse fill="#ebffff" fill-opacity=".501961" cx="0" cy="0" rx="1" ry="1" /></g><ellipse fill="#0c5390" fill-opacity=".501961" cx="149" cy="55" rx="36" ry="32" /><g transform="translate(4.787803 12.817234) rotate(265.349558) scale(23.226012 7.978764)"><ellipse fill="#000" fill-opacity=".501961" cx="0" cy="0" rx="1" ry="1" /></g><ellipse fill="#fcffff" fill-opacity=".501961" cx="51" cy="150" rx="56" ry="34" /></g></svg>