<svg xmlns="http://www.w3.org/2000/svg" viewBox="0 0 684 1024"><filter id="b"><feGaussianBlur stdDeviation="12" /></filter><path d="M0 0h684v1024H0z" fill="#afacba" /><g filter="url(#b)" transform="scale(4.000000) translate(0.5 0.5)"><g transform="translate(78 125) rotate(188) scale(66 103)"><path d="M0 0h684v1024H0z" fill="#6f0000" /></g><path fill="#eaffff" fill-opacity=".501961" d="M173 259 64-7l122-8z" /><path fill="#000" fill-opacity=".501961" d="M142 181l-4 25-68-53z" /><path fill="#950016" fill-opacity=".501961" d="M113 101 35 43 93 177z" /><g transform="translate(51 95) rotate(404) scale(33 25)"><path d="M0 0h684v1024H0z" fill="#bffeff" /></g><g transform="translate(49.741575 20.148813) rotate(54.175076) scale(74.719353 17.962568)"><ellipse fill="#daf3ff" fill-opacity=".501961" cx="0" cy="0" rx="1" ry="1" /></g><g transform="translate(42.485498 60.309371) rotate(290.821414) scale(12.247013 24.076160)"><ellipse fill="#4b1e29" fill-opacity=".501961" cx="0" cy="0" rx="1" ry="1" /></g><path fill="#688b9d" fill-opacity=".501961" d="M73 155l-34 8L15 36z" /></g></svg>