<svg xmlns="http://www.w3.org/2000/svg" viewBox="0 0 1024 678"><filter id="b"><feGaussianBlur stdDeviation="12" /></filter><path d="M0 0h1024v678H0z" fill="#8b908c" /><g filter="url(#b)" transform="scale(4.000000) translate(0.5 0.5)"><g transform="translate(127.213352 96.519155) rotate(305.354704) scale(31.387937 53.455431)"><ellipse fill="#010" fill-opacity=".501961" cx="0" cy="0" rx="1" ry="1" /></g><g transform="translate(218 135) rotate(265) scale(151 85)"><path d="M0 0h1024v678H0z" fill="#d9dae5" /></g><ellipse fill="#dfdfe7" fill-opacity=".501961" cx="84" cy="158" rx="94" ry="36" /><g transform="translate(219.428157 0.000000) rotate(129.430640) scale(52.796276 35.172628)"><ellipse fill="#1a1916" fill-opacity=".501961" cx="0" cy="0" rx="1" ry="1" /></g><g transform="translate(64.109195 100.183878) rotate(281.444108) scale(164.078105 17.310470)"><ellipse fill="#cac8d0" fill-opacity=".501961" cx="0" cy="0" rx="1" ry="1" /></g><g transform="translate(139.272175 101.810538) rotate(324.099134) scale(21.427040 59.105480)"><ellipse fill="#093d00" fill-opacity=".501961" cx="0" cy="0" rx="1" ry="1" /></g><g transform="translate(120.272965 4.791782) rotate(142.176150) scale(35.563383 20.134856)"><ellipse fill="#383534" fill-opacity=".501961" cx="0" cy="0" rx="1" ry="1" /></g><g transform="translate(211 64) rotate(281) scale(64 6)"><path d="M0 0h1024v678H0z" fill="#000" /></g></g></svg>