<svg xmlns="http://www.w3.org/2000/svg" viewBox="0 0 678 1024"><filter id="b"><feGaussianBlur stdDeviation="12" /></filter><path d="M0 0h678v1024H0z" fill="#6e6763" /><g filter="url(#b)" transform="scale(4.000000) translate(0.5 0.5)"><g transform="translate(53.610751 59.514569) rotate(3.656220) scale(11.854112 77.598368)"><ellipse fill="#f8fbff" fill-opacity=".501961" cx="0" cy="0" rx="1" ry="1" /></g><ellipse fill="#26090a" fill-opacity=".501961" cx="86" cy="194" rx="24" ry="220" /><g transform="translate(134.062758 111.550379) rotate(93.003405) scale(86.114428 20.743202)"><ellipse fill="#c4cac0" fill-opacity=".501961" cx="0" cy="0" rx="1" ry="1" /></g><path fill="#ff6573" fill-opacity=".501961" d="M64 92l60-19-88 78z" /><ellipse fill="#d0e5ee" fill-opacity=".501961" cx="16" cy="0" rx="9" ry="78" /><g transform="translate(99.497869 49.925982) rotate(-44.296922) scale(23.756254 30.370649)"><ellipse fill="#040700" fill-opacity=".501961" cx="0" cy="0" rx="1" ry="1" /></g><g transform="translate(126.835252 235.265047) rotate(68.987766) scale(27.313264 48.508045)"><ellipse fill="#898d88" fill-opacity=".501961" cx="0" cy="0" rx="1" ry="1" /></g><g transform="translate(98.127171 177.770345) rotate(241.685200) scale(39.395091 20.083127)"><ellipse fill="#05120f" fill-opacity=".501961" cx="0" cy="0" rx="1" ry="1" /></g></g></svg>