<svg xmlns="http://www.w3.org/2000/svg" viewBox="0 0 1024 684"><filter id="b"><feGaussianBlur stdDeviation="12" /></filter><path d="M0 0h1024v684H0z" fill="#8c794e" /><g filter="url(#b)" transform="scale(4.000000) translate(0.5 0.5)"><g transform="translate(117.761472 144.571425) rotate(2.217758) scale(109.418695 53.745171)"><ellipse fill="#94abd0" fill-opacity=".501961" cx="0" cy="0" rx="1" ry="1" /></g><g transform="translate(166.167497 39.861270) rotate(-72.717287) scale(56.515869 255.000000)"><ellipse fill="#9e6700" fill-opacity=".501961" cx="0" cy="0" rx="1" ry="1" /></g><g transform="translate(8.126238 89.709827) rotate(168.764262) scale(60.630055 21.107083)"><ellipse fill="#1d2800" fill-opacity=".501961" cx="0" cy="0" rx="1" ry="1" /></g><g transform="translate(238.305981 27.976564) rotate(86.057251) scale(16.291826 51.151938)"><ellipse fill="#2d3a27" fill-opacity=".501961" cx="0" cy="0" rx="1" ry="1" /></g><g transform="translate(255.000000 147.709522) rotate(220.864508) scale(37.234622 17.363385)"><ellipse fill="#262f44" fill-opacity=".501961" cx="0" cy="0" rx="1" ry="1" /></g><ellipse fill="#575d62" fill-opacity=".501961" cx="62" cy="170" rx="36" ry="30" /><g transform="translate(156.260568 22.951456) rotate(304.964982) scale(12.357493 77.816964)"><ellipse fill="#e19626" fill-opacity=".501961" cx="0" cy="0" rx="1" ry="1" /></g><g transform="translate(126.830675 39.875359) rotate(258.838666) scale(12.671111 23.814299)"><ellipse fill="#27461e" fill-opacity=".501961" cx="0" cy="0" rx="1" ry="1" /></g></g></svg>