<svg xmlns="http://www.w3.org/2000/svg" viewBox="0 0 1024 684"><filter id="b"><feGaussianBlur stdDeviation="12" /></filter><path d="M0 0h1024v684H0z" fill="#8e9cae" /><g filter="url(#b)" transform="scale(4.000000) translate(0.5 0.5)"><g transform="translate(153.565537 149.275177) rotate(174.388436) scale(50.349937 93.921120)"><ellipse fill="#000" fill-opacity=".501961" cx="0" cy="0" rx="1" ry="1" /></g><g transform="translate(121 39) rotate(250) scale(81 170)"><path d="M0 0h1024v684H0z" fill="#fff" /></g><g transform="translate(73.574051 117.888913) rotate(380.893930) scale(48.326329 23.996570)"><ellipse fill="#fff" fill-opacity=".501961" cx="0" cy="0" rx="1" ry="1" /></g><g transform="translate(161.448423 170.000000) rotate(92.734875) scale(45.628725 72.559492)"><ellipse fill="#000b48" fill-opacity=".501961" cx="0" cy="0" rx="1" ry="1" /></g><g transform="translate(221 94) rotate(111) scale(85 55)"><path d="M0 0h1024v684H0z" fill="#e7f9ff" /></g><g transform="translate(170.897929 78.134294) rotate(303.737871) scale(14.775819 31.333976)"><ellipse fill="#000720" fill-opacity=".501961" cx="0" cy="0" rx="1" ry="1" /></g><ellipse fill="#904125" fill-opacity=".501961" cx="129" cy="93" rx="32" ry="32" /><g transform="translate(0.000000 158.983901) rotate(61.497956) scale(164.612585 32.465229)"><ellipse fill="#3c3a4f" fill-opacity=".501961" cx="0" cy="0" rx="1" ry="1" /></g></g></svg>