<svg xmlns="http://www.w3.org/2000/svg" viewBox="0 0 1024 684"><filter id="b"><feGaussianBlur stdDeviation="12" /></filter><path d="M0 0h1024v684H0z" fill="#454748" /><g filter="url(#b)" transform="scale(4.000000) translate(0.5 0.5)"><path fill="#a39faa" fill-opacity=".501961" d="M208 18 93 186l178-23z" /><g transform="translate(58.111930 30.788324) rotate(233.110517) scale(55.537785 218.792694)"><ellipse fill="#000" fill-opacity=".501961" cx="0" cy="0" rx="1" ry="1" /></g><path d="M0 0h1024v684H0z" fill="#e9ffda" /><ellipse fill="#000" fill-opacity=".501961" cx="184" cy="0" rx="48" ry="32" /><g transform="translate(144.682318 75.692614) rotate(-21.720820) scale(63.746398 15.607948)"><ellipse fill="#081738" fill-opacity=".501961" cx="0" cy="0" rx="1" ry="1" /></g><path fill="#c19aa9" fill-opacity=".501961" d="M106 94l-7 66-16-51z" /><path d="M0 0h1024v684H0z" fill="#fff" /><g transform="translate(255.000000 111.679590) rotate(-21.117107) scale(10.121422 38.257349)"><ellipse fill="#91a4ae" fill-opacity=".501961" cx="0" cy="0" rx="1" ry="1" /></g></g></svg>