<svg xmlns="http://www.w3.org/2000/svg" viewBox="0 0 1024 678"><filter id="b"><feGaussianBlur stdDeviation="12" /></filter><path d="M0 0h1024v678H0z" fill="#374651" /><g filter="url(#b)" transform="scale(4.000000) translate(0.5 0.5)"><path fill="#219eff" fill-opacity=".501961" d="M267-15l4 166L35-16z" /><ellipse fill="#451500" fill-opacity=".501961" cx="40" cy="132" rx="141" ry="114" /><ellipse fill="#94a5c3" fill-opacity=".501961" cx="218" cy="95" rx="95" ry="26" /><g transform="translate(6.433971 67.568661) rotate(128.952295) scale(70.494566 55.837393)"><ellipse fill="#0f0600" fill-opacity=".501961" cx="0" cy="0" rx="1" ry="1" /></g><g transform="translate(199.001656 147.350691) rotate(325.433426) scale(15.097869 71.696553)"><ellipse fill="#3c1200" fill-opacity=".501961" cx="0" cy="0" rx="1" ry="1" /></g><g transform="translate(138.523301 0.000000) rotate(99.309851) scale(29.333767 164.347535)"><ellipse fill="#004dac" fill-opacity=".501961" cx="0" cy="0" rx="1" ry="1" /></g><ellipse fill="#2e1400" fill-opacity=".501961" cx="255" cy="167" rx="107" ry="32" /><path fill="#639adf" fill-opacity=".501961" d="M245.489553 68.387585 118.276175 18.045517 176.262651 95.097291l37.018045 43.306495z" /></g></svg>