<svg xmlns="http://www.w3.org/2000/svg" viewBox="0 0 684 1024"><filter id="b"><feGaussianBlur stdDeviation="12" /></filter><path d="M0 0h684v1024H0z" fill="#5a5b5f" /><g filter="url(#b)" transform="scale(4.000000) translate(0.5 0.5)"><g transform="translate(151.793990 33.298013) rotate(214.138667) scale(101.381850 74.942664)"><ellipse fill="#00b8ff" fill-opacity=".501961" cx="0" cy="0" rx="1" ry="1" /></g><ellipse fill="#8a4418" fill-opacity=".501961" cx="51" cy="160" rx="92" ry="92" /><ellipse fill="#450900" fill-opacity=".501961" cx="24" cy="13" rx="36" ry="59" /><g transform="translate(113.825192 187.776565) rotate(136.388494) scale(18.490379 51.316427)"><ellipse fill="#0c0000" fill-opacity=".501961" cx="0" cy="0" rx="1" ry="1" /></g><g transform="translate(159.771282 166.686486) rotate(41.205997) scale(65.790595 25.173958)"><ellipse fill="#be8d7b" fill-opacity=".501961" cx="0" cy="0" rx="1" ry="1" /></g><ellipse fill="#1a8cef" fill-opacity=".501961" cx="122" cy="26" rx="65" ry="65" /><path d="M0 0h684v1024H0z" fill="#5fb1ec" /><g transform="translate(115.079109 255.000000) rotate(219.563844) scale(31.417580 21.249894)"><ellipse fill="#190a16" fill-opacity=".501961" cx="0" cy="0" rx="1" ry="1" /></g></g></svg>