<svg xmlns="http://www.w3.org/2000/svg" viewBox="0 0 684 1024"><filter id="b"><feGaussianBlur stdDeviation="12" /></filter><path d="M0 0h684v1024H0z" fill="#5e2416" /><g filter="url(#b)" transform="scale(4.000000) translate(0.5 0.5)"><path fill="#fff" fill-opacity=".501961" d="M112.32827 78.810361 96.429582 189.256688 83.971421 181.179835 94.633081 96.779331z" /><g transform="translate(15.062325 137.644291) rotate(-16.680526) scale(37.785573 97.023690)"><ellipse fill="#c36648" fill-opacity=".501961" cx="0" cy="0" rx="1" ry="1" /></g><ellipse fill="#180000" fill-opacity=".501961" cx="145" cy="103" rx="35" ry="255" /><ellipse fill="#000" fill-opacity=".501961" cx="123" cy="12" rx="56" ry="25" /><path fill="#fff" fill-opacity=".501961" d="M95.438557 104.455497 95.767911 174.041009 104.326934 125.135013 111.408678 73.297206z" /><g transform="translate(100 192) rotate(250) scale(24 6)"><path d="M0 0h684v1024H0z" fill="#fff" /></g><path d="M0 0h684v1024H0z" fill="#430600" /><path fill="#a64225" fill-opacity=".501961" d="M85 187l13-66L76 66z" /></g></svg>