<svg xmlns="http://www.w3.org/2000/svg" viewBox="0 0 1024 684"><filter id="b"><feGaussianBlur stdDeviation="12" /></filter><path d="M0 0h1024v684H0z" fill="#234b65" /><g filter="url(#b)" transform="scale(4.000000) translate(0.5 0.5)"><g transform="translate(105.144539 18.205727) rotate(95.313373) scale(34.123461 255.000000)"><ellipse fill="#44b5f9" fill-opacity=".501961" cx="0" cy="0" rx="1" ry="1" /></g><g transform="translate(176.139382 132.064687) rotate(312.681589) scale(63.535592 129.910879)"><ellipse fill="#0a0605" fill-opacity=".501961" cx="0" cy="0" rx="1" ry="1" /></g><g transform="translate(23.793023 37.583114) rotate(168.895049) scale(86.206567 14.615882)"><ellipse fill="#96caee" fill-opacity=".501961" cx="0" cy="0" rx="1" ry="1" /></g><g transform="translate(150.456415 152.919282) rotate(82.701402) scale(24.419397 239.963198)"><ellipse fill="#120b07" fill-opacity=".501961" cx="0" cy="0" rx="1" ry="1" /></g><g transform="translate(111.396575 90.888722) rotate(92.924099) scale(10.193294 36.330558)"><ellipse fill="#5299c3" fill-opacity=".501961" cx="0" cy="0" rx="1" ry="1" /></g><g transform="translate(231.053677 58.225867) rotate(9.497770) scale(56.080048 6.678964)"><ellipse fill="#7ec4ee" fill-opacity=".501961" cx="0" cy="0" rx="1" ry="1" /></g><g transform="translate(232 91) rotate(25) scale(66 39)"><path d="M0 0h1024v684H0z" fill="#0d1014" /></g><g transform="translate(205.425822 5.435395) rotate(191.732054) scale(115.400377 20.678564)"><ellipse fill="#0067af" fill-opacity=".501961" cx="0" cy="0" rx="1" ry="1" /></g></g></svg>