<svg xmlns="http://www.w3.org/2000/svg" viewBox="0 0 678 1024"><filter id="b"><feGaussianBlur stdDeviation="12" /></filter><path d="M0 0h678v1024H0z" fill="#4b4b3a" /><g filter="url(#b)" transform="scale(4.000000) translate(0.5 0.5)"><g transform="translate(118.841189 20.929669) rotate(196.178777) scale(42.396566 79.935632)"><ellipse fill="#ffffd6" fill-opacity=".501961" cx="0" cy="0" rx="1" ry="1" /></g><g transform="translate(20.609209 63.621845) rotate(178.947716) scale(55.004182 116.826017)"><ellipse fill="#000" fill-opacity=".501961" cx="0" cy="0" rx="1" ry="1" /></g><g transform="translate(88.288120 227.984670) rotate(187.830774) scale(42.397740 73.882621)"><ellipse fill="#000" fill-opacity=".501961" cx="0" cy="0" rx="1" ry="1" /></g><g transform="translate(145.848003 158.706358) rotate(351.755257) scale(31.092576 12.388605)"><ellipse fill="#e0febf" fill-opacity=".501961" cx="0" cy="0" rx="1" ry="1" /></g><path fill="#fffffc" fill-opacity=".501961" d="M138.32192 257.855599 151.971763 271 144.541135 221.823055 132.825909 181.856417z" /><ellipse fill="#dfffb1" fill-opacity=".501961" cx="116" cy="17" rx="46" ry="20" /><ellipse fill="#6ea447" fill-opacity=".501961" cx="156" cy="56" rx="54" ry="29" /><path fill="#b24d7b" fill-opacity=".501961" d="M125 61l18 31L32 147z" /></g></svg>