<svg xmlns="http://www.w3.org/2000/svg" viewBox="0 0 684 1024"><filter id="b"><feGaussianBlur stdDeviation="12" /></filter><path d="M0 0h684v1024H0z" fill="#b6b9c6" /><g filter="url(#b)" transform="scale(4.000000) translate(0.5 0.5)"><g transform="translate(78.383203 145.584562) rotate(224.335444) scale(29.498132 62.060027)"><ellipse fill="#590000" fill-opacity=".501961" cx="0" cy="0" rx="1" ry="1" /></g><g transform="translate(68 137) rotate(178) scale(48 62)"><path d="M0 0h684v1024H0z" fill="#730000" /></g><ellipse fill="#000" fill-opacity=".501961" cx="50" cy="198" rx="10" ry="35" /><ellipse fill="#e8ffff" fill-opacity=".501961" cx="117" cy="204" rx="49" ry="49" /><path fill="#ecffff" fill-opacity=".501961" d="M-16 55l126 52L131-3z" /><path fill="#123d21" fill-opacity=".501961" d="M119.663126 63.759149 129.266122 131.858665 132.571605 53.533981 104.644808 41.204951z" /><g transform="translate(11.049605 130.768921) rotate(62.308418) scale(56.837256 24.350418)"><ellipse fill="#e0ffff" fill-opacity=".501961" cx="0" cy="0" rx="1" ry="1" /></g><path fill="#070000" fill-opacity=".501961" d="M71 114 28 85l30 60z" /></g></svg>