<svg xmlns="http://www.w3.org/2000/svg" viewBox="0 0 1024 678"><filter id="b"><feGaussianBlur stdDeviation="12" /></filter><path d="M0 0h1024v678H0z" fill="#3f5f70" /><g filter="url(#b)" transform="scale(4.000000) translate(0.5 0.5)"><g transform="translate(115.262769 9.082194) rotate(179.010838) scale(173.054747 16.078121)"><ellipse fill="#fff" fill-opacity=".501961" cx="0" cy="0" rx="1" ry="1" /></g><path fill="#220700" fill-opacity=".501961" d="M-16 84-3 182l274-18z" /><g transform="translate(91.392314 45.734559) rotate(265.791512) scale(23.711772 204.783279)"><ellipse fill="#0062c1" fill-opacity=".501961" cx="0" cy="0" rx="1" ry="1" /></g><g transform="translate(227.510524 67.055699) rotate(283.296497) scale(28.661255 62.392389)"><ellipse fill="#002661" fill-opacity=".501961" cx="0" cy="0" rx="1" ry="1" /></g><g transform="translate(123 108) rotate(199) scale(94 53)"><path d="M0 0h1024v678H0z" fill="#7f8570" /></g><g transform="translate(100.575647 0.000000) rotate(359.524863) scale(126.494747 33.488676)"><ellipse fill="#a3c6ea" fill-opacity=".501961" cx="0" cy="0" rx="1" ry="1" /></g><g transform="translate(75.901160 157.387420) rotate(286.093268) scale(32.643212 156.251437)"><ellipse fill="#282000" fill-opacity=".501961" cx="0" cy="0" rx="1" ry="1" /></g><ellipse fill="#005297" fill-opacity=".501961" cx="42" cy="56" rx="62" ry="37" /></g></svg>