<svg xmlns="http://www.w3.org/2000/svg" viewBox="0 0 684 1024"><filter id="b"><feGaussianBlur stdDeviation="12" /></filter><path d="M0 0h684v1024H0z" fill="#474b4a" /><g filter="url(#b)" transform="scale(4.000000) translate(0.5 0.5)"><ellipse fill="#fff" fill-opacity=".501961" cx="36" cy="59" rx="62" ry="20" /><g transform="translate(84.183418 9.456065) rotate(283.586886) scale(33.953535 170.000000)"><ellipse fill="#000" fill-opacity=".501961" cx="0" cy="0" rx="1" ry="1" /></g><g transform="translate(36.284153 59.585283) rotate(170.838738) scale(56.570609 17.930053)"><ellipse fill="#fff" fill-opacity=".501961" cx="0" cy="0" rx="1" ry="1" /></g><g transform="translate(27.373464 134.919624) rotate(200.374757) scale(45.349386 61.872879)"><ellipse fill="#000" fill-opacity=".501961" cx="0" cy="0" rx="1" ry="1" /></g><ellipse fill="#788097" fill-opacity=".501961" cx="111" cy="227" rx="115" ry="53" /><g transform="translate(150.060269 77.824951) rotate(328.252280) scale(36.412525 170.000000)"><ellipse fill="#0e0d00" fill-opacity=".501961" cx="0" cy="0" rx="1" ry="1" /></g><path d="M0 0h684v1024H0z" fill="#fff" /><path fill="#cfb9b1" fill-opacity=".501961" d="M50.581881 111.956666 102.173421 138.866701 156.189614 119.415198 106.854944 122.722019z" /></g></svg>