<svg xmlns="http://www.w3.org/2000/svg" viewBox="0 0 684 1024"><filter id="b"><feGaussianBlur stdDeviation="12" /></filter><path d="M0 0h684v1024H0z" fill="#605244" /><g filter="url(#b)" transform="scale(4.000000) translate(0.5 0.5)"><g transform="translate(150.299377 214.659879) rotate(338.297529) scale(27.096301 55.843985)"><ellipse fill="#000711" fill-opacity=".501961" cx="0" cy="0" rx="1" ry="1" /></g><ellipse fill="#b17447" fill-opacity=".501961" cx="47" cy="204" rx="69" ry="69" /><g transform="translate(84.349343 87.717741) rotate(192.596042) scale(19.833936 51.644669)"><ellipse fill="#c78c80" fill-opacity=".501961" cx="0" cy="0" rx="1" ry="1" /></g><g transform="translate(60.918669 156.541212) rotate(4.811427) scale(8.417000 32.565798)"><ellipse fill="#000008" fill-opacity=".501961" cx="0" cy="0" rx="1" ry="1" /></g><ellipse fill="#283c3f" fill-opacity=".501961" cx="44" cy="15" rx="109" ry="29" /><g transform="translate(137.221078 107.570657) rotate(329.178894) scale(56.494781 26.145547)"><ellipse fill="#293731" fill-opacity=".501961" cx="0" cy="0" rx="1" ry="1" /></g><g transform="translate(28.001760 176.008754) rotate(283.049336) scale(50.946152 15.967543)"><ellipse fill="#c7926a" fill-opacity=".501961" cx="0" cy="0" rx="1" ry="1" /></g><path fill="#27190c" fill-opacity=".501961" d="M-16 155 61 57 51 119z" /></g></svg>