<svg xmlns="http://www.w3.org/2000/svg" viewBox="0 0 1024 684"><filter id="b"><feGaussianBlur stdDeviation="12" /></filter><path d="M0 0h1024v684H0z" fill="#2a5372" /><g filter="url(#b)" transform="scale(4.000000) translate(0.5 0.5)"><ellipse fill="#4dcbff" fill-opacity=".501961" cx="51" cy="43" rx="126" ry="43" /><ellipse fill="#160000" fill-opacity=".501961" cx="120" cy="141" rx="156" ry="61" /><ellipse fill="#c4d7ff" fill-opacity=".501961" cx="42" cy="65" rx="49" ry="23" /><g transform="translate(185.864437 19.759743) rotate(273.105953) scale(29.405230 255.000000)"><ellipse fill="#0070c9" fill-opacity=".501961" cx="0" cy="0" rx="1" ry="1" /></g><g transform="translate(249.941382 77.300432) rotate(-6.066468) scale(13.170228 31.281186)"><ellipse fill="#a7e3ff" fill-opacity=".501961" cx="0" cy="0" rx="1" ry="1" /></g><g transform="translate(200.676509 56.355453) rotate(169.123342) scale(10.579630 22.574050)"><ellipse fill="#bde0ff" fill-opacity=".501961" cx="0" cy="0" rx="1" ry="1" /></g><g transform="translate(28.257272 137.549706) rotate(227.543281) scale(56.094730 34.967844)"><ellipse fill="#040300" fill-opacity=".501961" cx="0" cy="0" rx="1" ry="1" /></g><ellipse fill="#0d0600" fill-opacity=".501961" cx="223" cy="95" rx="11" ry="65" /></g></svg>