<svg xmlns="http://www.w3.org/2000/svg" viewBox="0 0 684 1024"><filter id="b"><feGaussianBlur stdDeviation="12" /></filter><path d="M0 0h684v1024H0z" fill="#737778" /><g filter="url(#b)" transform="scale(4.000000) translate(0.5 0.5)"><g transform="translate(146.729379 192.837710) rotate(265.445193) scale(91.478982 33.761706)"><ellipse fill="#000" fill-opacity=".501961" cx="0" cy="0" rx="1" ry="1" /></g><g transform="translate(63.773615 0.000000) rotate(104.660924) scale(35.084928 162.765263)"><ellipse fill="#fff" fill-opacity=".501961" cx="0" cy="0" rx="1" ry="1" /></g><g transform="translate(0.000000 105.253135) rotate(96.411476) scale(139.709911 19.410658)"><ellipse fill="#fff" fill-opacity=".501961" cx="0" cy="0" rx="1" ry="1" /></g><g transform="translate(19.441428 224.602829) rotate(188.167447) scale(20.288694 84.407919)"><ellipse fill="#000" fill-opacity=".501961" cx="0" cy="0" rx="1" ry="1" /></g><g transform="translate(156 80) rotate(210) scale(77 44)"><path d="M0 0h684v1024H0z" fill="#fff" /></g><g transform="translate(37.280237 61.004146) rotate(187.261424) scale(18.196365 40.156349)"><ellipse fill="#111315" fill-opacity=".501961" cx="0" cy="0" rx="1" ry="1" /></g><g transform="translate(144.842227 190.840757) rotate(265.342866) scale(78.957287 31.310431)"><ellipse fill="#000" fill-opacity=".501961" cx="0" cy="0" rx="1" ry="1" /></g><ellipse fill="#9dbfcc" fill-opacity=".501961" cx="71" cy="219" rx="32" ry="41" /></g></svg>