<svg xmlns="http://www.w3.org/2000/svg" viewBox="0 0 1024 684"><filter id="b"><feGaussianBlur stdDeviation="12" /></filter><path d="M0 0h1024v684H0z" fill="#9b8572" /><g filter="url(#b)" transform="scale(4.000000) translate(0.5 0.5)"><g transform="translate(225.709328 12.290817) rotate(129.107524) scale(56.194145 19.818245)"><ellipse fill="#000" fill-opacity=".501961" cx="0" cy="0" rx="1" ry="1" /></g><g transform="translate(223.369209 137.006971) rotate(332.364029) scale(187.006679 38.070833)"><ellipse fill="#ffeedb" fill-opacity=".501961" cx="0" cy="0" rx="1" ry="1" /></g><g transform="translate(14.574941 120.457949) rotate(-6.275324) scale(63.071129 37.371235)"><ellipse fill="#2a1e16" fill-opacity=".501961" cx="0" cy="0" rx="1" ry="1" /></g><g transform="translate(87.227791 157.142032) rotate(143.772541) scale(45.934386 20.576405)"><ellipse fill="#ead0c0" fill-opacity=".501961" cx="0" cy="0" rx="1" ry="1" /></g><g transform="translate(28.023128 0.000000) rotate(37.107276) scale(42.644472 120.581127)"><ellipse fill="#584b3f" fill-opacity=".501961" cx="0" cy="0" rx="1" ry="1" /></g><ellipse fill="#caa986" fill-opacity=".501961" cx="151" cy="79" rx="136" ry="24" /><g transform="translate(158.547026 116.480302) rotate(237.892250) scale(10.181255 26.076652)"><ellipse fill="#0a0809" fill-opacity=".501961" cx="0" cy="0" rx="1" ry="1" /></g><g transform="translate(220.084177 13.551625) rotate(388.613903) scale(17.887643 27.539686)"><ellipse fill="#000" fill-opacity=".501961" cx="0" cy="0" rx="1" ry="1" /></g></g></svg>