<svg xmlns="http://www.w3.org/2000/svg" viewBox="0 0 684 1024"><filter id="b"><feGaussianBlur stdDeviation="12" /></filter><path d="M0 0h684v1024H0z" fill="#433f33" /><g filter="url(#b)" transform="scale(4.000000) translate(0.5 0.5)"><g transform="translate(89.281989 152.541009) rotate(243.353159) scale(29.988709 54.980302)"><ellipse fill="#a2928d" fill-opacity=".501961" cx="0" cy="0" rx="1" ry="1" /></g><ellipse fill="#000" fill-opacity=".501961" cx="11" cy="0" rx="43" ry="118" /><g transform="translate(80 176) rotate(329) scale(36 15)"><path d="M0 0h684v1024H0z" fill="#e6ffff" /></g><g transform="translate(99.935768 120.300431) rotate(283.315401) scale(31.519808 10.911542)"><ellipse fill="#ffbd4d" fill-opacity=".501961" cx="0" cy="0" rx="1" ry="1" /></g><path fill="#ffd2b0" fill-opacity=".501961" d="M43.678983 149.478754 13.999487 134.958171 91.44945 137.33445 101.27026 143.657925z" /><g transform="translate(153 219) rotate(216) scale(69 149)"><path d="M0 0h684v1024H0z" fill="#1b2200" /></g><g transform="translate(73.129640 156.623971) rotate(166.510149) scale(19.433505 8.660848)"><ellipse fill="#000019" fill-opacity=".501961" cx="0" cy="0" rx="1" ry="1" /></g><g transform="translate(68.666389 80.873548) rotate(196.996323) scale(18.254930 25.862104)"><ellipse fill="#727875" fill-opacity=".501961" cx="0" cy="0" rx="1" ry="1" /></g></g></svg>