<svg xmlns="http://www.w3.org/2000/svg" viewBox="0 0 684 1024"><filter id="b"><feGaussianBlur stdDeviation="12" /></filter><path d="M0 0h684v1024H0z" fill="#695e5b" /><g filter="url(#b)" transform="scale(4.000000) translate(0.5 0.5)"><g transform="translate(139.349756 16.915819) rotate(313.234554) scale(31.879373 170.000000)"><ellipse fill="#e6d7d0" fill-opacity=".501961" cx="0" cy="0" rx="1" ry="1" /></g><ellipse fill="#251915" fill-opacity=".501961" cx="58" cy="184" rx="32" ry="114" /><path fill="#ffffec" fill-opacity=".501961" d="M43 271-4 174-16 257z" /><g transform="translate(42 6) rotate(215) scale(60 48)"><path d="M0 0h684v1024H0z" fill="#f1e1d2" /></g><g transform="translate(170.000000 160.557848) rotate(-92.038374) scale(27.846100 34.186460)"><ellipse fill="#000" fill-opacity=".501961" cx="0" cy="0" rx="1" ry="1" /></g><g transform="translate(91.749741 37.577950) rotate(48.651134) scale(32.829241 13.029851)"><ellipse fill="#130000" fill-opacity=".501961" cx="0" cy="0" rx="1" ry="1" /></g><ellipse fill="#a08b80" fill-opacity=".501961" cx="128" cy="104" rx="41" ry="41" /><g transform="translate(25.459965 131.117762) rotate(344.083233) scale(13.301537 33.480404)"><ellipse fill="#060302" fill-opacity=".501961" cx="0" cy="0" rx="1" ry="1" /></g></g></svg>