<svg xmlns="http://www.w3.org/2000/svg" viewBox="0 0 684 1024"><filter id="b"><feGaussianBlur stdDeviation="12" /></filter><path d="M0 0h684v1024H0z" fill="#9e9ca2" /><g filter="url(#b)" transform="scale(4.000000) translate(0.5 0.5)"><g transform="translate(121.274360 19.218603) rotate(324.674552) scale(58.941787 85.730880)"><ellipse fill="#fff" fill-opacity=".501961" cx="0" cy="0" rx="1" ry="1" /></g><g transform="translate(78.856965 139.992514) rotate(341.283492) scale(25.430010 170.000000)"><ellipse fill="#3f3e4a" fill-opacity=".501961" cx="0" cy="0" rx="1" ry="1" /></g><ellipse fill="#fff" fill-opacity=".501961" cx="130" cy="12" rx="70" ry="70" /><g transform="translate(0.000000 175.372448) rotate(109.680567) scale(46.652840 21.543578)"><ellipse fill="#2c2900" fill-opacity=".501961" cx="0" cy="0" rx="1" ry="1" /></g><ellipse fill="#877575" fill-opacity=".501961" cx="137" cy="252" rx="80" ry="80" /><ellipse fill="#fff" fill-opacity=".501961" cx="118" cy="26" rx="54" ry="54" /><g transform="translate(75.884711 106.582220) rotate(340.650009) scale(7.186146 70.129228)"><ellipse fill="#1b1e2c" fill-opacity=".501961" cx="0" cy="0" rx="1" ry="1" /></g><g transform="translate(76.454519 181.624709) rotate(323.186108) scale(11.801690 14.033451)"><ellipse fill="#000" fill-opacity=".501961" cx="0" cy="0" rx="1" ry="1" /></g></g></svg>