<svg xmlns="http://www.w3.org/2000/svg" viewBox="0 0 1024 684"><filter id="b"><feGaussianBlur stdDeviation="12" /></filter><path d="M0 0h1024v684H0z" fill="#797c78" /><g filter="url(#b)" transform="scale(4.000000) translate(0.5 0.5)"><ellipse fill="#cad5ce" fill-opacity=".501961" cx="131" cy="129" rx="63" ry="115" /><g transform="translate(0.000000 106.999162) rotate(93.388606) scale(212.339025 53.146912)"><ellipse fill="#181513" fill-opacity=".501961" cx="0" cy="0" rx="1" ry="1" /></g><g transform="translate(251.085660 112.216979) rotate(88.666635) scale(196.418843 12.919094)"><ellipse fill="#150605" fill-opacity=".501961" cx="0" cy="0" rx="1" ry="1" /></g><g transform="translate(121 165) rotate(-6) scale(64 42)"><path d="M0 0h1024v684H0z" fill="#fff" /></g><g transform="translate(74.674695 72.171929) rotate(161.158962) scale(51.302760 30.578368)"><ellipse fill="#8e968a" fill-opacity=".501961" cx="0" cy="0" rx="1" ry="1" /></g><g transform="translate(209.971182 0.000000) rotate(95.986543) scale(11.834291 63.286504)"><ellipse fill="#020900" fill-opacity=".501961" cx="0" cy="0" rx="1" ry="1" /></g><g transform="translate(255.000000 155.494671) rotate(352.116979) scale(32.213733 15.346888)"><ellipse fill="#000100" fill-opacity=".501961" cx="0" cy="0" rx="1" ry="1" /></g><path d="M0 0h1024v684H0z" fill="#0f0c01" /></g></svg>