<svg xmlns="http://www.w3.org/2000/svg" viewBox="0 0 681 1024"><filter id="b"><feGaussianBlur stdDeviation="12" /></filter><path d="M0 0h681v1024H0z" fill="#818285" /><g filter="url(#b)" transform="scale(4.000000) translate(0.5 0.5)"><g transform="translate(84.887926 131.178189) rotate(17.747380) scale(23.434471 56.608594)"><ellipse fill="#001" fill-opacity=".501961" cx="0" cy="0" rx="1" ry="1" /></g><g transform="translate(132.638960 191.682006) rotate(285.849229) scale(169.000000 33.387533)"><ellipse fill="#b4b2b2" fill-opacity=".501961" cx="0" cy="0" rx="1" ry="1" /></g><g transform="translate(138.091409 12.731546) rotate(-194.356376) scale(39.236504 27.210300)"><ellipse fill="#c2bfba" fill-opacity=".501961" cx="0" cy="0" rx="1" ry="1" /></g><ellipse fill="#000" fill-opacity=".501961" cx="94" cy="132" rx="16" ry="22" /><g transform="translate(3.370161 209.865900) rotate(369.670205) scale(19.037104 36.954048)"><ellipse fill="#c2c5c7" fill-opacity=".501961" cx="0" cy="0" rx="1" ry="1" /></g><g transform="translate(163.674055 255.000000) rotate(178.541653) scale(18.325391 20.811460)"><ellipse fill="#003552" fill-opacity=".501961" cx="0" cy="0" rx="1" ry="1" /></g><path fill="#2c3a48" fill-opacity=".501961" d="M58 141l26 22-46 61z" /><ellipse fill="#67676d" fill-opacity=".501961" cx="32" cy="67" rx="74" ry="30" /></g></svg>