<svg xmlns="http://www.w3.org/2000/svg" viewBox="0 0 684 1024"><filter id="b"><feGaussianBlur stdDeviation="12" /></filter><path d="M0 0h684v1024H0z" fill="#91acd1" /><g filter="url(#b)" transform="scale(4.000000) translate(0.5 0.5)"><g transform="translate(100.468614 125.999199) rotate(282.367570) scale(39.338338 32.202757)"><ellipse fill="#011739" fill-opacity=".501961" cx="0" cy="0" rx="1" ry="1" /></g><g transform="translate(10.731528 218.175414) rotate(84.618843) scale(104.083692 31.787359)"><ellipse fill="#306296" fill-opacity=".501961" cx="0" cy="0" rx="1" ry="1" /></g><g transform="translate(146.557698 180.068766) rotate(191.742107) scale(31.055514 120.396985)"><ellipse fill="#e5f1ff" fill-opacity=".501961" cx="0" cy="0" rx="1" ry="1" /></g><g transform="translate(1.339279 17.482099) rotate(99.849406) scale(20.492218 25.923775)"><ellipse fill="#000f2e" fill-opacity=".501961" cx="0" cy="0" rx="1" ry="1" /></g><g transform="translate(128.896292 29.521596) rotate(60.494565) scale(35.345948 100.225041)"><ellipse fill="#ccdff9" fill-opacity=".501961" cx="0" cy="0" rx="1" ry="1" /></g><g transform="translate(57.489521 186.260031) rotate(-1.165578) scale(36.549460 34.254749)"><ellipse fill="#b7d9ff" fill-opacity=".501961" cx="0" cy="0" rx="1" ry="1" /></g><g transform="translate(119.132388 98.771721) rotate(204.387314) scale(22.865116 33.242309)"><ellipse fill="#6681a7" fill-opacity=".501961" cx="0" cy="0" rx="1" ry="1" /></g><g transform="translate(29 78) rotate(226) scale(79 6)"><path d="M0 0h684v1024H0z" fill="#0e1820" /></g></g></svg>