<svg xmlns="http://www.w3.org/2000/svg" viewBox="0 0 683 1024"><filter id="b"><feGaussianBlur stdDeviation="12" /></filter><path d="M0 0h683v1024H0z" fill="#6e6552" /><g filter="url(#b)" transform="scale(4.000000) translate(0.5 0.5)"><g transform="translate(168.438551 148.748985) rotate(6.810330) scale(23.912021 170.000000)"><ellipse fill="#000c13" fill-opacity=".501961" cx="0" cy="0" rx="1" ry="1" /></g><g transform="translate(16 141) rotate(248) scale(170 110)"><path d="M0 0h683v1024H0z" fill="#d09d51" /></g><g transform="translate(12.154487 33.039189) rotate(145.045497) scale(18.513673 48.540104)"><ellipse fill="#b0cafc" fill-opacity=".501961" cx="0" cy="0" rx="1" ry="1" /></g><g transform="translate(117.483071 4.028624) rotate(378.500728) scale(107.298473 68.377568)"><ellipse fill="#2e393b" fill-opacity=".501961" cx="0" cy="0" rx="1" ry="1" /></g><g transform="translate(101.179444 144.467440) rotate(52.747720) scale(64.467744 37.082453)"><ellipse fill="#6b7b8a" fill-opacity=".501961" cx="0" cy="0" rx="1" ry="1" /></g><ellipse fill="#9f782b" fill-opacity=".501961" cx="54" cy="196" rx="42" ry="42" /><ellipse fill="#1a282e" fill-opacity=".501961" cx="156" cy="232" rx="34" ry="34" /><g transform="translate(26.827965 96.791002) rotate(306.193030) scale(30.847980 11.252551)"><ellipse fill="#edb566" fill-opacity=".501961" cx="0" cy="0" rx="1" ry="1" /></g></g></svg>