<svg xmlns="http://www.w3.org/2000/svg" viewBox="0 0 1024 684"><filter id="b"><feGaussianBlur stdDeviation="12" /></filter><path d="M0 0h1024v684H0z" fill="#53554f" /><g filter="url(#b)" transform="scale(4.000000) translate(0.5 0.5)"><g transform="translate(83.213544 7.454737) rotate(77.230550) scale(32.223068 55.198947)"><ellipse fill="#fff" fill-opacity=".501961" cx="0" cy="0" rx="1" ry="1" /></g><g transform="translate(64.614117 137.388814) rotate(185.376789) scale(56.350988 26.999860)"><ellipse fill="#c4d1dd" fill-opacity=".501961" cx="0" cy="0" rx="1" ry="1" /></g><g transform="translate(234.541671 40.872487) rotate(178.746015) scale(119.459673 46.002042)"><ellipse fill="#000" fill-opacity=".501961" cx="0" cy="0" rx="1" ry="1" /></g><g transform="translate(43.260329 58.866476) rotate(280.801524) scale(16.761506 95.114950)"><ellipse fill="#0d0b00" fill-opacity=".501961" cx="0" cy="0" rx="1" ry="1" /></g><path fill="#e5eaed" fill-opacity=".501961" d="M81.879213-16 104.65617 28.47613 48.610817 37.385185 62.505347 61.186643z" /><g transform="translate(0 32) rotate(317) scale(56 65)"><path d="M0 0h1024v684H0z" fill="#020400" /></g><g transform="translate(125.553126 103.791502) rotate(157.196806) scale(40.380464 22.005553)"><ellipse fill="#929290" fill-opacity=".501961" cx="0" cy="0" rx="1" ry="1" /></g><g transform="translate(221.273186 170.000000) rotate(175.111181) scale(48.329498 20.192992)"><ellipse fill="#060604" fill-opacity=".501961" cx="0" cy="0" rx="1" ry="1" /></g></g></svg>