<svg xmlns="http://www.w3.org/2000/svg" viewBox="0 0 1024 684"><filter id="b"><feGaussianBlur stdDeviation="12" /></filter><path d="M0 0h1024v684H0z" fill="#736a80" /><g filter="url(#b)" transform="scale(4.000000) translate(0.5 0.5)"><g transform="translate(52.621732 148.617344) rotate(-43.897717) scale(87.333563 60.196124)"><ellipse fill="#2c0000" fill-opacity=".501961" cx="0" cy="0" rx="1" ry="1" /></g><g transform="translate(56.624567 31.040076) rotate(7.159510) scale(53.955446 37.024520)"><ellipse fill="#dee7df" fill-opacity=".501961" cx="0" cy="0" rx="1" ry="1" /></g><g transform="translate(205.755805 145.825285) rotate(213.745058) scale(71.578264 84.015619)"><ellipse fill="#9abedd" fill-opacity=".501961" cx="0" cy="0" rx="1" ry="1" /></g><g transform="translate(138.353655 68.089253) rotate(338.404303) scale(51.736348 33.973784)"><ellipse fill="#1c3d5d" fill-opacity=".501961" cx="0" cy="0" rx="1" ry="1" /></g><ellipse fill="#4f0014" fill-opacity=".501961" cx="60" cy="159" rx="68" ry="68" /><path fill="#e0e2d1" fill-opacity=".501961" d="M102.780787-16l76.350572 27.742502L232.712508 95.831143 186.801249-14.596361z" /><path fill="#080d20" fill-opacity=".501961" d="M57-16 79 27 64 37z" /><g transform="translate(235 19) rotate(119) scale(19 120)"><path d="M0 0h1024v684H0z" fill="#cbcdbd" /></g></g></svg>