<svg xmlns="http://www.w3.org/2000/svg" viewBox="0 0 1024 684"><filter id="b"><feGaussianBlur stdDeviation="12" /></filter><path d="M0 0h1024v684H0z" fill="#42413c" /><g filter="url(#b)" transform="scale(4.000000) translate(0.5 0.5)"><g transform="translate(122.919541 120.669174) rotate(275.213093) scale(38.796050 80.169311)"><ellipse fill="#7b7d86" fill-opacity=".501961" cx="0" cy="0" rx="1" ry="1" /></g><g transform="translate(217.808680 50.140086) rotate(247.290150) scale(33.192712 59.582029)"><ellipse fill="#000" fill-opacity=".501961" cx="0" cy="0" rx="1" ry="1" /></g><g transform="translate(134.252553 68.630808) rotate(251.722395) scale(30.921973 21.385087)"><ellipse fill="#e94c4b" fill-opacity=".501961" cx="0" cy="0" rx="1" ry="1" /></g><path d="M0 0h1024v684H0z" fill="#fff" /><g transform="translate(29.972768 122.501863) rotate(355.850001) scale(50.303079 21.195326)"><ellipse fill="#000800" fill-opacity=".501961" cx="0" cy="0" rx="1" ry="1" /></g><g transform="translate(132.163455 43.016939) rotate(76.254113) scale(24.668500 7.868210)"><ellipse fill="#f3e8d2" fill-opacity=".501961" cx="0" cy="0" rx="1" ry="1" /></g><g transform="translate(85.302167 35.094694) rotate(-17.050861) scale(34.641570 54.924380)"><ellipse fill="#0a150b" fill-opacity=".501961" cx="0" cy="0" rx="1" ry="1" /></g><g transform="translate(12.923985 54.718783) rotate(31.049399) scale(47.135646 13.356561)"><ellipse fill="#ac9e3d" fill-opacity=".501961" cx="0" cy="0" rx="1" ry="1" /></g></g></svg>