<svg xmlns="http://www.w3.org/2000/svg" viewBox="0 0 681 1024"><filter id="b"><feGaussianBlur stdDeviation="12" /></filter><path d="M0 0h681v1024H0z" fill="#656b56" /><g filter="url(#b)" transform="scale(4.000000) translate(0.5 0.5)"><g transform="translate(85.558800 109.888793) rotate(34.877457) scale(49.763867 40.220147)"><ellipse fill="#f3c7b5" fill-opacity=".501961" cx="0" cy="0" rx="1" ry="1" /></g><g transform="translate(35 0) rotate(170) scale(126 19)"><path d="M0 0h681v1024H0z" fill="#e9ffff" /></g><g transform="translate(65.614223 202.958393) rotate(274.934617) scale(37.978777 20.874017)"><ellipse fill="#fc6903" fill-opacity=".501961" cx="0" cy="0" rx="1" ry="1" /></g><ellipse fill="#1d5031" fill-opacity=".501961" cx="153" cy="115" rx="23" ry="255" /><g transform="translate(11 223) rotate(123) scale(25 85)"><path d="M0 0h681v1024H0z" fill="#b2b9be" /></g><path fill="#411614" fill-opacity=".501961" d="M77.126388 85.541389 102.040927 25.301895 77.698175 18.328309 57.893984 35.057592z" /><g transform="translate(108.570154 174.088419) rotate(327.728559) scale(26.681884 34.180677)"><ellipse fill="#483d2e" fill-opacity=".501961" cx="0" cy="0" rx="1" ry="1" /></g><g transform="translate(20.315875 117.820350) rotate(353.772225) scale(25.173750 102.971957)"><ellipse fill="#3a5a40" fill-opacity=".501961" cx="0" cy="0" rx="1" ry="1" /></g></g></svg>