<svg xmlns="http://www.w3.org/2000/svg" viewBox="0 0 1024 683"><filter id="b"><feGaussianBlur stdDeviation="12" /></filter><path d="M0 0h1024v683H0z" fill="#b27f86" /><g filter="url(#b)" transform="scale(4.000000) translate(0.5 0.5)"><ellipse fill="#e40012" fill-opacity=".501961" cx="103" cy="162" rx="77" ry="77" /><g transform="translate(136.170009 30.488237) rotate(156.144493) scale(20.848852 149.356722)"><ellipse fill="#e3feee" fill-opacity=".501961" cx="0" cy="0" rx="1" ry="1" /></g><g transform="translate(248.788694 110.587173) rotate(64.642405) scale(160.613154 70.251928)"><ellipse fill="#97c6b7" fill-opacity=".501961" cx="0" cy="0" rx="1" ry="1" /></g><g transform="translate(57 115) rotate(58) scale(56 18)"><path d="M0 0h1024v683H0z" fill="#000007" /></g><path fill="#b00022" fill-opacity=".501961" d="M150 90 107 45 52 185z" /><g transform="translate(9 151) rotate(182) scale(25 39)"><path d="M0 0h1024v683H0z" fill="#e0ffff" /></g><ellipse fill="#f80049" fill-opacity=".501961" cx="143" cy="155" rx="40" ry="40" /><g transform="translate(141.408678 44.257564) rotate(353.284379) scale(22.144137 28.253190)"><ellipse fill="#fffff8" fill-opacity=".501961" cx="0" cy="0" rx="1" ry="1" /></g></g></svg>