<svg xmlns="http://www.w3.org/2000/svg" viewBox="0 0 1024 684"><filter id="b"><feGaussianBlur stdDeviation="12" /></filter><path d="M0 0h1024v684H0z" fill="#746b61" /><g filter="url(#b)" transform="scale(4.000000) translate(0.5 0.5)"><g transform="translate(203.032249 9.771173) rotate(133.048326) scale(42.790943 81.950118)"><ellipse fill="#fff" fill-opacity=".501961" cx="0" cy="0" rx="1" ry="1" /></g><ellipse fill="#000" fill-opacity=".501961" cx="170" cy="136" rx="68" ry="68" /><g transform="translate(15.530638 57.671415) rotate(20.934384) scale(22.717291 62.620370)"><ellipse fill="#fff" fill-opacity=".501961" cx="0" cy="0" rx="1" ry="1" /></g><g transform="translate(115.003364 61.210647) rotate(287.124623) scale(47.497332 16.839256)"><ellipse fill="#fff" fill-opacity=".501961" cx="0" cy="0" rx="1" ry="1" /></g><path fill="#180e00" fill-opacity=".501961" d="M106-16 15 113l74 58z" /><g transform="translate(134 76) rotate(317) scale(23 59)"><path d="M0 0h1024v684H0z" fill="#f2faf8" /></g><ellipse fill="#fff" fill-opacity=".501961" cx="252" cy="114" rx="34" ry="12" /><g transform="translate(17.299059 170.000000) rotate(-31.604849) scale(20.868548 70.383497)"><ellipse fill="#000" fill-opacity=".501961" cx="0" cy="0" rx="1" ry="1" /></g></g></svg>