<svg xmlns="http://www.w3.org/2000/svg" viewBox="0 0 1024 684"><filter id="b"><feGaussianBlur stdDeviation="12" /></filter><path d="M0 0h1024v684H0z" fill="#36405c" /><g filter="url(#b)" transform="scale(4.000000) translate(0.5 0.5)"><g transform="translate(113.921826 61.750130) rotate(135.265159) scale(60.214419 34.023051)"><ellipse fill="#cbb4e1" fill-opacity=".501961" cx="0" cy="0" rx="1" ry="1" /></g><ellipse fill="#000" fill-opacity=".501961" cx="13" cy="67" rx="41" ry="100" /><path fill="#3a80c6" fill-opacity=".501961" d="M72-16 270 6 49 63z" /><g transform="translate(204.665256 102.159839) rotate(-12.153397) scale(106.974365 39.550642)"><ellipse fill="#0c0d10" fill-opacity=".501961" cx="0" cy="0" rx="1" ry="1" /></g><g transform="translate(96.617110 94.886179) rotate(154.573933) scale(30.890942 16.844739)"><ellipse fill="#ff8f71" fill-opacity=".501961" cx="0" cy="0" rx="1" ry="1" /></g><g transform="translate(136.789450 8.710171) rotate(113.560693) scale(46.523254 27.253109)"><ellipse fill="#0987ca" fill-opacity=".501961" cx="0" cy="0" rx="1" ry="1" /></g><ellipse fill="#2e5c9c" fill-opacity=".501961" cx="161" cy="166" rx="158" ry="23" /><ellipse fill="#011421" fill-opacity=".501961" cx="133" cy="131" rx="249" ry="13" /></g></svg>