<svg xmlns="http://www.w3.org/2000/svg" viewBox="0 0 1024 684"><filter id="b"><feGaussianBlur stdDeviation="12" /></filter><path d="M0 0h1024v684H0z" fill="#454846" /><g filter="url(#b)" transform="scale(4.000000) translate(0.5 0.5)"><g transform="translate(118.956253 107.280795) rotate(-48.978857) scale(86.539808 72.534988)"><ellipse fill="#777e81" fill-opacity=".501961" cx="0" cy="0" rx="1" ry="1" /></g><g transform="translate(40.759758 0.000000) rotate(212.803719) scale(51.197651 189.305459)"><ellipse fill="#120800" fill-opacity=".501961" cx="0" cy="0" rx="1" ry="1" /></g><g transform="translate(247.778216 75.834880) rotate(260.036064) scale(250.251297 42.611446)"><ellipse fill="#0b0f15" fill-opacity=".501961" cx="0" cy="0" rx="1" ry="1" /></g><ellipse fill="#000005" fill-opacity=".501961" cx="115" cy="81" rx="20" ry="20" /><g transform="translate(78.107773 90.390452) rotate(42.963463) scale(16.743195 25.900211)"><ellipse fill="#a6afaf" fill-opacity=".501961" cx="0" cy="0" rx="1" ry="1" /></g><g transform="translate(96.542441 9.976171) rotate(325.916902) scale(36.841597 17.434009)"><ellipse fill="#171309" fill-opacity=".501961" cx="0" cy="0" rx="1" ry="1" /></g><g transform="translate(255.000000 25.849473) rotate(165.309784) scale(21.977810 35.417884)"><ellipse fill="#000002" fill-opacity=".501961" cx="0" cy="0" rx="1" ry="1" /></g><path fill="#12181b" fill-opacity=".501961" d="M197.985543-13.501353 197.127947 23.738235 140.427708 43.152767 186.940882-7.306808z" /></g></svg>