<svg xmlns="http://www.w3.org/2000/svg" viewBox="0 0 684 1024"><filter id="b"><feGaussianBlur stdDeviation="12" /></filter><path d="M0 0h684v1024H0z" fill="#737e87" /><g filter="url(#b)" transform="scale(4.000000) translate(0.5 0.5)"><g transform="translate(34.361907 212.614750) rotate(153.072019) scale(46.476491 170.000000)"><ellipse fill="#fff" fill-opacity=".501961" cx="0" cy="0" rx="1" ry="1" /></g><g transform="translate(109.983198 62.694785) rotate(218.959082) scale(42.302182 111.256728)"><ellipse fill="#030409" fill-opacity=".501961" cx="0" cy="0" rx="1" ry="1" /></g><g transform="translate(164.487853 138.691108) rotate(257.964554) scale(55.428898 26.954991)"><ellipse fill="#fff" fill-opacity=".501961" cx="0" cy="0" rx="1" ry="1" /></g><ellipse fill="#1d2930" fill-opacity=".501961" cx="43" cy="25" rx="51" ry="51" /><ellipse fill="#000" fill-opacity=".501961" cx="127" cy="157" rx="10" ry="84" /><path d="M0 0h684v1024H0z" fill="#12151c" /><g transform="translate(99.691730 149.907810) rotate(62.154720) scale(30.409154 16.987275)"><ellipse fill="#fffffc" fill-opacity=".501961" cx="0" cy="0" rx="1" ry="1" /></g><path d="M0 0h684v1024H0z" fill="#fff" /></g></svg>