<svg xmlns="http://www.w3.org/2000/svg" viewBox="0 0 684 1024"><filter id="b"><feGaussianBlur stdDeviation="12" /></filter><path d="M0 0h684v1024H0z" fill="#6f87a0" /><g filter="url(#b)" transform="scale(4.000000) translate(0.5 0.5)"><g transform="translate(157.662150 147.025809) rotate(99.073714) scale(170.000000 48.854544)"><ellipse fill="#ffffca" fill-opacity=".501961" cx="0" cy="0" rx="1" ry="1" /></g><g transform="translate(44.532062 55.332810) rotate(304.469761) scale(170.000000 65.006502)"><ellipse fill="#002573" fill-opacity=".501961" cx="0" cy="0" rx="1" ry="1" /></g><g transform="translate(84.333993 128.687614) rotate(31.218274) scale(14.423410 32.147554)"><ellipse fill="#f67511" fill-opacity=".501961" cx="0" cy="0" rx="1" ry="1" /></g><g transform="translate(24.279673 212.355264) rotate(184.634910) scale(58.065000 76.268694)"><ellipse fill="#1f83d7" fill-opacity=".501961" cx="0" cy="0" rx="1" ry="1" /></g><g transform="translate(140.722344 151.135419) rotate(371.358004) scale(31.338689 170.000000)"><ellipse fill="#ffd0b9" fill-opacity=".501961" cx="0" cy="0" rx="1" ry="1" /></g><ellipse fill="#004c83" fill-opacity=".501961" cx="44" cy="22" rx="92" ry="92" /><g transform="translate(102.563631 131.136074) rotate(273.711540) scale(53.404266 12.432133)"><ellipse fill="#563d3c" fill-opacity=".501961" cx="0" cy="0" rx="1" ry="1" /></g><path d="M0 0h684v1024H0z" fill="#77bff2" /></g></svg>