<svg xmlns="http://www.w3.org/2000/svg" viewBox="0 0 684 1024"><filter id="b"><feGaussianBlur stdDeviation="12" /></filter><path d="M0 0h684v1024H0z" fill="#91969f" /><g filter="url(#b)" transform="scale(4.000000) translate(0.5 0.5)"><g transform="translate(41.291482 45.403615) rotate(44.027687) scale(110.853361 35.450625)"><ellipse fill="#000" fill-opacity=".501961" cx="0" cy="0" rx="1" ry="1" /></g><g transform="translate(30.272909 218.819442) rotate(268.818717) scale(42.367648 140.594626)"><ellipse fill="#fff" fill-opacity=".501961" cx="0" cy="0" rx="1" ry="1" /></g><path fill="#000" fill-opacity=".501961" d="M140-2l-2 52L53 87z" /><path fill="#000010" fill-opacity=".501961" d="M55.084899 139.079293 73.771161 167.814602 10.657844 173.480047 57.172047 82.763558z" /><g transform="translate(44.766378 224.212090) rotate(210.623625) scale(89.174877 37.794768)"><ellipse fill="#fff" fill-opacity=".501961" cx="0" cy="0" rx="1" ry="1" /></g><g transform="translate(161.017924 71.805243) rotate(70.427119) scale(27.909571 42.507915)"><ellipse fill="#edffff" fill-opacity=".501961" cx="0" cy="0" rx="1" ry="1" /></g><g transform="translate(70.112349 34.071612) rotate(230.589158) scale(12.441700 21.914102)"><ellipse fill="#f5ffff" fill-opacity=".501961" cx="0" cy="0" rx="1" ry="1" /></g><g transform="translate(81.287905 139.992627) rotate(218.583563) scale(29.075422 16.825914)"><ellipse fill="#fff" fill-opacity=".501961" cx="0" cy="0" rx="1" ry="1" /></g></g></svg>