<svg xmlns="http://www.w3.org/2000/svg" viewBox="0 0 1024 684"><filter id="b"><feGaussianBlur stdDeviation="12" /></filter><path d="M0 0h1024v684H0z" fill="#a2958c" /><g filter="url(#b)" transform="scale(4.000000) translate(0.5 0.5)"><g transform="translate(118.137108 163.432024) rotate(273.056439) scale(134.867359 42.395280)"><ellipse fill="#070314" fill-opacity=".501961" cx="0" cy="0" rx="1" ry="1" /></g><g transform="translate(40.150843 28.384715) rotate(305.355104) scale(82.775263 48.611567)"><ellipse fill="#fff" fill-opacity=".501961" cx="0" cy="0" rx="1" ry="1" /></g><ellipse fill="#01172b" fill-opacity=".501961" cx="91" cy="170" rx="93" ry="35" /><g transform="translate(198.761705 33.202551) rotate(383.969097) scale(27.985710 111.800191)"><ellipse fill="#f5dfcc" fill-opacity=".501961" cx="0" cy="0" rx="1" ry="1" /></g><g transform="translate(0.000000 31.926777) rotate(284.244346) scale(67.765039 43.056608)"><ellipse fill="#fff" fill-opacity=".501961" cx="0" cy="0" rx="1" ry="1" /></g><path fill="#efe9e7" fill-opacity=".501961" d="M30.160745 151.42514 72.950754 88.749662 113.269522 72.810046 96.668604 105.350123z" /><ellipse fill="#371000" fill-opacity=".501961" cx="119" cy="0" rx="75" ry="5" /><path fill="#f7ebe0" fill-opacity=".501961" d="M186.648765 3.264299 175.63 61.671363 126.629157 16.044705 144.884193 8.284758z" /></g></svg>