<svg xmlns="http://www.w3.org/2000/svg" viewBox="0 0 1024 678"><filter id="b"><feGaussianBlur stdDeviation="12" /></filter><path d="M0 0h1024v678H0z" fill="#43403a" /><g filter="url(#b)" transform="scale(4.000000) translate(0.5 0.5)"><g transform="translate(148.344175 139.797845) rotate(190.112337) scale(84.861886 41.076589)"><ellipse fill="#9c968e" fill-opacity=".501961" cx="0" cy="0" rx="1" ry="1" /></g><g transform="translate(27.005005 98.209508) rotate(297.846760) scale(29.117006 56.186533)"><ellipse fill="#000" fill-opacity=".501961" cx="0" cy="0" rx="1" ry="1" /></g><ellipse fill="#020000" fill-opacity=".501961" cx="220" cy="59" rx="173" ry="14" /><g transform="translate(50.577845 31.820195) rotate(292.096032) scale(49.234623 8.806958)"><ellipse fill="#ba988b" fill-opacity=".501961" cx="0" cy="0" rx="1" ry="1" /></g><g transform="translate(92.730567 101.649996) rotate(282.802089) scale(52.573171 5.619601)"><ellipse fill="#daaca7" fill-opacity=".501961" cx="0" cy="0" rx="1" ry="1" /></g><path fill="#c89995" fill-opacity=".501961" d="M150.237075 87.332133 144.942987 125.330664 175.600144 89.010874 171.580433 57.769491z" /><g transform="translate(215.151885 103.430177) rotate(267.930394) scale(10.504217 50.223064)"><ellipse fill="#000100" fill-opacity=".501961" cx="0" cy="0" rx="1" ry="1" /></g><g transform="translate(0.000000 41.638118) rotate(104.765115) scale(153.088793 27.998637)"><ellipse fill="#060000" fill-opacity=".501961" cx="0" cy="0" rx="1" ry="1" /></g></g></svg>