<svg xmlns="http://www.w3.org/2000/svg" viewBox="0 0 1024 684"><filter id="b"><feGaussianBlur stdDeviation="12" /></filter><path d="M0 0h1024v684H0z" fill="#7794aa" /><g filter="url(#b)" transform="scale(4.000000) translate(0.5 0.5)"><g transform="translate(199.289578 43.239970) rotate(256.504734) scale(243.373835 71.875026)"><ellipse fill="#24a5ff" fill-opacity=".501961" cx="0" cy="0" rx="1" ry="1" /></g><g transform="translate(42 79) rotate(439) scale(219 154)"><path d="M0 0h1024v684H0z" fill="#d49258" /></g><g transform="translate(127.707428 76.956806) rotate(-5.312990) scale(14.397354 118.761884)"><ellipse fill="#12344a" fill-opacity=".501961" cx="0" cy="0" rx="1" ry="1" /></g><g transform="translate(211.914772 162.465720) rotate(136.355771) scale(78.727889 52.859629)"><ellipse fill="#abd7ff" fill-opacity=".501961" cx="0" cy="0" rx="1" ry="1" /></g><ellipse fill="#0073cb" fill-opacity=".501961" cx="173" cy="23" rx="63" ry="39" /><g transform="translate(122.224057 90.694662) rotate(259.894020) scale(34.782069 7.559890)"><ellipse fill="#1b0b00" fill-opacity=".501961" cx="0" cy="0" rx="1" ry="1" /></g><g transform="translate(14.631898 91.530915) rotate(-39.021310) scale(40.025428 51.065937)"><ellipse fill="#d7b799" fill-opacity=".501961" cx="0" cy="0" rx="1" ry="1" /></g><g transform="translate(140.431401 137.056127) rotate(147.998231) scale(6.478625 22.378845)"><ellipse fill="#1d0f0b" fill-opacity=".501961" cx="0" cy="0" rx="1" ry="1" /></g></g></svg>