<svg xmlns="http://www.w3.org/2000/svg" viewBox="0 0 1024 684"><filter id="b"><feGaussianBlur stdDeviation="12" /></filter><path d="M0 0h1024v684H0z" fill="#b8c6d2" /><g filter="url(#b)" transform="scale(4.000000) translate(0.5 0.5)"><g transform="translate(147.565954 92.275843) rotate(122.450035) scale(28.926150 44.895372)"><ellipse fill="#000" fill-opacity=".501961" cx="0" cy="0" rx="1" ry="1" /></g><path fill="#000004" fill-opacity=".501961" d="M98.27349 68.358456 54.241311 94.570792 69.689409 106.536274 114.980225 70.066802z" /><g transform="translate(121.109276 22.007310) rotate(94.532241) scale(45.965480 95.605178)"><ellipse fill="#f7ffff" fill-opacity=".501961" cx="0" cy="0" rx="1" ry="1" /></g><g transform="translate(166.820271 103.099785) rotate(67.956576) scale(45.636915 15.125293)"><ellipse fill="#000e41" fill-opacity=".501961" cx="0" cy="0" rx="1" ry="1" /></g><g transform="translate(109.374582 150.922097) rotate(20.372334) scale(101.781668 29.292202)"><ellipse fill="#fff" fill-opacity=".501961" cx="0" cy="0" rx="1" ry="1" /></g><g transform="translate(221.742122 101.904032) rotate(186.105440) scale(33.118191 74.293459)"><ellipse fill="#f6fdff" fill-opacity=".501961" cx="0" cy="0" rx="1" ry="1" /></g><ellipse fill="#001731" fill-opacity=".501961" cx="140" cy="106" rx="16" ry="24" /><g transform="translate(245.316684 5.233679) rotate(208.275335) scale(58.830063 20.905788)"><ellipse fill="#66566b" fill-opacity=".501961" cx="0" cy="0" rx="1" ry="1" /></g></g></svg>