<svg xmlns="http://www.w3.org/2000/svg" viewBox="0 0 683 1024"><filter id="b"><feGaussianBlur stdDeviation="12" /></filter><path d="M0 0h683v1024H0z" fill="#7d767a" /><g filter="url(#b)" transform="scale(4.000000) translate(0.5 0.5)"><g transform="translate(105.727864 158.124813) rotate(316.385124) scale(30.506720 51.538612)"><ellipse fill="#1d0000" fill-opacity=".501961" cx="0" cy="0" rx="1" ry="1" /></g><ellipse fill="#fffff7" fill-opacity=".501961" cx="148" cy="227" rx="50" ry="31" /><g transform="translate(44.223395 204.364123) rotate(131.624123) scale(20.636078 40.845133)"><ellipse fill="#fff" fill-opacity=".501961" cx="0" cy="0" rx="1" ry="1" /></g><ellipse fill="#0a1d20" fill-opacity=".501961" cx="168" cy="80" rx="42" ry="58" /><g transform="translate(33.904594 118.785125) rotate(191.843706) scale(27.545185 16.116425)"><ellipse fill="#acffff" fill-opacity=".501961" cx="0" cy="0" rx="1" ry="1" /></g><g transform="translate(83.063491 25.918986) rotate(258.829218) scale(99.111206 15.809561)"><ellipse fill="#d5d9d3" fill-opacity=".501961" cx="0" cy="0" rx="1" ry="1" /></g><path fill="#31000f" fill-opacity=".501961" d="M91 155 51 91 75 54z" /><g transform="translate(43 176) rotate(204) scale(119 21)"><path d="M0 0h683v1024H0z" fill="#f89aaa" /></g></g></svg>