<svg xmlns="http://www.w3.org/2000/svg" viewBox="0 0 1024 684"><filter id="b"><feGaussianBlur stdDeviation="12" /></filter><path d="M0 0h1024v684H0z" fill="#858883" /><g filter="url(#b)" transform="scale(4.000000) translate(0.5 0.5)"><ellipse fill="#e9f8f7" fill-opacity=".501961" cx="228" cy="112" rx="38" ry="170" /><g transform="translate(22.643296 32.931302) rotate(102.996569) scale(248.395232 27.078931)"><ellipse fill="#000" fill-opacity=".501961" cx="0" cy="0" rx="1" ry="1" /></g><g transform="translate(155.622980 23.059086) rotate(103.101220) scale(62.526751 23.741596)"><ellipse fill="#fff" fill-opacity=".501961" cx="0" cy="0" rx="1" ry="1" /></g><g transform="translate(71.225788 35.518836) rotate(215.441910) scale(11.796144 80.750308)"><ellipse fill="#fff" fill-opacity=".501961" cx="0" cy="0" rx="1" ry="1" /></g><g transform="translate(118.896532 111.511188) rotate(149.672582) scale(49.322682 76.539796)"><ellipse fill="#484036" fill-opacity=".501961" cx="0" cy="0" rx="1" ry="1" /></g><ellipse fill="#daecf9" fill-opacity=".501961" cx="53" cy="139" rx="23" ry="42" /><ellipse fill="#322b03" fill-opacity=".501961" cx="183" cy="72" rx="21" ry="32" /><g transform="translate(17 147) rotate(260) scale(136 28)"><path d="M0 0h1024v684H0z" fill="#000" /></g></g></svg>