<svg xmlns="http://www.w3.org/2000/svg" viewBox="0 0 1024 684"><filter id="b"><feGaussianBlur stdDeviation="12" /></filter><path d="M0 0h1024v684H0z" fill="#678592" /><g filter="url(#b)" transform="scale(4.000000) translate(0.5 0.5)"><g transform="translate(44.262305 13.612702) rotate(170.981553) scale(43.853438 126.854750)"><ellipse fill="#00a6ff" fill-opacity=".501961" cx="0" cy="0" rx="1" ry="1" /></g><g transform="translate(0.735922 144.362145) rotate(97.134227) scale(85.938838 37.837411)"><ellipse fill="#000" fill-opacity=".501961" cx="0" cy="0" rx="1" ry="1" /></g><ellipse fill="#eac1a4" fill-opacity=".501961" cx="152" cy="48" rx="50" ry="50" /><ellipse fill="#6a2800" fill-opacity=".501961" cx="139" cy="127" rx="30" ry="38" /><ellipse fill="#dbbeaa" fill-opacity=".501961" cx="222" cy="133" rx="59" ry="38" /><path fill="#1c1900" fill-opacity=".501961" d="M98 166-16 102-1 186z" /><g transform="translate(54.423784 14.130912) rotate(329.721297) scale(70.155429 44.888982)"><ellipse fill="#0096ff" fill-opacity=".501961" cx="0" cy="0" rx="1" ry="1" /></g><g transform="translate(220.664599 68.870158) rotate(27.574828) scale(15.443598 37.500207)"><ellipse fill="#320c00" fill-opacity=".501961" cx="0" cy="0" rx="1" ry="1" /></g></g></svg>