<svg xmlns="http://www.w3.org/2000/svg" viewBox="0 0 684 1024"><filter id="b"><feGaussianBlur stdDeviation="12" /></filter><path d="M0 0h684v1024H0z" fill="#7e7a6f" /><g filter="url(#b)" transform="scale(4.000000) translate(0.5 0.5)"><g transform="translate(93.811787 215.262258) rotate(360.542854) scale(22.234425 79.174248)"><ellipse fill="#000" fill-opacity=".501961" cx="0" cy="0" rx="1" ry="1" /></g><g transform="translate(9.618241 12.266982) rotate(203.067864) scale(36.323971 60.560878)"><ellipse fill="#000" fill-opacity=".501961" cx="0" cy="0" rx="1" ry="1" /></g><g transform="translate(161.667158 76.392972) rotate(80.722676) scale(169.181500 45.490722)"><ellipse fill="#c1b9ac" fill-opacity=".501961" cx="0" cy="0" rx="1" ry="1" /></g><ellipse fill="#b5b2a7" fill-opacity=".501961" cx="31" cy="151" rx="24" ry="102" /><g transform="translate(80.969075 40.001014) rotate(181.941032) scale(21.487962 8.552462)"><ellipse fill="#ecf9fd" fill-opacity=".501961" cx="0" cy="0" rx="1" ry="1" /></g><g transform="translate(48.383438 135.289361) rotate(24.091646) scale(4.948600 35.142356)"><ellipse fill="#090b03" fill-opacity=".501961" cx="0" cy="0" rx="1" ry="1" /></g><ellipse fill="#bdb5a7" fill-opacity=".501961" cx="136" cy="207" rx="30" ry="28" /><path fill="#443428" fill-opacity=".501961" d="M139.908215 108.84939 138.181497 93.256003 63.097455 66.203853 113.531154 122.695461z" /></g></svg>