<svg xmlns="http://www.w3.org/2000/svg" viewBox="0 0 1024 684"><filter id="b"><feGaussianBlur stdDeviation="12" /></filter><path d="M0 0h1024v684H0z" fill="#564d5a" /><g filter="url(#b)" transform="scale(4.000000) translate(0.5 0.5)"><g transform="translate(186.617564 29.889151) rotate(178.448518) scale(255.000000 44.666219)"><ellipse fill="#b2c3ee" fill-opacity=".501961" cx="0" cy="0" rx="1" ry="1" /></g><g transform="translate(119.148810 129.675594) rotate(269.951081) scale(48.900891 255.000000)"><ellipse fill="#080000" fill-opacity=".501961" cx="0" cy="0" rx="1" ry="1" /></g><ellipse fill="#200600" fill-opacity=".501961" cx="40" cy="150" rx="54" ry="54" /><g transform="translate(2.466611 24.529808) rotate(267.256768) scale(22.952138 32.730661)"><ellipse fill="#3e4365" fill-opacity=".501961" cx="0" cy="0" rx="1" ry="1" /></g><ellipse fill="#2f0f00" fill-opacity=".501961" cx="255" cy="143" rx="121" ry="65" /><path fill="#83bae2" fill-opacity=".501961" d="M161 52 271 30 108-16z" /><g transform="translate(68.385449 58.771844) rotate(81.977230) scale(11.356896 148.032853)"><ellipse fill="#c2a6a4" fill-opacity=".501961" cx="0" cy="0" rx="1" ry="1" /></g><g transform="translate(174.965878 57.891958) rotate(0.919321) scale(72.700765 5.893069)"><ellipse fill="#63416c" fill-opacity=".501961" cx="0" cy="0" rx="1" ry="1" /></g></g></svg>