<svg xmlns="http://www.w3.org/2000/svg" viewBox="0 0 683 1024"><filter id="b"><feGaussianBlur stdDeviation="12" /></filter><path d="M0 0h683v1024H0z" fill="#5c5c5c" /><g filter="url(#b)" transform="scale(4.000000) translate(0.5 0.5)"><g transform="translate(21.003716 91.986217) rotate(105.060970) scale(170.000000 49.874755)"><ellipse fill="#000" fill-opacity=".501961" cx="0" cy="0" rx="1" ry="1" /></g><g transform="translate(142.469297 142.468827) rotate(371.079458) scale(62.100255 170.000000)"><ellipse fill="#b5b5b5" fill-opacity=".501961" cx="0" cy="0" rx="1" ry="1" /></g><ellipse fill="#000" fill-opacity=".501961" cx="0" cy="50" rx="61" ry="61" /><g transform="translate(57.425698 239.296647) rotate(269.353981) scale(31.220616 7.538710)"><ellipse fill="#f6f6f6" fill-opacity=".501961" cx="0" cy="0" rx="1" ry="1" /></g><g transform="translate(14.237082 195.055849) rotate(83.060784) scale(170.000000 28.382895)"><ellipse fill="#090909" fill-opacity=".501961" cx="0" cy="0" rx="1" ry="1" /></g><ellipse fill="#525252" fill-opacity=".501961" cx="88" cy="126" rx="21" ry="66" /><ellipse fill="#5c5c5c" fill-opacity=".501961" cx="155" cy="153" rx="18" ry="28" /><g transform="translate(77.990545 233.971111) rotate(341.108117) scale(17.128950 42.027130)"><ellipse fill="#9d9d9d" fill-opacity=".501961" cx="0" cy="0" rx="1" ry="1" /></g></g></svg>