<svg xmlns="http://www.w3.org/2000/svg" viewBox="0 0 684 1024"><filter id="b"><feGaussianBlur stdDeviation="12" /></filter><path d="M0 0h684v1024H0z" fill="#415d79" /><g filter="url(#b)" transform="scale(4.000000) translate(0.5 0.5)"><g transform="translate(83.545239 20.449091) rotate(98.935272) scale(69.036886 37.920080)"><ellipse fill="#0af" fill-opacity=".501961" cx="0" cy="0" rx="1" ry="1" /></g><g transform="translate(13.758491 61.774112) rotate(68.893595) scale(67.244577 37.844531)"><ellipse fill="#000006" fill-opacity=".501961" cx="0" cy="0" rx="1" ry="1" /></g><ellipse fill="#000" fill-opacity=".501961" cx="162" cy="38" rx="37" ry="57" /><ellipse fill="#888193" fill-opacity=".501961" cx="61" cy="194" rx="70" ry="70" /><g transform="translate(98.600589 215.023029) rotate(3.328233) scale(71.148296 19.265032)"><ellipse fill="#46464e" fill-opacity=".501961" cx="0" cy="0" rx="1" ry="1" /></g><g transform="translate(75.726372 21.190045) rotate(60.190248) scale(47.154612 38.047994)"><ellipse fill="#0086e3" fill-opacity=".501961" cx="0" cy="0" rx="1" ry="1" /></g><path fill="#48aaed" fill-opacity=".501961" d="M71.213335 63.686925 55.903111 108.511201 81.470739 99.726645 125.696943 34.014603z" /><g transform="translate(121.651054 86.552725) rotate(161.658160) scale(13.369521 36.584291)"><ellipse fill="#908d9d" fill-opacity=".501961" cx="0" cy="0" rx="1" ry="1" /></g></g></svg>