<svg xmlns="http://www.w3.org/2000/svg" viewBox="0 0 1024 684"><filter id="b"><feGaussianBlur stdDeviation="12" /></filter><path d="M0 0h1024v684H0z" fill="#678592" /><g filter="url(#b)" transform="scale(4.000000) translate(0.5 0.5)"><g transform="translate(47.139117 24.175899) rotate(-9.125361) scale(46.836730 116.494816)"><ellipse fill="#00a3ff" fill-opacity=".501961" cx="0" cy="0" rx="1" ry="1" /></g><g transform="translate(27.151737 152.747799) rotate(242.903973) scale(150.905915 32.703911)"><ellipse fill="#000" fill-opacity=".501961" cx="0" cy="0" rx="1" ry="1" /></g><g transform="translate(198.233737 135.786618) rotate(59.902819) scale(142.971033 103.266596)"><ellipse fill="#ba957a" fill-opacity=".501961" cx="0" cy="0" rx="1" ry="1" /></g><g transform="translate(137.221939 130.817355) rotate(139.410451) scale(27.532035 41.841741)"><ellipse fill="#3e2000" fill-opacity=".501961" cx="0" cy="0" rx="1" ry="1" /></g><g transform="translate(221.194098 65.240088) rotate(384.058612) scale(18.220793 32.790601)"><ellipse fill="#0c0700" fill-opacity=".501961" cx="0" cy="0" rx="1" ry="1" /></g><ellipse fill="#0098ff" fill-opacity=".501961" cx="52" cy="16" rx="55" ry="55" /><g transform="translate(66.042515 123.860150) rotate(120.111032) scale(22.121422 42.200016)"><ellipse fill="#4ec0ff" fill-opacity=".501961" cx="0" cy="0" rx="1" ry="1" /></g><g transform="translate(140.389673 69.504966) rotate(78.626946) scale(21.779772 50.770698)"><ellipse fill="#dfd8cd" fill-opacity=".501961" cx="0" cy="0" rx="1" ry="1" /></g></g></svg>