<svg xmlns="http://www.w3.org/2000/svg" viewBox="0 0 684 1024"><filter id="b"><feGaussianBlur stdDeviation="12" /></filter><path d="M0 0h684v1024H0z" fill="#b5c2c5" /><g filter="url(#b)" transform="scale(4.000000) translate(0.5 0.5)"><g transform="translate(79.635875 143.647911) rotate(157.528103) scale(27.414309 70.852708)"><ellipse fill="#21262f" fill-opacity=".501961" cx="0" cy="0" rx="1" ry="1" /></g><g transform="translate(118.269360 124.738252) rotate(397.084481) scale(11.491136 15.855831)"><ellipse fill="#040f00" fill-opacity=".501961" cx="0" cy="0" rx="1" ry="1" /></g><ellipse fill="#e8f8ff" fill-opacity=".501961" cx="101" cy="240" rx="81" ry="30" /><g transform="translate(21.839930 152.832838) rotate(238.708551) scale(82.545590 20.123814)"><ellipse fill="#f8ffff" fill-opacity=".501961" cx="0" cy="0" rx="1" ry="1" /></g><g transform="translate(32.735158 212.517027) rotate(214.430187) scale(13.436772 9.092161)"><ellipse fill="#003b28" fill-opacity=".501961" cx="0" cy="0" rx="1" ry="1" /></g><g transform="translate(49.150830 118.516639) rotate(98.174571) scale(30.028351 13.042633)"><ellipse fill="#df4103" fill-opacity=".501961" cx="0" cy="0" rx="1" ry="1" /></g><g transform="translate(22.625144 85.504536) rotate(280.454517) scale(156.468964 24.094387)"><ellipse fill="#dcecf5" fill-opacity=".501961" cx="0" cy="0" rx="1" ry="1" /></g><g transform="translate(79.294127 171.751948) rotate(215.351657) scale(32.861209 18.924629)"><ellipse fill="#1a76c6" fill-opacity=".501961" cx="0" cy="0" rx="1" ry="1" /></g></g></svg>