<svg xmlns="http://www.w3.org/2000/svg" viewBox="0 0 684 1024"><filter id="b"><feGaussianBlur stdDeviation="12" /></filter><path d="M0 0h684v1024H0z" fill="#22211d" /><g filter="url(#b)" transform="scale(4.000000) translate(0.5 0.5)"><g transform="translate(23.273990 233.733771) rotate(74.152812) scale(101.266384 42.116106)"><ellipse fill="#706659" fill-opacity=".501961" cx="0" cy="0" rx="1" ry="1" /></g><path fill="#d7baae" fill-opacity=".501961" d="M99 98 72 129 67 78z" /><g transform="translate(35.482880 38.591972) rotate(286.609084) scale(80.757601 47.177220)"><ellipse fill="#000" fill-opacity=".501961" cx="0" cy="0" rx="1" ry="1" /></g><path fill="#0094ff" fill-opacity=".501961" d="M84.156944 35.918922 68.577602 65.792936 111.665735 41.803027 82.981829 38.936135z" /><g transform="translate(59.033387 147.398280) rotate(39.733860) scale(20.299496 39.258887)"><ellipse fill="#605549" fill-opacity=".501961" cx="0" cy="0" rx="1" ry="1" /></g><g transform="translate(129.564061 188.854060) rotate(158.058320) scale(27.608706 60.034288)"><ellipse fill="#000" fill-opacity=".501961" cx="0" cy="0" rx="1" ry="1" /></g><g transform="translate(127.386018 14.531083) rotate(311.549802) scale(38.822113 106.952414)"><ellipse fill="#000" fill-opacity=".501961" cx="0" cy="0" rx="1" ry="1" /></g><g transform="translate(123.159240 110.545216) rotate(128.295724) scale(23.294399 60.910999)"><ellipse fill="#4a3b32" fill-opacity=".501961" cx="0" cy="0" rx="1" ry="1" /></g></g></svg>