<svg xmlns="http://www.w3.org/2000/svg" viewBox="0 0 1024 684"><filter id="b"><feGaussianBlur stdDeviation="12" /></filter><path d="M0 0h1024v684H0z" fill="#11212d" /><g filter="url(#b)" transform="scale(4.000000) translate(0.5 0.5)"><g transform="translate(130.207937 65.718015) rotate(326.685258) scale(31.816959 32.447278)"><ellipse fill="#adadb2" fill-opacity=".501961" cx="0" cy="0" rx="1" ry="1" /></g><ellipse fill="#dfe4dd" fill-opacity=".501961" cx="128" cy="67" rx="14" ry="14" /><g transform="translate(9.356046 66.712528) rotate(12.648985) scale(52.629891 203.823573)"><ellipse fill="#000511" fill-opacity=".501961" cx="0" cy="0" rx="1" ry="1" /></g><g transform="translate(122.166875 170.000000) rotate(272.324613) scale(25.009152 77.981760)"><ellipse fill="#030000" fill-opacity=".501961" cx="0" cy="0" rx="1" ry="1" /></g><g transform="translate(122.882858 98.264249) rotate(274.975856) scale(22.339477 60.239870)"><ellipse fill="#314559" fill-opacity=".501961" cx="0" cy="0" rx="1" ry="1" /></g><g transform="translate(233.734445 56.995368) rotate(436.642369) scale(251.425716 36.849329)"><ellipse fill="#000712" fill-opacity=".501961" cx="0" cy="0" rx="1" ry="1" /></g><g transform="translate(150 49) rotate(225) scale(82 32)"><path d="M0 0h1024v684H0z" fill="#3d4a58" /></g><g transform="translate(100 53) rotate(116) scale(66 24)"><path d="M0 0h1024v684H0z" fill="#384455" /></g></g></svg>