<svg xmlns="http://www.w3.org/2000/svg" viewBox="0 0 684 1024"><filter id="b"><feGaussianBlur stdDeviation="12" /></filter><path d="M0 0h684v1024H0z" fill="#6f87a0" /><g filter="url(#b)" transform="scale(4.000000) translate(0.5 0.5)"><g transform="translate(147.217904 150.561231) rotate(368.932041) scale(37.473941 170.000000)"><ellipse fill="#ffc" fill-opacity=".501961" cx="0" cy="0" rx="1" ry="1" /></g><g transform="translate(27 77) rotate(33) scale(124 244)"><path d="M0 0h684v1024H0z" fill="#002678" /></g><ellipse fill="#2488d8" fill-opacity=".501961" cx="20" cy="201" rx="64" ry="64" /><g transform="translate(83.421103 132.188260) rotate(294.902239) scale(31.338051 17.819543)"><ellipse fill="#e36d17" fill-opacity=".501961" cx="0" cy="0" rx="1" ry="1" /></g><ellipse fill="#ffcfb6" fill-opacity=".501961" cx="143" cy="203" rx="35" ry="156" /><ellipse fill="#004b81" fill-opacity=".501961" cx="34" cy="17" rx="103" ry="103" /><ellipse fill="#514042" fill-opacity=".501961" cx="102" cy="122" rx="12" ry="56" /><g transform="translate(72.071710 246.092900) rotate(59.425803) scale(24.192800 38.046550)"><ellipse fill="#8ecaf6" fill-opacity=".501961" cx="0" cy="0" rx="1" ry="1" /></g></g></svg>