<svg xmlns="http://www.w3.org/2000/svg" viewBox="0 0 684 1024"><filter id="b"><feGaussianBlur stdDeviation="12" /></filter><path d="M0 0h684v1024H0z" fill="#807c7a" /><g filter="url(#b)" transform="scale(4.000000) translate(0.5 0.5)"><g transform="translate(120.510505 27.197598) rotate(280.980213) scale(54.946458 101.940759)"><ellipse fill="#00cdff" fill-opacity=".501961" cx="0" cy="0" rx="1" ry="1" /></g><ellipse fill="#c16425" fill-opacity=".501961" cx="59" cy="189" rx="119" ry="119" /><g transform="translate(131.865093 36.948143) rotate(94.809444) scale(45.535535 110.509095)"><ellipse fill="#11a7ff" fill-opacity=".501961" cx="0" cy="0" rx="1" ry="1" /></g><g transform="translate(124.941116 152.031599) rotate(119.204829) scale(21.386188 56.668605)"><ellipse fill="#1a0800" fill-opacity=".501961" cx="0" cy="0" rx="1" ry="1" /></g><g transform="translate(34.393911 208.576892) rotate(137.209023) scale(28.211250 77.768443)"><ellipse fill="#f5b477" fill-opacity=".501961" cx="0" cy="0" rx="1" ry="1" /></g><g transform="translate(138.066572 113.861648) rotate(346.356679) scale(38.999412 19.483065)"><ellipse fill="#ffc6ad" fill-opacity=".501961" cx="0" cy="0" rx="1" ry="1" /></g><g transform="translate(60.803937 49.050709) rotate(199.177318) scale(38.443299 25.030182)"><ellipse fill="#a0ceff" fill-opacity=".501961" cx="0" cy="0" rx="1" ry="1" /></g><g transform="translate(159.307704 221.204884) rotate(351.347925) scale(16.952197 56.230357)"><ellipse fill="#1f2039" fill-opacity=".501961" cx="0" cy="0" rx="1" ry="1" /></g></g></svg>