<svg xmlns="http://www.w3.org/2000/svg" viewBox="0 0 684 1024"><filter id="b"><feGaussianBlur stdDeviation="12" /></filter><path d="M0 0h684v1024H0z" fill="#695e5b" /><g filter="url(#b)" transform="scale(4.000000) translate(0.5 0.5)"><g transform="translate(136.345208 3.201498) rotate(221.312982) scale(170.000000 38.928170)"><ellipse fill="#e9dad4" fill-opacity=".501961" cx="0" cy="0" rx="1" ry="1" /></g><g transform="translate(11.487845 237.728110) rotate(327.506381) scale(12.327587 56.440202)"><ellipse fill="#fffffb" fill-opacity=".501961" cx="0" cy="0" rx="1" ry="1" /></g><ellipse fill="#291e19" fill-opacity=".501961" cx="50" cy="164" rx="41" ry="91" /><g transform="translate(46.628425 5.880251) rotate(293.649939) scale(49.469972 26.941853)"><ellipse fill="#dbcabf" fill-opacity=".501961" cx="0" cy="0" rx="1" ry="1" /></g><g transform="translate(168.043754 161.321600) rotate(281.939556) scale(27.839840 30.950869)"><ellipse fill="#000" fill-opacity=".501961" cx="0" cy="0" rx="1" ry="1" /></g><g transform="translate(91.307657 39.153701) rotate(229.889226) scale(34.718576 15.970764)"><ellipse fill="#290000" fill-opacity=".501961" cx="0" cy="0" rx="1" ry="1" /></g><g transform="translate(137.000869 85.943055) rotate(106.663098) scale(78.483206 30.480736)"><ellipse fill="#9c8a83" fill-opacity=".501961" cx="0" cy="0" rx="1" ry="1" /></g><g transform="translate(85 255) rotate(323) scale(33 41)"><path d="M0 0h684v1024H0z" fill="#000007" /></g></g></svg>