<svg xmlns="http://www.w3.org/2000/svg" viewBox="0 0 684 1024"><filter id="b"><feGaussianBlur stdDeviation="12" /></filter><path d="M0 0h684v1024H0z" fill="#5e2416" /><g filter="url(#b)" transform="scale(4.000000) translate(0.5 0.5)"><g transform="translate(97 125) rotate(279) scale(84 14)"><path d="M0 0h684v1024H0z" fill="#fff" /></g><g transform="translate(20.695260 136.618250) rotate(345.289353) scale(32.070945 91.153366)"><ellipse fill="#c7694b" fill-opacity=".501961" cx="0" cy="0" rx="1" ry="1" /></g><ellipse fill="#150000" fill-opacity=".501961" cx="159" cy="32" rx="50" ry="255" /><g transform="translate(93.641702 178.099577) rotate(339.338254) scale(5.868507 26.540286)"><ellipse fill="#e2a998" fill-opacity=".501961" cx="0" cy="0" rx="1" ry="1" /></g><path d="M0 0h684v1024H0z" fill="#fff" /><g transform="translate(127.036336 11.559277) rotate(177.918454) scale(62.760211 23.314838)"><ellipse fill="#000" fill-opacity=".501961" cx="0" cy="0" rx="1" ry="1" /></g><g transform="translate(105 93) rotate(110) scale(29 8)"><path d="M0 0h684v1024H0z" fill="#fff" /></g><g transform="translate(80.993823 86.687605) rotate(115.647795) scale(50.917557 21.280680)"><ellipse fill="#732912" fill-opacity=".501961" cx="0" cy="0" rx="1" ry="1" /></g></g></svg>