<svg xmlns="http://www.w3.org/2000/svg" viewBox="0 0 1024 684"><filter id="b"><feGaussianBlur stdDeviation="12" /></filter><path d="M0 0h1024v684H0z" fill="#808878" /><g filter="url(#b)" transform="scale(4.000000) translate(0.5 0.5)"><ellipse fill="#f1ffff" fill-opacity=".501961" cx="79" cy="15" rx="201" ry="38" /><g transform="translate(133.019788 123.873691) rotate(445.386563) scale(77.775612 216.367094)"><ellipse fill="#544718" fill-opacity=".501961" cx="0" cy="0" rx="1" ry="1" /></g><g transform="translate(129.619886 122.216306) rotate(267.668674) scale(57.737913 22.063359)"><ellipse fill="#001479" fill-opacity=".501961" cx="0" cy="0" rx="1" ry="1" /></g><g transform="translate(74.395949 14.595954) rotate(266.235955) scale(47.725188 229.952652)"><ellipse fill="#b5e3ff" fill-opacity=".501961" cx="0" cy="0" rx="1" ry="1" /></g><ellipse fill="#aa8300" fill-opacity=".501961" cx="47" cy="108" rx="61" ry="39" /><path fill="#4d84cb" fill-opacity=".501961" d="M210 161 77 136-9 186z" /><path fill="#c98517" fill-opacity=".501961" d="M245 109l-77 21-43-96z" /><g transform="translate(71.824000 21.971045) rotate(98.864927) scale(14.232597 81.829935)"><ellipse fill="#fff" fill-opacity=".501961" cx="0" cy="0" rx="1" ry="1" /></g></g></svg>