<svg xmlns="http://www.w3.org/2000/svg" viewBox="0 0 1024 684"><filter id="b"><feGaussianBlur stdDeviation="12" /></filter><path d="M0 0h1024v684H0z" fill="#68757e" /><g filter="url(#b)" transform="scale(4.000000) translate(0.5 0.5)"><g transform="translate(130.825889 34.905018) rotate(177.251841) scale(113.975078 47.691005)"><ellipse fill="#daffff" fill-opacity=".501961" cx="0" cy="0" rx="1" ry="1" /></g><g transform="translate(147.897291 138.870152) rotate(175.939529) scale(201.913619 63.017023)"><ellipse fill="#1e0c00" fill-opacity=".501961" cx="0" cy="0" rx="1" ry="1" /></g><ellipse fill="#c4d4dc" fill-opacity=".501961" cx="146" cy="144" rx="31" ry="13" /><ellipse fill="#98bdf9" fill-opacity=".501961" cx="99" cy="56" rx="160" ry="27" /><g transform="translate(10.265403 133.264697) rotate(220.887324) scale(46.455096 43.665705)"><ellipse fill="#130400" fill-opacity=".501961" cx="0" cy="0" rx="1" ry="1" /></g><g transform="translate(250.292701 131.977884) rotate(-23.894350) scale(35.700642 52.211585)"><ellipse fill="#000100" fill-opacity=".501961" cx="0" cy="0" rx="1" ry="1" /></g><g transform="translate(138.596462 25.775445) rotate(187.307666) scale(73.068988 29.911978)"><ellipse fill="#d4dfff" fill-opacity=".501961" cx="0" cy="0" rx="1" ry="1" /></g><ellipse fill="#4781ce" fill-opacity=".501961" cx="14" cy="19" rx="33" ry="72" /></g></svg>