<svg xmlns="http://www.w3.org/2000/svg" viewBox="0 0 684 1024"><filter id="b"><feGaussianBlur stdDeviation="12" /></filter><path d="M0 0h684v1024H0z" fill="#7c8289" /><g filter="url(#b)" transform="scale(4.000000) translate(0.5 0.5)"><g transform="translate(88.489272 56.043220) rotate(194.050939) scale(93.787747 49.504452)"><ellipse fill="#a6fcff" fill-opacity=".501961" cx="0" cy="0" rx="1" ry="1" /></g><g transform="translate(75.739452 228.030233) rotate(273.458100) scale(45.652191 170.000000)"><ellipse fill="#380d00" fill-opacity=".501961" cx="0" cy="0" rx="1" ry="1" /></g><g transform="translate(170.000000 22.863191) rotate(332.536391) scale(59.076512 90.693174)"><ellipse fill="#1594fb" fill-opacity=".501961" cx="0" cy="0" rx="1" ry="1" /></g><g transform="translate(88.931346 64.661985) rotate(45.616833) scale(62.666548 38.166592)"><ellipse fill="#cde5ff" fill-opacity=".501961" cx="0" cy="0" rx="1" ry="1" /></g><g transform="translate(27.791624 113.212895) rotate(264.452158) scale(30.047602 54.153797)"><ellipse fill="#834313" fill-opacity=".501961" cx="0" cy="0" rx="1" ry="1" /></g><g transform="translate(96.655220 161.896452) rotate(0.601560) scale(99.851778 44.937567)"><ellipse fill="#a67956" fill-opacity=".501961" cx="0" cy="0" rx="1" ry="1" /></g><g transform="translate(45.366584 0.000000) rotate(80.952341) scale(25.076666 133.802626)"><ellipse fill="#2f83d4" fill-opacity=".501961" cx="0" cy="0" rx="1" ry="1" /></g><g transform="translate(29 61) rotate(180) scale(120 39)"><path d="M0 0h684v1024H0z" fill="#d1e8ff" /></g></g></svg>