<svg xmlns="http://www.w3.org/2000/svg" viewBox="0 0 1024 684"><filter id="b"><feGaussianBlur stdDeviation="12" /></filter><path d="M0 0h1024v684H0z" fill="#292633" /><g filter="url(#b)" transform="scale(4.000000) translate(0.5 0.5)"><g transform="translate(7.143340 25.926164) rotate(314.694978) scale(130.220110 23.889200)"><ellipse fill="#948da4" fill-opacity=".501961" cx="0" cy="0" rx="1" ry="1" /></g><path fill="#7f7588" fill-opacity=".501961" d="M199 5 134-13 43 87z" /><g transform="translate(147.027129 167.305940) rotate(259.845000) scale(53.300977 234.472871)"><ellipse fill="#170000" fill-opacity=".501961" cx="0" cy="0" rx="1" ry="1" /></g><ellipse fill="#1f3b66" fill-opacity=".501961" cx="40" cy="83" rx="51" ry="51" /><g transform="translate(128.516109 124.008260) rotate(263.606391) scale(15.178935 41.028577)"><ellipse fill="#814537" fill-opacity=".501961" cx="0" cy="0" rx="1" ry="1" /></g><g transform="translate(202.672192 131.613747) rotate(208.241131) scale(101.183611 31.530039)"><ellipse fill="#0f0200" fill-opacity=".501961" cx="0" cy="0" rx="1" ry="1" /></g><g transform="translate(17 153) rotate(195) scale(167 41)"><path d="M0 0h1024v684H0z" fill="#000" /></g><ellipse fill="#867886" fill-opacity=".501961" cx="96" cy="46" rx="22" ry="14" /></g></svg>