<svg xmlns="http://www.w3.org/2000/svg" viewBox="0 0 1024 684"><filter id="b"><feGaussianBlur stdDeviation="12" /></filter><path d="M0 0h1024v684H0z" fill="#675b52" /><g filter="url(#b)" transform="scale(4.000000) translate(0.5 0.5)"><g transform="translate(121.826075 35.357470) rotate(288.478781) scale(55.525118 117.551826)"><ellipse fill="#c8cbd7" fill-opacity=".501961" cx="0" cy="0" rx="1" ry="1" /></g><g transform="translate(91.815069 137.432351) rotate(456.986933) scale(51.453182 255.000000)"><ellipse fill="#230200" fill-opacity=".501961" cx="0" cy="0" rx="1" ry="1" /></g><g transform="translate(126.407977 85.859732) rotate(311.358549) scale(32.461828 15.032001)"><ellipse fill="#3d1400" fill-opacity=".501961" cx="0" cy="0" rx="1" ry="1" /></g><ellipse fill="#e4dbcd" fill-opacity=".501961" cx="91" cy="53" rx="25" ry="39" /><g transform="translate(22.953874 65.088753) rotate(56.770367) scale(44.162087 20.237014)"><ellipse fill="#280800" fill-opacity=".501961" cx="0" cy="0" rx="1" ry="1" /></g><g transform="translate(229.585479 24.423098) rotate(525.916652) scale(36.283874 69.175148)"><ellipse fill="#5874aa" fill-opacity=".501961" cx="0" cy="0" rx="1" ry="1" /></g><ellipse fill="#120e00" fill-opacity=".501961" cx="96" cy="162" rx="59" ry="39" /><ellipse fill="#5274a9" fill-opacity=".501961" cx="36" cy="7" rx="181" ry="14" /></g></svg>