<svg xmlns="http://www.w3.org/2000/svg" viewBox="0 0 684 1024"><filter id="b"><feGaussianBlur stdDeviation="12" /></filter><path d="M0 0h684v1024H0z" fill="#97746f" /><g filter="url(#b)" transform="scale(4.000000) translate(0.5 0.5)"><g transform="translate(150.873060 82.474957) rotate(141.711062) scale(40.123695 90.870437)"><ellipse fill="#ffe8d8" fill-opacity=".501961" cx="0" cy="0" rx="1" ry="1" /></g><ellipse fill="#23120c" fill-opacity=".501961" cx="71" cy="139" rx="31" ry="37" /><g transform="translate(0.788961 58.113146) rotate(6.826754) scale(42.375373 105.185184)"><ellipse fill="#413345" fill-opacity=".501961" cx="0" cy="0" rx="1" ry="1" /></g><g transform="translate(24 234) rotate(161) scale(63 89)"><path d="M0 0h684v1024H0z" fill="#493c47" /></g><g transform="translate(162.141678 183.957048) rotate(247.891316) scale(45.841742 29.660518)"><ellipse fill="#d9a8a7" fill-opacity=".501961" cx="0" cy="0" rx="1" ry="1" /></g><path fill="#ffd5ca" fill-opacity=".501961" d="M91 36 76 72l109 49z" /><g transform="translate(162 252) rotate(197) scale(30 47)"><path d="M0 0h684v1024H0z" fill="#2b181a" /></g><ellipse fill="#e4aca2" fill-opacity=".501961" cx="66" cy="114" rx="5" ry="31" /></g></svg>