<svg xmlns="http://www.w3.org/2000/svg" viewBox="0 0 683 1024"><filter id="b"><feGaussianBlur stdDeviation="12" /></filter><path d="M0 0h683v1024H0z" fill="#60644f" /><g filter="url(#b)" transform="scale(4.000000) translate(0.5 0.5)"><g transform="translate(130.153559 158.113713) rotate(86.209348) scale(156.317686 29.602355)"><ellipse fill="#f9e2cd" fill-opacity=".501961" cx="0" cy="0" rx="1" ry="1" /></g><g transform="translate(25.877800 94.931097) rotate(277.802916) scale(170.000000 43.541647)"><ellipse fill="#002000" fill-opacity=".501961" cx="0" cy="0" rx="1" ry="1" /></g><path fill="#281e18" fill-opacity=".501961" d="M130-16l10 136L186 6z" /><g transform="translate(52.117905 171.876437) rotate(243.208411) scale(33.778174 21.942032)"><ellipse fill="#8ab180" fill-opacity=".501961" cx="0" cy="0" rx="1" ry="1" /></g><g transform="translate(120 204) rotate(275) scale(139 45)"><path d="M0 0h683v1024H0z" fill="#dbcfb9" /></g><ellipse fill="#001200" fill-opacity=".501961" cx="35" cy="244" rx="59" ry="26" /><path fill="#0e0003" fill-opacity=".501961" d="M100.211263 138.555598 99.046896 204.115398 71.660146 146.517425 99.969042 54.932784z" /><g transform="translate(17.549659 13.604571) rotate(124.030726) scale(51.548392 76.009881)"><ellipse fill="#06170e" fill-opacity=".501961" cx="0" cy="0" rx="1" ry="1" /></g></g></svg>