<svg xmlns="http://www.w3.org/2000/svg" viewBox="0 0 1024 684"><filter id="b"><feGaussianBlur stdDeviation="12" /></filter><path d="M0 0h1024v684H0z" fill="#596168" /><g filter="url(#b)" transform="scale(4.000000) translate(0.5 0.5)"><g transform="translate(84.903510 42.651186) rotate(364.696183) scale(90.987620 23.312309)"><ellipse fill="#f3fbfc" fill-opacity=".501961" cx="0" cy="0" rx="1" ry="1" /></g><g transform="translate(124.274492 140.528442) rotate(241.877080) scale(69.033581 83.750845)"><ellipse fill="#2a1e1f" fill-opacity=".501961" cx="0" cy="0" rx="1" ry="1" /></g><g transform="translate(121.339025 0.000000) rotate(274.437011) scale(35.550900 217.920116)"><ellipse fill="#3a78a0" fill-opacity=".501961" cx="0" cy="0" rx="1" ry="1" /></g><path fill="#6c2324" fill-opacity=".501961" d="M88.035192 105.111286 35.409606 54.196071 81.713869 56.782733 100.874986 60.896483z" /><ellipse fill="#fefaf3" fill-opacity=".501961" cx="77" cy="48" rx="90" ry="7" /><ellipse fill="#3f2f24" fill-opacity=".501961" cx="250" cy="75" rx="60" ry="26" /><g transform="translate(70.711734 133.073308) rotate(135.726952) scale(16.150049 23.629165)"><ellipse fill="#000001" fill-opacity=".501961" cx="0" cy="0" rx="1" ry="1" /></g><g transform="translate(145 76) rotate(261) scale(24 22)"><path d="M0 0h1024v684H0z" fill="#d2bca4" /></g></g></svg>