<svg xmlns="http://www.w3.org/2000/svg" viewBox="0 0 1024 684"><filter id="b"><feGaussianBlur stdDeviation="12" /></filter><path d="M0 0h1024v684H0z" fill="#2d1e1b" /><g filter="url(#b)" transform="scale(4.000000) translate(0.5 0.5)"><ellipse fill="#503d53" fill-opacity=".501961" cx="103" cy="21" rx="66" ry="66" /><g transform="translate(64.443112 107.020372) rotate(192.333682) scale(23.544061 11.042191)"><ellipse fill="#ff7c00" fill-opacity=".501961" cx="0" cy="0" rx="1" ry="1" /></g><g transform="translate(180.712660 107.868255) rotate(355.455474) scale(23.961445 11.828647)"><ellipse fill="#b48b45" fill-opacity=".501961" cx="0" cy="0" rx="1" ry="1" /></g><ellipse fill="#100600" fill-opacity=".501961" cx="54" cy="154" rx="255" ry="41" /><g transform="translate(155.093713 72.349615) rotate(273.059382) scale(11.558121 87.660399)"><ellipse fill="#694e4f" fill-opacity=".501961" cx="0" cy="0" rx="1" ry="1" /></g><g transform="translate(0.815796 87.663145) rotate(-32.993591) scale(36.958683 57.565537)"><ellipse fill="#020000" fill-opacity=".501961" cx="0" cy="0" rx="1" ry="1" /></g><ellipse fill="#c4f927" fill-opacity=".501961" cx="127" cy="110" rx="7" ry="7" /><g transform="translate(38.073249 36.997700) rotate(-40.878055) scale(29.728789 45.136954)"><ellipse fill="#1e1f46" fill-opacity=".501961" cx="0" cy="0" rx="1" ry="1" /></g></g></svg>