<svg xmlns="http://www.w3.org/2000/svg" viewBox="0 0 684 1024"><filter id="b"><feGaussianBlur stdDeviation="12" /></filter><path d="M0 0h684v1024H0z" fill="#333d42" /><g filter="url(#b)" transform="scale(4.000000) translate(0.5 0.5)"><g transform="translate(16.947012 41.919207) rotate(91.090376) scale(54.053919 170.000000)"><ellipse fill="#71afda" fill-opacity=".501961" cx="0" cy="0" rx="1" ry="1" /></g><g transform="translate(109.012401 191.663808) rotate(254.295066) scale(79.763982 170.000000)"><ellipse fill="#090000" fill-opacity=".501961" cx="0" cy="0" rx="1" ry="1" /></g><g transform="translate(23.353563 75.637086) rotate(288.472546) scale(13.125616 31.414057)"><ellipse fill="#ebfffa" fill-opacity=".501961" cx="0" cy="0" rx="1" ry="1" /></g><path fill="#ffcf49" fill-opacity=".501961" d="M41.557465 123.188723 90.006574 121.834945 88.649226 109.168762 34.605806 113.344713z" /><g transform="translate(74.982268 75.983724) rotate(295.580847) scale(37.674457 14.034308)"><ellipse fill="#171d15" fill-opacity=".501961" cx="0" cy="0" rx="1" ry="1" /></g><g transform="translate(148.916159 70.314906) rotate(15.768980) scale(58.558953 15.455513)"><ellipse fill="#9dadc1" fill-opacity=".501961" cx="0" cy="0" rx="1" ry="1" /></g><g transform="translate(24.382925 7.170508) rotate(163.586287) scale(92.285262 25.575885)"><ellipse fill="#003d6b" fill-opacity=".501961" cx="0" cy="0" rx="1" ry="1" /></g><ellipse fill="#1d0d00" fill-opacity=".501961" cx="74" cy="215" rx="170" ry="89" /></g></svg>