<svg xmlns="http://www.w3.org/2000/svg" viewBox="0 0 684 1024"><filter id="b"><feGaussianBlur stdDeviation="12" /></filter><path d="M0 0h684v1024H0z" fill="#90918f" /><g filter="url(#b)" transform="scale(4.000000) translate(0.5 0.5)"><g transform="translate(100.452268 108.185371) rotate(124.301610) scale(46.809877 18.186400)"><ellipse fill="#000" fill-opacity=".501961" cx="0" cy="0" rx="1" ry="1" /></g><g transform="translate(39 33) rotate(14) scale(102 130)"><path d="M0 0h684v1024H0z" fill="#0a88ef" /></g><ellipse fill="#ffe4c6" fill-opacity=".501961" cx="151" cy="136" rx="41" ry="59" /><g transform="translate(156.680126 47.670777) rotate(277.907587) scale(30.835428 75.880572)"><ellipse fill="#ffd2a6" fill-opacity=".501961" cx="0" cy="0" rx="1" ry="1" /></g><path fill="#120500" fill-opacity=".501961" d="M112 196l-32-3L104 81z" /><g transform="translate(43.385921 89.603340) rotate(165.562334) scale(49.891711 28.479175)"><ellipse fill="#91d8ff" fill-opacity=".501961" cx="0" cy="0" rx="1" ry="1" /></g><g transform="translate(40.345751 3.304132) rotate(-7.188791) scale(66.216698 28.123716)"><ellipse fill="#0b447e" fill-opacity=".501961" cx="0" cy="0" rx="1" ry="1" /></g><ellipse fill="#e8c099" fill-opacity=".501961" cx="80" cy="218" rx="72" ry="23" /></g></svg>