<svg xmlns="http://www.w3.org/2000/svg" viewBox="0 0 684 1024"><filter id="b"><feGaussianBlur stdDeviation="12" /></filter><path d="M0 0h684v1024H0z" fill="#7ba0ac" /><g filter="url(#b)" transform="scale(4.000000) translate(0.5 0.5)"><ellipse fill="#f9dad2" fill-opacity=".501961" cx="170" cy="103" rx="75" ry="75" /><g transform="translate(126.326667 244.848870) rotate(112.850075) scale(39.600163 77.181996)"><ellipse fill="#0090d4" fill-opacity=".501961" cx="0" cy="0" rx="1" ry="1" /></g><g transform="translate(26.445773 9.821893) rotate(144.749646) scale(116.923006 35.453257)"><ellipse fill="#005674" fill-opacity=".501961" cx="0" cy="0" rx="1" ry="1" /></g><path fill="#fff0db" fill-opacity=".501961" d="M-16 206-4 75 69 271z" /><g transform="translate(72.904618 141.565272) rotate(106.555033) scale(87.548854 24.537163)"><ellipse fill="#4b5556" fill-opacity=".501961" cx="0" cy="0" rx="1" ry="1" /></g><g transform="translate(11 246) rotate(-34) scale(26 41)"><path d="M0 0h684v1024H0z" fill="#3d0100" /></g><g transform="translate(10.257123 16.159610) rotate(85.007767) scale(26.393910 13.173273)"><ellipse fill="#240000" fill-opacity=".501961" cx="0" cy="0" rx="1" ry="1" /></g><path fill="#00aee8" fill-opacity=".501961" d="M32-16h95L19 67z" /></g></svg>