<svg xmlns="http://www.w3.org/2000/svg" viewBox="0 0 684 1024"><filter id="b"><feGaussianBlur stdDeviation="12" /></filter><path d="M0 0h684v1024H0z" fill="#8f8e8c" /><g filter="url(#b)" transform="scale(4.000000) translate(0.5 0.5)"><g transform="translate(95.642103 82.837678) rotate(230.480525) scale(20.252234 46.980036)"><ellipse fill="#000" fill-opacity=".501961" cx="0" cy="0" rx="1" ry="1" /></g><g transform="translate(25.540163 19.214394) rotate(305.291687) scale(107.512033 51.172861)"><ellipse fill="#004dac" fill-opacity=".501961" cx="0" cy="0" rx="1" ry="1" /></g><g transform="translate(132.312405 160.499488) rotate(294.378856) scale(76.664219 34.130109)"><ellipse fill="#fee3cb" fill-opacity=".501961" cx="0" cy="0" rx="1" ry="1" /></g><g transform="translate(24.623910 107.083546) rotate(13.679300) scale(34.551895 38.468360)"><ellipse fill="#7fcfff" fill-opacity=".501961" cx="0" cy="0" rx="1" ry="1" /></g><g transform="translate(83.531030 127.419329) rotate(-8.334383) scale(13.287816 51.448594)"><ellipse fill="#1d1909" fill-opacity=".501961" cx="0" cy="0" rx="1" ry="1" /></g><path fill="#000" fill-opacity=".501961" d="M94 55 62 91l89-1z" /><g transform="translate(110.738533 110.280653) rotate(143.271304) scale(23.206586 18.439725)"><ellipse fill="#ffefd6" fill-opacity=".501961" cx="0" cy="0" rx="1" ry="1" /></g><g transform="translate(100.362863 29.106953) rotate(310.278426) scale(62.489959 15.935808)"><ellipse fill="#ffd9b7" fill-opacity=".501961" cx="0" cy="0" rx="1" ry="1" /></g></g></svg>