<svg xmlns="http://www.w3.org/2000/svg" viewBox="0 0 684 1024"><filter id="b"><feGaussianBlur stdDeviation="12" /></filter><path d="M0 0h684v1024H0z" fill="#797169" /><g filter="url(#b)" transform="scale(4.000000) translate(0.5 0.5)"><g transform="translate(149.666900 44.772496) rotate(139.302426) scale(41.069572 157.850012)"><ellipse fill="#d3ffff" fill-opacity=".501961" cx="0" cy="0" rx="1" ry="1" /></g><g transform="translate(64 117) rotate(69) scale(94 50)"><path d="M0 0h684v1024H0z" fill="#000" /></g><ellipse fill="#b0f0ff" fill-opacity=".501961" cx="151" cy="41" rx="34" ry="67" /><ellipse fill="#5a3e28" fill-opacity=".501961" cx="72" cy="255" rx="110" ry="70" /><g transform="translate(115.677262 14.889067) rotate(125.263587) scale(24.674844 92.596959)"><ellipse fill="#9ddcff" fill-opacity=".501961" cx="0" cy="0" rx="1" ry="1" /></g><g transform="translate(73.538752 132.714868) rotate(161.378642) scale(25.296072 63.362520)"><ellipse fill="#1d1b1e" fill-opacity=".501961" cx="0" cy="0" rx="1" ry="1" /></g><path fill="#825f47" fill-opacity=".501961" d="M108 212 84 19l45 44z" /><path d="M0 0h684v1024H0z" fill="#f3fdff" /></g></svg>