<svg xmlns="http://www.w3.org/2000/svg" viewBox="0 0 684 1024"><filter id="b"><feGaussianBlur stdDeviation="12" /></filter><path d="M0 0h684v1024H0z" fill="#816968" /><g filter="url(#b)" transform="scale(4.000000) translate(0.5 0.5)"><g transform="translate(82.951062 140.426223) rotate(146.893582) scale(51.392377 37.052130)"><ellipse fill="#232124" fill-opacity=".501961" cx="0" cy="0" rx="1" ry="1" /></g><g transform="translate(94.925548 27.240730) rotate(119.928069) scale(48.239902 99.304484)"><ellipse fill="#c3988c" fill-opacity=".501961" cx="0" cy="0" rx="1" ry="1" /></g><g transform="translate(37.405402 225.853964) rotate(58.758703) scale(100.760701 55.627637)"><ellipse fill="#49434e" fill-opacity=".501961" cx="0" cy="0" rx="1" ry="1" /></g><path d="M0 0h684v1024H0z" fill="#fff5ff" /><g transform="translate(160.799624 180.179088) rotate(23.041475) scale(43.413529 58.818805)"><ellipse fill="#bf9d8b" fill-opacity=".501961" cx="0" cy="0" rx="1" ry="1" /></g><path fill="#2b2425" fill-opacity=".501961" d="M75 133 27 64 67 214z" /><g transform="translate(32.450287 170.326433) rotate(153.458699) scale(19.916693 54.989607)"><ellipse fill="#8a7a88" fill-opacity=".501961" cx="0" cy="0" rx="1" ry="1" /></g><path fill="#120d08" fill-opacity=".501961" d="M84.19855 134.296039 76.449178 107.95051 123.411599 113.214077 125.777085 141.067141z" /></g></svg>