<svg xmlns="http://www.w3.org/2000/svg" viewBox="0 0 1024 684"><filter id="b"><feGaussianBlur stdDeviation="12" /></filter><path d="M0 0h1024v684H0z" fill="#454748" /><g filter="url(#b)" transform="scale(4.000000) translate(0.5 0.5)"><g transform="translate(187.087339 150.196700) rotate(313.420575) scale(85.895670 62.533551)"><ellipse fill="#a6a4b0" fill-opacity=".501961" cx="0" cy="0" rx="1" ry="1" /></g><g transform="translate(59.955321 19.393670) rotate(412.175071) scale(62.428234 255.000000)"><ellipse fill="#000" fill-opacity=".501961" cx="0" cy="0" rx="1" ry="1" /></g><ellipse fill="#f8ffed" fill-opacity=".501961" cx="152" cy="38" rx="13" ry="13" /><path d="M0 0h1024v684H0z" fill="#fff" /><ellipse fill="#000" fill-opacity=".501961" cx="185" cy="3" rx="47" ry="29" /><ellipse fill="#000232" fill-opacity=".501961" cx="122" cy="78" rx="30" ry="18" /><path fill="#e8b4c7" fill-opacity=".501961" d="M109.244799 93.908712 96.806945 148.424652 87.121073 150.380284 97.019659 106.191477z" /><g transform="translate(199 38) rotate(81) scale(14 26)"><path d="M0 0h1024v684H0z" fill="#f9d7d5" /></g></g></svg>