<svg xmlns="http://www.w3.org/2000/svg" viewBox="0 0 1024 684"><filter id="b"><feGaussianBlur stdDeviation="12" /></filter><path d="M0 0h1024v684H0z" fill="#8e9cae" /><g filter="url(#b)" transform="scale(4.000000) translate(0.5 0.5)"><ellipse fill="#000001" fill-opacity=".501961" cx="157" cy="166" rx="53" ry="107" /><g transform="translate(133.434341 24.050298) rotate(235.371768) scale(46.071788 136.642517)"><ellipse fill="#fff" fill-opacity=".501961" cx="0" cy="0" rx="1" ry="1" /></g><g transform="translate(216.858367 98.545569) rotate(315.246206) scale(43.437089 20.569271)"><ellipse fill="azure" fill-opacity=".501961" cx="0" cy="0" rx="1" ry="1" /></g><ellipse fill="#873719" fill-opacity=".501961" cx="127" cy="89" rx="31" ry="30" /><ellipse fill="#000639" fill-opacity=".501961" cx="195" cy="170" rx="110" ry="25" /><g transform="translate(76.469802 117.803294) rotate(379.625383) scale(41.179050 22.501266)"><ellipse fill="#fff" fill-opacity=".501961" cx="0" cy="0" rx="1" ry="1" /></g><g transform="translate(165.294857 33.817376) rotate(289.176110) scale(25.955566 80.082193)"><ellipse fill="#f9ffff" fill-opacity=".501961" cx="0" cy="0" rx="1" ry="1" /></g><path fill="#001327" fill-opacity=".501961" d="M199 82 148 52 117 186z" /></g></svg>