<svg xmlns="http://www.w3.org/2000/svg" viewBox="0 0 684 1024"><filter id="b"><feGaussianBlur stdDeviation="12" /></filter><path d="M0 0h684v1024H0z" fill="#b69b99" /><g filter="url(#b)" transform="scale(4.000000) translate(0.5 0.5)"><g transform="translate(95.657160 136.766572) rotate(181.381532) scale(20.552611 118.373651)"><ellipse fill="#600012" fill-opacity=".501961" cx="0" cy="0" rx="1" ry="1" /></g><g transform="translate(94.601333 91.488871) rotate(275.324023) scale(40.836951 37.519696)"><ellipse fill="#ff2a30" fill-opacity=".501961" cx="0" cy="0" rx="1" ry="1" /></g><g transform="translate(34.303986 141.748499) rotate(265.347414) scale(101.284263 32.188573)"><ellipse fill="#e1e1d7" fill-opacity=".501961" cx="0" cy="0" rx="1" ry="1" /></g><g transform="translate(146.873274 141.555997) rotate(190.865086) scale(29.858972 94.200916)"><ellipse fill="#e0e6e2" fill-opacity=".501961" cx="0" cy="0" rx="1" ry="1" /></g><ellipse fill="#00213b" fill-opacity=".501961" cx="92" cy="156" rx="22" ry="28" /><g transform="translate(0.000000 236.950298) rotate(242.399364) scale(101.999284 14.703708)"><ellipse fill="#1f1600" fill-opacity=".501961" cx="0" cy="0" rx="1" ry="1" /></g><ellipse fill="#d5f7ea" fill-opacity=".501961" cx="95" cy="204" rx="6" ry="35" /><g transform="translate(134.742448 46.765730) rotate(251.280283) scale(58.510423 17.770940)"><ellipse fill="#e8e5dc" fill-opacity=".501961" cx="0" cy="0" rx="1" ry="1" /></g></g></svg>