<svg xmlns="http://www.w3.org/2000/svg" viewBox="0 0 1024 684"><filter id="b"><feGaussianBlur stdDeviation="12" /></filter><path d="M0 0h1024v684H0z" fill="#7f6c6a" /><g filter="url(#b)" transform="scale(4.000000) translate(0.5 0.5)"><g transform="translate(50.946682 11.528925) rotate(101.182019) scale(30.449265 96.451018)"><ellipse fill="#ffffe2" fill-opacity=".501961" cx="0" cy="0" rx="1" ry="1" /></g><g transform="translate(157.822885 94.877171) rotate(72.141516) scale(27.442660 74.523893)"><ellipse fill="#23000e" fill-opacity=".501961" cx="0" cy="0" rx="1" ry="1" /></g><g transform="translate(26.673700 72.758085) rotate(382.082215) scale(62.862662 23.448927)"><ellipse fill="#372c2b" fill-opacity=".501961" cx="0" cy="0" rx="1" ry="1" /></g><g transform="translate(214.211066 26.631502) rotate(234.391440) scale(102.475351 51.892518)"><ellipse fill="#3c4d60" fill-opacity=".501961" cx="0" cy="0" rx="1" ry="1" /></g><g transform="translate(8.752610 128.254861) rotate(269.337899) scale(26.406177 78.140261)"><ellipse fill="#dca67d" fill-opacity=".501961" cx="0" cy="0" rx="1" ry="1" /></g><g transform="translate(109.149028 126.815213) rotate(49.746769) scale(13.850231 104.323317)"><ellipse fill="#500808" fill-opacity=".501961" cx="0" cy="0" rx="1" ry="1" /></g><g transform="translate(201.305276 152.828213) rotate(171.279918) scale(83.972901 43.138140)"><ellipse fill="#8894a5" fill-opacity=".501961" cx="0" cy="0" rx="1" ry="1" /></g><g transform="translate(22.037750 9.268846) rotate(46.090163) scale(47.810750 18.678453)"><ellipse fill="#fff8d6" fill-opacity=".501961" cx="0" cy="0" rx="1" ry="1" /></g></g></svg>