<svg xmlns="http://www.w3.org/2000/svg" viewBox="0 0 684 1024"><filter id="b"><feGaussianBlur stdDeviation="12" /></filter><path d="M0 0h684v1024H0z" fill="#7e7a6f" /><g filter="url(#b)" transform="scale(4.000000) translate(0.5 0.5)"><g transform="translate(96.342731 208.807171) rotate(177.636160) scale(22.398045 68.914540)"><ellipse fill="#000" fill-opacity=".501961" cx="0" cy="0" rx="1" ry="1" /></g><ellipse fill="#000" fill-opacity=".501961" cx="0" cy="11" rx="47" ry="47" /><g transform="translate(145.312627 71.069449) rotate(169.219012) scale(31.232869 163.482631)"><ellipse fill="#c1b9ac" fill-opacity=".501961" cx="0" cy="0" rx="1" ry="1" /></g><ellipse fill="#b7b5a9" fill-opacity=".501961" cx="27" cy="166" rx="20" ry="114" /><g transform="translate(132.012861 211.584461) rotate(156.926905) scale(24.505698 31.770596)"><ellipse fill="#bdb5a6" fill-opacity=".501961" cx="0" cy="0" rx="1" ry="1" /></g><path fill="#c9d1ce" fill-opacity=".501961" d="M101.693941 21.348613 42.175648 104.082223 56.79988 37.828477 71.306725 33.48076z" /><ellipse fill="#080d00" fill-opacity=".501961" cx="0" cy="68" rx="9" ry="109" /><path fill="#e5e1d9" fill-opacity=".501961" d="M107.696932 137.27981 103.424464 121.703225 70.637849 74.883034 65.410377 110.951036z" /></g></svg>