<svg xmlns="http://www.w3.org/2000/svg" viewBox="0 0 1024 683"><filter id="b"><feGaussianBlur stdDeviation="12" /></filter><path d="M0 0h1024v683H0z" fill="#8a807b" /><g filter="url(#b)" transform="scale(4.000000) translate(0.5 0.5)"><ellipse fill="#fff" fill-opacity=".501961" cx="190" cy="78" rx="38" ry="65" /><g transform="translate(95.929260 167.460723) rotate(184.442197) scale(70.767367 39.819866)"><ellipse fill="#000" fill-opacity=".501961" cx="0" cy="0" rx="1" ry="1" /></g><g transform="translate(115.729363 43.814039) rotate(349.002969) scale(57.371874 17.668823)"><ellipse fill="#2f0f01" fill-opacity=".501961" cx="0" cy="0" rx="1" ry="1" /></g><g transform="translate(242.557205 71.634503) rotate(184.157002) scale(10.045572 101.321539)"><ellipse fill="#050000" fill-opacity=".501961" cx="0" cy="0" rx="1" ry="1" /></g><g transform="translate(40.051019 98.756152) rotate(97.674524) scale(36.146796 27.549119)"><ellipse fill="#edf1eb" fill-opacity=".501961" cx="0" cy="0" rx="1" ry="1" /></g><g transform="translate(102.156286 11.110118) rotate(266.468982) scale(13.202720 41.514037)"><ellipse fill="#ecffff" fill-opacity=".501961" cx="0" cy="0" rx="1" ry="1" /></g><g transform="translate(183 148) rotate(-10) scale(17 42)"><path d="M0 0h1024v683H0z" fill="#000" /></g><path d="M0 0h1024v683H0z" fill="#fffffd" /></g></svg>