<svg xmlns="http://www.w3.org/2000/svg" viewBox="0 0 1024 684"><filter id="b"><feGaussianBlur stdDeviation="12" /></filter><path d="M0 0h1024v684H0z" fill="#b1b5c0" /><g filter="url(#b)" transform="scale(4.000000) translate(0.5 0.5)"><g transform="translate(21.220577 46.557499) rotate(206.649857) scale(44.520972 218.206988)"><ellipse fill="#00000b" fill-opacity=".501961" cx="0" cy="0" rx="1" ry="1" /></g><ellipse fill="#fff" fill-opacity=".501961" cx="169" cy="129" rx="107" ry="107" /><g transform="translate(136.355363 5.465580) rotate(89.179223) scale(16.806378 221.333010)"><ellipse fill="#000007" fill-opacity=".501961" cx="0" cy="0" rx="1" ry="1" /></g><path fill="#002634" fill-opacity=".501961" d="M-16 89l132 27 18-52z" /><ellipse fill="#feffff" fill-opacity=".501961" cx="116" cy="49" rx="120" ry="21" /><ellipse fill="#000" fill-opacity=".501961" cx="252" cy="31" rx="19" ry="19" /><g transform="translate(6.368064 124.224540) rotate(305.223552) scale(12.848294 48.195030)"><ellipse fill="#000" fill-opacity=".501961" cx="0" cy="0" rx="1" ry="1" /></g><g transform="translate(149.658854 144.738466) rotate(424.113630) scale(54.880357 122.915807)"><ellipse fill="#fff" fill-opacity=".501961" cx="0" cy="0" rx="1" ry="1" /></g></g></svg>