<svg xmlns="http://www.w3.org/2000/svg" viewBox="0 0 684 1024"><filter id="b"><feGaussianBlur stdDeviation="12" /></filter><path d="M0 0h684v1024H0z" fill="#9e9ca2" /><g filter="url(#b)" transform="scale(4.000000) translate(0.5 0.5)"><g transform="translate(129.000796 20.220960) rotate(230.521631) scale(88.644958 64.005730)"><ellipse fill="#fff" fill-opacity=".501961" cx="0" cy="0" rx="1" ry="1" /></g><g transform="translate(79.865843 138.373512) rotate(158.580616) scale(26.927718 170.000000)"><ellipse fill="#45414c" fill-opacity=".501961" cx="0" cy="0" rx="1" ry="1" /></g><ellipse fill="#fff" fill-opacity=".501961" cx="120" cy="31" rx="53" ry="53" /><g transform="translate(0.000000 182.214874) rotate(107.603026) scale(57.246999 18.350792)"><ellipse fill="#302c00" fill-opacity=".501961" cx="0" cy="0" rx="1" ry="1" /></g><g transform="translate(170.000000 225.945314) rotate(115.201518) scale(149.135264 27.170179)"><ellipse fill="#77595f" fill-opacity=".501961" cx="0" cy="0" rx="1" ry="1" /></g><path fill="#222a3c" fill-opacity=".501961" d="M90.386246 168.899228 97.622838 167.107553 64.622991 27.534357 41.37257 41.92688z" /><g transform="translate(77.988055 179.341714) rotate(90.797374) scale(14.238971 11.587437)"><ellipse fill="#000" fill-opacity=".501961" cx="0" cy="0" rx="1" ry="1" /></g><g transform="translate(117.980690 115.067327) rotate(57.017956) scale(47.178459 26.710694)"><ellipse fill="#cba7bf" fill-opacity=".501961" cx="0" cy="0" rx="1" ry="1" /></g></g></svg>