<svg xmlns="http://www.w3.org/2000/svg" viewBox="0 0 683 1024"><filter id="b"><feGaussianBlur stdDeviation="12" /></filter><path d="M0 0h683v1024H0z" fill="#8b8478" /><g filter="url(#b)" transform="scale(4.000000) translate(0.5 0.5)"><g transform="translate(83.385769 76.615939) rotate(197.064523) scale(56.890845 35.113910)"><ellipse fill="#0c0b08" fill-opacity=".501961" cx="0" cy="0" rx="1" ry="1" /></g><g transform="translate(32 196) rotate(11) scale(80 45)"><path d="M0 0h683v1024H0z" fill="#fffff8" /></g><g transform="translate(165.524642 143.048902) rotate(221.825727) scale(25.859739 105.022601)"><ellipse fill="#ece6de" fill-opacity=".501961" cx="0" cy="0" rx="1" ry="1" /></g><g transform="translate(52.952953 0.000000) rotate(-6.804171) scale(144.228862 32.954513)"><ellipse fill="#dde2ec" fill-opacity=".501961" cx="0" cy="0" rx="1" ry="1" /></g><g transform="translate(9.233274 87.556668) rotate(156.213030) scale(41.022534 31.475920)"><ellipse fill="#0d1116" fill-opacity=".501961" cx="0" cy="0" rx="1" ry="1" /></g><ellipse fill="#080000" fill-opacity=".501961" cx="107" cy="54" rx="20" ry="31" /><path fill="#000" fill-opacity=".501961" d="M125 205 82 167l17-22z" /><path fill="#15130c" fill-opacity=".501961" d="M49 139-3 188l94-49z" /></g></svg>