<svg xmlns="http://www.w3.org/2000/svg" viewBox="0 0 684 1024"><filter id="b"><feGaussianBlur stdDeviation="12" /></filter><path d="M0 0h684v1024H0z" fill="#716b7a" /><g filter="url(#b)" transform="scale(4.000000) translate(0.5 0.5)"><g transform="translate(82.802517 30.614338) rotate(179.257805) scale(144.385280 55.576300)"><ellipse fill="#fff" fill-opacity=".501961" cx="0" cy="0" rx="1" ry="1" /></g><ellipse fill="#120521" fill-opacity=".501961" cx="132" cy="235" rx="145" ry="145" /><g transform="translate(71.436674 40.514453) rotate(305.858824) scale(62.329106 23.511584)"><ellipse fill="#fff" fill-opacity=".501961" cx="0" cy="0" rx="1" ry="1" /></g><g transform="translate(114.767234 207.347952) rotate(161.670863) scale(17.776109 24.013983)"><ellipse fill="#aea99c" fill-opacity=".501961" cx="0" cy="0" rx="1" ry="1" /></g><g transform="translate(43.340291 221.404479) rotate(111.334928) scale(94.884733 43.231788)"><ellipse fill="#11033b" fill-opacity=".501961" cx="0" cy="0" rx="1" ry="1" /></g><g transform="translate(23.862193 23.129689) rotate(309.595690) scale(48.826103 17.373097)"><ellipse fill="#fff" fill-opacity=".501961" cx="0" cy="0" rx="1" ry="1" /></g><g transform="translate(123.275979 125.837437) rotate(408.902957) scale(53.942868 42.691958)"><ellipse fill="#69605c" fill-opacity=".501961" cx="0" cy="0" rx="1" ry="1" /></g><g transform="translate(130.663861 22.638446) rotate(123.685444) scale(49.068535 13.164612)"><ellipse fill="#fff" fill-opacity=".501961" cx="0" cy="0" rx="1" ry="1" /></g></g></svg>