<svg xmlns="http://www.w3.org/2000/svg" viewBox="0 0 1024 684"><filter id="b"><feGaussianBlur stdDeviation="12" /></filter><path d="M0 0h1024v684H0z" fill="#525869" /><g filter="url(#b)" transform="scale(4.000000) translate(0.5 0.5)"><g transform="translate(92.655408 59.200260) rotate(85.245821) scale(34.716636 84.116467)"><ellipse fill="#ffbfc0" fill-opacity=".501961" cx="0" cy="0" rx="1" ry="1" /></g><g transform="translate(144.914439 120.716968) rotate(265.515951) scale(32.199774 206.178771)"><ellipse fill="#000" fill-opacity=".501961" cx="0" cy="0" rx="1" ry="1" /></g><g transform="translate(167.663964 16.136768) rotate(277.660461) scale(34.820749 128.612224)"><ellipse fill="#069ddc" fill-opacity=".501961" cx="0" cy="0" rx="1" ry="1" /></g><g transform="translate(17.768703 78.109737) rotate(265.528020) scale(23.954099 74.748740)"><ellipse fill="#fe7a44" fill-opacity=".501961" cx="0" cy="0" rx="1" ry="1" /></g><g transform="translate(198.478169 61.958202) rotate(357.906057) scale(85.556020 20.394064)"><ellipse fill="#8b819c" fill-opacity=".501961" cx="0" cy="0" rx="1" ry="1" /></g><g transform="translate(95.018666 44.577201) rotate(258.579745) scale(31.971308 38.337668)"><ellipse fill="#beaac7" fill-opacity=".501961" cx="0" cy="0" rx="1" ry="1" /></g><g transform="translate(5.549415 37.603820) rotate(352.172548) scale(21.258684 43.186772)"><ellipse fill="#5f2b36" fill-opacity=".501961" cx="0" cy="0" rx="1" ry="1" /></g><ellipse fill="#898fb5" fill-opacity=".501961" cx="237" cy="163" rx="53" ry="13" /></g></svg>