<svg xmlns="http://www.w3.org/2000/svg" viewBox="0 0 1024 684"><filter id="b"><feGaussianBlur stdDeviation="12" /></filter><path d="M0 0h1024v684H0z" fill="#050820" /><g filter="url(#b)" transform="scale(4.000000) translate(0.5 0.5)"><g transform="translate(136.028583 156.229285) rotate(84.950701) scale(21.241102 97.485486)"><ellipse fill="#1d319c" fill-opacity=".501961" cx="0" cy="0" rx="1" ry="1" /></g><path fill="#4f2f80" fill-opacity=".501961" d="M184 2 174 96l48-15z" /><g transform="translate(125.449291 157.346328) rotate(263.972518) scale(5.615122 25.022643)"><ellipse fill="#68c6ff" fill-opacity=".501961" cx="0" cy="0" rx="1" ry="1" /></g><g transform="translate(63.106865 41.901155) rotate(148.668236) scale(140.218389 72.145480)"><ellipse fill="#000" fill-opacity=".501961" cx="0" cy="0" rx="1" ry="1" /></g><ellipse fill="#000" fill-opacity=".501961" cx="241" cy="35" rx="35" ry="99" /><ellipse fill="#0c044a" fill-opacity=".501961" cx="219" cy="156" rx="64" ry="24" /><path fill="#3f35d3" fill-opacity=".501961" d="M128 105l-6-13 30 17z" /><g transform="translate(53.867788 155.212840) rotate(71.169742) scale(16.013419 55.319404)"><ellipse fill="#000943" fill-opacity=".501961" cx="0" cy="0" rx="1" ry="1" /></g></g></svg>