<svg xmlns="http://www.w3.org/2000/svg" viewBox="0 0 684 1024"><filter id="b"><feGaussianBlur stdDeviation="12" /></filter><path d="M0 0h684v1024H0z" fill="#b6b9c6" /><g filter="url(#b)" transform="scale(4.000000) translate(0.5 0.5)"><g transform="translate(76.267772 145.713117) rotate(223.346152) scale(31.152094 56.072204)"><ellipse fill="#580000" fill-opacity=".501961" cx="0" cy="0" rx="1" ry="1" /></g><path d="M0 0h684v1024H0z" fill="#000004" /><ellipse fill="#e9ffff" fill-opacity=".501961" cx="115" cy="203" rx="47" ry="47" /><ellipse fill="#dcf4fd" fill-opacity=".501961" cx="112" cy="46" rx="58" ry="58" /><g transform="translate(125.557075 66.317215) rotate(73.634705) scale(17.931550 9.116922)"><ellipse fill="#00000f" fill-opacity=".501961" cx="0" cy="0" rx="1" ry="1" /></g><g transform="translate(90.359453 130.893177) rotate(235.551165) scale(24.271766 53.950920)"><ellipse fill="#922206" fill-opacity=".501961" cx="0" cy="0" rx="1" ry="1" /></g><g transform="translate(15.955989 134.231400) rotate(254.702165) scale(52.841373 28.618826)"><ellipse fill="#daf9ff" fill-opacity=".501961" cx="0" cy="0" rx="1" ry="1" /></g><g transform="translate(28.496980 246.485895) rotate(263.952608) scale(35.017321 24.369799)"><ellipse fill="#e0fbff" fill-opacity=".501961" cx="0" cy="0" rx="1" ry="1" /></g></g></svg>