<svg xmlns="http://www.w3.org/2000/svg" viewBox="0 0 683 1024"><filter id="b"><feGaussianBlur stdDeviation="12" /></filter><path d="M0 0h683v1024H0z" fill="#7d767a" /><g filter="url(#b)" transform="scale(4.000000) translate(0.5 0.5)"><g transform="translate(102.465792 219.009601) rotate(290.435715) scale(28.598223 170.000000)"><ellipse fill="#eed7d1" fill-opacity=".501961" cx="0" cy="0" rx="1" ry="1" /></g><g transform="translate(104.143109 157.600892) rotate(137.394110) scale(32.521160 55.579221)"><ellipse fill="#200" fill-opacity=".501961" cx="0" cy="0" rx="1" ry="1" /></g><g transform="translate(170.000000 85.640361) rotate(334.422039) scale(42.140719 69.570305)"><ellipse fill="#0e2126" fill-opacity=".501961" cx="0" cy="0" rx="1" ry="1" /></g><ellipse fill="#d7ffff" fill-opacity=".501961" cx="30" cy="116" rx="23" ry="15" /><g transform="translate(83.534899 32.487675) rotate(-12.775749) scale(17.082695 92.850050)"><ellipse fill="#d0d6d1" fill-opacity=".501961" cx="0" cy="0" rx="1" ry="1" /></g><path fill="#fff" fill-opacity=".501961" d="M157.342882 229.719313 126.916071 200.569253 143.997228 193.558825 179.740636 202.095876z" /><path fill="#281f20" fill-opacity=".501961" d="M37-11 78 61l-5 67z" /><g transform="translate(162.459016 188.211978) rotate(198.149706) scale(67.148884 8.535518)"><ellipse fill="#050000" fill-opacity=".501961" cx="0" cy="0" rx="1" ry="1" /></g></g></svg>