<svg xmlns="http://www.w3.org/2000/svg" viewBox="0 0 1024 684"><filter id="b"><feGaussianBlur stdDeviation="12" /></filter><path d="M0 0h1024v684H0z" fill="#606b6b" /><g filter="url(#b)" transform="scale(4.000000) translate(0.5 0.5)"><g transform="translate(78.371497 14.149075) rotate(62.405657) scale(34.413413 83.779950)"><ellipse fill="#bae3ff" fill-opacity=".501961" cx="0" cy="0" rx="1" ry="1" /></g><g transform="translate(151.344744 162.855895) rotate(352.405395) scale(255.000000 27.635386)"><ellipse fill="#180700" fill-opacity=".501961" cx="0" cy="0" rx="1" ry="1" /></g><g transform="translate(217.211141 9.162826) rotate(356.279280) scale(95.633414 37.013184)"><ellipse fill="#0054bc" fill-opacity=".501961" cx="0" cy="0" rx="1" ry="1" /></g><g transform="translate(120.509222 93.395399) rotate(245.609077) scale(52.240737 77.069204)"><ellipse fill="#ac9986" fill-opacity=".501961" cx="0" cy="0" rx="1" ry="1" /></g><g transform="translate(8.250719 146.784445) rotate(166.467826) scale(39.659914 12.833775)"><ellipse fill="#0b0000" fill-opacity=".501961" cx="0" cy="0" rx="1" ry="1" /></g><g transform="translate(255.000000 142.918478) rotate(2.151475) scale(34.292918 217.631863)"><ellipse fill="#162218" fill-opacity=".501961" cx="0" cy="0" rx="1" ry="1" /></g><ellipse fill="#004f8f" fill-opacity=".501961" cx="219" cy="15" rx="57" ry="32" /><g transform="translate(127.833489 14.305453) rotate(111.831495) scale(24.748090 29.527079)"><ellipse fill="#73adde" fill-opacity=".501961" cx="0" cy="0" rx="1" ry="1" /></g></g></svg>