<svg xmlns="http://www.w3.org/2000/svg" viewBox="0 0 1024 684"><filter id="b"><feGaussianBlur stdDeviation="12" /></filter><path d="M0 0h1024v684H0z" fill="#b8c6d2" /><g filter="url(#b)" transform="scale(4.000000) translate(0.5 0.5)"><g transform="translate(147.495568 92.766954) rotate(306.802767) scale(30.667915 46.878804)"><ellipse fill="#00000e" fill-opacity=".501961" cx="0" cy="0" rx="1" ry="1" /></g><g transform="translate(85.867948 83.779591) rotate(241.227313) scale(8.140240 35.914576)"><ellipse fill="#000013" fill-opacity=".501961" cx="0" cy="0" rx="1" ry="1" /></g><ellipse fill="#f9ffff" fill-opacity=".501961" cx="128" cy="25" rx="96" ry="43" /><g transform="translate(102.115971 154.185343) rotate(23.857746) scale(89.135181 36.077450)"><ellipse fill="#fff" fill-opacity=".501961" cx="0" cy="0" rx="1" ry="1" /></g><g transform="translate(158.878598 96.990174) rotate(263.639446) scale(24.437833 26.621438)"><ellipse fill="#000830" fill-opacity=".501961" cx="0" cy="0" rx="1" ry="1" /></g><ellipse fill="#f6fdff" fill-opacity=".501961" cx="218" cy="102" rx="31" ry="82" /><path fill="#000e30" fill-opacity=".501961" d="M182 152 144 80l47 48z" /><g transform="translate(244 1) rotate(28) scale(67 45)"><path d="M0 0h1024v684H0z" fill="#625267" /></g></g></svg>