<svg xmlns="http://www.w3.org/2000/svg" viewBox="0 0 684 1024"><filter id="b"><feGaussianBlur stdDeviation="12" /></filter><path d="M0 0h684v1024H0z" fill="#8a7f77" /><g filter="url(#b)" transform="scale(4.000000) translate(0.5 0.5)"><g transform="translate(153.583827 95.988024) rotate(99.385896) scale(114.080677 50.571617)"><ellipse fill="#fff" fill-opacity=".501961" cx="0" cy="0" rx="1" ry="1" /></g><g transform="translate(20.512816 27.542803) rotate(237.634465) scale(65.198971 45.698812)"><ellipse fill="#0c1000" fill-opacity=".501961" cx="0" cy="0" rx="1" ry="1" /></g><ellipse fill="#1d000d" fill-opacity=".501961" cx="67" cy="170" rx="21" ry="87" /><g transform="translate(164.333760 237.452764) rotate(183.437272) scale(57.853169 36.138628)"><ellipse fill="#000409" fill-opacity=".501961" cx="0" cy="0" rx="1" ry="1" /></g><g transform="translate(8.609356 236.767465) rotate(43.818101) scale(16.472473 39.256288)"><ellipse fill="#000" fill-opacity=".501961" cx="0" cy="0" rx="1" ry="1" /></g><g transform="translate(35.139334 251.724144) rotate(22.215974) scale(11.392280 38.320173)"><ellipse fill="#fff" fill-opacity=".501961" cx="0" cy="0" rx="1" ry="1" /></g><g transform="translate(83.855288 36.161731) rotate(256.966715) scale(35.154744 9.282355)"><ellipse fill="#fff8e6" fill-opacity=".501961" cx="0" cy="0" rx="1" ry="1" /></g><g transform="translate(25 189) rotate(370) scale(23 33)"><path d="M0 0h684v1024H0z" fill="#fff" /></g></g></svg>