<svg xmlns="http://www.w3.org/2000/svg" viewBox="0 0 684 1024"><filter id="b"><feGaussianBlur stdDeviation="12" /></filter><path d="M0 0h684v1024H0z" fill="#91acd1" /><g filter="url(#b)" transform="scale(4.000000) translate(0.5 0.5)"><g transform="translate(100.514424 124.288931) rotate(19.366637) scale(29.843374 41.129152)"><ellipse fill="#001435" fill-opacity=".501961" cx="0" cy="0" rx="1" ry="1" /></g><ellipse fill="#dfebff" fill-opacity=".501961" cx="152" cy="173" rx="25" ry="155" /><g transform="translate(15.789050 198.937568) rotate(262.327860) scale(85.621297 22.595944)"><ellipse fill="#2e6195" fill-opacity=".501961" cx="0" cy="0" rx="1" ry="1" /></g><g transform="translate(0 14) rotate(162) scale(49 46)"><path d="M0 0h684v1024H0z" fill="#000d2b" /></g><g transform="translate(90.284235 45.232880) rotate(219.444893) scale(34.910785 56.110052)"><ellipse fill="#d0e7ff" fill-opacity=".501961" cx="0" cy="0" rx="1" ry="1" /></g><g transform="translate(93.956815 215.961665) rotate(320.299658) scale(33.831624 76.646876)"><ellipse fill="#c4dafa" fill-opacity=".501961" cx="0" cy="0" rx="1" ry="1" /></g><g transform="translate(125 91) rotate(149) scale(76 13)"><path d="M0 0h684v1024H0z" fill="#b2c5e7" /></g><path fill="#5b6a86" fill-opacity=".501961" d="M124 49 89 226l53-105z" /></g></svg>