<svg xmlns="http://www.w3.org/2000/svg" viewBox="0 0 684 1024"><filter id="b"><feGaussianBlur stdDeviation="12" /></filter><path d="M0 0h684v1024H0z" fill="#c2a997" /><g filter="url(#b)" transform="scale(4.000000) translate(0.5 0.5)"><g transform="translate(78.901406 102.015607) rotate(261.406818) scale(48.153831 28.828786)"><ellipse fill="#823100" fill-opacity=".501961" cx="0" cy="0" rx="1" ry="1" /></g><ellipse fill="#000" fill-opacity=".501961" cx="24" cy="11" rx="9" ry="32" /><ellipse fill="#f7e9de" fill-opacity=".501961" cx="148" cy="111" rx="41" ry="213" /><path fill="#000" fill-opacity=".501961" d="M57 182 29 204l33 3z" /><path fill="#240100" fill-opacity=".501961" d="M110.677451 196.440931 94.759567 160.048288 90.356314 128.239387 106.967869 144.418398z" /><path fill="#12253d" fill-opacity=".501961" d="M112 120 92 38l-2 83z" /><g transform="translate(62.243356 103.036861) rotate(234.205995) scale(28.063941 15.916906)"><ellipse fill="#ff9000" fill-opacity=".501961" cx="0" cy="0" rx="1" ry="1" /></g><g transform="translate(76.097703 229.429066) rotate(275.108415) scale(87.092570 18.493918)"><ellipse fill="#ead7d1" fill-opacity=".501961" cx="0" cy="0" rx="1" ry="1" /></g></g></svg>