<svg xmlns="http://www.w3.org/2000/svg" viewBox="0 0 1024 684"><filter id="b"><feGaussianBlur stdDeviation="12" /></filter><path d="M0 0h1024v684H0z" fill="#606060" /><g filter="url(#b)" transform="scale(4.000000) translate(0.5 0.5)"><g transform="translate(111.487033 40.148093) rotate(158.446854) scale(112.741646 41.051176)"><ellipse fill="#f9f9f9" fill-opacity=".501961" cx="0" cy="0" rx="1" ry="1" /></g><g transform="translate(100.040583 142.580352) rotate(93.133958) scale(39.165476 219.609197)"><ellipse fill="#000" fill-opacity=".501961" cx="0" cy="0" rx="1" ry="1" /></g><g transform="translate(222.790959 148.147100) rotate(286.996836) scale(179.894567 49.319469)"><ellipse fill="#0e0e0e" fill-opacity=".501961" cx="0" cy="0" rx="1" ry="1" /></g><g transform="translate(133.853772 102.691786) rotate(163.783161) scale(66.123233 43.727633)"><ellipse fill="#858585" fill-opacity=".501961" cx="0" cy="0" rx="1" ry="1" /></g><g transform="translate(30.407380 153.423540) rotate(196.651080) scale(113.589936 39.191715)"><ellipse fill="#000" fill-opacity=".501961" cx="0" cy="0" rx="1" ry="1" /></g><g transform="translate(102.588633 55.820538) rotate(150.289300) scale(70.595431 18.547564)"><ellipse fill="#ebebeb" fill-opacity=".501961" cx="0" cy="0" rx="1" ry="1" /></g><path d="M0 0h1024v684H0z" fill="#616161" /><g transform="translate(52.637658 23.277381) rotate(313.420749) scale(104.176388 23.293051)"><ellipse fill="#8b8b8b" fill-opacity=".501961" cx="0" cy="0" rx="1" ry="1" /></g></g></svg>