<svg xmlns="http://www.w3.org/2000/svg" viewBox="0 0 1024 684"><filter id="b"><feGaussianBlur stdDeviation="12" /></filter><path d="M0 0h1024v684H0z" fill="#79808d" /><g filter="url(#b)" transform="scale(4.000000) translate(0.5 0.5)"><g transform="translate(27.752905 103.996891) rotate(72.096333) scale(243.120081 46.314032)"><ellipse fill="#fff" fill-opacity=".501961" cx="0" cy="0" rx="1" ry="1" /></g><ellipse fill="#00003d" fill-opacity=".501961" cx="147" cy="136" rx="58" ry="48" /><g transform="translate(189.242746 15.199665) rotate(273.949714) scale(24.905514 103.695587)"><ellipse fill="#1e1606" fill-opacity=".501961" cx="0" cy="0" rx="1" ry="1" /></g><g transform="translate(77.910304 43.460430) rotate(346.897350) scale(10.826908 38.272898)"><ellipse fill="#fff" fill-opacity=".501961" cx="0" cy="0" rx="1" ry="1" /></g><g transform="translate(166.189759 53.444070) rotate(-72.913387) scale(16.656019 33.118683)"><ellipse fill="#e8f5ff" fill-opacity=".501961" cx="0" cy="0" rx="1" ry="1" /></g><g transform="translate(230.515025 63.322131) rotate(44.066699) scale(23.696299 70.095091)"><ellipse fill="#39332f" fill-opacity=".501961" cx="0" cy="0" rx="1" ry="1" /></g><g transform="translate(86 102) rotate(214) scale(30 26)"><path d="M0 0h1024v684H0z" fill="#00000b" /></g><ellipse fill="#e7f8ff" fill-opacity=".501961" cx="41" cy="113" rx="29" ry="73" /></g></svg>