<svg xmlns="http://www.w3.org/2000/svg" viewBox="0 0 1024 684"><filter id="b"><feGaussianBlur stdDeviation="12" /></filter><path d="M0 0h1024v684H0z" fill="#678592" /><g filter="url(#b)" transform="scale(4.000000) translate(0.5 0.5)"><g transform="translate(47.773894 8.971765) rotate(174.820040) scale(46.988346 125.616887)"><ellipse fill="#00a3ff" fill-opacity=".501961" cx="0" cy="0" rx="1" ry="1" /></g><g transform="translate(17.947304 143.431402) rotate(267.116647) scale(83.740355 24.415684)"><ellipse fill="#000" fill-opacity=".501961" cx="0" cy="0" rx="1" ry="1" /></g><g transform="translate(143.430931 52.550252) rotate(153.967001) scale(57.141961 38.965056)"><ellipse fill="#f4cbac" fill-opacity=".501961" cx="0" cy="0" rx="1" ry="1" /></g><g transform="translate(132.985465 128.879703) rotate(45.936396) scale(41.353385 27.330613)"><ellipse fill="#642600" fill-opacity=".501961" cx="0" cy="0" rx="1" ry="1" /></g><g transform="translate(240.296576 146.670081) rotate(300.781438) scale(36.809692 79.239201)"><ellipse fill="#e4c7b7" fill-opacity=".501961" cx="0" cy="0" rx="1" ry="1" /></g><g transform="translate(222.404967 65.316030) rotate(116.296456) scale(36.726581 17.574941)"><ellipse fill="#3a1400" fill-opacity=".501961" cx="0" cy="0" rx="1" ry="1" /></g><ellipse fill="#0098ff" fill-opacity=".501961" cx="51" cy="14" rx="57" ry="57" /><ellipse fill="#262100" fill-opacity=".501961" cx="45" cy="163" rx="51" ry="21" /></g></svg>