<svg xmlns="http://www.w3.org/2000/svg" viewBox="0 0 684 1024"><filter id="b"><feGaussianBlur stdDeviation="12" /></filter><path d="M0 0h684v1024H0z" fill="#433f33" /><g filter="url(#b)" transform="scale(4.000000) translate(0.5 0.5)"><g transform="translate(90.571329 145.408478) rotate(293.563400) scale(60.819937 17.479544)"><ellipse fill="#c6a894" fill-opacity=".501961" cx="0" cy="0" rx="1" ry="1" /></g><g transform="translate(25.164256 20.156806) rotate(8.449370) scale(30.323123 99.739956)"><ellipse fill="#000" fill-opacity=".501961" cx="0" cy="0" rx="1" ry="1" /></g><path fill="#ffdcb9" fill-opacity=".501961" d="M56 150l51-13-99-5z" /><path fill="#c4e1ff" fill-opacity=".501961" d="M57.414354 194.083067 62.41939 179.98272 90.349396 158.268336 100.857991 175.735607z" /><g transform="translate(141.371544 232.661901) rotate(302.720735) scale(136.707643 34.406459)"><ellipse fill="#1b2200" fill-opacity=".501961" cx="0" cy="0" rx="1" ry="1" /></g><g transform="translate(79 155) rotate(346) scale(25 16)"><path d="M0 0h684v1024H0z" fill="#000" /></g><g transform="translate(98 132) rotate(291) scale(34 19)"><path d="M0 0h684v1024H0z" fill="#ffc423" /></g><g transform="translate(124.610054 133.059770) rotate(15.963524) scale(17.480387 96.495222)"><ellipse fill="#595d59" fill-opacity=".501961" cx="0" cy="0" rx="1" ry="1" /></g></g></svg>