<svg xmlns="http://www.w3.org/2000/svg" viewBox="0 0 1024 684"><filter id="b"><feGaussianBlur stdDeviation="12" /></filter><path d="M0 0h1024v684H0z" fill="#878e96" /><g filter="url(#b)" transform="scale(4.000000) translate(0.5 0.5)"><g transform="translate(215.252488 34.853222) rotate(170.539021) scale(45.689937 167.684659)"><ellipse fill="#fff" fill-opacity=".501961" cx="0" cy="0" rx="1" ry="1" /></g><g transform="translate(59.935474 146.163579) rotate(337.334046) scale(147.065406 56.139252)"><ellipse fill="#000009" fill-opacity=".501961" cx="0" cy="0" rx="1" ry="1" /></g><g transform="translate(99.963214 87.176338) rotate(372.226396) scale(23.614036 42.127974)"><ellipse fill="#ece5f8" fill-opacity=".501961" cx="0" cy="0" rx="1" ry="1" /></g><g transform="translate(186.699342 34.051087) rotate(204.603148) scale(109.914153 38.031448)"><ellipse fill="#fff" fill-opacity=".501961" cx="0" cy="0" rx="1" ry="1" /></g><ellipse fill="#fff" fill-opacity=".501961" cx="255" cy="82" rx="65" ry="131" /><g transform="translate(143.628579 152.874592) rotate(308.211086) scale(52.159482 43.636558)"><ellipse fill="#000f17" fill-opacity=".501961" cx="0" cy="0" rx="1" ry="1" /></g><path fill="#000" fill-opacity=".501961" d="M151 58 109 33l65 111z" /><g transform="translate(55.475065 165.131194) rotate(106.311390) scale(50.950300 29.805435)"><ellipse fill="#000" fill-opacity=".501961" cx="0" cy="0" rx="1" ry="1" /></g></g></svg>