<svg xmlns="http://www.w3.org/2000/svg" viewBox="0 0 684 1024"><filter id="b"><feGaussianBlur stdDeviation="12" /></filter><path d="M0 0h684v1024H0z" fill="#5d717f" /><g filter="url(#b)" transform="scale(4.000000) translate(0.5 0.5)"><ellipse fill="#8dffff" fill-opacity=".501961" cx="133" cy="50" rx="49" ry="82" /><g transform="translate(29.464502 215.437245) rotate(287.713290) scale(70.418893 170.000000)"><ellipse fill="#342216" fill-opacity=".501961" cx="0" cy="0" rx="1" ry="1" /></g><ellipse fill="#fff" fill-opacity=".501961" cx="111" cy="95" rx="17" ry="74" /><g transform="translate(142.714242 24.338102) rotate(323.262410) scale(56.707091 165.529192)"><ellipse fill="#4cc0ff" fill-opacity=".501961" cx="0" cy="0" rx="1" ry="1" /></g><g transform="translate(144.621866 146.773275) rotate(-48.643205) scale(20.235188 32.009522)"><ellipse fill="#140a00" fill-opacity=".501961" cx="0" cy="0" rx="1" ry="1" /></g><g transform="translate(11.697542 29.658638) rotate(15.105512) scale(15.466443 41.805804)"><ellipse fill="#98ffff" fill-opacity=".501961" cx="0" cy="0" rx="1" ry="1" /></g><g transform="translate(56.363666 60.609107) rotate(259.671925) scale(50.964652 33.867598)"><ellipse fill="#40271f" fill-opacity=".501961" cx="0" cy="0" rx="1" ry="1" /></g><g transform="translate(129.148809 95.005312) rotate(215.163203) scale(52.872022 16.847411)"><ellipse fill="#fbffff" fill-opacity=".501961" cx="0" cy="0" rx="1" ry="1" /></g></g></svg>