<svg xmlns="http://www.w3.org/2000/svg" viewBox="0 0 684 1024"><filter id="b"><feGaussianBlur stdDeviation="12" /></filter><path d="M0 0h684v1024H0z" fill="#474b4a" /><g filter="url(#b)" transform="scale(4.000000) translate(0.5 0.5)"><g transform="translate(31.916891 59.761150) rotate(357.029337) scale(68.918373 19.960070)"><ellipse fill="#fff" fill-opacity=".501961" cx="0" cy="0" rx="1" ry="1" /></g><g transform="translate(137.238653 45.629464) rotate(330.181889) scale(42.116889 170.000000)"><ellipse fill="#000" fill-opacity=".501961" cx="0" cy="0" rx="1" ry="1" /></g><g transform="translate(43 59) rotate(361) scale(95 36)"><path d="M0 0h684v1024H0z" fill="#fff" /></g><g transform="translate(20.086228 136.694921) rotate(128.999526) scale(71.611135 46.123204)"><ellipse fill="#000" fill-opacity=".501961" cx="0" cy="0" rx="1" ry="1" /></g><g transform="translate(93.870713 219.956680) rotate(348.031631) scale(118.074283 41.792070)"><ellipse fill="#798299" fill-opacity=".501961" cx="0" cy="0" rx="1" ry="1" /></g><ellipse fill="#000" fill-opacity=".501961" cx="65" cy="14" rx="170" ry="27" /><g transform="translate(94.775665 118.124437) rotate(95.535546) scale(16.900750 45.525075)"><ellipse fill="#98857a" fill-opacity=".501961" cx="0" cy="0" rx="1" ry="1" /></g><g transform="translate(28.813036 60.161007) rotate(80.992561) scale(16.877027 66.642241)"><ellipse fill="#fff" fill-opacity=".501961" cx="0" cy="0" rx="1" ry="1" /></g></g></svg>