<svg xmlns="http://www.w3.org/2000/svg" viewBox="0 0 1024 684"><filter id="b"><feGaussianBlur stdDeviation="12" /></filter><path d="M0 0h1024v684H0z" fill="#68746f" /><g filter="url(#b)" transform="scale(4.000000) translate(0.5 0.5)"><g transform="translate(26.573075 15.983993) rotate(331.682152) scale(42.109538 52.104571)"><ellipse fill="#000" fill-opacity=".501961" cx="0" cy="0" rx="1" ry="1" /></g><g transform="translate(232.174594 91.007984) rotate(136.525820) scale(32.834272 49.669666)"><ellipse fill="#000400" fill-opacity=".501961" cx="0" cy="0" rx="1" ry="1" /></g><ellipse fill="#9fadb0" fill-opacity=".501961" cx="114" cy="103" rx="88" ry="88" /><g transform="translate(39.304034 35.515079) rotate(25.092983) scale(110.401163 14.968099)"><ellipse fill="#000" fill-opacity=".501961" cx="0" cy="0" rx="1" ry="1" /></g><ellipse fill="#000" fill-opacity=".501961" cx="241" cy="2" rx="29" ry="29" /><path fill="#221724" fill-opacity=".501961" d="M117 61l33 52-63 9z" /><g transform="translate(214.443322 96.217526) rotate(101.173465) scale(12.202355 56.070322)"><ellipse fill="#242d00" fill-opacity=".501961" cx="0" cy="0" rx="1" ry="1" /></g><g transform="translate(151.233241 42.332878) rotate(276.504279) scale(12.343060 61.831755)"><ellipse fill="#bcd6d5" fill-opacity=".501961" cx="0" cy="0" rx="1" ry="1" /></g></g></svg>