<svg xmlns="http://www.w3.org/2000/svg" viewBox="0 0 1024 684"><filter id="b"><feGaussianBlur stdDeviation="12" /></filter><path d="M0 0h1024v684H0z" fill="#36405c" /><g filter="url(#b)" transform="scale(4.000000) translate(0.5 0.5)"><g transform="translate(115.382292 52.297686) rotate(217.799466) scale(37.007767 65.746886)"><ellipse fill="#adb4e9" fill-opacity=".501961" cx="0" cy="0" rx="1" ry="1" /></g><g transform="translate(24.905542 76.743939) rotate(96.878642) scale(95.960845 26.766538)"><ellipse fill="#000" fill-opacity=".501961" cx="0" cy="0" rx="1" ry="1" /></g><ellipse fill="#0c0c10" fill-opacity=".501961" cx="210" cy="95" rx="52" ry="52" /><g transform="translate(94.565966 91.861434) rotate(246.624327) scale(19.887952 35.134898)"><ellipse fill="#ff8772" fill-opacity=".501961" cx="0" cy="0" rx="1" ry="1" /></g><g transform="translate(143.687879 10.123819) rotate(-14.718290) scale(93.468966 33.201976)"><ellipse fill="#2b77bb" fill-opacity=".501961" cx="0" cy="0" rx="1" ry="1" /></g><path fill="#000c11" fill-opacity=".501961" d="M271 143 124 95 23 143z" /><path fill="#3d65a3" fill-opacity=".501961" d="M242 141 26 149l160 37z" /><g transform="translate(141.693732 64.106582) rotate(253.573002) scale(14.139567 39.020809)"><ellipse fill="#b18dbd" fill-opacity=".501961" cx="0" cy="0" rx="1" ry="1" /></g></g></svg>