<svg xmlns="http://www.w3.org/2000/svg" viewBox="0 0 684 1024"><filter id="b"><feGaussianBlur stdDeviation="12" /></filter><path d="M0 0h684v1024H0z" fill="#737e87" /><g filter="url(#b)" transform="scale(4.000000) translate(0.5 0.5)"><g transform="translate(14.710707 185.966175) rotate(61.223274) scale(170.000000 49.028819)"><ellipse fill="#fff" fill-opacity=".501961" cx="0" cy="0" rx="1" ry="1" /></g><ellipse fill="#0b0d0e" fill-opacity=".501961" cx="93" cy="41" rx="66" ry="84" /><g transform="translate(170.000000 144.825660) rotate(161.754277) scale(29.583691 63.825483)"><ellipse fill="#fff" fill-opacity=".501961" cx="0" cy="0" rx="1" ry="1" /></g><ellipse fill="#292523" fill-opacity=".501961" cx="60" cy="141" rx="25" ry="67" /><ellipse fill="#000" fill-opacity=".501961" cx="126" cy="156" rx="10" ry="85" /><g transform="translate(0.000000 133.951999) rotate(305.423884) scale(74.261610 20.786666)"><ellipse fill="#fff" fill-opacity=".501961" cx="0" cy="0" rx="1" ry="1" /></g><g transform="translate(166.992144 245.753483) rotate(262.189575) scale(12.068831 102.502973)"><ellipse fill="#fff" fill-opacity=".501961" cx="0" cy="0" rx="1" ry="1" /></g><g transform="translate(103.398023 151.921735) rotate(163.412495) scale(12.958291 27.301868)"><ellipse fill="#fff" fill-opacity=".501961" cx="0" cy="0" rx="1" ry="1" /></g></g></svg>