<svg xmlns="http://www.w3.org/2000/svg" viewBox="0 0 684 1024"><filter id="b"><feGaussianBlur stdDeviation="12" /></filter><path d="M0 0h684v1024H0z" fill="#716e6c" /><g filter="url(#b)" transform="scale(4.000000) translate(0.5 0.5)"><g transform="translate(121.192674 47.610860) rotate(286.471004) scale(20.852981 132.344642)"><ellipse fill="#c0d3e4" fill-opacity=".501961" cx="0" cy="0" rx="1" ry="1" /></g><g transform="translate(59.542850 231.445949) rotate(23.345824) scale(46.748831 11.644336)"><ellipse fill="#c7e8ee" fill-opacity=".501961" cx="0" cy="0" rx="1" ry="1" /></g><g transform="translate(68.792427 208.397766) rotate(120.352961) scale(13.034094 25.430511)"><ellipse fill="#0f0000" fill-opacity=".501961" cx="0" cy="0" rx="1" ry="1" /></g><ellipse fill="#322726" fill-opacity=".501961" cx="170" cy="211" rx="24" ry="116" /><g transform="translate(92.902817 210.107304) rotate(142.663292) scale(6.291516 29.245236)"><ellipse fill="#ffc400" fill-opacity=".501961" cx="0" cy="0" rx="1" ry="1" /></g><g transform="translate(118.384678 117.513187) rotate(134.900580) scale(29.270784 59.444361)"><ellipse fill="#523e38" fill-opacity=".501961" cx="0" cy="0" rx="1" ry="1" /></g><g transform="translate(56.926165 175.246806) rotate(263.651430) scale(8.348788 11.544966)"><ellipse fill="#fff" fill-opacity=".501961" cx="0" cy="0" rx="1" ry="1" /></g><g transform="translate(0 239) rotate(363) scale(29 72)"><path d="M0 0h684v1024H0z" fill="#0b1919" /></g></g></svg>