<svg xmlns="http://www.w3.org/2000/svg" viewBox="0 0 1024 684"><filter id="b"><feGaussianBlur stdDeviation="12" /></filter><path d="M0 0h1024v684H0z" fill="#42413c" /><g filter="url(#b)" transform="scale(4.000000) translate(0.5 0.5)"><g transform="translate(130.001635 135.827310) rotate(78.318392) scale(16.531066 103.412097)"><ellipse fill="#8392a4" fill-opacity=".501961" cx="0" cy="0" rx="1" ry="1" /></g><g transform="translate(219.667152 48.633698) rotate(72.732343) scale(34.654288 67.250063)"><ellipse fill="#000" fill-opacity=".501961" cx="0" cy="0" rx="1" ry="1" /></g><ellipse fill="#fff" fill-opacity=".501961" cx="84" cy="92" rx="34" ry="7" /><g transform="translate(133.604711 64.230385) rotate(235.016492) scale(30.295149 23.088810)"><ellipse fill="#e75a55" fill-opacity=".501961" cx="0" cy="0" rx="1" ry="1" /></g><ellipse fill="#07160d" fill-opacity=".501961" cx="84" cy="40" rx="39" ry="48" /><g transform="translate(19.673782 123.258535) rotate(259.920266) scale(23.093917 38.338465)"><ellipse fill="#000500" fill-opacity=".501961" cx="0" cy="0" rx="1" ry="1" /></g><path d="M0 0h1024v684H0z" fill="#fffffd" /><g transform="translate(0.000000 69.836788) rotate(94.992669) scale(29.087484 51.012214)"><ellipse fill="#93892d" fill-opacity=".501961" cx="0" cy="0" rx="1" ry="1" /></g></g></svg>