<svg xmlns="http://www.w3.org/2000/svg" viewBox="0 0 684 1024"><filter id="b"><feGaussianBlur stdDeviation="12" /></filter><path d="M0 0h684v1024H0z" fill="#747e83" /><g filter="url(#b)" transform="scale(4.000000) translate(0.5 0.5)"><g transform="translate(143.342677 21.940233) rotate(170.001173) scale(37.133227 78.610341)"><ellipse fill="#fff" fill-opacity=".501961" cx="0" cy="0" rx="1" ry="1" /></g><ellipse fill="#000" fill-opacity=".501961" cx="0" cy="222" rx="38" ry="255" /><g transform="translate(113.449286 255.000000) rotate(340.648894) scale(34.605497 137.688991)"><ellipse fill="#ebfeff" fill-opacity=".501961" cx="0" cy="0" rx="1" ry="1" /></g><g transform="translate(68.935142 69.949880) rotate(67.572420) scale(87.686974 12.582249)"><ellipse fill="#fff" fill-opacity=".501961" cx="0" cy="0" rx="1" ry="1" /></g><g transform="translate(162.174553 175.320853) rotate(57.730126) scale(83.941850 39.337607)"><ellipse fill="#0d0f1d" fill-opacity=".501961" cx="0" cy="0" rx="1" ry="1" /></g><g transform="translate(84.631553 22.149022) rotate(338.732536) scale(19.950387 39.025682)"><ellipse fill="#110b0e" fill-opacity=".501961" cx="0" cy="0" rx="1" ry="1" /></g><ellipse fill="#000" fill-opacity=".501961" cx="82" cy="134" rx="7" ry="30" /><g transform="translate(136.548425 21.290347) rotate(78.576871) scale(59.393371 28.510693)"><ellipse fill="#fff" fill-opacity=".501961" cx="0" cy="0" rx="1" ry="1" /></g></g></svg>