<svg xmlns="http://www.w3.org/2000/svg" viewBox="0 0 684 1024"><filter id="b"><feGaussianBlur stdDeviation="12" /></filter><path d="M0 0h684v1024H0z" fill="#5a6154" /><g filter="url(#b)" transform="scale(4.000000) translate(0.5 0.5)"><g transform="translate(52.891068 132.843488) rotate(379.021142) scale(49.336328 91.705201)"><ellipse fill="#929aa6" fill-opacity=".501961" cx="0" cy="0" rx="1" ry="1" /></g><g transform="translate(18.769027 29.858528) rotate(114.220799) scale(55.751947 44.185585)"><ellipse fill="#181010" fill-opacity=".501961" cx="0" cy="0" rx="1" ry="1" /></g><ellipse fill="#393c16" fill-opacity=".501961" cx="161" cy="205" rx="65" ry="65" /><g transform="translate(147.299202 12.258067) rotate(77.719327) scale(106.845082 33.169993)"><ellipse fill="#304114" fill-opacity=".501961" cx="0" cy="0" rx="1" ry="1" /></g><g transform="translate(81.563257 156.129121) rotate(124.309242) scale(24.192620 7.154393)"><ellipse fill="#fffff6" fill-opacity=".501961" cx="0" cy="0" rx="1" ry="1" /></g><path fill="#e7e4ea" fill-opacity=".501961" d="M64 89l9-18 43 60z" /><g transform="translate(69 142) rotate(146) scale(22 24)"><path d="M0 0h684v1024H0z" fill="#2d0900" /></g><ellipse fill="#000" fill-opacity=".501961" cx="36" cy="9" rx="14" ry="37" /></g></svg>