<svg xmlns="http://www.w3.org/2000/svg" viewBox="0 0 1024 684"><filter id="b"><feGaussianBlur stdDeviation="12" /></filter><path d="M0 0h1024v684H0z" fill="#564d5a" /><g filter="url(#b)" transform="scale(4.000000) translate(0.5 0.5)"><ellipse fill="#b2c4ef" fill-opacity=".501961" cx="151" cy="31" rx="255" ry="43" /><g transform="translate(142.099107 145.967702) rotate(270.897170) scale(65.832662 243.447860)"><ellipse fill="#080000" fill-opacity=".501961" cx="0" cy="0" rx="1" ry="1" /></g><g transform="translate(30.679969 147.988868) rotate(131.329086) scale(45.823730 87.952036)"><ellipse fill="#1b0400" fill-opacity=".501961" cx="0" cy="0" rx="1" ry="1" /></g><g transform="translate(5 26) rotate(-35) scale(52 42)"><path d="M0 0h1024v684H0z" fill="#394162" /></g><ellipse fill="#2f0f00" fill-opacity=".501961" cx="255" cy="145" rx="120" ry="67" /><ellipse fill="#af8c92" fill-opacity=".501961" cx="41" cy="57" rx="255" ry="19" /><g transform="translate(119.505937 6.961021) rotate(12.276887) scale(170.733200 17.126939)"><ellipse fill="#67a7dc" fill-opacity=".501961" cx="0" cy="0" rx="1" ry="1" /></g><ellipse fill="#4a386e" fill-opacity=".501961" cx="207" cy="56" rx="92" ry="6" /></g></svg>