<svg xmlns="http://www.w3.org/2000/svg" viewBox="0 0 684 1024"><filter id="b"><feGaussianBlur stdDeviation="12" /></filter><path d="M0 0h684v1024H0z" fill="#837e83" /><g filter="url(#b)" transform="scale(4.000000) translate(0.5 0.5)"><g transform="translate(82.511416 23.218280) rotate(355.064787) scale(170.000000 37.932047)"><ellipse fill="#000" fill-opacity=".501961" cx="0" cy="0" rx="1" ry="1" /></g><g transform="translate(107.736498 148.171857) rotate(119.279822) scale(67.119725 95.982973)"><ellipse fill="#f1eef9" fill-opacity=".501961" cx="0" cy="0" rx="1" ry="1" /></g><g transform="translate(9.297417 209.879594) rotate(107.125222) scale(67.361290 27.027874)"><ellipse fill="#2a1812" fill-opacity=".501961" cx="0" cy="0" rx="1" ry="1" /></g><g transform="translate(110.516827 185.535549) rotate(178.007255) scale(25.848816 102.468840)"><ellipse fill="#e9eaf6" fill-opacity=".501961" cx="0" cy="0" rx="1" ry="1" /></g><g transform="translate(159.576376 250.647635) rotate(52.491248) scale(16.720523 74.921882)"><ellipse fill="#000" fill-opacity=".501961" cx="0" cy="0" rx="1" ry="1" /></g><g transform="translate(83.781401 7.480467) rotate(268.462657) scale(29.931259 170.000000)"><ellipse fill="#050000" fill-opacity=".501961" cx="0" cy="0" rx="1" ry="1" /></g><g transform="translate(53.552403 177.560256) rotate(154.674595) scale(30.614499 39.317314)"><ellipse fill="#8c7b7a" fill-opacity=".501961" cx="0" cy="0" rx="1" ry="1" /></g><g transform="translate(102.909752 56.037083) rotate(5.590517) scale(67.067908 28.871450)"><ellipse fill="#5d5459" fill-opacity=".501961" cx="0" cy="0" rx="1" ry="1" /></g></g></svg>