<svg xmlns="http://www.w3.org/2000/svg" viewBox="0 0 1024 684"><filter id="b"><feGaussianBlur stdDeviation="12" /></filter><path d="M0 0h1024v684H0z" fill="#797c78" /><g filter="url(#b)" transform="scale(4.000000) translate(0.5 0.5)"><g transform="translate(126.416513 132.047689) rotate(277.629771) scale(119.500797 60.129019)"><ellipse fill="#cad5cf" fill-opacity=".501961" cx="0" cy="0" rx="1" ry="1" /></g><g transform="translate(22.424188 63.760468) rotate(270.470469) scale(193.694770 31.298285)"><ellipse fill="#171413" fill-opacity=".501961" cx="0" cy="0" rx="1" ry="1" /></g><g transform="translate(250.473136 77.365690) rotate(270.660796) scale(204.454993 13.043691)"><ellipse fill="#150606" fill-opacity=".501961" cx="0" cy="0" rx="1" ry="1" /></g><path fill="#fcfdff" fill-opacity=".501961" d="M88 186V141l133 15z" /><path d="M0 0h1024v684H0z" fill="#8c9586" /><g transform="translate(231.688770 6.187284) rotate(363.090862) scale(72.882120 7.607657)"><ellipse fill="#050c03" fill-opacity=".501961" cx="0" cy="0" rx="1" ry="1" /></g><path fill="#000" fill-opacity=".501961" d="M215 153l52 32 4-47z" /><g transform="translate(5.763741 117.754582) rotate(104.134343) scale(16.867186 54.340959)"><ellipse fill="#110e05" fill-opacity=".501961" cx="0" cy="0" rx="1" ry="1" /></g></g></svg>