<svg xmlns="http://www.w3.org/2000/svg" viewBox="0 0 1024 684"><filter id="b"><feGaussianBlur stdDeviation="12" /></filter><path d="M0 0h1024v684H0z" fill="#9b8572" /><g filter="url(#b)" transform="scale(4.000000) translate(0.5 0.5)"><g transform="translate(222.798690 15.533955) rotate(132.507177) scale(55.145711 18.443081)"><ellipse fill="#000" fill-opacity=".501961" cx="0" cy="0" rx="1" ry="1" /></g><ellipse fill="#dfc5ae" fill-opacity=".501961" cx="193" cy="170" rx="114" ry="114" /><g transform="translate(14.107562 120.424988) rotate(86.052439) scale(33.933462 66.775858)"><ellipse fill="#261a11" fill-opacity=".501961" cx="0" cy="0" rx="1" ry="1" /></g><g transform="translate(157.110307 117.184629) rotate(239.380224) scale(12.258892 26.803063)"><ellipse fill="#000001" fill-opacity=".501961" cx="0" cy="0" rx="1" ry="1" /></g><g transform="translate(71.083601 118.759363) rotate(90.622417) scale(4.803279 52.810691)"><ellipse fill="#080401" fill-opacity=".501961" cx="0" cy="0" rx="1" ry="1" /></g><g transform="translate(9.977196 31.767236) rotate(215.496516) scale(40.579314 159.599571)"><ellipse fill="#5e4e42" fill-opacity=".501961" cx="0" cy="0" rx="1" ry="1" /></g><ellipse fill="#f2dac7" fill-opacity=".501961" cx="182" cy="164" rx="44" ry="44" /><g transform="translate(223.025715 22.184660) rotate(159.101256) scale(46.055965 9.106517)"><ellipse fill="#000" fill-opacity=".501961" cx="0" cy="0" rx="1" ry="1" /></g></g></svg>