<svg xmlns="http://www.w3.org/2000/svg" viewBox="0 0 684 1024"><filter id="b"><feGaussianBlur stdDeviation="12" /></filter><path d="M0 0h684v1024H0z" fill="#636764" /><g filter="url(#b)" transform="scale(4.000000) translate(0.5 0.5)"><g transform="translate(132.961208 227.480363) rotate(332.880063) scale(105.860154 55.045702)"><ellipse fill="#00050a" fill-opacity=".501961" cx="0" cy="0" rx="1" ry="1" /></g><ellipse fill="#c1c3b9" fill-opacity=".501961" cx="71" cy="31" rx="56" ry="88" /><path fill="#fffeee" fill-opacity=".501961" d="M74 96l40 55L85 45z" /><g transform="translate(83 137) rotate(337) scale(32 38)"><path d="M0 0h684v1024H0z" fill="#ff001c" /></g><path fill="#000e00" fill-opacity=".501961" d="M91 51 64-7l30-6z" /><g transform="translate(116.539688 133.219636) rotate(54.420401) scale(13.025564 37.412839)"><ellipse fill="#d9c8af" fill-opacity=".501961" cx="0" cy="0" rx="1" ry="1" /></g><g transform="translate(121.720320 209.634755) rotate(74.387886) scale(49.169263 22.324810)"><ellipse fill="#021400" fill-opacity=".501961" cx="0" cy="0" rx="1" ry="1" /></g><ellipse fill="#365272" fill-opacity=".501961" cx="16" cy="223" rx="80" ry="87" /></g></svg>