<svg xmlns="http://www.w3.org/2000/svg" viewBox="0 0 684 1024"><filter id="b"><feGaussianBlur stdDeviation="12" /></filter><path d="M0 0h684v1024H0z" fill="#8e827f" /><g filter="url(#b)" transform="scale(4.000000) translate(0.5 0.5)"><g transform="translate(123.772024 64.727614) rotate(402.768171) scale(167.931709 47.718248)"><ellipse fill="#fff" fill-opacity=".501961" cx="0" cy="0" rx="1" ry="1" /></g><path fill="#18080a" fill-opacity=".501961" d="M56 37 17 271l152-65z" /><g transform="translate(115.718217 47.841758) rotate(297.759059) scale(23.963664 122.290190)"><ellipse fill="#fff" fill-opacity=".501961" cx="0" cy="0" rx="1" ry="1" /></g><g transform="translate(16.461107 220.672920) rotate(372.991491) scale(13.336334 79.873903)"><ellipse fill="#ff7000" fill-opacity=".501961" cx="0" cy="0" rx="1" ry="1" /></g><ellipse fill="#fff" fill-opacity=".501961" cx="122" cy="105" rx="21" ry="33" /><path d="M0 0h684v1024H0z" fill="#2e2a39" /><path fill="#fff" fill-opacity=".501961" d="M71-12 36 79 9-15z" /><g transform="translate(117.617314 253.318116) rotate(271.898543) scale(16.481196 134.450459)"><ellipse fill="#311400" fill-opacity=".501961" cx="0" cy="0" rx="1" ry="1" /></g></g></svg>