<svg xmlns="http://www.w3.org/2000/svg" viewBox="0 0 1024 684"><filter id="b"><feGaussianBlur stdDeviation="12" /></filter><path d="M0 0h1024v684H0z" fill="#574a5b" /><g filter="url(#b)" transform="scale(4.000000) translate(0.5 0.5)"><g transform="translate(135.861263 28.537139) rotate(94.427459) scale(53.128643 155.467858)"><ellipse fill="#c8c3ee" fill-opacity=".501961" cx="0" cy="0" rx="1" ry="1" /></g><g transform="translate(101.063419 135.075103) rotate(4.413813) scale(255.000000 50.103845)"><ellipse fill="#000" fill-opacity=".501961" cx="0" cy="0" rx="1" ry="1" /></g><g transform="translate(24.220155 85.332751) rotate(226.803514) scale(32.602888 29.488215)"><ellipse fill="#050000" fill-opacity=".501961" cx="0" cy="0" rx="1" ry="1" /></g><ellipse fill="#150300" fill-opacity=".501961" cx="67" cy="155" rx="71" ry="71" /><g transform="translate(76.610104 0.000000) rotate(271.711803) scale(9.717138 140.139394)"><ellipse fill="#96e6ff" fill-opacity=".501961" cx="0" cy="0" rx="1" ry="1" /></g><ellipse fill="#aa9fb6" fill-opacity=".501961" cx="108" cy="67" rx="56" ry="21" /><g transform="translate(213.488577 140.056979) rotate(342.319284) scale(136.160457 45.753255)"><ellipse fill="#27110f" fill-opacity=".501961" cx="0" cy="0" rx="1" ry="1" /></g><g transform="translate(112.073407 34.887263) rotate(91.940999) scale(19.869700 78.201609)"><ellipse fill="#896377" fill-opacity=".501961" cx="0" cy="0" rx="1" ry="1" /></g></g></svg>