<svg xmlns="http://www.w3.org/2000/svg" viewBox="0 0 684 1024"><filter id="b"><feGaussianBlur stdDeviation="12" /></filter><path d="M0 0h684v1024H0z" fill="#91969f" /><g filter="url(#b)" transform="scale(4.000000) translate(0.5 0.5)"><g transform="translate(41.719480 28.617085) rotate(142.941760) scale(40.130089 125.356152)"><ellipse fill="#000" fill-opacity=".501961" cx="0" cy="0" rx="1" ry="1" /></g><ellipse fill="#fff" fill-opacity=".501961" cx="37" cy="216" rx="134" ry="42" /><g transform="translate(114 46) rotate(150) scale(61 26)"><path d="M0 0h684v1024H0z" fill="#000" /></g><g transform="translate(77.494626 25.622199) rotate(135.305455) scale(38.946445 11.803039)"><ellipse fill="#e5f6ff" fill-opacity=".501961" cx="0" cy="0" rx="1" ry="1" /></g><g transform="translate(41 134) rotate(115) scale(80 19)"><path d="M0 0h684v1024H0z" fill="#000" /></g><g transform="translate(53.661433 236.318487) rotate(312.864311) scale(43.413325 81.529576)"><ellipse fill="#fff" fill-opacity=".501961" cx="0" cy="0" rx="1" ry="1" /></g><g transform="translate(156 69) rotate(30) scale(55 71)"><path d="M0 0h684v1024H0z" fill="#e6faff" /></g><g transform="translate(80 140) rotate(151) scale(34 55)"><path d="M0 0h684v1024H0z" fill="#fff" /></g></g></svg>