<svg xmlns="http://www.w3.org/2000/svg" viewBox="0 0 1024 684"><filter id="b"><feGaussianBlur stdDeviation="12" /></filter><path d="M0 0h1024v684H0z" fill="#3d3c2a" /><g filter="url(#b)" transform="scale(4.000000) translate(0.5 0.5)"><g transform="translate(101.874635 69.916650) rotate(357.801477) scale(127.673542 19.436468)"><ellipse fill="#ffb856" fill-opacity=".501961" cx="0" cy="0" rx="1" ry="1" /></g><g transform="translate(86.874855 153.753985) rotate(285.190253) scale(40.853259 255.000000)"><ellipse fill="#000" fill-opacity=".501961" cx="0" cy="0" rx="1" ry="1" /></g><path fill="#ffc000" fill-opacity=".501961" d="M221 114 80 104l38 30z" /><g transform="translate(69.476259 30.552492) rotate(442.644331) scale(37.847203 255.000000)"><ellipse fill="#165f7a" fill-opacity=".501961" cx="0" cy="0" rx="1" ry="1" /></g><ellipse fill="#000" fill-opacity=".501961" cx="194" cy="97" rx="194" ry="11" /><g transform="translate(120.182665 79.557434) rotate(176.638916) scale(106.629145 8.957812)"><ellipse fill="#ffb60c" fill-opacity=".501961" cx="0" cy="0" rx="1" ry="1" /></g><g transform="translate(180.718697 51.530251) rotate(192.831704) scale(88.934440 22.347026)"><ellipse fill="#7c6056" fill-opacity=".501961" cx="0" cy="0" rx="1" ry="1" /></g><g transform="translate(230 127) rotate(358) scale(76 93)"><path d="M0 0h1024v684H0z" fill="#050000" /></g></g></svg>