<svg xmlns="http://www.w3.org/2000/svg" viewBox="0 0 684 1024"><filter id="b"><feGaussianBlur stdDeviation="12" /></filter><path d="M0 0h684v1024H0z" fill="#63676c" /><g filter="url(#b)" transform="scale(4.000000) translate(0.5 0.5)"><g transform="translate(140.936020 25.836897) rotate(88.848243) scale(48.178044 102.425156)"><ellipse fill="#aff6ff" fill-opacity=".501961" cx="0" cy="0" rx="1" ry="1" /></g><g transform="translate(50.689347 149.758966) rotate(459.105798) scale(74.182111 65.803967)"><ellipse fill="#261a16" fill-opacity=".501961" cx="0" cy="0" rx="1" ry="1" /></g><g transform="translate(0 47) rotate(195) scale(36 117)"><path d="M0 0h684v1024H0z" fill="#000c00" /></g><g transform="translate(107.453866 71.115023) rotate(224.968476) scale(48.518131 23.441022)"><ellipse fill="#64285a" fill-opacity=".501961" cx="0" cy="0" rx="1" ry="1" /></g><g transform="translate(113.770706 10.031144) rotate(90.186198) scale(22.492594 61.148890)"><ellipse fill="#c2f7ff" fill-opacity=".501961" cx="0" cy="0" rx="1" ry="1" /></g><g transform="translate(168.008699 52.054806) rotate(191.936410) scale(62.023502 27.403657)"><ellipse fill="#51b9fa" fill-opacity=".501961" cx="0" cy="0" rx="1" ry="1" /></g><ellipse fill="#b8aa9b" fill-opacity=".501961" cx="170" cy="130" rx="35" ry="35" /><g transform="translate(49.861886 51.485283) rotate(142.504514) scale(10.684696 38.905738)"><ellipse fill="#babbd5" fill-opacity=".501961" cx="0" cy="0" rx="1" ry="1" /></g></g></svg>