<svg xmlns="http://www.w3.org/2000/svg" viewBox="0 0 1024 678"><filter id="b"><feGaussianBlur stdDeviation="12" /></filter><path d="M0 0h1024v678H0z" fill="#527182" /><g filter="url(#b)" transform="scale(4.000000) translate(0.5 0.5)"><ellipse fill="#ffecb4" fill-opacity=".501961" cx="42" cy="37" rx="65" ry="65" /><path fill="#000024" fill-opacity=".501961" d="M253 184 271 69-16 156z" /><g transform="translate(207.245748 37.087229) rotate(22.000690) scale(69.707835 38.128427)"><ellipse fill="#91ddff" fill-opacity=".501961" cx="0" cy="0" rx="1" ry="1" /></g><g transform="translate(41.061849 61.670583) rotate(11.025057) scale(106.336813 18.347641)"><ellipse fill="#ffeab6" fill-opacity=".501961" cx="0" cy="0" rx="1" ry="1" /></g><g transform="translate(96.469097 148.272493) rotate(174.431163) scale(249.452709 47.421732)"><ellipse fill="#002749" fill-opacity=".501961" cx="0" cy="0" rx="1" ry="1" /></g><g transform="translate(114.524083 42.872558) rotate(99.336726) scale(22.272522 46.912993)"><ellipse fill="#1e5281" fill-opacity=".501961" cx="0" cy="0" rx="1" ry="1" /></g><g transform="translate(236.688737 0.000000) rotate(12.655922) scale(132.268534 28.423386)"><ellipse fill="#0075c9" fill-opacity=".501961" cx="0" cy="0" rx="1" ry="1" /></g><g transform="translate(113.341069 0.000000) rotate(273.944632) scale(22.957300 37.233221)"><ellipse fill="#b0d2f5" fill-opacity=".501961" cx="0" cy="0" rx="1" ry="1" /></g></g></svg>