<svg xmlns="http://www.w3.org/2000/svg" viewBox="0 0 1024 678"><filter id="b"><feGaussianBlur stdDeviation="12" /></filter><path d="M0 0h1024v678H0z" fill="#3f5f70" /><g filter="url(#b)" transform="scale(4.000000) translate(0.5 0.5)"><g transform="translate(132.392900 0.000000) rotate(358.466850) scale(193.303018 24.281848)"><ellipse fill="#fff" fill-opacity=".501961" cx="0" cy="0" rx="1" ry="1" /></g><path fill="#210700" fill-opacity=".501961" d="M267 164-5 184-2 88z" /><ellipse fill="#0067c7" fill-opacity=".501961" cx="108" cy="40" rx="255" ry="21" /><g transform="translate(229.162030 70.166083) rotate(376.591545) scale(78.044602 25.346070)"><ellipse fill="#002759" fill-opacity=".501961" cx="0" cy="0" rx="1" ry="1" /></g><g transform="translate(128.587651 107.381432) rotate(307.615161) scale(24.168337 53.358720)"><ellipse fill="#888a75" fill-opacity=".501961" cx="0" cy="0" rx="1" ry="1" /></g><path fill="#282000" fill-opacity=".501961" d="M220 184-14 182-1 85z" /><ellipse fill="#004796" fill-opacity=".501961" cx="32" cy="60" rx="64" ry="31" /><g transform="translate(81.153223 0.000000) rotate(361.845499) scale(136.436437 32.485578)"><ellipse fill="#a9c9e9" fill-opacity=".501961" cx="0" cy="0" rx="1" ry="1" /></g></g></svg>