<svg xmlns="http://www.w3.org/2000/svg" viewBox="0 0 1024 678"><filter id="b"><feGaussianBlur stdDeviation="12" /></filter><path d="M0 0h1024v678H0z" fill="#737572" /><g filter="url(#b)" transform="scale(4.000000) translate(0.5 0.5)"><g transform="translate(250.413333 152.339672) rotate(139.126423) scale(65.987038 126.863221)"><ellipse fill="#000" fill-opacity=".501961" cx="0" cy="0" rx="1" ry="1" /></g><g transform="translate(68.632534 45.804912) rotate(232.012156) scale(82.026989 109.692283)"><ellipse fill="#bdbfbf" fill-opacity=".501961" cx="0" cy="0" rx="1" ry="1" /></g><g transform="translate(227.693799 150.197824) rotate(150.563259) scale(38.875334 89.309464)"><ellipse fill="#000" fill-opacity=".501961" cx="0" cy="0" rx="1" ry="1" /></g><ellipse fill="#232424" fill-opacity=".501961" cx="10" cy="76" rx="26" ry="20" /><g transform="translate(225.669349 15.764277) rotate(173.599966) scale(50.738479 58.275063)"><ellipse fill="#8f98a1" fill-opacity=".501961" cx="0" cy="0" rx="1" ry="1" /></g><path d="M0 0h1024v678H0z" fill="#45505d" /><g transform="translate(135.104936 140.408626) rotate(349.262757) scale(29.258750 12.407147)"><ellipse fill="#d5d2c9" fill-opacity=".501961" cx="0" cy="0" rx="1" ry="1" /></g><path fill="#121411" fill-opacity=".501961" d="M142.017946 126.93845 208.0216 45.982796l-83.943719 66.304476L84.308794 109.785567z" /></g></svg>