<svg xmlns="http://www.w3.org/2000/svg" viewBox="0 0 1024 678"><filter id="b"><feGaussianBlur stdDeviation="12" /></filter><path d="M0 0h1024v678H0z" fill="#374651" /><g filter="url(#b)" transform="scale(4.000000) translate(0.5 0.5)"><g transform="translate(202.188762 43.578174) rotate(36.736116) scale(236.195861 51.545817)"><ellipse fill="#26a1ff" fill-opacity=".501961" cx="0" cy="0" rx="1" ry="1" /></g><g transform="translate(59.350624 101.719459) rotate(199.645526) scale(135.048172 79.091544)"><ellipse fill="#451500" fill-opacity=".501961" cx="0" cy="0" rx="1" ry="1" /></g><ellipse fill="#93a3c0" fill-opacity=".501961" cx="211" cy="95" rx="89" ry="26" /><g transform="translate(2.390208 76.542905) rotate(302.115330) scale(79.171032 55.857747)"><ellipse fill="#100700" fill-opacity=".501961" cx="0" cy="0" rx="1" ry="1" /></g><path fill="#3f1700" fill-opacity=".501961" d="M144 57l33 115 75 12z" /><g transform="translate(196.691010 12.204775) rotate(188.829055) scale(225.199493 27.833997)"><ellipse fill="#0050b4" fill-opacity=".501961" cx="0" cy="0" rx="1" ry="1" /></g><g transform="translate(228.091049 156.832726) rotate(441.574873) scale(18.410298 96.807666)"><ellipse fill="#2d1700" fill-opacity=".501961" cx="0" cy="0" rx="1" ry="1" /></g><g transform="translate(197.055555 86.285237) rotate(238.098863) scale(47.640108 23.511102)"><ellipse fill="#699ee1" fill-opacity=".501961" cx="0" cy="0" rx="1" ry="1" /></g></g></svg>