<svg xmlns="http://www.w3.org/2000/svg" viewBox="0 0 1024 678"><filter id="b"><feGaussianBlur stdDeviation="12" /></filter><path d="M0 0h1024v678H0z" fill="#6a8558" /><g filter="url(#b)" transform="scale(4.000000) translate(0.5 0.5)"><g transform="translate(85.634529 0.000000) rotate(168.880333) scale(255.000000 47.426847)"><ellipse fill="#007aff" fill-opacity=".501961" cx="0" cy="0" rx="1" ry="1" /></g><g transform="translate(155.603878 90.243744) rotate(235.330647) scale(59.836923 75.677966)"><ellipse fill="#c88900" fill-opacity=".501961" cx="0" cy="0" rx="1" ry="1" /></g><ellipse fill="#000" fill-opacity=".501961" cx="167" cy="83" rx="32" ry="32" /><g transform="translate(241.738452 32.781217) rotate(63.744994) scale(74.650372 35.056226)"><ellipse fill="#0084f7" fill-opacity=".501961" cx="0" cy="0" rx="1" ry="1" /></g><g transform="translate(61.794574 103.095166) rotate(276.399871) scale(52.257886 42.755927)"><ellipse fill="#a57400" fill-opacity=".501961" cx="0" cy="0" rx="1" ry="1" /></g><g transform="translate(64.019910 96.414617) rotate(153.176832) scale(25.606479 20.118723)"><ellipse fill="#000" fill-opacity=".501961" cx="0" cy="0" rx="1" ry="1" /></g><g transform="translate(234 127) rotate(141) scale(62 32)"><path d="M0 0h1024v678H0z" fill="#9ed6ff" /></g><path fill="#fff" fill-opacity=".501961" d="M138 110 94 125 83 157z" /></g></svg>