<svg xmlns="http://www.w3.org/2000/svg" viewBox="0 0 1024 678"><filter id="b"><feGaussianBlur stdDeviation="12" /></filter><path d="M0 0h1024v678H0z" fill="#536069" /><g filter="url(#b)" transform="scale(4.000000) translate(0.5 0.5)"><path fill="#f2f4f4" fill-opacity=".501961" d="M34 15 220 64 57 112z" /><g transform="translate(234.068578 108.391894) rotate(190.751055) scale(34.454597 117.369025)"><ellipse fill="#000" fill-opacity=".501961" cx="0" cy="0" rx="1" ry="1" /></g><g transform="translate(46.033097 142.028117) rotate(265.412322) scale(20.205298 47.404846)"><ellipse fill="#000" fill-opacity=".501961" cx="0" cy="0" rx="1" ry="1" /></g><path d="M0 0h1024v678H0z" fill="#000" /><g transform="translate(3.254832 82.952779) rotate(135.638599) scale(30.509401 14.693246)"><ellipse fill="#fff" fill-opacity=".501961" cx="0" cy="0" rx="1" ry="1" /></g><path fill="#fff" fill-opacity=".501961" d="M228.975125 27.79855 205.86561-16 205.565739 23.488558 155.528208 56.497683z" /><ellipse fill="#bceeff" fill-opacity=".501961" cx="123" cy="115" rx="13" ry="26" /><g transform="translate(28 109) rotate(132) scale(35 21)"><path d="M0 0h1024v678H0z" fill="#f1ffff" /></g></g></svg>