<svg xmlns="http://www.w3.org/2000/svg" viewBox="0 0 683 1024"><filter id="b"><feGaussianBlur stdDeviation="12" /></filter><path d="M0 0h683v1024H0z" fill="#544c4b" /><g filter="url(#b)" transform="scale(4.000000) translate(0.5 0.5)"><g transform="translate(70.981038 79.155003) rotate(345.289170) scale(30.883248 69.999488)"><ellipse fill="#bc764e" fill-opacity=".501961" cx="0" cy="0" rx="1" ry="1" /></g><g transform="translate(129.826936 44.226177) rotate(172.332383) scale(19.038221 79.846833)"><ellipse fill="#151100" fill-opacity=".501961" cx="0" cy="0" rx="1" ry="1" /></g><path fill="#fff7b5" fill-opacity=".501961" d="M84.28387 106.534576 90.997995 122.398272 58.092577 111.383363 56.031097 87.852467z" /><ellipse fill="#677f8a" fill-opacity=".501961" cx="170" cy="187" rx="23" ry="217" /><path fill="#191f14" fill-opacity=".501961" d="M8 124 46-16-16 1z" /><g transform="translate(25 215) rotate(160) scale(87 194)"><path d="M0 0h683v1024H0z" fill="#324b6d" /></g><ellipse fill="#3e251b" fill-opacity=".501961" cx="88" cy="171" rx="27" ry="27" /><path fill="#ffce68" fill-opacity=".501961" d="M120 99 97 121l25-10z" /></g></svg>