<svg xmlns="http://www.w3.org/2000/svg" viewBox="0 0 1024 683"><filter id="b"><feGaussianBlur stdDeviation="12" /></filter><path d="M0 0h1024v683H0z" fill="#4f5552" /><g filter="url(#b)" transform="scale(4.000000) translate(0.5 0.5)"><g transform="translate(162.595186 86.596248) rotate(182.270800) scale(12.877773 42.652944)"><ellipse fill="#d5a497" fill-opacity=".501961" cx="0" cy="0" rx="1" ry="1" /></g><g transform="translate(149.296872 18.540783) rotate(1.380254) scale(255.000000 27.487206)"><ellipse fill="#48390c" fill-opacity=".501961" cx="0" cy="0" rx="1" ry="1" /></g><path fill="#000" fill-opacity=".501961" d="M191.002681 62.33265 190.463712 95.650237 150.477059 8.78587 176.986015 11.270533z" /><ellipse fill="#5a6b75" fill-opacity=".501961" cx="102" cy="95" rx="57" ry="57" /><path fill="#ffc2ac" fill-opacity=".501961" d="M184.2933 75.302629 157.983284 60.78698 155.108486 81.162468 178.263381 89.714451z" /><path fill="#000" fill-opacity=".501961" d="M179 115 165 92l25-8z" /><g transform="translate(130.170764 154.045550) rotate(185.275254) scale(220.682826 29.724856)"><ellipse fill="#3c596a" fill-opacity=".501961" cx="0" cy="0" rx="1" ry="1" /></g><g transform="translate(61.905951 89.989844) rotate(186.569977) scale(81.642431 2.935627)"><ellipse fill="#c37a55" fill-opacity=".501961" cx="0" cy="0" rx="1" ry="1" /></g></g></svg>