<svg xmlns="http://www.w3.org/2000/svg" viewBox="0 0 1024 684"><filter id="b"><feGaussianBlur stdDeviation="12" /></filter><path d="M0 0h1024v684H0z" fill="#395460" /><g filter="url(#b)" transform="scale(4.000000) translate(0.5 0.5)"><g transform="translate(96.257077 19.892897) rotate(-8.441210) scale(255.000000 32.747931)"><ellipse fill="#2abdff" fill-opacity=".501961" cx="0" cy="0" rx="1" ry="1" /></g><g transform="translate(196.139826 126.989683) rotate(129.681002) scale(62.009962 26.282907)"><ellipse fill="#bfaa9a" fill-opacity=".501961" cx="0" cy="0" rx="1" ry="1" /></g><g transform="translate(46.179345 137.665803) rotate(237.859531) scale(59.761737 145.481503)"><ellipse fill="#130000" fill-opacity=".501961" cx="0" cy="0" rx="1" ry="1" /></g><ellipse fill="#190700" fill-opacity=".501961" cx="209" cy="58" rx="72" ry="19" /><g transform="translate(247.215429 147.977079) rotate(15.554239) scale(21.704666 186.802871)"><ellipse fill="#422100" fill-opacity=".501961" cx="0" cy="0" rx="1" ry="1" /></g><g transform="translate(36.325918 43.263637) rotate(271.214253) scale(20.826655 62.190092)"><ellipse fill="#8cb2d5" fill-opacity=".501961" cx="0" cy="0" rx="1" ry="1" /></g><g transform="translate(144.433052 170.000000) rotate(108.184248) scale(16.888701 22.723728)"><ellipse fill="#f1dfd1" fill-opacity=".501961" cx="0" cy="0" rx="1" ry="1" /></g><g transform="translate(191.154174 8.203901) rotate(99.976405) scale(27.449078 106.860393)"><ellipse fill="#007ecb" fill-opacity=".501961" cx="0" cy="0" rx="1" ry="1" /></g></g></svg>