<svg xmlns="http://www.w3.org/2000/svg" viewBox="0 0 1024 678"><filter id="b"><feGaussianBlur stdDeviation="12" /></filter><path d="M0 0h1024v678H0z" fill="#6e8598" /><g filter="url(#b)" transform="scale(4.000000) translate(0.5 0.5)"><ellipse fill="#051920" fill-opacity=".501961" cx="44" cy="154" rx="216" ry="55" /><g transform="translate(195.092799 56.347902) rotate(179.805700) scale(246.850403 35.763136)"><ellipse fill="#e7ecf1" fill-opacity=".501961" cx="0" cy="0" rx="1" ry="1" /></g><g transform="translate(10.467347 111.657451) rotate(179.817335) scale(38.896751 22.964631)"><ellipse fill="#000518" fill-opacity=".501961" cx="0" cy="0" rx="1" ry="1" /></g><g transform="translate(149.966436 5.449583) rotate(175.215651) scale(78.399046 41.977225)"><ellipse fill="#5985bf" fill-opacity=".501961" cx="0" cy="0" rx="1" ry="1" /></g><g transform="translate(209.660320 70.383106) rotate(85.096418) scale(13.455890 90.473874)"><ellipse fill="#fff9dd" fill-opacity=".501961" cx="0" cy="0" rx="1" ry="1" /></g><ellipse fill="#2568ac" fill-opacity=".501961" cx="167" cy="102" rx="139" ry="11" /><path fill="#deddc9" fill-opacity=".501961" d="M200.602213 120.620223 227.227134 138.14877 271 119.725207 263.238019 117.730874z" /><g transform="translate(217.203504 111.602317) rotate(85.547067) scale(6.245586 46.228517)"><ellipse fill="#002033" fill-opacity=".501961" cx="0" cy="0" rx="1" ry="1" /></g></g></svg>