<svg xmlns="http://www.w3.org/2000/svg" viewBox="0 0 684 1024"><filter id="b"><feGaussianBlur stdDeviation="12" /></filter><path d="M0 0h684v1024H0z" fill="#595b3d" /><g filter="url(#b)" transform="scale(4.000000) translate(0.5 0.5)"><g transform="translate(74.484123 26.573220) rotate(0.930331) scale(170.000000 42.149354)"><ellipse fill="#d4b11e" fill-opacity=".501961" cx="0" cy="0" rx="1" ry="1" /></g><ellipse fill="#3f8bf4" fill-opacity=".501961" cx="125" cy="238" rx="170" ry="28" /><g transform="translate(83.784360 170.463632) rotate(85.133667) scale(45.588793 96.275220)"><ellipse fill="#040a0e" fill-opacity=".501961" cx="0" cy="0" rx="1" ry="1" /></g><g transform="translate(93.654250 104.012933) rotate(98.483236) scale(38.614988 96.903422)"><ellipse fill="#58440b" fill-opacity=".501961" cx="0" cy="0" rx="1" ry="1" /></g><path fill="#428ae2" fill-opacity=".501961" d="M123.126985 209.030294 181.150697 182.497008 183.191412 213.136012 139.930408 210.674035z" /><g transform="translate(124.920992 28.764542) rotate(338.123634) scale(62.186375 14.892371)"><ellipse fill="#d1a60b" fill-opacity=".501961" cx="0" cy="0" rx="1" ry="1" /></g><path fill="#5a80a8" fill-opacity=".501961" d="M19 271-16 199l133 29z" /><g transform="translate(92.508835 0.000000) rotate(-20.031062) scale(29.781615 17.387620)"><ellipse fill="#405f3b" fill-opacity=".501961" cx="0" cy="0" rx="1" ry="1" /></g></g></svg>