<svg xmlns="http://www.w3.org/2000/svg" viewBox="0 0 1024 683"><filter id="b"><feGaussianBlur stdDeviation="12" /></filter><path d="M0 0h1024v683H0z" fill="#3c452c" /><g filter="url(#b)" transform="scale(4.000000) translate(0.5 0.5)"><g transform="translate(182.591169 125.354771) rotate(9.266915) scale(20.235511 35.560557)"><ellipse fill="#c9ceb7" fill-opacity=".501961" cx="0" cy="0" rx="1" ry="1" /></g><g transform="translate(88.270961 87.531470) rotate(253.475215) scale(30.637653 23.975195)"><ellipse fill="#b6adb0" fill-opacity=".501961" cx="0" cy="0" rx="1" ry="1" /></g><ellipse fill="#040400" fill-opacity=".501961" cx="103" cy="5" rx="154" ry="42" /><path fill="#f0f2ef" fill-opacity=".501961" d="M130.823544 52.185502 153.769513 57.028929 137.362586 66.114475 122.485861 57.580916z" /><path fill="#cbd0cf" fill-opacity=".501961" d="M75 118 70 88l50 9z" /><path fill="#f7f3e8" fill-opacity=".501961" d="M198.730441 98.356218 167.981967 143.891655 191.315229 138.028631 174.457914 91.755926z" /><path fill="#ebf0ff" fill-opacity=".501961" d="M26.088559 57.793642 37.841059 60.361137 36.846171 41.268065 25.428686 43.956863z" /><path d="M0 0h1024v683H0z" fill="#364224" /></g></svg>