<svg xmlns="http://www.w3.org/2000/svg" viewBox="0 0 1024 678"><filter id="b"><feGaussianBlur stdDeviation="12" /></filter><path d="M0 0h1024v678H0z" fill="#5d707e" /><g filter="url(#b)" transform="scale(4.000000) translate(0.5 0.5)"><g transform="translate(95.955661 43.931502) rotate(271.065161) scale(20.848001 163.738315)"><ellipse fill="#fff8e1" fill-opacity=".501961" cx="0" cy="0" rx="1" ry="1" /></g><g transform="translate(71.204455 133.636955) rotate(262.028310) scale(33.369414 253.034569)"><ellipse fill="#000c26" fill-opacity=".501961" cx="0" cy="0" rx="1" ry="1" /></g><g transform="translate(222.537102 163.457873) rotate(261.625929) scale(21.122912 125.653384)"><ellipse fill="#9ac7fc" fill-opacity=".501961" cx="0" cy="0" rx="1" ry="1" /></g><ellipse fill="#d1c0b4" fill-opacity=".501961" cx="166" cy="28" rx="34" ry="74" /><g transform="translate(35.804517 143.482962) rotate(167.680790) scale(84.530544 18.012064)"><ellipse fill="#000410" fill-opacity=".501961" cx="0" cy="0" rx="1" ry="1" /></g><ellipse fill="#172127" fill-opacity=".501961" cx="222" cy="88" rx="14" ry="41" /><g transform="translate(178.211925 3.914355) rotate(173.575867) scale(144.493804 22.398482)"><ellipse fill="#638eb9" fill-opacity=".501961" cx="0" cy="0" rx="1" ry="1" /></g><ellipse fill="#595d5c" fill-opacity=".501961" cx="107" cy="84" rx="127" ry="22" /></g></svg>