<svg xmlns="http://www.w3.org/2000/svg" viewBox="0 0 1024 678"><filter id="b"><feGaussianBlur stdDeviation="12" /></filter><path d="M0 0h1024v678H0z" fill="#44463b" /><g filter="url(#b)" transform="scale(4.000000) translate(0.5 0.5)"><g transform="translate(120.919657 79.135218) rotate(365.436512) scale(80.943005 36.178223)"><ellipse fill="#ccae71" fill-opacity=".501961" cx="0" cy="0" rx="1" ry="1" /></g><g transform="translate(65.137380 168.000000) rotate(-184.505617) scale(255.000000 43.387587)"><ellipse fill="#000100" fill-opacity=".501961" cx="0" cy="0" rx="1" ry="1" /></g><g transform="translate(216.116996 43.281042) rotate(66.393481) scale(18.829615 51.585954)"><ellipse fill="#a9a893" fill-opacity=".501961" cx="0" cy="0" rx="1" ry="1" /></g><ellipse fill="#001a38" fill-opacity=".501961" cx="132" cy="22" rx="71" ry="31" /><ellipse fill="#fbf6cc" fill-opacity=".501961" cx="59" cy="63" rx="52" ry="6" /><g transform="translate(141.979536 79.415302) rotate(-9.559905) scale(39.763990 8.149722)"><ellipse fill="#fff7a3" fill-opacity=".501961" cx="0" cy="0" rx="1" ry="1" /></g><g transform="translate(44.467030 93.712421) rotate(352.590312) scale(51.511492 26.472282)"><ellipse fill="#232b2e" fill-opacity=".501961" cx="0" cy="0" rx="1" ry="1" /></g><ellipse fill="#e7b84c" fill-opacity=".501961" cx="131" cy="146" rx="31" ry="5" /></g></svg>