<svg xmlns="http://www.w3.org/2000/svg" viewBox="0 0 684 1024"><filter id="b"><feGaussianBlur stdDeviation="12" /></filter><path d="M0 0h684v1024H0z" fill="#655b59" /><g filter="url(#b)" transform="scale(4.000000) translate(0.5 0.5)"><g transform="translate(145.539642 27.918766) rotate(320.428258) scale(35.872287 75.331373)"><ellipse fill="#d2c3be" fill-opacity=".501961" cx="0" cy="0" rx="1" ry="1" /></g><g transform="translate(0.000000 233.419378) rotate(-32.959442) scale(20.942783 56.319870)"><ellipse fill="#fffff1" fill-opacity=".501961" cx="0" cy="0" rx="1" ry="1" /></g><g transform="translate(60.909684 128.997740) rotate(354.518863) scale(45.444554 73.409811)"><ellipse fill="#2d1f19" fill-opacity=".501961" cx="0" cy="0" rx="1" ry="1" /></g><g transform="translate(163 158) rotate(221) scale(48 46)"><path d="M0 0h684v1024H0z" fill="#000" /></g><ellipse fill="#f9e4d2" fill-opacity=".501961" cx="49" cy="0" rx="19" ry="35" /><ellipse fill="#212424" fill-opacity=".501961" cx="61" cy="233" rx="34" ry="29" /><path fill="#8c7d79" fill-opacity=".501961" d="M186 1e2l-85 78 8-164z" /><path d="M0 0h684v1024H0z" fill="#d39280" /></g></svg>