<svg xmlns="http://www.w3.org/2000/svg" viewBox="0 0 1024 678"><filter id="b"><feGaussianBlur stdDeviation="12" /></filter><path d="M0 0h1024v678H0z" fill="#43403a" /><g filter="url(#b)" transform="scale(4.000000) translate(0.5 0.5)"><g transform="translate(141.953548 137.217043) rotate(99.925299) scale(37.270888 75.555665)"><ellipse fill="#a19c94" fill-opacity=".501961" cx="0" cy="0" rx="1" ry="1" /></g><ellipse fill="#140d0a" fill-opacity=".501961" cx="6" cy="82" rx="83" ry="61" /><g transform="translate(46.908344 38.514983) rotate(110.690014) scale(39.246785 10.096805)"><ellipse fill="#cca89b" fill-opacity=".501961" cx="0" cy="0" rx="1" ry="1" /></g><ellipse fill="#000200" fill-opacity=".501961" cx="231" cy="80" rx="57" ry="35" /><path fill="#d9a5a3" fill-opacity=".501961" d="M183.926962 82.003423 152.165477 116.093435 146.750582 94.867585 159.049109 75.765009z" /><g transform="translate(98 85) rotate(109) scale(51 7)"><path d="M0 0h1024v678H0z" fill="#f3c8c7" /></g><g transform="translate(83.760779 141.339783) rotate(172.129399) scale(18.140105 13.725280)"><ellipse fill="#f2b6ae" fill-opacity=".501961" cx="0" cy="0" rx="1" ry="1" /></g><path d="M0 0h1024v678H0z" fill="#919385" /></g></svg>