<svg xmlns="http://www.w3.org/2000/svg" viewBox="0 0 1024 678"><filter id="b"><feGaussianBlur stdDeviation="12" /></filter><path d="M0 0h1024v678H0z" fill="#283e54" /><g filter="url(#b)" transform="scale(4.000000) translate(0.5 0.5)"><g transform="translate(170.159251 59.075754) rotate(267.799780) scale(16.359550 83.210545)"><ellipse fill="#a2b6bd" fill-opacity=".501961" cx="0" cy="0" rx="1" ry="1" /></g><ellipse fill="#001337" fill-opacity=".501961" cx="35" cy="25" rx="73" ry="78" /><g transform="translate(175.010084 105.308632) rotate(164.280629) scale(35.666840 13.499364)"><ellipse fill="#a7775e" fill-opacity=".501961" cx="0" cy="0" rx="1" ry="1" /></g><g transform="translate(167.926709 18.360605) rotate(-12.712735) scale(149.833654 27.959105)"><ellipse fill="#003875" fill-opacity=".501961" cx="0" cy="0" rx="1" ry="1" /></g><ellipse fill="#668690" fill-opacity=".501961" cx="86" cy="64" rx="51" ry="10" /><path fill="#eac98d" fill-opacity=".501961" d="M178.319609 75.869443 207.503521 73.691169 183.423031 58.543747 123.266013 70.07368z" /><ellipse fill="#080000" fill-opacity=".501961" cx="16" cy="72" rx="19" ry="30" /><g transform="translate(249.082364 79.549576) rotate(272.157150) scale(7.696801 58.603062)"><ellipse fill="#000" fill-opacity=".501961" cx="0" cy="0" rx="1" ry="1" /></g></g></svg>