<svg xmlns="http://www.w3.org/2000/svg" viewBox="0 0 1024 683"><filter id="b"><feGaussianBlur stdDeviation="12" /></filter><path d="M0 0h1024v683H0z" fill="#4b544c" /><g filter="url(#b)" transform="scale(4.000000) translate(0.5 0.5)"><ellipse fill="#aaaab1" fill-opacity=".501961" cx="85" cy="153" rx="105" ry="105" /><g transform="translate(112.616388 16.276979) rotate(5.239147) scale(255.000000 35.757883)"><ellipse fill="#000" fill-opacity=".501961" cx="0" cy="0" rx="1" ry="1" /></g><g transform="translate(233.576617 96.677650) rotate(319.355874) scale(46.629672 91.599210)"><ellipse fill="#000600" fill-opacity=".501961" cx="0" cy="0" rx="1" ry="1" /></g><g transform="translate(96.931827 85.610709) rotate(288.048965) scale(24.996674 35.737668)"><ellipse fill="#313d41" fill-opacity=".501961" cx="0" cy="0" rx="1" ry="1" /></g><g transform="translate(185.680920 166.555480) rotate(99.653935) scale(21.887165 51.369666)"><ellipse fill="#b5bcbc" fill-opacity=".501961" cx="0" cy="0" rx="1" ry="1" /></g><g transform="translate(133.862407 70.375041) rotate(36.121958) scale(27.841972 16.346017)"><ellipse fill="#c4c2c2" fill-opacity=".501961" cx="0" cy="0" rx="1" ry="1" /></g><g transform="translate(19.569453 90.982165) rotate(176.860411) scale(22.050895 48.252135)"><ellipse fill="#a0aaa7" fill-opacity=".501961" cx="0" cy="0" rx="1" ry="1" /></g><ellipse fill="#001800" fill-opacity=".501961" cx="55" cy="20" rx="38" ry="38" /></g></svg>