<svg xmlns="http://www.w3.org/2000/svg" viewBox="0 0 1024 684"><filter id="b"><feGaussianBlur stdDeviation="12" /></filter><path d="M0 0h1024v684H0z" fill="#757f70" /><g filter="url(#b)" transform="scale(4.000000) translate(0.5 0.5)"><g transform="translate(183.730877 26.508547) rotate(94.248828) scale(57.555856 113.583378)"><ellipse fill="#d8ffff" fill-opacity=".501961" cx="0" cy="0" rx="1" ry="1" /></g><g transform="translate(177.696206 131.378157) rotate(16.929872) scale(97.258689 51.369617)"><ellipse fill="#021700" fill-opacity=".501961" cx="0" cy="0" rx="1" ry="1" /></g><g transform="translate(65 38) rotate(390) scale(48 31)"><path d="M0 0h1024v684H0z" fill="#1c0000" /></g><ellipse fill="#c4deff" fill-opacity=".501961" cx="180" cy="52" rx="96" ry="30" /><path d="M0 0h1024v684H0z" fill="#233200" /><g transform="translate(200.619638 10.618673) rotate(267.189498) scale(29.179500 90.021703)"><ellipse fill="#63b5fe" fill-opacity=".501961" cx="0" cy="0" rx="1" ry="1" /></g><g transform="translate(56.997521 145.121682) rotate(273.287646) scale(56.458486 39.997722)"><ellipse fill="#c89671" fill-opacity=".501961" cx="0" cy="0" rx="1" ry="1" /></g><path d="M0 0h1024v684H0z" fill="#252f00" /></g></svg>