<svg xmlns="http://www.w3.org/2000/svg" viewBox="0 0 1024 682"><filter id="b"><feGaussianBlur stdDeviation="12" /></filter><path d="M0 0h1024v682H0z" fill="#3f4635" /><g filter="url(#b)" transform="scale(4.000000) translate(0.5 0.5)"><g transform="translate(138.757490 82.245783) rotate(26.390289) scale(54.446395 25.062338)"><ellipse fill="#fffff1" fill-opacity=".501961" cx="0" cy="0" rx="1" ry="1" /></g><g transform="translate(55.253116 139.092742) rotate(116.456655) scale(71.242330 26.340777)"><ellipse fill="#ff7050" fill-opacity=".501961" cx="0" cy="0" rx="1" ry="1" /></g><ellipse fill="#001e15" fill-opacity=".501961" cx="177" cy="144" rx="114" ry="33" /><ellipse fill="#ffe9d0" fill-opacity=".501961" cx="155" cy="89" rx="28" ry="26" /><path fill="#00331d" fill-opacity=".501961" d="M271 129V1L32-16z" /><g transform="translate(11.304332 66.288681) rotate(275.555167) scale(89.486487 31.328036)"><ellipse fill="#001a00" fill-opacity=".501961" cx="0" cy="0" rx="1" ry="1" /></g><g transform="translate(115.707374 71.590905) rotate(238.104757) scale(13.797116 62.629711)"><ellipse fill="#c18e81" fill-opacity=".501961" cx="0" cy="0" rx="1" ry="1" /></g><path fill="#e45a38" fill-opacity=".501961" d="M14 185l80-27L43 80z" /></g></svg>