<svg xmlns="http://www.w3.org/2000/svg" viewBox="0 0 1024 683"><filter id="b"><feGaussianBlur stdDeviation="12" /></filter><path d="M0 0h1024v683H0z" fill="#5d5f31" /><g filter="url(#b)" transform="scale(4.000000) translate(0.5 0.5)"><g transform="translate(67.753733 12.739904) rotate(264.542439) scale(38.169307 109.971625)"><ellipse fill="#fff" fill-opacity=".501961" cx="0" cy="0" rx="1" ry="1" /></g><g transform="translate(243.696269 88.551655) rotate(395.600552) scale(73.428158 221.801129)"><ellipse fill="#172100" fill-opacity=".501961" cx="0" cy="0" rx="1" ry="1" /></g><g transform="translate(25 129) rotate(340) scale(72 110)"><path d="M0 0h1024v683H0z" fill="#022d00" /></g><g transform="translate(93.222342 135.190778) rotate(109.082438) scale(16.944577 42.402367)"><ellipse fill="#a09fce" fill-opacity=".501961" cx="0" cy="0" rx="1" ry="1" /></g><g transform="translate(53.219396 20.758201) rotate(7.712419) scale(77.395515 20.474771)"><ellipse fill="#ffe4ab" fill-opacity=".501961" cx="0" cy="0" rx="1" ry="1" /></g><g transform="translate(124.139590 74.590108) rotate(348.482661) scale(59.819617 35.234578)"><ellipse fill="#735a00" fill-opacity=".501961" cx="0" cy="0" rx="1" ry="1" /></g><ellipse fill="#001200" fill-opacity=".501961" cx="74" cy="104" rx="49" ry="11" /><ellipse fill="#776200" fill-opacity=".501961" cx="244" cy="129" rx="94" ry="26" /></g></svg>