<svg xmlns="http://www.w3.org/2000/svg" viewBox="0 0 1024 684"><filter id="b"><feGaussianBlur stdDeviation="12" /></filter><path d="M0 0h1024v684H0z" fill="#6c4a41" /><g filter="url(#b)" transform="scale(4.000000) translate(0.5 0.5)"><g transform="translate(44.737340 20.972109) rotate(-8.154233) scale(115.695213 38.095143)"><ellipse fill="#e0f4ff" fill-opacity=".501961" cx="0" cy="0" rx="1" ry="1" /></g><g transform="translate(135.906571 126.455122) rotate(260.555879) scale(62.010114 150.535921)"><ellipse fill="#550d00" fill-opacity=".501961" cx="0" cy="0" rx="1" ry="1" /></g><ellipse fill="#d59500" fill-opacity=".501961" cx="167" cy="114" rx="36" ry="31" /><g transform="translate(40.190186 33.725435) rotate(295.985815) scale(72.325196 19.155527)"><ellipse fill="#c2d5e9" fill-opacity=".501961" cx="0" cy="0" rx="1" ry="1" /></g><g transform="translate(94.791562 58.291002) rotate(252.542258) scale(33.210410 23.668612)"><ellipse fill="#5a000b" fill-opacity=".501961" cx="0" cy="0" rx="1" ry="1" /></g><path fill="#e2ffff" fill-opacity=".501961" d="M145 72 127 17l-8 40z" /><g transform="translate(75.156517 112.126568) rotate(-3.423277) scale(47.576573 39.049072)"><ellipse fill="#9e000e" fill-opacity=".501961" cx="0" cy="0" rx="1" ry="1" /></g><g transform="translate(240.725858 124.702160) rotate(130.942561) scale(92.695520 22.941999)"><ellipse fill="#00272b" fill-opacity=".501961" cx="0" cy="0" rx="1" ry="1" /></g></g></svg>