<svg xmlns="http://www.w3.org/2000/svg" viewBox="0 0 1024 1024"><filter id="b"><feGaussianBlur stdDeviation="12" /></filter><path d="M0 0h1024v1024H0z" fill="#535353" /><g filter="url(#b)" transform="scale(4.000000) translate(0.5 0.5)"><g transform="translate(171.242860 203.888447) rotate(185.025269) scale(111.340076 34.905106)"><ellipse fill="#f9f9f9" fill-opacity=".501961" cx="0" cy="0" rx="1" ry="1" /></g><g transform="translate(13.573364 144.226252) rotate(292.343901) scale(247.146211 74.220969)"><ellipse fill="#191919" fill-opacity=".501961" cx="0" cy="0" rx="1" ry="1" /></g><g transform="translate(139 69) rotate(167) scale(64 61)"><path d="M0 0h1024v1024H0z" fill="#b6b6b6" /></g><g transform="translate(226.251905 94.174670) rotate(295.700327) scale(83.739403 39.889266)"><ellipse fill="#181818" fill-opacity=".501961" cx="0" cy="0" rx="1" ry="1" /></g><g transform="translate(107.530108 198.232710) rotate(112.198591) scale(12.023473 50.366811)"><ellipse fill="#fff" fill-opacity=".501961" cx="0" cy="0" rx="1" ry="1" /></g><ellipse fill="#000" fill-opacity=".501961" cx="102" cy="128" rx="22" ry="38" /><path fill="#fdfdfd" fill-opacity=".501961" d="M182 256l31 15-33-85z" /><g transform="translate(123 78) rotate(164) scale(32 18)"><path d="M0 0h1024v1024H0z" fill="#020202" /></g></g></svg>