<svg xmlns="http://www.w3.org/2000/svg" viewBox="0 0 681 1024"><filter id="b"><feGaussianBlur stdDeviation="12" /></filter><path d="M0 0h681v1024H0z" fill="#676e64" /><g filter="url(#b)" transform="scale(4.000000) translate(0.5 0.5)"><g transform="translate(148.160798 69.990979) rotate(209.087912) scale(43.052957 118.450743)"><ellipse fill="#1f2d20" fill-opacity=".501961" cx="0" cy="0" rx="1" ry="1" /></g><g transform="translate(148.906362 211.973652) rotate(104.894715) scale(127.925396 12.374881)"><ellipse fill="#e9ebea" fill-opacity=".501961" cx="0" cy="0" rx="1" ry="1" /></g><ellipse fill="#8f8f8b" fill-opacity=".501961" cx="33" cy="57" rx="51" ry="169" /><g transform="translate(121.601613 213.390105) rotate(378.503532) scale(9.248417 134.835026)"><ellipse fill="#0b1d09" fill-opacity=".501961" cx="0" cy="0" rx="1" ry="1" /></g><path fill="#838881" fill-opacity=".501961" d="M125 106l-59 3 58-67z" /><path d="M0 0h681v1024H0z" fill="#101d17" /><path fill="#fff" fill-opacity=".501961" d="M185 123.171591V149.850388L150.149426 174.064721 155.753833 136.176164z" /><path fill="#d4dad6" fill-opacity=".501961" d="M128.963076 212.696354 151.005183 197.756179 121.324471 259.412136 127.677678 211.812816z" /></g></svg>