<svg xmlns="http://www.w3.org/2000/svg" viewBox="0 0 1024 684"><filter id="b"><feGaussianBlur stdDeviation="12" /></filter><path d="M0 0h1024v684H0z" fill="#757575" /><g filter="url(#b)" transform="scale(4.000000) translate(0.5 0.5)"><ellipse fill="#fff" fill-opacity=".501961" cx="123" cy="15" rx="89" ry="89" /><ellipse fill="#000" fill-opacity=".501961" cx="0" cy="112" rx="74" ry="74" /><g transform="translate(250.020510 83.754182) rotate(331.070661) scale(98.210152 47.291121)"><ellipse fill="#000" fill-opacity=".501961" cx="0" cy="0" rx="1" ry="1" /></g><g transform="translate(25.152949 103.524714) rotate(290.364464) scale(32.964249 80.874790)"><ellipse fill="#000" fill-opacity=".501961" cx="0" cy="0" rx="1" ry="1" /></g><g transform="translate(255.000000 103.795847) rotate(80.932999) scale(36.045216 117.733323)"><ellipse fill="#000" fill-opacity=".501961" cx="0" cy="0" rx="1" ry="1" /></g><g transform="translate(129.591742 56.351943) rotate(200.522574) scale(47.152825 67.556918)"><ellipse fill="#f2f2f2" fill-opacity=".501961" cx="0" cy="0" rx="1" ry="1" /></g><path fill="#000" fill-opacity=".501961" d="M-10 6-16 152l126-20z" /><ellipse fill="#b0b0b0" fill-opacity=".501961" cx="126" cy="155" rx="101" ry="19" /></g></svg>