<svg xmlns="http://www.w3.org/2000/svg" viewBox="0 0 1024 684"><filter id="b"><feGaussianBlur stdDeviation="12" /></filter><path d="M0 0h1024v684H0z" fill="#83868f" /><g filter="url(#b)" transform="scale(4.000000) translate(0.5 0.5)"><g transform="translate(102.046964 57.305268) rotate(268.173181) scale(32.375785 102.549659)"><ellipse fill="#fff" fill-opacity=".501961" cx="0" cy="0" rx="1" ry="1" /></g><g transform="translate(125.599685 109.301548) rotate(265.585448) scale(21.705418 184.228012)"><ellipse fill="#1b0500" fill-opacity=".501961" cx="0" cy="0" rx="1" ry="1" /></g><ellipse fill="#d9faff" fill-opacity=".501961" cx="96" cy="42" rx="48" ry="48" /><g transform="translate(11 153) rotate(4) scale(38 37)"><path d="M0 0h1024v684H0z" fill="#090000" /></g><path fill="#f5d8bc" fill-opacity=".501961" d="M111 154l86-4-65-47z" /><ellipse fill="#59300e" fill-opacity=".501961" cx="194" cy="169" rx="154" ry="11" /><g transform="translate(185.259393 14.581389) rotate(288.753526) scale(31.804225 102.048486)"><ellipse fill="#4772bc" fill-opacity=".501961" cx="0" cy="0" rx="1" ry="1" /></g><path fill="#feffff" fill-opacity=".501961" d="M173 58l-43 50-9-84z" /></g></svg>