<svg xmlns="http://www.w3.org/2000/svg" viewBox="0 0 1024 684"><filter id="b"><feGaussianBlur stdDeviation="12" /></filter><path d="M0 0h1024v684H0z" fill="#666" /><g filter="url(#b)" transform="scale(4.000000) translate(0.5 0.5)"><path fill="#fff" fill-opacity=".501961" d="M205-16l29 91L-16 65z" /><g transform="translate(223.203159 122.017387) rotate(366.076105) scale(243.837861 40.233082)"><ellipse fill="#020202" fill-opacity=".501961" cx="0" cy="0" rx="1" ry="1" /></g><path d="M0 0h1024v684H0z" fill="#fff" /><g transform="translate(217.595422 159.183966) rotate(188.355168) scale(42.906834 13.407444)"><ellipse fill="#000" fill-opacity=".501961" cx="0" cy="0" rx="1" ry="1" /></g><path fill="#838383" fill-opacity=".501961" d="M190 102 55 113l131 24z" /><g transform="translate(131.220344 168.985208) rotate(187.875945) scale(70.489521 20.580446)"><ellipse fill="#a9a9a9" fill-opacity=".501961" cx="0" cy="0" rx="1" ry="1" /></g><g transform="translate(32.710121 144.604031) rotate(83.273833) scale(11.850092 125.513432)"><ellipse fill="#171717" fill-opacity=".501961" cx="0" cy="0" rx="1" ry="1" /></g><g transform="translate(77.776800 53.138072) rotate(98.241800) scale(23.098737 75.287578)"><ellipse fill="#c5c5c5" fill-opacity=".501961" cx="0" cy="0" rx="1" ry="1" /></g></g></svg>