<svg xmlns="http://www.w3.org/2000/svg" viewBox="0 0 1024 684"><filter id="b"><feGaussianBlur stdDeviation="12" /></filter><path d="M0 0h1024v684H0z" fill="#79808d" /><g filter="url(#b)" transform="scale(4.000000) translate(0.5 0.5)"><g transform="translate(39.323786 117.807567) rotate(-13.174874) scale(39.821964 151.560457)"><ellipse fill="#fff" fill-opacity=".501961" cx="0" cy="0" rx="1" ry="1" /></g><ellipse fill="#00003b" fill-opacity=".501961" cx="148" cy="142" rx="55" ry="55" /><path fill="#070000" fill-opacity=".501961" d="M80-10l41 69 72-74z" /><g transform="translate(214.557627 4.120524) rotate(332.574503) scale(43.279650 83.940724)"><ellipse fill="#302519" fill-opacity=".501961" cx="0" cy="0" rx="1" ry="1" /></g><g transform="translate(81.156896 47.483135) rotate(158.490123) scale(14.200455 42.933744)"><ellipse fill="#f4f0f1" fill-opacity=".501961" cx="0" cy="0" rx="1" ry="1" /></g><g transform="translate(166.672490 52.508470) rotate(196.035834) scale(31.582280 16.081472)"><ellipse fill="#eefbff" fill-opacity=".501961" cx="0" cy="0" rx="1" ry="1" /></g><g transform="translate(89 107) rotate(139) scale(26 41)"><path d="M0 0h1024v684H0z" fill="#00002d" /></g><g transform="translate(43.143430 109.604431) rotate(262.998797) scale(105.490861 25.623292)"><ellipse fill="#e4f4ff" fill-opacity=".501961" cx="0" cy="0" rx="1" ry="1" /></g></g></svg>