<svg xmlns="http://www.w3.org/2000/svg" viewBox="0 0 1024 683"><filter id="b"><feGaussianBlur stdDeviation="12" /></filter><path d="M0 0h1024v683H0z" fill="#3c452c" /><g filter="url(#b)" transform="scale(4.000000) translate(0.5 0.5)"><g transform="translate(184.261044 127.421952) rotate(187.947512) scale(16.592940 35.919542)"><ellipse fill="#dcdecb" fill-opacity=".501961" cx="0" cy="0" rx="1" ry="1" /></g><g transform="translate(88.833336 93.374704) rotate(151.527521) scale(21.658344 38.330688)"><ellipse fill="#aca7a5" fill-opacity=".501961" cx="0" cy="0" rx="1" ry="1" /></g><g transform="translate(73.318037 15.879475) rotate(97.753185) scale(36.147655 78.637307)"><ellipse fill="#000" fill-opacity=".501961" cx="0" cy="0" rx="1" ry="1" /></g><g transform="translate(138.438735 60.524533) rotate(13.418840) scale(10.739828 6.728102)"><ellipse fill="#f8f9f9" fill-opacity=".501961" cx="0" cy="0" rx="1" ry="1" /></g><ellipse fill="#080500" fill-opacity=".501961" cx="184" cy="4" rx="242" ry="21" /><path fill="#fff" fill-opacity=".501961" d="M75 103 73 89l44 10z" /><path d="M0 0h1024v683H0z" fill="#e8ebfc" /><path d="M0 0h1024v683H0z" fill="#2d3a1b" /></g></svg>