<svg xmlns="http://www.w3.org/2000/svg" viewBox="0 0 1024 678"><filter id="b"><feGaussianBlur stdDeviation="12" /></filter><path d="M0 0h1024v678H0z" fill="#374651" /><g filter="url(#b)" transform="scale(4.000000) translate(0.5 0.5)"><g transform="translate(193.282623 38.349802) rotate(36.593473) scale(218.348228 50.931679)"><ellipse fill="#27a1ff" fill-opacity=".501961" cx="0" cy="0" rx="1" ry="1" /></g><g transform="translate(57.322677 98.063426) rotate(293.134643) scale(79.143206 140.149786)"><ellipse fill="#441500" fill-opacity=".501961" cx="0" cy="0" rx="1" ry="1" /></g><g transform="translate(212.758070 90.664235) rotate(215.579203) scale(61.476433 30.600817)"><ellipse fill="#80a5e1" fill-opacity=".501961" cx="0" cy="0" rx="1" ry="1" /></g><g transform="translate(142.969121 99.613144) rotate(17.439005) scale(18.605955 17.382122)"><ellipse fill="#e4c097" fill-opacity=".501961" cx="0" cy="0" rx="1" ry="1" /></g><ellipse fill="#100700" fill-opacity=".501961" cx="0" cy="67" rx="67" ry="67" /><g transform="translate(176.816547 9.604036) rotate(97.319033) scale(24.684541 182.409026)"><ellipse fill="#004eb2" fill-opacity=".501961" cx="0" cy="0" rx="1" ry="1" /></g><g transform="translate(232 162) rotate(47) scale(72 54)"><path d="M0 0h1024v678H0z" fill="#290500" /></g><path fill="#6ea0db" fill-opacity=".501961" d="M119 19l96 120V81z" /></g></svg>