<svg xmlns="http://www.w3.org/2000/svg" viewBox="0 0 678 1024"><filter id="b"><feGaussianBlur stdDeviation="12" /></filter><path d="M0 0h678v1024H0z" fill="#5e5c66" /><g filter="url(#b)" transform="scale(4.000000) translate(0.5 0.5)"><g transform="translate(159.091607 152.583720) rotate(405.231638) scale(23.593356 89.345151)"><ellipse fill="#f1fcf9" fill-opacity=".501961" cx="0" cy="0" rx="1" ry="1" /></g><g transform="translate(99.419089 128.460484) rotate(116.396527) scale(49.450629 40.078458)"><ellipse fill="#300" fill-opacity=".501961" cx="0" cy="0" rx="1" ry="1" /></g><path d="M0 0h678v1024H0z" fill="#470000" /><path fill="#8292a0" fill-opacity=".501961" d="M113 243 49 232l90-94z" /><path fill="#030b0e" fill-opacity=".501961" d="M88.380339 145.300647 60.518032 188.778589 71.079675 203.478832 99.055332 179.329562z" /><g transform="translate(168.000000 132.212385) rotate(206.554750) scale(11.336688 44.110092)"><ellipse fill="#fdfbf4" fill-opacity=".501961" cx="0" cy="0" rx="1" ry="1" /></g><ellipse fill="#72808a" fill-opacity=".501961" cx="35" cy="118" rx="24" ry="56" /><g transform="translate(98.297510 60.280824) rotate(197.614665) scale(71.150977 16.828270)"><ellipse fill="#6e7e86" fill-opacity=".501961" cx="0" cy="0" rx="1" ry="1" /></g></g></svg>