<svg xmlns="http://www.w3.org/2000/svg" viewBox="0 0 678 1024"><filter id="b"><feGaussianBlur stdDeviation="12" /></filter><path d="M0 0h678v1024H0z" fill="#4a5556" /><g filter="url(#b)" transform="scale(4.000000) translate(0.5 0.5)"><g transform="translate(83.515735 91.519142) rotate(5.459978) scale(18.120677 77.910863)"><ellipse fill="#eb6a00" fill-opacity=".501961" cx="0" cy="0" rx="1" ry="1" /></g><g transform="translate(73.096013 242.632581) rotate(9.524169) scale(41.096984 104.501928)"><ellipse fill="#100000" fill-opacity=".501961" cx="0" cy="0" rx="1" ry="1" /></g><g transform="translate(142.065225 151.682421) rotate(-5.312641) scale(34.474353 71.556053)"><ellipse fill="#7ca5c9" fill-opacity=".501961" cx="0" cy="0" rx="1" ry="1" /></g><g transform="translate(21 149) rotate(281) scale(127 63)"><path d="M0 0h678v1024H0z" fill="#7aa8d0" /></g><g transform="translate(101.532955 245.515299) rotate(91.253328) scale(26.783763 149.117119)"><ellipse fill="#130800" fill-opacity=".501961" cx="0" cy="0" rx="1" ry="1" /></g><g transform="translate(24.404514 37.877033) rotate(191.652693) scale(51.712496 78.651025)"><ellipse fill="#0a4182" fill-opacity=".501961" cx="0" cy="0" rx="1" ry="1" /></g><g transform="translate(145.123575 48.830222) rotate(73.213946) scale(68.295958 43.989763)"><ellipse fill="#094186" fill-opacity=".501961" cx="0" cy="0" rx="1" ry="1" /></g><g transform="translate(83.308827 114.846357) rotate(283.934230) scale(42.203193 22.770619)"><ellipse fill="#b56800" fill-opacity=".501961" cx="0" cy="0" rx="1" ry="1" /></g></g></svg>