<svg xmlns="http://www.w3.org/2000/svg" viewBox="0 0 678 1024"><filter id="b"><feGaussianBlur stdDeviation="12" /></filter><path d="M0 0h678v1024H0z" fill="#afbbc0" /><g filter="url(#b)" transform="scale(4.000000) translate(0.5 0.5)"><g transform="translate(76.328073 158.870212) rotate(88.553901) scale(81.136331 16.865794)"><ellipse fill="#000016" fill-opacity=".501961" cx="0" cy="0" rx="1" ry="1" /></g><ellipse fill="#fff" fill-opacity=".501961" cx="32" cy="211" rx="28" ry="185" /><g transform="translate(124.929356 12.705119) rotate(194.682648) scale(28.310987 54.267887)"><ellipse fill="#2b5c7a" fill-opacity=".501961" cx="0" cy="0" rx="1" ry="1" /></g><g transform="translate(0.000000 45.827434) rotate(-0.091315) scale(16.941169 64.124265)"><ellipse fill="#262823" fill-opacity=".501961" cx="0" cy="0" rx="1" ry="1" /></g><ellipse fill="#fff" fill-opacity=".501961" cx="136" cy="190" rx="49" ry="29" /><g transform="translate(74.832780 148.709190) rotate(271.015070) scale(38.330806 24.700102)"><ellipse fill="#324653" fill-opacity=".501961" cx="0" cy="0" rx="1" ry="1" /></g><g transform="translate(15.580513 217.302540) rotate(315.744134) scale(61.180943 35.331691)"><ellipse fill="#fff" fill-opacity=".501961" cx="0" cy="0" rx="1" ry="1" /></g><g transform="translate(51.257922 28.201016) rotate(96.383663) scale(55.622069 29.231229)"><ellipse fill="#edf5f3" fill-opacity=".501961" cx="0" cy="0" rx="1" ry="1" /></g></g></svg>