<svg xmlns="http://www.w3.org/2000/svg" viewBox="0 0 678 1024"><filter id="b"><feGaussianBlur stdDeviation="12" /></filter><path d="M0 0h678v1024H0z" fill="#464843" /><g filter="url(#b)" transform="scale(4.000000) translate(0.5 0.5)"><ellipse fill="#9f9f9e" fill-opacity=".501961" cx="5" cy="163" rx="95" ry="95" /><g transform="translate(139.121864 58.157374) rotate(345.013099) scale(64.803844 145.552359)"><ellipse fill="#000" fill-opacity=".501961" cx="0" cy="0" rx="1" ry="1" /></g><ellipse fill="#091201" fill-opacity=".501961" cx="116" cy="221" rx="50" ry="50" /><g transform="translate(70.502505 156.690884) rotate(297.790889) scale(11.971646 32.571440)"><ellipse fill="#f3f8ff" fill-opacity=".501961" cx="0" cy="0" rx="1" ry="1" /></g><g transform="translate(75.905056 98.578554) rotate(30.646816) scale(16.796686 38.182769)"><ellipse fill="#000" fill-opacity=".501961" cx="0" cy="0" rx="1" ry="1" /></g><ellipse fill="#77776f" fill-opacity=".501961" cx="12" cy="52" rx="59" ry="81" /><path fill="#d8b4ae" fill-opacity=".501961" d="M123.024711 122.417458 85.307376 138.71757 77.037141 133.833599 89.103208 109.088111z" /><path fill="#fffbef" fill-opacity=".501961" d="M61 161 40 77l-1 56z" /></g></svg>