<svg xmlns="http://www.w3.org/2000/svg" viewBox="0 0 683 1024"><filter id="b"><feGaussianBlur stdDeviation="12" /></filter><path d="M0 0h683v1024H0z" fill="#5c5c5c" /><g filter="url(#b)" transform="scale(4.000000) translate(0.5 0.5)"><g transform="translate(15.766643 109.762034) rotate(107.437104) scale(170.000000 55.184679)"><ellipse fill="#000" fill-opacity=".501961" cx="0" cy="0" rx="1" ry="1" /></g><g transform="translate(139.233452 151.455840) rotate(8.821654) scale(60.740406 170.000000)"><ellipse fill="#b4b4b4" fill-opacity=".501961" cx="0" cy="0" rx="1" ry="1" /></g><ellipse fill="#000" fill-opacity=".501961" cx="10" cy="54" rx="42" ry="137" /><g transform="translate(62.110168 226.347124) rotate(371.104200) scale(11.874069 35.879394)"><ellipse fill="#c7c7c7" fill-opacity=".501961" cx="0" cy="0" rx="1" ry="1" /></g><ellipse fill="#5a5a5a" fill-opacity=".501961" cx="78" cy="144" rx="30" ry="66" /><ellipse fill="#1f1f1f" fill-opacity=".501961" cx="19" cy="242" rx="29" ry="63" /><g transform="translate(158 150) rotate(298) scale(42 33)"><path d="M0 0h683v1024H0z" fill="#575757" /></g><path d="M0 0h683v1024H0z" fill="#3a3a3a" /></g></svg>