<svg xmlns="http://www.w3.org/2000/svg" viewBox="0 0 1024 683"><filter id="b"><feGaussianBlur stdDeviation="12" /></filter><path d="M0 0h1024v683H0z" fill="#4f5552" /><g filter="url(#b)" transform="scale(4.000000) translate(0.5 0.5)"><ellipse fill="#ffbea8" fill-opacity=".501961" cx="165" cy="83" rx="10" ry="38" /><ellipse fill="#48390c" fill-opacity=".501961" cx="194" cy="18" rx="255" ry="28" /><g transform="translate(177.749959 42.465402) rotate(75.181258) scale(35.517142 9.012936)"><ellipse fill="#000" fill-opacity=".501961" cx="0" cy="0" rx="1" ry="1" /></g><g transform="translate(117.035148 103.031949) rotate(312.832082) scale(46.318296 83.279675)"><ellipse fill="#5d6d76" fill-opacity=".501961" cx="0" cy="0" rx="1" ry="1" /></g><path fill="#000" fill-opacity=".501961" d="M180 116 166 96l25-19z" /><path fill="#e6b2a3" fill-opacity=".501961" d="M185.401077 75.643979 176.225335 92.159399 145.248231 60.241526 172.988421 66.949285z" /><ellipse fill="#ffc8b5" fill-opacity=".501961" cx="161" cy="105" rx="4" ry="27" /><g transform="translate(87.602499 152.271972) rotate(190.095655) scale(201.572961 41.684669)"><ellipse fill="#3c5767" fill-opacity=".501961" cx="0" cy="0" rx="1" ry="1" /></g></g></svg>