<svg xmlns="http://www.w3.org/2000/svg" viewBox="0 0 1024 678"><filter id="b"><feGaussianBlur stdDeviation="12" /></filter><path d="M0 0h1024v678H0z" fill="#3f5f70" /><g filter="url(#b)" transform="scale(4.000000) translate(0.5 0.5)"><g transform="translate(149.936422 0.000000) rotate(87.066082) scale(24.746055 192.300423)"><ellipse fill="#fdffff" fill-opacity=".501961" cx="0" cy="0" rx="1" ry="1" /></g><path fill="#220700" fill-opacity=".501961" d="M3 184-16 83l283 81z" /><g transform="translate(98.689570 45.067650) rotate(87.279276) scale(25.155341 204.659585)"><ellipse fill="#0061be" fill-opacity=".501961" cx="0" cy="0" rx="1" ry="1" /></g><g transform="translate(221.963689 68.781428) rotate(288.222373) scale(25.087167 60.743203)"><ellipse fill="#002459" fill-opacity=".501961" cx="0" cy="0" rx="1" ry="1" /></g><g transform="translate(154.453186 111.536088) rotate(97.395801) scale(32.422408 100.398083)"><ellipse fill="#6d735d" fill-opacity=".501961" cx="0" cy="0" rx="1" ry="1" /></g><g transform="translate(65.156510 149.666855) rotate(283.444955) scale(29.798970 122.531132)"><ellipse fill="#282000" fill-opacity=".501961" cx="0" cy="0" rx="1" ry="1" /></g><g transform="translate(115 95) rotate(98) scale(28 47)"><path d="M0 0h1024v678H0z" fill="#a6a3aa" /></g><g transform="translate(93.632530 0.000000) rotate(2.274297) scale(126.778994 22.842430)"><ellipse fill="#c8d4ed" fill-opacity=".501961" cx="0" cy="0" rx="1" ry="1" /></g></g></svg>