<svg xmlns="http://www.w3.org/2000/svg" viewBox="0 0 1024 678"><filter id="b"><feGaussianBlur stdDeviation="12" /></filter><path d="M0 0h1024v678H0z" fill="#7a8383" /><g filter="url(#b)" transform="scale(4.000000) translate(0.5 0.5)"><g transform="translate(54.280631 141.987379) rotate(261.939041) scale(47.712772 31.566127)"><ellipse fill="#000100" fill-opacity=".501961" cx="0" cy="0" rx="1" ry="1" /></g><g transform="translate(229.221008 111.646734) rotate(127.385686) scale(120.764118 66.383867)"><ellipse fill="#d3cfd2" fill-opacity=".501961" cx="0" cy="0" rx="1" ry="1" /></g><ellipse fill="#3c4a4b" fill-opacity=".501961" cx="51" cy="0" rx="189" ry="38" /><path d="M0 0h1024v678H0z" fill="#1e2727" /><path fill="#88938a" fill-opacity=".501961" d="M66.219791-16 105.572584 31.454006 59.703562 168.665916 57.235198 135.377315z" /><ellipse fill="#8ca1a6" fill-opacity=".501961" cx="145" cy="79" rx="17" ry="78" /><g transform="translate(47.129935 150.889157) rotate(79.211805) scale(69.407382 9.848395)"><ellipse fill="#090a08" fill-opacity=".501961" cx="0" cy="0" rx="1" ry="1" /></g><ellipse fill="#50656a" fill-opacity=".501961" cx="0" cy="57" rx="39" ry="155" /></g></svg>