<svg xmlns="http://www.w3.org/2000/svg" viewBox="0 0 768 1024"><filter id="b"><feGaussianBlur stdDeviation="12" /></filter><path d="M0 0h768v1024H0z" fill="#516578" /><g filter="url(#b)" transform="scale(4.000000) translate(0.5 0.5)"><g transform="translate(177.545231 77.252701) rotate(196.065029) scale(37.973114 91.066527)"><ellipse fill="#dfffff" fill-opacity=".501961" cx="0" cy="0" rx="1" ry="1" /></g><g transform="translate(25.352686 65.013828) rotate(278.019106) scale(114.327696 40.762151)"><ellipse fill="#000" fill-opacity=".501961" cx="0" cy="0" rx="1" ry="1" /></g><g transform="translate(110.231372 77.658659) rotate(188.426148) scale(20.613198 81.027960)"><ellipse fill="#0d0300" fill-opacity=".501961" cx="0" cy="0" rx="1" ry="1" /></g><ellipse fill="#7893b9" fill-opacity=".501961" cx="121" cy="254" rx="97" ry="97" /><g transform="translate(170 126) rotate(264) scale(53 69)"><path d="M0 0h768v1024H0z" fill="#ddf8ff" /></g><g transform="translate(21.787029 42.355341) rotate(13.331394) scale(28.288172 85.946188)"><ellipse fill="#000" fill-opacity=".501961" cx="0" cy="0" rx="1" ry="1" /></g><path fill="#0d0e0b" fill-opacity=".501961" d="M83 140l58 19-39-98z" /><path fill="#0a2426" fill-opacity=".501961" d="M41.460926 170.86544 11.116897 87.156294l61.290597 55.458314 11.650925 34.154425z" /></g></svg>