<svg xmlns="http://www.w3.org/2000/svg" viewBox="0 0 683 1024"><filter id="b"><feGaussianBlur stdDeviation="12" /></filter><path d="M0 0h683v1024H0z" fill="#544c4b" /><g filter="url(#b)" transform="scale(4.000000) translate(0.5 0.5)"><g transform="translate(73.742859 76.462815) rotate(75.431822) scale(72.396295 27.511915)"><ellipse fill="#bf7950" fill-opacity=".501961" cx="0" cy="0" rx="1" ry="1" /></g><g transform="translate(130.297316 52.794594) rotate(261.863891) scale(70.140053 18.741580)"><ellipse fill="#150f00" fill-opacity=".501961" cx="0" cy="0" rx="1" ry="1" /></g><path fill="#ffdd9f" fill-opacity=".501961" d="M53.537672 104.136364 90.652418 129.03422 90.209742 113.348803 62.770458 81.103663z" /><g transform="translate(166.179500 128.863739) rotate(92.329137) scale(170.000000 18.598476)"><ellipse fill="#657d89" fill-opacity=".501961" cx="0" cy="0" rx="1" ry="1" /></g><ellipse fill="#1e2217" fill-opacity=".501961" cx="11" cy="18" rx="22" ry="99" /><g transform="translate(24.316553 223.929561) rotate(264.412095) scale(108.303122 48.069935)"><ellipse fill="#334c6e" fill-opacity=".501961" cx="0" cy="0" rx="1" ry="1" /></g><g transform="translate(88.684297 179.729719) rotate(375.723677) scale(23.696362 33.577969)"><ellipse fill="#42271c" fill-opacity=".501961" cx="0" cy="0" rx="1" ry="1" /></g><g transform="translate(17.537291 228.428111) rotate(95.970646) scale(40.690961 15.063647)"><ellipse fill="#182231" fill-opacity=".501961" cx="0" cy="0" rx="1" ry="1" /></g></g></svg>