<svg xmlns="http://www.w3.org/2000/svg" viewBox="0 0 683 1024"><filter id="b"><feGaussianBlur stdDeviation="12" /></filter><path d="M0 0h683v1024H0z" fill="#505143" /><g filter="url(#b)" transform="scale(4.000000) translate(0.5 0.5)"><g transform="translate(73.055613 56.111736) rotate(95.719049) scale(99.151258 35.155487)"><ellipse fill="#a09b99" fill-opacity=".501961" cx="0" cy="0" rx="1" ry="1" /></g><g transform="translate(20.430623 137.114950) rotate(170.362301) scale(24.796069 170.000000)"><ellipse fill="#0c2700" fill-opacity=".501961" cx="0" cy="0" rx="1" ry="1" /></g><g transform="translate(96.156842 55.516415) rotate(63.003697) scale(13.008237 21.073664)"><ellipse fill="#d5ebff" fill-opacity=".501961" cx="0" cy="0" rx="1" ry="1" /></g><g transform="translate(118 168) rotate(-77) scale(40 88)"><path d="M0 0h683v1024H0z" fill="#1a0b09" /></g><g transform="translate(170.000000 76.206138) rotate(344.853822) scale(116.006268 12.871101)"><ellipse fill="#ad847b" fill-opacity=".501961" cx="0" cy="0" rx="1" ry="1" /></g><ellipse fill="#051e00" fill-opacity=".501961" cx="30" cy="21" rx="12" ry="47" /><ellipse fill="#112000" fill-opacity=".501961" cx="55" cy="247" rx="18" ry="52" /><g transform="translate(98.128274 227.616296) rotate(151.457829) scale(25.033764 45.856974)"><ellipse fill="#676b75" fill-opacity=".501961" cx="0" cy="0" rx="1" ry="1" /></g></g></svg>