<svg xmlns="http://www.w3.org/2000/svg" viewBox="0 0 678 1024"><filter id="b"><feGaussianBlur stdDeviation="12" /></filter><path d="M0 0h678v1024H0z" fill="#62595b" /><g filter="url(#b)" transform="scale(4.000000) translate(0.5 0.5)"><ellipse fill="#000" fill-opacity=".501961" cx="92" cy="228" rx="83" ry="83" /><g transform="translate(74.274184 57.884282) rotate(165.541037) scale(168.000000 57.817859)"><ellipse fill="#b9c7ca" fill-opacity=".501961" cx="0" cy="0" rx="1" ry="1" /></g><g transform="translate(86.842059 96.457641) rotate(45.212848) scale(21.791666 27.737410)"><ellipse fill="#000" fill-opacity=".501961" cx="0" cy="0" rx="1" ry="1" /></g><g transform="translate(55.061050 161.067416) rotate(10.514531) scale(65.920084 22.480323)"><ellipse fill="#490000" fill-opacity=".501961" cx="0" cy="0" rx="1" ry="1" /></g><ellipse fill="#000" fill-opacity=".501961" cx="87" cy="237" rx="88" ry="47" /><g transform="translate(168 129) rotate(164) scale(33 84)"><path d="M0 0h678v1024H0z" fill="#c4d3dd" /></g><g transform="translate(156.501391 169.992787) rotate(47.522428) scale(34.722993 11.534873)"><ellipse fill="#ff2a10" fill-opacity=".501961" cx="0" cy="0" rx="1" ry="1" /></g><g transform="translate(7.603249 205.700090) rotate(317.186269) scale(44.421272 12.706622)"><ellipse fill="#94a6af" fill-opacity=".501961" cx="0" cy="0" rx="1" ry="1" /></g></g></svg>