<svg xmlns="http://www.w3.org/2000/svg" viewBox="0 0 1024 678"><filter id="b"><feGaussianBlur stdDeviation="12" /></filter><path d="M0 0h1024v678H0z" fill="#536069" /><g filter="url(#b)" transform="scale(4.000000) translate(0.5 0.5)"><g transform="translate(84.898944 73.212255) rotate(319.385244) scale(31.884715 68.229748)"><ellipse fill="#f2faff" fill-opacity=".501961" cx="0" cy="0" rx="1" ry="1" /></g><g transform="translate(237.227089 102.770653) rotate(189.905237) scale(37.432383 106.230455)"><ellipse fill="#000" fill-opacity=".501961" cx="0" cy="0" rx="1" ry="1" /></g><g transform="translate(165 65) rotate(-9) scale(59 49)"><path d="M0 0h1024v678H0z" fill="#fafcfd" /></g><g transform="translate(43.241112 143.292913) rotate(-3.141723) scale(53.586923 19.153512)"><ellipse fill="#000" fill-opacity=".501961" cx="0" cy="0" rx="1" ry="1" /></g><g transform="translate(0.045534 86.420799) rotate(226.640421) scale(14.595035 34.283366)"><ellipse fill="#fff" fill-opacity=".501961" cx="0" cy="0" rx="1" ry="1" /></g><path fill="#f3f6fa" fill-opacity=".501961" d="M93.472095 122.000516 47.381387-16 30.920975 54.875912 132.471977 32.607151z" /><path d="M0 0h1024v678H0z" fill="#fff" /><ellipse fill="#e0ffff" fill-opacity=".501961" cx="26" cy="111" rx="15" ry="17" /></g></svg>