<svg xmlns="http://www.w3.org/2000/svg" viewBox="0 0 678 1024"><filter id="b"><feGaussianBlur stdDeviation="12" /></filter><path d="M0 0h678v1024H0z" fill="#888c8d" /><g filter="url(#b)" transform="scale(4.000000) translate(0.5 0.5)"><ellipse fill="#000017" fill-opacity=".501961" cx="78" cy="127" rx="19" ry="42" /><ellipse fill="#bbc0bf" fill-opacity=".501961" cx="129" cy="67" rx="34" ry="145" /><ellipse fill="#5a3412" fill-opacity=".501961" cx="22" cy="24" rx="19" ry="85" /><g transform="translate(58.198250 61.652941) rotate(103.272992) scale(61.370768 20.100092)"><ellipse fill="#ccd4d7" fill-opacity=".501961" cx="0" cy="0" rx="1" ry="1" /></g><g transform="translate(6 229) rotate(-1) scale(22 60)"><path d="M0 0h678v1024H0z" fill="#1d1c14" /></g><g transform="translate(53.426611 179.477536) rotate(197.778746) scale(25.044926 36.318924)"><ellipse fill="#acbdca" fill-opacity=".501961" cx="0" cy="0" rx="1" ry="1" /></g><g transform="translate(164.710376 196.877758) rotate(362.029126) scale(9.043340 51.967043)"><ellipse fill="#213447" fill-opacity=".501961" cx="0" cy="0" rx="1" ry="1" /></g><path d="M0 0h678v1024H0z" fill="#001e29" /></g></svg>