<svg xmlns="http://www.w3.org/2000/svg" viewBox="0 0 684 1024"><filter id="b"><feGaussianBlur stdDeviation="12" /></filter><path d="M0 0h684v1024H0z" fill="#6e6864" /><g filter="url(#b)" transform="scale(4.000000) translate(0.5 0.5)"><g transform="translate(92.286853 185.012757) rotate(105.515568) scale(61.010445 24.970805)"><ellipse fill="#000718" fill-opacity=".501961" cx="0" cy="0" rx="1" ry="1" /></g><g transform="translate(52.606468 76.910929) rotate(350.340032) scale(86.408943 67.915004)"><ellipse fill="#928f8f" fill-opacity=".501961" cx="0" cy="0" rx="1" ry="1" /></g><g transform="translate(147.341662 42.033178) rotate(148.905049) scale(60.363874 117.154648)"><ellipse fill="#826126" fill-opacity=".501961" cx="0" cy="0" rx="1" ry="1" /></g><path fill="#fffbf6" fill-opacity=".501961" d="M28 126l54 21L16 96z" /><g transform="translate(74.375069 112.856982) rotate(332.449587) scale(27.445354 10.046048)"><ellipse fill="#101b34" fill-opacity=".501961" cx="0" cy="0" rx="1" ry="1" /></g><g transform="translate(77 133) rotate(147) scale(25 13)"><path d="M0 0h684v1024H0z" fill="#fff" /></g><g transform="translate(89.833149 83.983561) rotate(116.417116) scale(12.031849 11.359394)"><ellipse fill="#f4e3ec" fill-opacity=".501961" cx="0" cy="0" rx="1" ry="1" /></g><g transform="translate(50.628954 154.252449) rotate(321.876175) scale(6.349611 31.551645)"><ellipse fill="#111218" fill-opacity=".501961" cx="0" cy="0" rx="1" ry="1" /></g></g></svg>