<svg xmlns="http://www.w3.org/2000/svg" viewBox="0 0 684 1024"><filter id="b"><feGaussianBlur stdDeviation="12" /></filter><path d="M0 0h684v1024H0z" fill="#595b3d" /><g filter="url(#b)" transform="scale(4.000000) translate(0.5 0.5)"><g transform="translate(87.975504 15.474955) rotate(88.987852) scale(53.319349 170.000000)"><ellipse fill="#d5b11e" fill-opacity=".501961" cx="0" cy="0" rx="1" ry="1" /></g><g transform="translate(102 241) rotate(85) scale(61 230)"><path d="M0 0h684v1024H0z" fill="#3f8cf5" /></g><g transform="translate(88.450259 167.031434) rotate(82.478707) scale(48.455029 97.312347)"><ellipse fill="#080c0c" fill-opacity=".501961" cx="0" cy="0" rx="1" ry="1" /></g><g transform="translate(89.043342 105.970240) rotate(277.176821) scale(41.895234 92.555676)"><ellipse fill="#5a470f" fill-opacity=".501961" cx="0" cy="0" rx="1" ry="1" /></g><g transform="translate(125.342473 27.004651) rotate(249.195107) scale(15.303353 56.872544)"><ellipse fill="#cea706" fill-opacity=".501961" cx="0" cy="0" rx="1" ry="1" /></g><g transform="translate(157 205) rotate(157) scale(36 22)"><path d="M0 0h684v1024H0z" fill="#4481c5" /></g><ellipse fill="#587ca5" fill-opacity=".501961" cx="9" cy="236" rx="62" ry="31" /><g transform="translate(113.301605 0.000000) rotate(78.421710) scale(11.974116 58.084734)"><ellipse fill="#496431" fill-opacity=".501961" cx="0" cy="0" rx="1" ry="1" /></g></g></svg>