<svg xmlns="http://www.w3.org/2000/svg" viewBox="0 0 681 1024"><filter id="b"><feGaussianBlur stdDeviation="12" /></filter><path d="M0 0h681v1024H0z" fill="#656b56" /><g filter="url(#b)" transform="scale(4.000000) translate(0.5 0.5)"><g transform="translate(85.762944 110.986198) rotate(123.652919) scale(39.292001 52.524323)"><ellipse fill="#f2c6b4" fill-opacity=".501961" cx="0" cy="0" rx="1" ry="1" /></g><g transform="translate(17.005564 0.000000) rotate(81.915505) scale(13.095523 122.425832)"><ellipse fill="#dfffff" fill-opacity=".501961" cx="0" cy="0" rx="1" ry="1" /></g><g transform="translate(64 204) rotate(365) scale(37 67)"><path d="M0 0h681v1024H0z" fill="#ff6f05" /></g><ellipse fill="#1c4f30" fill-opacity=".501961" cx="157" cy="142" rx="26" ry="255" /><g transform="translate(20.315770 226.561739) rotate(41.312542) scale(41.894341 11.910949)"><ellipse fill="#b3bbc1" fill-opacity=".501961" cx="0" cy="0" rx="1" ry="1" /></g><ellipse fill="#160000" fill-opacity=".501961" cx="80" cy="32" rx="19" ry="13" /><g transform="translate(22.391361 135.124980) rotate(174.485893) scale(23.413006 84.958817)"><ellipse fill="#395837" fill-opacity=".501961" cx="0" cy="0" rx="1" ry="1" /></g><path fill="#483727" fill-opacity=".501961" d="M37.733339 149.531995 144.396198 152.258756 128.499574 207.499141 55.602428 172.269641z" /></g></svg>