<svg xmlns="http://www.w3.org/2000/svg" viewBox="0 0 1024 681"><filter id="b"><feGaussianBlur stdDeviation="12" /></filter><path d="M0 0h1024v681H0z" fill="#454c41" /><g filter="url(#b)" transform="scale(4.000000) translate(0.5 0.5)"><path fill="#fff" fill-opacity=".501961" d="M98 44l28-4-7 58z" /><ellipse fill="#001800" fill-opacity=".501961" cx="189" cy="23" rx="86" ry="30" /><path fill="#bda5ac" fill-opacity=".501961" d="M170 46 102 89l69-5z" /><g transform="translate(196.926117 158.855402) rotate(112.612261) scale(62.991412 18.507955)"><ellipse fill="#9c9e9b" fill-opacity=".501961" cx="0" cy="0" rx="1" ry="1" /></g><g transform="translate(75.456975 113.017501) rotate(299.637601) scale(31.946414 8.553406)"><ellipse fill="#e1b598" fill-opacity=".501961" cx="0" cy="0" rx="1" ry="1" /></g><ellipse fill="#040000" fill-opacity=".501961" cx="140" cy="106" rx="57" ry="12" /><g transform="translate(137.399280 159.630659) rotate(250.539827) scale(28.505555 52.162499)"><ellipse fill="#6a7175" fill-opacity=".501961" cx="0" cy="0" rx="1" ry="1" /></g><g transform="translate(111.977430 54.082946) rotate(313.813267) scale(14.961846 9.516513)"><ellipse fill="#efffff" fill-opacity=".501961" cx="0" cy="0" rx="1" ry="1" /></g></g></svg>