<svg xmlns="http://www.w3.org/2000/svg" viewBox="0 0 1024 681"><filter id="b"><feGaussianBlur stdDeviation="12" /></filter><path d="M0 0h1024v681H0z" fill="#898170" /><g filter="url(#b)" transform="scale(4.000000) translate(0.5 0.5)"><g transform="translate(43 13) rotate(-71) scale(101 105)"><path d="M0 0h1024v681H0z" fill="#fff" /></g><g transform="translate(228.405037 45.126770) rotate(301.071405) scale(49.995370 97.081254)"><ellipse fill="#462801" fill-opacity=".501961" cx="0" cy="0" rx="1" ry="1" /></g><ellipse fill="#fff" fill-opacity=".501961" cx="47" cy="10" rx="53" ry="53" /><path fill="#000" fill-opacity=".501961" d="M127 141 78 122l41-61z" /><g transform="translate(22.845624 138.814512) rotate(297.370071) scale(5.993235 55.887138)"><ellipse fill="#fffff4" fill-opacity=".501961" cx="0" cy="0" rx="1" ry="1" /></g><g transform="translate(25.151969 77.570452) rotate(285.336571) scale(18.814947 55.481563)"><ellipse fill="#1c67a7" fill-opacity=".501961" cx="0" cy="0" rx="1" ry="1" /></g><ellipse fill="#6d5c3e" fill-opacity=".501961" cx="217" cy="143" rx="46" ry="54" /><g transform="translate(34.207191 28.030373) rotate(167.933582) scale(57.416766 27.718266)"><ellipse fill="#fff" fill-opacity=".501961" cx="0" cy="0" rx="1" ry="1" /></g></g></svg>