<svg xmlns="http://www.w3.org/2000/svg" viewBox="0 0 1024 684"><filter id="b"><feGaussianBlur stdDeviation="12" /></filter><path d="M0 0h1024v684H0z" fill="#6c6841" /><g filter="url(#b)" transform="scale(4.000000) translate(0.5 0.5)"><g transform="translate(117.407396 8.502024) rotate(229.712881) scale(56.325452 93.156287)"><ellipse fill="#ffffc2" fill-opacity=".501961" cx="0" cy="0" rx="1" ry="1" /></g><g transform="translate(148.424641 150.162549) rotate(213.420783) scale(56.957061 86.699665)"><ellipse fill="#000001" fill-opacity=".501961" cx="0" cy="0" rx="1" ry="1" /></g><g transform="translate(58.607874 151.331804) rotate(188.541403) scale(20.548170 68.367675)"><ellipse fill="#00001e" fill-opacity=".501961" cx="0" cy="0" rx="1" ry="1" /></g><path fill="#ffffa7" fill-opacity=".501961" d="M65-16l130 1L83 93z" /><ellipse fill="#cfe8bd" fill-opacity=".501961" cx="176" cy="35" rx="12" ry="35" /><path fill="#0e001a" fill-opacity=".501961" d="M148.869035 35.370147 174.557662 57.367043 129.949549 60.74568 132.36314 43.141475z" /><g transform="translate(87 104) rotate(349) scale(15 37)"><path d="M0 0h1024v684H0z" fill="#ffe2e2" /></g><ellipse fill="#1f0e0e" fill-opacity=".501961" cx="199" cy="20" rx="13" ry="123" /></g></svg>