<svg xmlns="http://www.w3.org/2000/svg" viewBox="0 0 684 1024"><filter id="b"><feGaussianBlur stdDeviation="12" /></filter><path d="M0 0h684v1024H0z" fill="#5f7b9e" /><g filter="url(#b)" transform="scale(4.000000) translate(0.5 0.5)"><g transform="translate(147.359111 147.117163) rotate(93.441674) scale(26.909458 86.237941)"><ellipse fill="#2e2217" fill-opacity=".501961" cx="0" cy="0" rx="1" ry="1" /></g><g transform="translate(91.857075 3.697197) rotate(90.906360) scale(24.927807 170.000000)"><ellipse fill="#9de2ff" fill-opacity=".501961" cx="0" cy="0" rx="1" ry="1" /></g><g transform="translate(113.798282 71.474973) rotate(81.654193) scale(81.820058 36.293235)"><ellipse fill="#8b9fba" fill-opacity=".501961" cx="0" cy="0" rx="1" ry="1" /></g><g transform="translate(167.263821 150.786909) rotate(67.241754) scale(43.605748 12.942842)"><ellipse fill="#170600" fill-opacity=".501961" cx="0" cy="0" rx="1" ry="1" /></g><ellipse fill="#816959" fill-opacity=".501961" cx="48" cy="32" rx="42" ry="19" /><path fill="#232300" fill-opacity=".501961" d="M150.577533 24.177978 142.29359 40.602146 186 54.977328 165.675188 28.222654z" /><g transform="translate(106.757549 246.543101) rotate(355.487349) scale(120.305983 77.631429)"><ellipse fill="#3a68ae" fill-opacity=".501961" cx="0" cy="0" rx="1" ry="1" /></g><g transform="translate(66.912829 123.648562) rotate(302.489957) scale(10.158152 44.809028)"><ellipse fill="#352925" fill-opacity=".501961" cx="0" cy="0" rx="1" ry="1" /></g></g></svg>