<svg xmlns="http://www.w3.org/2000/svg" viewBox="0 0 683 1024"><filter id="b"><feGaussianBlur stdDeviation="12" /></filter><path d="M0 0h683v1024H0z" fill="#6e6552" /><g filter="url(#b)" transform="scale(4.000000) translate(0.5 0.5)"><path fill="#cba265" fill-opacity=".501961" d="M105 192-16 248 4-16z" /><g transform="translate(160.288960 177.384513) rotate(185.034560) scale(17.797024 170.000000)"><ellipse fill="#000b12" fill-opacity=".501961" cx="0" cy="0" rx="1" ry="1" /></g><g transform="translate(5.136008 27.814018) rotate(136.764161) scale(21.313692 45.943863)"><ellipse fill="#9cc1ff" fill-opacity=".501961" cx="0" cy="0" rx="1" ry="1" /></g><g transform="translate(108.883623 0.000000) rotate(123.907919) scale(70.657956 129.346398)"><ellipse fill="#313c3c" fill-opacity=".501961" cx="0" cy="0" rx="1" ry="1" /></g><g transform="translate(43.071484 184.910499) rotate(41.050127) scale(60.548090 38.162355)"><ellipse fill="#a37526" fill-opacity=".501961" cx="0" cy="0" rx="1" ry="1" /></g><g transform="translate(99.009686 129.532338) rotate(247.058517) scale(75.063462 43.882265)"><ellipse fill="#657481" fill-opacity=".501961" cx="0" cy="0" rx="1" ry="1" /></g><g transform="translate(148.683643 237.921693) rotate(244.954051) scale(31.662068 27.262072)"><ellipse fill="#1a2a32" fill-opacity=".501961" cx="0" cy="0" rx="1" ry="1" /></g><path fill="#e8af5a" fill-opacity=".501961" d="M11.755056 138.518127 51.953082 78.807609 43.895082 67.971296-7.908682 114.616751z" /></g></svg>