<svg xmlns="http://www.w3.org/2000/svg" viewBox="0 0 1024 684"><filter id="b"><feGaussianBlur stdDeviation="12" /></filter><path d="M0 0h1024v684H0z" fill="#837c82" /><g filter="url(#b)" transform="scale(4.000000) translate(0.5 0.5)"><g transform="translate(183.029930 31.042724) rotate(200.052802) scale(93.473722 69.561738)"><ellipse fill="#fcffff" fill-opacity=".501961" cx="0" cy="0" rx="1" ry="1" /></g><ellipse fill="#352735" fill-opacity=".501961" cx="41" cy="122" rx="79" ry="124" /><g transform="translate(184.327794 0.000000) rotate(253.570750) scale(31.299213 106.097433)"><ellipse fill="#63b8ff" fill-opacity=".501961" cx="0" cy="0" rx="1" ry="1" /></g><ellipse fill="#ffd69c" fill-opacity=".501961" cx="209" cy="71" rx="88" ry="35" /><ellipse fill="#50404d" fill-opacity=".501961" cx="217" cy="140" rx="44" ry="44" /><g transform="translate(92.758633 139.348450) rotate(239.594125) scale(46.173511 44.501745)"><ellipse fill="#132148" fill-opacity=".501961" cx="0" cy="0" rx="1" ry="1" /></g><g transform="translate(60.160634 72.252872) rotate(336.154134) scale(20.850560 36.801044)"><ellipse fill="#ac9090" fill-opacity=".501961" cx="0" cy="0" rx="1" ry="1" /></g><path fill="#744639" fill-opacity=".501961" d="M157 49 121 75 42 56z" /></g></svg>