<svg xmlns="http://www.w3.org/2000/svg" viewBox="0 0 1024 684"><filter id="b"><feGaussianBlur stdDeviation="12" /></filter><path d="M0 0h1024v684H0z" fill="#234b65" /><g filter="url(#b)" transform="scale(4.000000) translate(0.5 0.5)"><g transform="translate(155.453155 25.627323) rotate(92.848770) scale(31.150562 255.000000)"><ellipse fill="#44b5f8" fill-opacity=".501961" cx="0" cy="0" rx="1" ry="1" /></g><g transform="translate(186.819934 164.901603) rotate(407.969703) scale(164.007787 78.567210)"><ellipse fill="#0c0908" fill-opacity=".501961" cx="0" cy="0" rx="1" ry="1" /></g><g transform="translate(18.865394 37.411629) rotate(80.734421) scale(16.099713 99.230400)"><ellipse fill="#91c2e4" fill-opacity=".501961" cx="0" cy="0" rx="1" ry="1" /></g><ellipse fill="#5299c5" fill-opacity=".501961" cx="107" cy="91" rx="39" ry="10" /><g transform="translate(239.810587 56.452250) rotate(100.155094) scale(10.920142 95.411171)"><ellipse fill="#6cb5e0" fill-opacity=".501961" cx="0" cy="0" rx="1" ry="1" /></g><g transform="translate(161.314778 151.565333) rotate(1.947093) scale(106.272762 17.514542)"><ellipse fill="#0b0300" fill-opacity=".501961" cx="0" cy="0" rx="1" ry="1" /></g><g transform="translate(238.723968 95.504959) rotate(21.184932) scale(53.937992 20.190278)"><ellipse fill="#0d0e13" fill-opacity=".501961" cx="0" cy="0" rx="1" ry="1" /></g><g transform="translate(73.417156 114.870000) rotate(257.716809) scale(8.092804 15.524916)"><ellipse fill="#62addb" fill-opacity=".501961" cx="0" cy="0" rx="1" ry="1" /></g></g></svg>