<svg xmlns="http://www.w3.org/2000/svg" viewBox="0 0 1024 684"><filter id="b"><feGaussianBlur stdDeviation="12" /></filter><path d="M0 0h1024v684H0z" fill="#858883" /><g filter="url(#b)" transform="scale(4.000000) translate(0.5 0.5)"><g transform="translate(233.595507 123.044472) rotate(97.298491) scale(148.163653 42.418030)"><ellipse fill="#effbff" fill-opacity=".501961" cx="0" cy="0" rx="1" ry="1" /></g><ellipse fill="#000" fill-opacity=".501961" cx="6" cy="22" rx="30" ry="170" /><ellipse fill="#fff" fill-opacity=".501961" cx="152" cy="5" rx="26" ry="72" /><path fill="#394440" fill-opacity=".501961" d="M186 150 24-16l76 202z" /><g transform="translate(69.978459 38.403669) rotate(305.679894) scale(81.765649 12.129913)"><ellipse fill="#fff" fill-opacity=".501961" cx="0" cy="0" rx="1" ry="1" /></g><g transform="translate(98.947142 46.420703) rotate(134.459819) scale(40.507911 15.298366)"><ellipse fill="#180002" fill-opacity=".501961" cx="0" cy="0" rx="1" ry="1" /></g><g transform="translate(66.258194 170.000000) rotate(64.879324) scale(83.662525 23.244442)"><ellipse fill="#e3f4ff" fill-opacity=".501961" cx="0" cy="0" rx="1" ry="1" /></g><g transform="translate(43.249000 20.326162) rotate(209.452815) scale(20.256801 96.006829)"><ellipse fill="#151700" fill-opacity=".501961" cx="0" cy="0" rx="1" ry="1" /></g></g></svg>