<svg xmlns="http://www.w3.org/2000/svg" viewBox="0 0 684 1024"><filter id="b"><feGaussianBlur stdDeviation="12" /></filter><path d="M0 0h684v1024H0z" fill="#737c85" /><g filter="url(#b)" transform="scale(4.000000) translate(0.5 0.5)"><ellipse fill="#fff" fill-opacity=".501961" cx="149" cy="219" rx="44" ry="37" /><g transform="translate(43.669815 227.366037) rotate(54.272022) scale(146.889581 47.182132)"><ellipse fill="#00224f" fill-opacity=".501961" cx="0" cy="0" rx="1" ry="1" /></g><g transform="translate(42.581929 107.328789) rotate(205.171626) scale(39.417536 21.705072)"><ellipse fill="#fffff7" fill-opacity=".501961" cx="0" cy="0" rx="1" ry="1" /></g><g transform="translate(133.028984 113.752052) rotate(278.985204) scale(30.648248 54.746874)"><ellipse fill="#001f44" fill-opacity=".501961" cx="0" cy="0" rx="1" ry="1" /></g><g transform="translate(146.701621 40.504200) rotate(221.223969) scale(32.770620 59.747290)"><ellipse fill="#dedad7" fill-opacity=".501961" cx="0" cy="0" rx="1" ry="1" /></g><g transform="translate(44.670756 58.521904) rotate(76.930515) scale(43.246386 16.408893)"><ellipse fill="#d1b998" fill-opacity=".501961" cx="0" cy="0" rx="1" ry="1" /></g><ellipse fill="#736335" fill-opacity=".501961" cx="75" cy="30" rx="18" ry="80" /><path fill="#31102d" fill-opacity=".501961" d="M64 114 45 162l37 18z" /></g></svg>