<svg xmlns="http://www.w3.org/2000/svg" viewBox="0 0 683 1024"><filter id="b"><feGaussianBlur stdDeviation="12" /></filter><path d="M0 0h683v1024H0z" fill="#707369" /><g filter="url(#b)" transform="scale(4.000000) translate(0.5 0.5)"><g transform="translate(55.783425 72.517114) rotate(209.941573) scale(43.656684 170.000000)"><ellipse fill="#b7cdcb" fill-opacity=".501961" cx="0" cy="0" rx="1" ry="1" /></g><g transform="translate(135.371765 233.829899) rotate(-5.140753) scale(65.027031 161.548792)"><ellipse fill="#2e2315" fill-opacity=".501961" cx="0" cy="0" rx="1" ry="1" /></g><g transform="translate(58.446820 157.833524) rotate(18.301961) scale(11.027391 157.321168)"><ellipse fill="#cdd2cb" fill-opacity=".501961" cx="0" cy="0" rx="1" ry="1" /></g><g transform="translate(111.549650 127.704464) rotate(260.063169) scale(7.562298 34.214997)"><ellipse fill="#a7d9ff" fill-opacity=".501961" cx="0" cy="0" rx="1" ry="1" /></g><g transform="translate(156 46) rotate(274) scale(97 34)"><path d="M0 0h683v1024H0z" fill="#472100" /></g><path fill="#fdeee0" fill-opacity=".501961" d="M53.197828 223.096856 92.879197 182.834123 91.98552 165.253414 70.875694 186.15092z" /><g transform="translate(121.256878 13.435710) rotate(191.254585) scale(14.153464 28.635516)"><ellipse fill="#e4eeeb" fill-opacity=".501961" cx="0" cy="0" rx="1" ry="1" /></g><g transform="translate(8.812857 169.989725) rotate(201.007227) scale(37.566247 123.815112)"><ellipse fill="#708682" fill-opacity=".501961" cx="0" cy="0" rx="1" ry="1" /></g></g></svg>