<svg xmlns="http://www.w3.org/2000/svg" viewBox="0 0 1024 684"><filter id="b"><feGaussianBlur stdDeviation="12" /></filter><path d="M0 0h1024v684H0z" fill="#2a5372" /><g filter="url(#b)" transform="scale(4.000000) translate(0.5 0.5)"><g transform="translate(73.975168 30.256082) rotate(-99.796934) scale(55.884991 98.123737)"><ellipse fill="#42c7ff" fill-opacity=".501961" cx="0" cy="0" rx="1" ry="1" /></g><g transform="translate(87.987470 152.703761) rotate(264.725124) scale(70.340740 183.644429)"><ellipse fill="#160000" fill-opacity=".501961" cx="0" cy="0" rx="1" ry="1" /></g><ellipse fill="#abccfb" fill-opacity=".501961" cx="21" cy="64" rx="156" ry="19" /><g transform="translate(220.802930 20.144139) rotate(91.475244) scale(31.017763 237.329478)"><ellipse fill="#006dc4" fill-opacity=".501961" cx="0" cy="0" rx="1" ry="1" /></g><ellipse fill="#9fddff" fill-opacity=".501961" cx="248" cy="73" rx="12" ry="36" /><path fill="#baddff" fill-opacity=".501961" d="M187.385968 53.579107 211.146489 96.61032 211.903157 41.551109 199.339245 34.406124z" /><g transform="translate(32.013261 142.210724) rotate(409.418064) scale(63.463573 31.601757)"><ellipse fill="#020200" fill-opacity=".501961" cx="0" cy="0" rx="1" ry="1" /></g><ellipse fill="#4a4f5d" fill-opacity=".501961" cx="125" cy="97" rx="63" ry="26" /></g></svg>