<svg xmlns="http://www.w3.org/2000/svg" viewBox="0 0 684 1024"><filter id="b"><feGaussianBlur stdDeviation="12" /></filter><path d="M0 0h684v1024H0z" fill="#415d79" /><g filter="url(#b)" transform="scale(4.000000) translate(0.5 0.5)"><g transform="translate(84.186196 24.852129) rotate(8.796038) scale(36.215299 64.978219)"><ellipse fill="#00adff" fill-opacity=".501961" cx="0" cy="0" rx="1" ry="1" /></g><g transform="translate(19.440843 66.300470) rotate(-16.119620) scale(32.856315 64.565249)"><ellipse fill="#000007" fill-opacity=".501961" cx="0" cy="0" rx="1" ry="1" /></g><g transform="translate(170.000000 40.762939) rotate(185.532437) scale(43.938517 55.746501)"><ellipse fill="#000" fill-opacity=".501961" cx="0" cy="0" rx="1" ry="1" /></g><ellipse fill="#878092" fill-opacity=".501961" cx="62" cy="195" rx="71" ry="71" /><ellipse fill="#0084e6" fill-opacity=".501961" cx="74" cy="21" rx="39" ry="39" /><ellipse fill="#3a3c42" fill-opacity=".501961" cx="97" cy="219" rx="57" ry="17" /><g transform="translate(78 82) rotate(283) scale(48 22)"><path d="M0 0h684v1024H0z" fill="#4eb7ff" /></g><g transform="translate(146.845747 116.089975) rotate(141.281975) scale(18.362107 72.782278)"><ellipse fill="#7f7784" fill-opacity=".501961" cx="0" cy="0" rx="1" ry="1" /></g></g></svg>