<svg xmlns="http://www.w3.org/2000/svg" viewBox="0 0 684 1024"><filter id="b"><feGaussianBlur stdDeviation="12" /></filter><path d="M0 0h684v1024H0z" fill="#9a9ea8" /><g filter="url(#b)" transform="scale(4.000000) translate(0.5 0.5)"><g transform="translate(131.871086 52.150488) rotate(171.033638) scale(79.993995 33.017326)"><ellipse fill="#323e4f" fill-opacity=".501961" cx="0" cy="0" rx="1" ry="1" /></g><ellipse fill="#f9ffff" fill-opacity=".501961" cx="8" cy="100" rx="50" ry="65" /><g transform="translate(91.325607 147.304350) rotate(21.914004) scale(18.578438 22.686943)"><ellipse fill="#161533" fill-opacity=".501961" cx="0" cy="0" rx="1" ry="1" /></g><g transform="translate(3.386112 0.000000) rotate(56.286889) scale(49.064320 7.667336)"><ellipse fill="#221719" fill-opacity=".501961" cx="0" cy="0" rx="1" ry="1" /></g><g transform="translate(147.300519 164.668851) rotate(205.146103) scale(30.182337 88.836586)"><ellipse fill="#c8c6cb" fill-opacity=".501961" cx="0" cy="0" rx="1" ry="1" /></g><ellipse fill="#889fc9" fill-opacity=".501961" cx="138" cy="76" rx="36" ry="29" /><g transform="translate(86.053721 36.350384) rotate(348.277454) scale(23.580022 58.695395)"><ellipse fill="#605b4d" fill-opacity=".501961" cx="0" cy="0" rx="1" ry="1" /></g><path d="M0 0h684v1024H0z" fill="#fff" /></g></svg>