<svg xmlns="http://www.w3.org/2000/svg" viewBox="0 0 683 1024"><filter id="b"><feGaussianBlur stdDeviation="12" /></filter><path d="M0 0h683v1024H0z" fill="#71736e" /><g filter="url(#b)" transform="scale(4.000000) translate(0.5 0.5)"><path fill="#001242" fill-opacity=".501961" d="M126 84 67 126l33 126z" /><g transform="translate(87.743571 28.849422) rotate(113.639336) scale(33.488501 11.562972)"><ellipse fill="#f6f6f3" fill-opacity=".501961" cx="0" cy="0" rx="1" ry="1" /></g><g transform="translate(144.085208 91.452871) rotate(192.520857) scale(11.728579 121.053341)"><ellipse fill="#ced4d5" fill-opacity=".501961" cx="0" cy="0" rx="1" ry="1" /></g><ellipse fill="#0f151d" fill-opacity=".501961" cx="44" cy="234" rx="26" ry="29" /><path fill="#eafaff" fill-opacity=".501961" d="M69.756025 236.455895 85.018804 175.658699 84.010111 265.831795 66.716291 271z" /><ellipse fill="#9f7d49" fill-opacity=".501961" cx="24" cy="80" rx="42" ry="127" /><ellipse fill="#c9c7c0" fill-opacity=".501961" cx="51" cy="171" rx="10" ry="48" /><g transform="translate(91.776579 80.635969) rotate(72.247303) scale(31.539731 12.868441)"><ellipse fill="#0f1532" fill-opacity=".501961" cx="0" cy="0" rx="1" ry="1" /></g></g></svg>