<svg xmlns="http://www.w3.org/2000/svg" viewBox="0 0 1024 684"><filter id="b"><feGaussianBlur stdDeviation="12" /></filter><path d="M0 0h1024v684H0z" fill="#746b61" /><g filter="url(#b)" transform="scale(4.000000) translate(0.5 0.5)"><g transform="translate(219.549026 15.443520) rotate(214.457115) scale(95.767241 47.505426)"><ellipse fill="#fff" fill-opacity=".501961" cx="0" cy="0" rx="1" ry="1" /></g><g transform="translate(164.521776 167.879802) rotate(280.642308) scale(68.699031 101.472204)"><ellipse fill="#000" fill-opacity=".501961" cx="0" cy="0" rx="1" ry="1" /></g><g transform="translate(10.106519 62.961480) rotate(293.186188) scale(67.809625 20.372848)"><ellipse fill="#fff" fill-opacity=".501961" cx="0" cy="0" rx="1" ry="1" /></g><g transform="translate(114.116437 65.514231) rotate(18.513065) scale(15.623590 46.961860)"><ellipse fill="#fff" fill-opacity=".501961" cx="0" cy="0" rx="1" ry="1" /></g><g transform="translate(188.317045 109.543893) rotate(266.975252) scale(48.525433 31.556481)"><ellipse fill="#000" fill-opacity=".501961" cx="0" cy="0" rx="1" ry="1" /></g><g transform="translate(41.883871 122.081681) rotate(124.738067) scale(88.100224 30.869263)"><ellipse fill="#301d04" fill-opacity=".501961" cx="0" cy="0" rx="1" ry="1" /></g><path fill="#fff" fill-opacity=".501961" d="M59 186h45l3-36z" /><ellipse fill="#0d0100" fill-opacity=".501961" cx="86" cy="10" rx="20" ry="58" /></g></svg>