<svg xmlns="http://www.w3.org/2000/svg" viewBox="0 0 684 1024"><filter id="b"><feGaussianBlur stdDeviation="12" /></filter><path d="M0 0h684v1024H0z" fill="#737778" /><g filter="url(#b)" transform="scale(4.000000) translate(0.5 0.5)"><g transform="translate(145.739709 187.325831) rotate(86.628929) scale(88.685726 35.106985)"><ellipse fill="#000" fill-opacity=".501961" cx="0" cy="0" rx="1" ry="1" /></g><ellipse fill="#fff" fill-opacity=".501961" cx="122" cy="10" rx="170" ry="26" /><g transform="translate(2.048544 92.104806) rotate(272.168025) scale(95.433023 20.090961)"><ellipse fill="#fff" fill-opacity=".501961" cx="0" cy="0" rx="1" ry="1" /></g><g transform="translate(19.698287 225.275717) rotate(368.074076) scale(21.250817 85.007751)"><ellipse fill="#000" fill-opacity=".501961" cx="0" cy="0" rx="1" ry="1" /></g><g transform="translate(147.811607 65.177673) rotate(329.979327) scale(21.491320 55.058643)"><ellipse fill="#fff" fill-opacity=".501961" cx="0" cy="0" rx="1" ry="1" /></g><ellipse fill="#000" fill-opacity=".501961" cx="147" cy="180" rx="33" ry="79" /><ellipse fill="#07090d" fill-opacity=".501961" cx="38" cy="55" rx="20" ry="30" /><g transform="translate(72.237377 219.965249) rotate(117.259283) scale(38.406972 32.749035)"><ellipse fill="#9dbfcd" fill-opacity=".501961" cx="0" cy="0" rx="1" ry="1" /></g></g></svg>