<svg xmlns="http://www.w3.org/2000/svg" viewBox="0 0 683 1024"><filter id="b"><feGaussianBlur stdDeviation="12" /></filter><path d="M0 0h683v1024H0z" fill="#606768" /><g filter="url(#b)" transform="scale(4.000000) translate(0.5 0.5)"><ellipse fill="#000" fill-opacity=".501961" cx="119" cy="119" rx="47" ry="70" /><g transform="translate(41.547533 34.295574) rotate(189.800031) scale(40.117539 156.131592)"><ellipse fill="#a6b3b5" fill-opacity=".501961" cx="0" cy="0" rx="1" ry="1" /></g><ellipse fill="#000605" fill-opacity=".501961" cx="84" cy="92" rx="26" ry="26" /><ellipse fill="#8d9595" fill-opacity=".501961" cx="50" cy="172" rx="37" ry="65" /><g transform="translate(151.328473 165.543184) rotate(157.211819) scale(12.906944 40.685298)"><ellipse fill="#000822" fill-opacity=".501961" cx="0" cy="0" rx="1" ry="1" /></g><g transform="translate(63.774864 57.992807) rotate(91.577379) scale(15.864536 15.874505)"><ellipse fill="#dbedff" fill-opacity=".501961" cx="0" cy="0" rx="1" ry="1" /></g><g transform="translate(151.612364 216.544070) rotate(152.712243) scale(10.767581 70.494404)"><ellipse fill="#8e9496" fill-opacity=".501961" cx="0" cy="0" rx="1" ry="1" /></g><g transform="translate(0.000000 233.027052) rotate(-32.012677) scale(31.606904 120.033172)"><ellipse fill="#4b3529" fill-opacity=".501961" cx="0" cy="0" rx="1" ry="1" /></g></g></svg>