<svg xmlns="http://www.w3.org/2000/svg" viewBox="0 0 684 1024"><filter id="b"><feGaussianBlur stdDeviation="12" /></filter><path d="M0 0h684v1024H0z" fill="#605244" /><g filter="url(#b)" transform="scale(4.000000) translate(0.5 0.5)"><g transform="translate(152.689390 214.047247) rotate(63.164769) scale(58.300627 28.502573)"><ellipse fill="#000811" fill-opacity=".501961" cx="0" cy="0" rx="1" ry="1" /></g><g transform="translate(55.695187 201.821181) rotate(374.279585) scale(63.164980 74.591031)"><ellipse fill="#ae7246" fill-opacity=".501961" cx="0" cy="0" rx="1" ry="1" /></g><path fill="#e1a1a2" fill-opacity=".501961" d="M65.562505 95.309754 79.76612 42.00802 105.533005 41.604249 108.570171 99.990767z" /><path fill="#00000b" fill-opacity=".501961" d="M52.672559 107.967111 52.526054 196.966132 66.639926 174.696047 69.763643 137.979887z" /><path d="M0 0h684v1024H0z" fill="#0f0606" /><ellipse fill="#25383b" fill-opacity=".501961" cx="72" cy="0" rx="88" ry="45" /><g transform="translate(34.311513 155.281421) rotate(37.676462) scale(15.095076 28.492493)"><ellipse fill="#d29c72" fill-opacity=".501961" cx="0" cy="0" rx="1" ry="1" /></g><g transform="translate(143.594585 97.098182) rotate(250.411028) scale(15.310506 51.733129)"><ellipse fill="#192d26" fill-opacity=".501961" cx="0" cy="0" rx="1" ry="1" /></g></g></svg>