<svg xmlns="http://www.w3.org/2000/svg" viewBox="0 0 1024 684"><filter id="b"><feGaussianBlur stdDeviation="12" /></filter><path d="M0 0h1024v684H0z" fill="#736a80" /><g filter="url(#b)" transform="scale(4.000000) translate(0.5 0.5)"><g transform="translate(56.937753 138.564633) rotate(323.401281) scale(80.227598 56.752850)"><ellipse fill="#2c0000" fill-opacity=".501961" cx="0" cy="0" rx="1" ry="1" /></g><ellipse fill="#d5e2df" fill-opacity=".501961" cx="33" cy="31" rx="84" ry="36" /><g transform="translate(195.294101 155.982684) rotate(17.808975) scale(63.368043 95.918856)"><ellipse fill="#9bc0df" fill-opacity=".501961" cx="0" cy="0" rx="1" ry="1" /></g><g transform="translate(137.477859 71.591115) rotate(227.143260) scale(40.699856 14.725358)"><ellipse fill="#000a16" fill-opacity=".501961" cx="0" cy="0" rx="1" ry="1" /></g><g transform="translate(61.945332 156.613536) rotate(115.988292) scale(61.800717 67.916363)"><ellipse fill="#500013" fill-opacity=".501961" cx="0" cy="0" rx="1" ry="1" /></g><g transform="translate(233.478565 20.268577) rotate(14.111475) scale(91.723369 11.353094)"><ellipse fill="#bdcac1" fill-opacity=".501961" cx="0" cy="0" rx="1" ry="1" /></g><path fill="#fdeacf" fill-opacity=".501961" d="M192.004776 76.258018 201.585048 22.457033l20.843818 44.127088L208.101201 93.809914z" /><g transform="translate(67.206981 17.484771) rotate(-15.372539) scale(8.520740 18.493864)"><ellipse fill="#191b28" fill-opacity=".501961" cx="0" cy="0" rx="1" ry="1" /></g></g></svg>