<svg xmlns="http://www.w3.org/2000/svg" viewBox="0 0 1024 684"><filter id="b"><feGaussianBlur stdDeviation="12" /></filter><path d="M0 0h1024v684H0z" fill="#969ba6" /><g filter="url(#b)" transform="scale(4.000000) translate(0.5 0.5)"><g transform="translate(20.402157 140.360037) rotate(220.019446) scale(40.805555 117.993548)"><ellipse fill="#00155e" fill-opacity=".501961" cx="0" cy="0" rx="1" ry="1" /></g><path fill="#ffd" fill-opacity=".501961" d="M121-1 251 158 271-9z" /><path fill="#150000" fill-opacity=".501961" d="M189 44l19 106-50-27z" /><g transform="translate(85 11) rotate(27) scale(104 47)"><path d="M0 0h1024v684H0z" fill="#fff6e0" /></g><g transform="translate(109.167112 155.809559) rotate(285.337109) scale(30.526776 104.105523)"><ellipse fill="#3f9ff5" fill-opacity=".501961" cx="0" cy="0" rx="1" ry="1" /></g><g transform="translate(109.081359 135.672443) rotate(163.494511) scale(56.793947 15.731968)"><ellipse fill="#fffffb" fill-opacity=".501961" cx="0" cy="0" rx="1" ry="1" /></g><g transform="translate(86.631790 92.027164) rotate(215.966375) scale(39.776101 23.884021)"><ellipse fill="#1f222d" fill-opacity=".501961" cx="0" cy="0" rx="1" ry="1" /></g><g transform="translate(80.756814 169.519137) rotate(182.882823) scale(111.641255 12.186738)"><ellipse fill="#002888" fill-opacity=".501961" cx="0" cy="0" rx="1" ry="1" /></g></g></svg>