<svg xmlns="http://www.w3.org/2000/svg" viewBox="0 0 1024 684"><filter id="b"><feGaussianBlur stdDeviation="12" /></filter><path d="M0 0h1024v684H0z" fill="#463c3b" /><g filter="url(#b)" transform="scale(4.000000) translate(0.5 0.5)"><g transform="translate(14.008927 108.866211) rotate(-12.880844) scale(33.721279 235.451343)"><ellipse fill="#fafbff" fill-opacity=".501961" cx="0" cy="0" rx="1" ry="1" /></g><path fill="#000" fill-opacity=".501961" d="M142 79 271-9 252 186z" /><path fill="#570000" fill-opacity=".501961" d="M14 41 131-16 41 107z" /><ellipse fill="#000" fill-opacity=".501961" cx="94" cy="154" rx="32" ry="44" /><g transform="translate(70.573573 90.186073) rotate(120.844022) scale(10.459757 37.672068)"><ellipse fill="#ffa9a1" fill-opacity=".501961" cx="0" cy="0" rx="1" ry="1" /></g><g transform="translate(134.290233 54.797926) rotate(241.602170) scale(24.519866 35.597989)"><ellipse fill="#000" fill-opacity=".501961" cx="0" cy="0" rx="1" ry="1" /></g><path fill="#fcffff" fill-opacity=".501961" d="M-10 6l46 6-52 98z" /><g transform="translate(199.439374 23.855299) rotate(244.683170) scale(16.224710 23.260499)"><ellipse fill="#d1bb99" fill-opacity=".501961" cx="0" cy="0" rx="1" ry="1" /></g></g></svg>