<svg xmlns="http://www.w3.org/2000/svg" viewBox="0 0 684 1024"><filter id="b"><feGaussianBlur stdDeviation="12" /></filter><path d="M0 0h684v1024H0z" fill="#8e97ad" /><g filter="url(#b)" transform="scale(4.000000) translate(0.5 0.5)"><g transform="translate(51.012986 23.697653) rotate(65.468377) scale(44.550541 170.000000)"><ellipse fill="#022959" fill-opacity=".501961" cx="0" cy="0" rx="1" ry="1" /></g><g transform="translate(138.528234 99.559476) rotate(-58.461355) scale(39.511394 56.639922)"><ellipse fill="#fcf8ff" fill-opacity=".501961" cx="0" cy="0" rx="1" ry="1" /></g><g transform="translate(78.699495 129.940847) rotate(253.325097) scale(15.552986 35.688220)"><ellipse fill="#000032" fill-opacity=".501961" cx="0" cy="0" rx="1" ry="1" /></g><g transform="translate(24.956151 176.564296) rotate(364.332733) scale(34.411885 72.185351)"><ellipse fill="#e9e6ec" fill-opacity=".501961" cx="0" cy="0" rx="1" ry="1" /></g><path fill="#65a5ec" fill-opacity=".501961" d="M158 28 31 98 46 32z" /><path fill="#1a0f0f" fill-opacity=".501961" d="M48.673327 27.751825 117.876857-7.191454 19.839413-.011497-16 69.761405z" /><path fill="#000a4c" fill-opacity=".501961" d="M62.075511 112.02239 37.345479 145.481532 101.844199 135.037175 108.685284 179.946828z" /><path d="M0 0h684v1024H0z" fill="#e6dbd7" /></g></svg>