<svg xmlns="http://www.w3.org/2000/svg" viewBox="0 0 1024 684"><filter id="b"><feGaussianBlur stdDeviation="12" /></filter><path d="M0 0h1024v684H0z" fill="#19597c" /><g filter="url(#b)" transform="scale(4.000000) translate(0.5 0.5)"><g transform="translate(114.206306 18.107101) rotate(167.122901) scale(160.712059 55.064301)"><ellipse fill="#40d0ff" fill-opacity=".501961" cx="0" cy="0" rx="1" ry="1" /></g><ellipse fill="#000" fill-opacity=".501961" cx="232" cy="116" rx="255" ry="32" /><path fill="#daedff" fill-opacity=".501961" d="M87 91-16 49l176 5z" /><g transform="translate(237.293102 67.078460) rotate(84.848654) scale(16.993889 119.391141)"><ellipse fill="#070d13" fill-opacity=".501961" cx="0" cy="0" rx="1" ry="1" /></g><ellipse fill="#010f1d" fill-opacity=".501961" cx="0" cy="145" rx="69" ry="69" /><path d="M0 0h1024v684H0z" fill="#000" /><path fill="#b4d4f8" fill-opacity=".501961" d="M71 48 31 88-16 30z" /><g transform="translate(152.014912 2.722547) rotate(268.099271) scale(38.979375 157.935462)"><ellipse fill="#0076d0" fill-opacity=".501961" cx="0" cy="0" rx="1" ry="1" /></g></g></svg>