<svg xmlns="http://www.w3.org/2000/svg" viewBox="0 0 2048 1365"><filter id="b"><feGaussianBlur stdDeviation="12" /></filter><path d="M0 0h2048v1365H0z" fill="#695d50" /><g filter="url(#b)" transform="scale(8.000000) translate(0.5 0.5)"><ellipse fill="#deeae2" fill-opacity=".501961" cx="60" cy="8" rx="89" ry="89" /><g transform="translate(149.900164 159.342802) rotate(359.305245) scale(255.000000 30.362311)"><ellipse fill="#050000" fill-opacity=".501961" cx="0" cy="0" rx="1" ry="1" /></g><g transform="translate(70 18) rotate(96) scale(120 30)"><path d="M0 0h2048v1365H0z" fill="#1d1600" /></g><g transform="translate(255.000000 77.497669) rotate(186.070845) scale(39.672002 252.741980)"><ellipse fill="#1c0000" fill-opacity=".501961" cx="0" cy="0" rx="1" ry="1" /></g><ellipse fill="#fff" fill-opacity=".501961" cx="30" cy="13" rx="21" ry="51" /><g transform="translate(140.698394 117.542194) rotate(34.621058) scale(21.775435 29.414419)"><ellipse fill="#c0d2c1" fill-opacity=".501961" cx="0" cy="0" rx="1" ry="1" /></g><g transform="translate(111.350601 21.874377) rotate(312.358195) scale(31.399871 24.873307)"><ellipse fill="#fff" fill-opacity=".501961" cx="0" cy="0" rx="1" ry="1" /></g><path fill="#070100" fill-opacity=".501961" d="M0 8 33 185-16 170z" /></g></svg>