<svg xmlns="http://www.w3.org/2000/svg" viewBox="0 0 2048 1365"><filter id="b"><feGaussianBlur stdDeviation="12" /></filter><path d="M0 0h2048v1365H0z" fill="#768582" /><g filter="url(#b)" transform="scale(8.000000) translate(0.5 0.5)"><g transform="translate(129.994858 0.691382) rotate(177.554999) scale(215.517859 37.319866)"><ellipse fill="#ecffff" fill-opacity=".501961" cx="0" cy="0" rx="1" ry="1" /></g><ellipse fill="#162b28" fill-opacity=".501961" cx="85" cy="77" rx="255" ry="32" /><g transform="translate(18.633478 54.165707) rotate(262.663668) scale(17.558033 134.247450)"><ellipse fill="#56add7" fill-opacity=".501961" cx="0" cy="0" rx="1" ry="1" /></g><path d="M0 0h2048v1365H0z" fill="#1b0900" /><ellipse fill="#b4a587" fill-opacity=".501961" cx="156" cy="151" rx="57" ry="57" /><g transform="translate(19 137) rotate(271) scale(49 46)"><path d="M0 0h2048v1365H0z" fill="#ecddbf" /></g><ellipse fill="#1c3836" fill-opacity=".501961" cx="247" cy="73" rx="144" ry="33" /><g transform="translate(21.947696 96.423161) rotate(349.623371) scale(32.473432 14.385249)"><ellipse fill="#000" fill-opacity=".501961" cx="0" cy="0" rx="1" ry="1" /></g></g></svg>