<svg xmlns="http://www.w3.org/2000/svg" viewBox="0 0 2048 1365"><filter id="b"><feGaussianBlur stdDeviation="12" /></filter><path d="M0 0h2048v1365H0z" fill="#4c4b31" /><g filter="url(#b)" transform="scale(8.000000) translate(0.5 0.5)"><path fill="#f2ffff" fill-opacity=".501961" d="M223 108l-18 52-63-51z" /><g transform="translate(24.461550 144.441135) rotate(328.319867) scale(30.894211 43.734022)"><ellipse fill="#000" fill-opacity=".501961" cx="0" cy="0" rx="1" ry="1" /></g><g transform="translate(153.855953 169.000000) rotate(137.661835) scale(8.943376 30.307926)"><ellipse fill="#eff" fill-opacity=".501961" cx="0" cy="0" rx="1" ry="1" /></g><g transform="translate(224.570846 88.773829) rotate(165.093238) scale(22.368797 16.184727)"><ellipse fill="#bfbcc4" fill-opacity=".501961" cx="0" cy="0" rx="1" ry="1" /></g><g transform="translate(131.814000 82.570810) rotate(340.335277) scale(102.344719 22.141168)"><ellipse fill="#100b00" fill-opacity=".501961" cx="0" cy="0" rx="1" ry="1" /></g><g transform="translate(215.835182 0.000000) rotate(-46.442942) scale(29.185762 38.296376)"><ellipse fill="#b3d429" fill-opacity=".501961" cx="0" cy="0" rx="1" ry="1" /></g><ellipse fill="#d2e5ff" fill-opacity=".501961" cx="124" cy="115" rx="24" ry="7" /><g transform="translate(240.700211 146.772476) rotate(258.867234) scale(44.402990 22.450260)"><ellipse fill="#000" fill-opacity=".501961" cx="0" cy="0" rx="1" ry="1" /></g></g></svg>