<svg xmlns="http://www.w3.org/2000/svg" viewBox="0 0 1024 1024"><filter id="b"><feGaussianBlur stdDeviation="12" /></filter><path d="M0 0h1024v1024H0z" fill="#a3a3a3" /><g filter="url(#b)" transform="scale(4.000000) translate(0.5 0.5)"><g transform="translate(158.275961 188.530952) rotate(95.461190) scale(139.204877 47.647788)"><ellipse fill="#030303" fill-opacity=".501961" cx="0" cy="0" rx="1" ry="1" /></g><g transform="translate(236.081735 123.867677) rotate(266.850284) scale(161.344711 40.432054)"><ellipse fill="#fff" fill-opacity=".501961" cx="0" cy="0" rx="1" ry="1" /></g><g transform="translate(28.373888 177.317826) rotate(161.970306) scale(51.723742 255.000000)"><ellipse fill="#fafafa" fill-opacity=".501961" cx="0" cy="0" rx="1" ry="1" /></g><g transform="translate(207.847650 168.586056) rotate(166.307689) scale(13.030166 19.360625)"><ellipse fill="#000" fill-opacity=".501961" cx="0" cy="0" rx="1" ry="1" /></g><g transform="translate(124.975655 100.762751) rotate(160.530547) scale(24.123546 74.766048)"><ellipse fill="#8e8e8e" fill-opacity=".501961" cx="0" cy="0" rx="1" ry="1" /></g><g transform="translate(150.834410 186.711038) rotate(11.247324) scale(47.174546 19.625378)"><ellipse fill="#080808" fill-opacity=".501961" cx="0" cy="0" rx="1" ry="1" /></g><ellipse fill="#e1e1e1" fill-opacity=".501961" cx="62" cy="8" rx="45" ry="50" /><ellipse fill="#434343" fill-opacity=".501961" cx="149" cy="36" rx="15" ry="59" /></g></svg>