<svg xmlns="http://www.w3.org/2000/svg" viewBox="0 0 1024 683"><filter id="b"><feGaussianBlur stdDeviation="12" /></filter><path d="M0 0h1024v683H0z" fill="#6b7d69" /><g filter="url(#b)" transform="scale(4.000000) translate(0.5 0.5)"><g transform="translate(99.208987 7.038963) rotate(90.424083) scale(30.476942 108.282956)"><ellipse fill="#fff" fill-opacity=".501961" cx="0" cy="0" rx="1" ry="1" /></g><g transform="translate(218.906458 101.492531) rotate(115.381644) scale(90.131790 79.528542)"><ellipse fill="#1d401f" fill-opacity=".501961" cx="0" cy="0" rx="1" ry="1" /></g><g transform="translate(104.754333 159.446587) rotate(310.774026) scale(25.236933 135.105186)"><ellipse fill="#635600" fill-opacity=".501961" cx="0" cy="0" rx="1" ry="1" /></g><g transform="translate(13.348556 154.361834) rotate(71.688384) scale(91.691072 18.967152)"><ellipse fill="#ffd6d4" fill-opacity=".501961" cx="0" cy="0" rx="1" ry="1" /></g><ellipse fill="#ddfaff" fill-opacity=".501961" cx="51" cy="14" rx="38" ry="38" /><g transform="translate(90.410760 53.850304) rotate(95.887598) scale(24.831691 16.134348)"><ellipse fill="#00398e" fill-opacity=".501961" cx="0" cy="0" rx="1" ry="1" /></g><g transform="translate(226 0) rotate(342) scale(59 18)"><path d="M0 0h1024v683H0z" fill="#fff" /></g><path fill="#a2b7cd" fill-opacity=".501961" d="M125.112711 151.849414 163.191479 139.647643 112.740339 103.430503 88.365335 114.731925z" /></g></svg>