<svg xmlns="http://www.w3.org/2000/svg" viewBox="0 0 1024 683"><filter id="b"><feGaussianBlur stdDeviation="12" /></filter><path d="M0 0h1024v683H0z" fill="#64512c" /><g filter="url(#b)" transform="scale(4.000000) translate(0.5 0.5)"><g transform="translate(122.768068 5.621142) rotate(266.659002) scale(16.833108 157.194027)"><ellipse fill="#fff78b" fill-opacity=".501961" cx="0" cy="0" rx="1" ry="1" /></g><g transform="translate(89.972465 91.109050) rotate(291.367239) scale(54.323928 13.177038)"><ellipse fill="#fff" fill-opacity=".501961" cx="0" cy="0" rx="1" ry="1" /></g><g transform="translate(206.655721 120.266391) rotate(-9.403196) scale(38.916829 94.735762)"><ellipse fill="#000" fill-opacity=".501961" cx="0" cy="0" rx="1" ry="1" /></g><g transform="translate(25.856984 136.073073) rotate(164.344407) scale(34.935626 83.853762)"><ellipse fill="#000" fill-opacity=".501961" cx="0" cy="0" rx="1" ry="1" /></g><g transform="translate(146.113420 67.501228) rotate(244.189181) scale(46.263464 9.304759)"><ellipse fill="#cdd1c9" fill-opacity=".501961" cx="0" cy="0" rx="1" ry="1" /></g><path fill="#d1cdba" fill-opacity=".501961" d="M84 171 87 62 54 124z" /><g transform="translate(215.083725 15.480094) rotate(245.523464) scale(25.226746 55.159202)"><ellipse fill="#c47800" fill-opacity=".501961" cx="0" cy="0" rx="1" ry="1" /></g><g transform="translate(92 3) rotate(85) scale(23 65)"><path d="M0 0h1024v683H0z" fill="#fffff3" /></g></g></svg>