<svg xmlns="http://www.w3.org/2000/svg" viewBox="0 0 684 1024"><filter id="b"><feGaussianBlur stdDeviation="12" /></filter><path d="M0 0h684v1024H0z" fill="#b5c2c5" /><g filter="url(#b)" transform="scale(4.000000) translate(0.5 0.5)"><g transform="translate(82.555158 142.919255) rotate(-22.415688) scale(30.361867 69.860216)"><ellipse fill="#262e34" fill-opacity=".501961" cx="0" cy="0" rx="1" ry="1" /></g><path d="M0 0h684v1024H0z" fill="#7b5327" /><g transform="translate(44.786161 184.470896) rotate(57.564132) scale(170.000000 17.541012)"><ellipse fill="#f8ffff" fill-opacity=".501961" cx="0" cy="0" rx="1" ry="1" /></g><g transform="translate(31.524320 212.201966) rotate(37.666585) scale(13.306601 8.391003)"><ellipse fill="#00351f" fill-opacity=".501961" cx="0" cy="0" rx="1" ry="1" /></g><g transform="translate(15.038252 110.048288) rotate(192.333709) scale(26.978903 168.669019)"><ellipse fill="#ddebf4" fill-opacity=".501961" cx="0" cy="0" rx="1" ry="1" /></g><g transform="translate(93.606721 255.000000) rotate(85.273528) scale(42.523909 96.095818)"><ellipse fill="#dff0ff" fill-opacity=".501961" cx="0" cy="0" rx="1" ry="1" /></g><g transform="translate(51.575537 103.916763) rotate(360.146150) scale(9.492625 20.389422)"><ellipse fill="#e50900" fill-opacity=".501961" cx="0" cy="0" rx="1" ry="1" /></g><g transform="translate(81 171) rotate(31) scale(50 39)"><path d="M0 0h684v1024H0z" fill="#0f7dbf" /></g></g></svg>