<svg xmlns="http://www.w3.org/2000/svg" viewBox="0 0 1024 683"><filter id="b"><feGaussianBlur stdDeviation="12" /></filter><path d="M0 0h1024v683H0z" fill="#b27f86" /><g filter="url(#b)" transform="scale(4.000000) translate(0.5 0.5)"><path fill="#de0009" fill-opacity=".501961" d="M121 54-2 185H194z" /><g transform="translate(141.651758 42.736186) rotate(339.308682) scale(21.478007 86.676966)"><ellipse fill="#edfff9" fill-opacity=".501961" cx="0" cy="0" rx="1" ry="1" /></g><g transform="translate(229.048235 100.016095) rotate(162.867854) scale(60.948466 144.507629)"><ellipse fill="#99cabb" fill-opacity=".501961" cx="0" cy="0" rx="1" ry="1" /></g><g transform="translate(60 113) rotate(-40) scale(17 57)"><path d="M0 0h1024v683H0z" fill="#000" /></g><g transform="translate(7 151) rotate(268) scale(38 29)"><path d="M0 0h1024v683H0z" fill="#deffff" /></g><ellipse fill="#f6004a" fill-opacity=".501961" cx="127" cy="158" rx="54" ry="54" /><g transform="translate(115.635879 81.431141) rotate(73.995060) scale(34.043153 12.111002)"><ellipse fill="#580021" fill-opacity=".501961" cx="0" cy="0" rx="1" ry="1" /></g><g transform="translate(12.405142 42.089380) rotate(284.506442) scale(120.491186 31.733918)"><ellipse fill="#679783" fill-opacity=".501961" cx="0" cy="0" rx="1" ry="1" /></g></g></svg>