<svg xmlns="http://www.w3.org/2000/svg" viewBox="0 0 684 1024"><filter id="b"><feGaussianBlur stdDeviation="12" /></filter><path d="M0 0h684v1024H0z" fill="#8692a0" /><g filter="url(#b)" transform="scale(4.000000) translate(0.5 0.5)"><g transform="translate(36.702619 133.695977) rotate(282.722639) scale(57.982256 109.878959)"><ellipse fill="#0f212e" fill-opacity=".501961" cx="0" cy="0" rx="1" ry="1" /></g><g transform="translate(138.496395 52.229209) rotate(218.875376) scale(170.000000 52.123445)"><ellipse fill="#eaf8ff" fill-opacity=".501961" cx="0" cy="0" rx="1" ry="1" /></g><g transform="translate(112.411604 244.736459) rotate(162.074617) scale(170.000000 41.223128)"><ellipse fill="#ced7ea" fill-opacity=".501961" cx="0" cy="0" rx="1" ry="1" /></g><path d="M0 0h684v1024H0z" fill="#00125a" /><g transform="translate(16.591130 68.501903) rotate(80.611348) scale(75.206204 20.397185)"><ellipse fill="#695940" fill-opacity=".501961" cx="0" cy="0" rx="1" ry="1" /></g><path fill="#edf4ff" fill-opacity=".501961" d="M105 174l8-50 21 20z" /><g transform="translate(55 56) rotate(254) scale(53 36)"><path d="M0 0h684v1024H0z" fill="#d9e2f5" /></g><ellipse fill="#d9e2f2" fill-opacity=".501961" cx="161" cy="108" rx="30" ry="39" /></g></svg>