<svg xmlns="http://www.w3.org/2000/svg" viewBox="0 0 1024 678"><filter id="b"><feGaussianBlur stdDeviation="12" /></filter><path d="M0 0h1024v678H0z" fill="#7a8383" /><g filter="url(#b)" transform="scale(4.000000) translate(0.5 0.5)"><g transform="translate(55.806665 141.951914) rotate(260.701445) scale(50.722566 29.933947)"><ellipse fill="#000100" fill-opacity=".501961" cx="0" cy="0" rx="1" ry="1" /></g><g transform="translate(229.735129 109.090334) rotate(302.738278) scale(141.792752 62.220573)"><ellipse fill="#d4d0d3" fill-opacity=".501961" cx="0" cy="0" rx="1" ry="1" /></g><ellipse fill="#0f1717" fill-opacity=".501961" cx="123" cy="0" rx="11" ry="96" /><g transform="translate(71.537304 4.895635) rotate(265.646822) scale(29.828842 185.007196)"><ellipse fill="#3e4c4d" fill-opacity=".501961" cx="0" cy="0" rx="1" ry="1" /></g><g transform="translate(65.694169 113.586338) rotate(271.938042) scale(49.832866 7.207008)"><ellipse fill="#98a197" fill-opacity=".501961" cx="0" cy="0" rx="1" ry="1" /></g><path d="M0 0h1024v678H0z" fill="#060400" /><g transform="translate(145 74) rotate(328) scale(32 66)"><path d="M0 0h1024v678H0z" fill="#91a6ac" /></g><path fill="#516569" fill-opacity=".501961" d="M69 75 7-16-15 169z" /></g></svg>