<svg xmlns="http://www.w3.org/2000/svg" viewBox="0 0 678 1024"><filter id="b"><feGaussianBlur stdDeviation="12" /></filter><path d="M0 0h678v1024H0z" fill="#5e5c66" /><g filter="url(#b)" transform="scale(4.000000) translate(0.5 0.5)"><g transform="translate(160.363980 152.588986) rotate(135.786035) scale(90.287900 23.730258)"><ellipse fill="#f2fdf9" fill-opacity=".501961" cx="0" cy="0" rx="1" ry="1" /></g><g transform="translate(99.649418 129.234732) rotate(121.885110) scale(54.663527 37.487370)"><ellipse fill="#310000" fill-opacity=".501961" cx="0" cy="0" rx="1" ry="1" /></g><g transform="translate(88.669303 118.751798) rotate(334.477392) scale(29.865912 51.338322)"><ellipse fill="#520000" fill-opacity=".501961" cx="0" cy="0" rx="1" ry="1" /></g><path fill="#81919f" fill-opacity=".501961" d="M25 243l159-31-57-55z" /><path fill="#f8f5ee" fill-opacity=".501961" d="M184 141V79L119 198z" /><ellipse fill="#6d7d87" fill-opacity=".501961" cx="38" cy="121" rx="21" ry="83" /><g transform="translate(81.847862 183.139368) rotate(309.084101) scale(20.870692 9.475449)"><ellipse fill="#000a0f" fill-opacity=".501961" cx="0" cy="0" rx="1" ry="1" /></g><g transform="translate(106.049038 60.437851) rotate(13.127690) scale(72.831980 19.945843)"><ellipse fill="#6b7b84" fill-opacity=".501961" cx="0" cy="0" rx="1" ry="1" /></g></g></svg>