<svg xmlns="http://www.w3.org/2000/svg" viewBox="0 0 678 1024"><filter id="b"><feGaussianBlur stdDeviation="12" /></filter><path d="M0 0h678v1024H0z" fill="#6e6763" /><g filter="url(#b)" transform="scale(4.000000) translate(0.5 0.5)"><g transform="translate(88.264069 115.002686) rotate(275.812041) scale(168.000000 22.160548)"><ellipse fill="#210405" fill-opacity=".501961" cx="0" cy="0" rx="1" ry="1" /></g><ellipse fill="#faffff" fill-opacity=".501961" cx="53" cy="22" rx="12" ry="109" /><ellipse fill="#ced5ca" fill-opacity=".501961" cx="134" cy="118" rx="26" ry="56" /><g transform="translate(80.946761 95.704694) rotate(245.417238) scale(7.346318 53.520905)"><ellipse fill="#ff999f" fill-opacity=".501961" cx="0" cy="0" rx="1" ry="1" /></g><g transform="translate(16.978172 26.373297) rotate(182.715464) scale(8.040248 53.561169)"><ellipse fill="#cee2e9" fill-opacity=".501961" cx="0" cy="0" rx="1" ry="1" /></g><g transform="translate(97.620808 185.087686) rotate(64.705804) scale(45.945219 17.639450)"><ellipse fill="#020c09" fill-opacity=".501961" cx="0" cy="0" rx="1" ry="1" /></g><g transform="translate(135.760817 210.457331) rotate(81.643396) scale(37.927857 13.692431)"><ellipse fill="#bcbfba" fill-opacity=".501961" cx="0" cy="0" rx="1" ry="1" /></g><g transform="translate(43.905703 99.128834) rotate(170.694209) scale(11.705217 53.206863)"><ellipse fill="#b19e94" fill-opacity=".501961" cx="0" cy="0" rx="1" ry="1" /></g></g></svg>