<svg xmlns="http://www.w3.org/2000/svg" viewBox="0 0 678 1024"><filter id="b"><feGaussianBlur stdDeviation="12" /></filter><path d="M0 0h678v1024H0z" fill="#afbbc0" /><g filter="url(#b)" transform="scale(4.000000) translate(0.5 0.5)"><g transform="translate(78 163) rotate(271) scale(147 28)"><path d="M0 0h678v1024H0z" fill="#00000c" /></g><ellipse fill="#fff" fill-opacity=".501961" cx="31" cy="211" rx="28" ry="184" /><g transform="translate(125.123602 11.228418) rotate(12.498719) scale(29.257754 54.550308)"><ellipse fill="#2c5d7a" fill-opacity=".501961" cx="0" cy="0" rx="1" ry="1" /></g><g transform="translate(136 195) rotate(181) scale(92 51)"><path d="M0 0h678v1024H0z" fill="#fff" /></g><g transform="translate(0.000000 49.020678) rotate(1.008262) scale(17.389683 64.590285)"><ellipse fill="#292c27" fill-opacity=".501961" cx="0" cy="0" rx="1" ry="1" /></g><g transform="translate(76.192461 150.158354) rotate(99.917555) scale(32.633403 25.790079)"><ellipse fill="#2c3b4a" fill-opacity=".501961" cx="0" cy="0" rx="1" ry="1" /></g><g transform="translate(27 213) rotate(92) scale(76 75)"><path d="M0 0h678v1024H0z" fill="#fff" /></g><g transform="translate(51.406222 22.261661) rotate(363.751696) scale(29.644484 58.873631)"><ellipse fill="#eef5f3" fill-opacity=".501961" cx="0" cy="0" rx="1" ry="1" /></g></g></svg>