<svg xmlns="http://www.w3.org/2000/svg" viewBox="0 0 1024 684"><filter id="b"><feGaussianBlur stdDeviation="12" /></filter><path d="M0 0h1024v684H0z" fill="#7fa2c4" /><g filter="url(#b)" transform="scale(4.000000) translate(0.5 0.5)"><g transform="translate(165.997439 144.449612) rotate(79.482961) scale(102.811840 49.329369)"><ellipse fill="#000" fill-opacity=".501961" cx="0" cy="0" rx="1" ry="1" /></g><g transform="translate(57.150281 107.682499) rotate(275.833980) scale(191.677384 55.754419)"><ellipse fill="#efffff" fill-opacity=".501961" cx="0" cy="0" rx="1" ry="1" /></g><g transform="translate(163 137) rotate(295) scale(113 85)"><path d="M0 0h1024v684H0z" fill="#000020" /></g><path fill="#b2ebff" fill-opacity=".501961" d="M271 127 174 78l75-94z" /><g transform="translate(255.000000 157.039202) rotate(132.426827) scale(34.004728 44.062105)"><ellipse fill="#faffff" fill-opacity=".501961" cx="0" cy="0" rx="1" ry="1" /></g><g transform="translate(3 11) rotate(91) scale(41 17)"><path d="M0 0h1024v684H0z" fill="#000" /></g><g transform="translate(51.906819 156.031209) rotate(273.202688) scale(43.428267 53.435871)"><ellipse fill="#faffff" fill-opacity=".501961" cx="0" cy="0" rx="1" ry="1" /></g><ellipse fill="#155c95" fill-opacity=".501961" cx="150" cy="57" rx="36" ry="36" /></g></svg>