<svg xmlns="http://www.w3.org/2000/svg" viewBox="0 0 684 1024"><filter id="b"><feGaussianBlur stdDeviation="12" /></filter><path d="M0 0h684v1024H0z" fill="#8498a4" /><g filter="url(#b)" transform="scale(4.000000) translate(0.5 0.5)"><g transform="translate(0.000000 70.889293) rotate(77.443974) scale(73.987399 38.355567)"><ellipse fill="#19191d" fill-opacity=".501961" cx="0" cy="0" rx="1" ry="1" /></g><g transform="translate(87.284591 130.557000) rotate(330.767708) scale(19.409730 47.089846)"><ellipse fill="#002109" fill-opacity=".501961" cx="0" cy="0" rx="1" ry="1" /></g><g transform="translate(41.343786 237.466846) rotate(355.198619) scale(44.087781 80.714558)"><ellipse fill="#b4c2f0" fill-opacity=".501961" cx="0" cy="0" rx="1" ry="1" /></g><g transform="translate(119.124284 75.306570) rotate(56.115837) scale(170.000000 26.026208)"><ellipse fill="#b0cbd0" fill-opacity=".501961" cx="0" cy="0" rx="1" ry="1" /></g><path fill="#43434b" fill-opacity=".501961" d="M39 60l56 68-61-9z" /><g transform="translate(10.014243 92.319384) rotate(50.726420) scale(16.258343 10.718927)"><ellipse fill="#000" fill-opacity=".501961" cx="0" cy="0" rx="1" ry="1" /></g><ellipse fill="#98b3bc" fill-opacity=".501961" cx="144" cy="156" rx="35" ry="255" /><path d="M0 0h684v1024H0z" fill="#a1aba9" /></g></svg>