<svg xmlns="http://www.w3.org/2000/svg" viewBox="0 0 684 1024"><filter id="b"><feGaussianBlur stdDeviation="12" /></filter><path d="M0 0h684v1024H0z" fill="#59809e" /><g filter="url(#b)" transform="scale(4.000000) translate(0.5 0.5)"><path fill="#0d0600" fill-opacity=".501961" d="M26 29 85-12 57 106z" /><g transform="translate(19.030696 150.124253) rotate(-2.417309) scale(28.453483 170.000000)"><ellipse fill="#299dff" fill-opacity=".501961" cx="0" cy="0" rx="1" ry="1" /></g><g transform="translate(67.428150 208.735981) rotate(153.226310) scale(22.779863 45.035316)"><ellipse fill="#29291f" fill-opacity=".501961" cx="0" cy="0" rx="1" ry="1" /></g><g transform="translate(134.229394 179.487626) rotate(265.920150) scale(76.499748 45.751535)"><ellipse fill="#a4aeb4" fill-opacity=".501961" cx="0" cy="0" rx="1" ry="1" /></g><g transform="translate(147.359446 74.343819) rotate(184.966323) scale(14.768230 32.728923)"><ellipse fill="#160000" fill-opacity=".501961" cx="0" cy="0" rx="1" ry="1" /></g><g transform="translate(94.968909 81.545343) rotate(-13.541823) scale(28.445009 45.937713)"><ellipse fill="#9ca7b7" fill-opacity=".501961" cx="0" cy="0" rx="1" ry="1" /></g><ellipse fill="#21a3ff" fill-opacity=".501961" cx="57" cy="152" rx="22" ry="25" /><g transform="translate(72.223417 119.925317) rotate(317.464044) scale(8.740395 41.432549)"><ellipse fill="#2d272d" fill-opacity=".501961" cx="0" cy="0" rx="1" ry="1" /></g></g></svg>