<svg xmlns="http://www.w3.org/2000/svg" viewBox="0 0 1024 678"><filter id="b"><feGaussianBlur stdDeviation="12" /></filter><path d="M0 0h1024v678H0z" fill="#8b908c" /><g filter="url(#b)" transform="scale(4.000000) translate(0.5 0.5)"><g transform="translate(130.881490 97.332674) rotate(38.846731) scale(50.228678 30.188998)"><ellipse fill="#000a00" fill-opacity=".501961" cx="0" cy="0" rx="1" ry="1" /></g><g transform="translate(232.112775 147.950093) rotate(325.089123) scale(31.228711 147.532602)"><ellipse fill="#dbdde7" fill-opacity=".501961" cx="0" cy="0" rx="1" ry="1" /></g><path fill="#e6e5ee" fill-opacity=".501961" d="M6 179l24-69 214 54z" /><g transform="translate(222.185800 0.000000) rotate(135.403899) scale(55.270629 31.036079)"><ellipse fill="#13120e" fill-opacity=".501961" cx="0" cy="0" rx="1" ry="1" /></g><ellipse fill="#014500" fill-opacity=".501961" cx="127" cy="103" rx="45" ry="24" /><ellipse fill="#cccdd6" fill-opacity=".501961" cx="70" cy="88" rx="13" ry="93" /><g transform="translate(120.594004 0.000000) rotate(298.748122) scale(39.387418 20.471048)"><ellipse fill="#34302f" fill-opacity=".501961" cx="0" cy="0" rx="1" ry="1" /></g><g transform="translate(7 116) rotate(167) scale(43 27)"><path d="M0 0h1024v678H0z" fill="#141b15" /></g></g></svg>