<svg xmlns="http://www.w3.org/2000/svg" viewBox="0 0 1024 684"><filter id="b"><feGaussianBlur stdDeviation="12" /></filter><path d="M0 0h1024v684H0z" fill="#a8bbc0" /><g filter="url(#b)" transform="scale(4.000000) translate(0.5 0.5)"><g transform="translate(135.863965 90.375528) rotate(121.072355) scale(56.100487 34.313958)"><ellipse fill="#0a2b26" fill-opacity=".501961" cx="0" cy="0" rx="1" ry="1" /></g><g transform="translate(17.373629 54.740371) rotate(207.620182) scale(41.568230 114.811899)"><ellipse fill="#edf3ff" fill-opacity=".501961" cx="0" cy="0" rx="1" ry="1" /></g><g transform="translate(46 123) rotate(19) scale(19 21)"><path d="M0 0h1024v684H0z" fill="#003012" /></g><g transform="translate(108.533352 113.409663) rotate(189.528670) scale(13.360691 40.495388)"><ellipse fill="#006396" fill-opacity=".501961" cx="0" cy="0" rx="1" ry="1" /></g><path fill="#ad0000" fill-opacity=".501961" d="M151 41l40 8-75 24z" /><g transform="translate(207.364890 126.669045) rotate(68.068100) scale(33.678902 99.371583)"><ellipse fill="#cadae6" fill-opacity=".501961" cx="0" cy="0" rx="1" ry="1" /></g><g transform="translate(137.397367 19.813530) rotate(341.974172) scale(25.515744 31.980780)"><ellipse fill="#daede9" fill-opacity=".501961" cx="0" cy="0" rx="1" ry="1" /></g><g transform="translate(64.167035 137.334312) rotate(125.107864) scale(57.331845 15.738423)"><ellipse fill="#e0edf9" fill-opacity=".501961" cx="0" cy="0" rx="1" ry="1" /></g></g></svg>