<svg xmlns="http://www.w3.org/2000/svg" viewBox="0 0 1024 684"><filter id="b"><feGaussianBlur stdDeviation="12" /></filter><path d="M0 0h1024v684H0z" fill="#697e9c" /><g filter="url(#b)" transform="scale(4.000000) translate(0.5 0.5)"><g transform="translate(92.418975 111.563450) rotate(53.809136) scale(81.622515 51.960936)"><ellipse fill="#000" fill-opacity=".501961" cx="0" cy="0" rx="1" ry="1" /></g><g transform="translate(153.600343 24.903711) rotate(112.874763) scale(57.503560 40.040200)"><ellipse fill="#fff" fill-opacity=".501961" cx="0" cy="0" rx="1" ry="1" /></g><g transform="translate(3.783232 126.989737) rotate(231.592293) scale(57.479052 38.195085)"><ellipse fill="#fff" fill-opacity=".501961" cx="0" cy="0" rx="1" ry="1" /></g><g transform="translate(190.753189 126.323912) rotate(-15.825462) scale(38.120242 19.193031)"><ellipse fill="#fff" fill-opacity=".501961" cx="0" cy="0" rx="1" ry="1" /></g><path fill="#000" fill-opacity=".501961" d="M130 119 237-16 193 110z" /><g transform="translate(231.661345 156.047975) rotate(237.044729) scale(68.337236 18.759126)"><ellipse fill="#dcffff" fill-opacity=".501961" cx="0" cy="0" rx="1" ry="1" /></g><g transform="translate(48.438614 27.018747) rotate(231.858140) scale(15.558171 104.308895)"><ellipse fill="#cae4ff" fill-opacity=".501961" cx="0" cy="0" rx="1" ry="1" /></g><ellipse fill="#000329" fill-opacity=".501961" cx="99" cy="137" rx="53" ry="53" /></g></svg>