<svg xmlns="http://www.w3.org/2000/svg" viewBox="0 0 678 1024"><filter id="b"><feGaussianBlur stdDeviation="12" /></filter><path d="M0 0h678v1024H0z" fill="#62595b" /><g filter="url(#b)" transform="scale(4.000000) translate(0.5 0.5)"><g transform="translate(83.489050 56.404247) rotate(252.367109) scale(63.029376 168.000000)"><ellipse fill="#b6c3c6" fill-opacity=".501961" cx="0" cy="0" rx="1" ry="1" /></g><ellipse fill="#0e0000" fill-opacity=".501961" cx="91" cy="250" rx="78" ry="176" /><g transform="translate(70.609176 123.857910) rotate(282.304303) scale(19.907907 58.186234)"><ellipse fill="#b99189" fill-opacity=".501961" cx="0" cy="0" rx="1" ry="1" /></g><ellipse fill="#060001" fill-opacity=".501961" cx="96" cy="255" rx="92" ry="92" /><ellipse fill="#dbaaab" fill-opacity=".501961" cx="164" cy="134" rx="19" ry="54" /><ellipse fill="#c1c6c6" fill-opacity=".501961" cx="37" cy="73" rx="30" ry="50" /><g transform="translate(67 193) rotate(196) scale(16 68)"><path d="M0 0h678v1024H0z" fill="#f33a10" /></g><path fill="#240000" fill-opacity=".501961" d="M75.370907 139.696307 94.387881 163.765474-10.718233 173.869973 13.944353 130.451965z" /></g></svg>