<svg xmlns="http://www.w3.org/2000/svg" viewBox="0 0 1024 684"><filter id="b"><feGaussianBlur stdDeviation="12" /></filter><path d="M0 0h1024v684H0z" fill="#8da0a8" /><g filter="url(#b)" transform="scale(4.000000) translate(0.5 0.5)"><g transform="translate(126.014516 98.106482) rotate(123.066774) scale(49.753379 38.695683)"><ellipse fill="#0e2d34" fill-opacity=".501961" cx="0" cy="0" rx="1" ry="1" /></g><g transform="translate(5.526316 92.680524) rotate(31.386378) scale(42.853594 114.992262)"><ellipse fill="#c6d4fa" fill-opacity=".501961" cx="0" cy="0" rx="1" ry="1" /></g><g transform="translate(147.105518 56.565598) rotate(66.024992) scale(9.467853 45.009768)"><ellipse fill="#850000" fill-opacity=".501961" cx="0" cy="0" rx="1" ry="1" /></g><ellipse fill="#034976" fill-opacity=".501961" cx="108" cy="96" rx="18" ry="52" /><path fill="#002810" fill-opacity=".501961" d="M42 108l27 15-22 14z" /><g transform="translate(148.750483 138.373636) rotate(196.991304) scale(40.164542 15.478346)"><ellipse fill="#a4b6bd" fill-opacity=".501961" cx="0" cy="0" rx="1" ry="1" /></g><ellipse fill="#adc5d5" fill-opacity=".501961" cx="46" cy="161" rx="74" ry="27" /><g transform="translate(210.100350 45.875283) rotate(145.451596) scale(103.449674 19.020985)"><ellipse fill="#8ea07b" fill-opacity=".501961" cx="0" cy="0" rx="1" ry="1" /></g></g></svg>