<svg xmlns="http://www.w3.org/2000/svg" viewBox="0 0 768 1024"><filter id="b"><feGaussianBlur stdDeviation="12" /></filter><path d="M0 0h768v1024H0z" fill="#516578" /><g filter="url(#b)" transform="scale(4.000000) translate(0.5 0.5)"><ellipse fill="#c1ddff" fill-opacity=".501961" cx="177" cy="120" rx="42" ry="126" /><g transform="translate(23.699295 49.441787) rotate(186.026166) scale(42.029408 127.482576)"><ellipse fill="#000" fill-opacity=".501961" cx="0" cy="0" rx="1" ry="1" /></g><ellipse fill="#040000" fill-opacity=".501961" cx="109" cy="97" rx="21" ry="63" /><g transform="translate(165 120) rotate(340) scale(63 67)"><path d="M0 0h768v1024H0z" fill="#daf9ff" /></g><g transform="translate(121.270244 211.468310) rotate(256.705605) scale(53.908277 107.922781)"><ellipse fill="#677f9f" fill-opacity=".501961" cx="0" cy="0" rx="1" ry="1" /></g><g transform="translate(17.478233 40.115554) rotate(281.597881) scale(83.484013 34.940741)"><ellipse fill="#000" fill-opacity=".501961" cx="0" cy="0" rx="1" ry="1" /></g><path fill="#362600" fill-opacity=".501961" d="M147.750574 155.443361 194.887028 190.215872 196.453853 151.904312 145.936492 157.87767z" /><g transform="translate(58.152592 153.666112) rotate(61.449930) scale(26.912755 18.049448)"><ellipse fill="#011f22" fill-opacity=".501961" cx="0" cy="0" rx="1" ry="1" /></g></g></svg>