<svg xmlns="http://www.w3.org/2000/svg" viewBox="0 0 684 1024"><filter id="b"><feGaussianBlur stdDeviation="12" /></filter><path d="M0 0h684v1024H0z" fill="#afacba" /><g filter="url(#b)" transform="scale(4.000000) translate(0.5 0.5)"><ellipse fill="#720000" fill-opacity=".501961" cx="79" cy="123" rx="33" ry="54" /><g transform="translate(130.529938 26.797703) rotate(286.247741) scale(55.597922 115.792856)"><ellipse fill="#e6ffff" fill-opacity=".501961" cx="0" cy="0" rx="1" ry="1" /></g><g transform="translate(117 182) rotate(118) scale(19 50)"><path d="M0 0h684v1024H0z" fill="#000" /></g><g transform="translate(168.883685 160.552311) rotate(237.427346) scale(87.875517 38.346103)"><ellipse fill="#eaffff" fill-opacity=".501961" cx="0" cy="0" rx="1" ry="1" /></g><g transform="translate(53.012379 67.153588) rotate(310.874223) scale(9.803603 30.157359)"><ellipse fill="#640000" fill-opacity=".501961" cx="0" cy="0" rx="1" ry="1" /></g><g transform="translate(75.752093 128.459941) rotate(33.887915) scale(23.648884 59.571149)"><ellipse fill="#7e0d27" fill-opacity=".501961" cx="0" cy="0" rx="1" ry="1" /></g><path d="M0 0h684v1024H0z" fill="#81aab7" /><path fill="#c4dfef" fill-opacity=".501961" d="M81 269 3 91-16 189z" /></g></svg>