<svg xmlns="http://www.w3.org/2000/svg" viewBox="0 0 684 1024"><filter id="b"><feGaussianBlur stdDeviation="12" /></filter><path d="M0 0h684v1024H0z" fill="#75828b" /><g filter="url(#b)" transform="scale(4.000000) translate(0.5 0.5)"><g transform="translate(51.816435 135.689475) rotate(96.361466) scale(139.148368 50.948973)"><ellipse fill="#191e19" fill-opacity=".501961" cx="0" cy="0" rx="1" ry="1" /></g><ellipse fill="#eff" fill-opacity=".501961" cx="152" cy="156" rx="52" ry="198" /><g transform="translate(139 199) rotate(121) scale(170 66)"><path d="M0 0h684v1024H0z" fill="#c0d3f1" /></g><g transform="translate(62.534413 99.719893) rotate(34.061127) scale(44.358640 35.411323)"><ellipse fill="#23221c" fill-opacity=".501961" cx="0" cy="0" rx="1" ry="1" /></g><g transform="translate(34.031290 255.000000) rotate(117.061904) scale(70.280831 11.410747)"><ellipse fill="#8798ae" fill-opacity=".501961" cx="0" cy="0" rx="1" ry="1" /></g><g transform="translate(0.000000 170.689348) rotate(40.570766) scale(16.075522 47.097662)"><ellipse fill="#879bae" fill-opacity=".501961" cx="0" cy="0" rx="1" ry="1" /></g><path fill="#031123" fill-opacity=".501961" d="M101.775937 139.470776 97.227705 82.763842 77.078694 238.904317 95.543797 201.631069z" /><g transform="translate(20 42) rotate(187) scale(31 44)"><path d="M0 0h684v1024H0z" fill="#93a1bc" /></g></g></svg>