<svg xmlns="http://www.w3.org/2000/svg" viewBox="0 0 683 1024"><filter id="b"><feGaussianBlur stdDeviation="12" /></filter><path d="M0 0h683v1024H0z" fill="#335159" /><g filter="url(#b)" transform="scale(4.000000) translate(0.5 0.5)"><g transform="translate(24.770996 134.859766) rotate(328.556351) scale(83.870116 23.447581)"><ellipse fill="#83a5d1" fill-opacity=".501961" cx="0" cy="0" rx="1" ry="1" /></g><ellipse fill="#000" fill-opacity=".501961" cx="95" cy="165" rx="58" ry="21" /><g transform="translate(132.492651 240.995794) rotate(67.755264) scale(27.477244 167.111301)"><ellipse fill="#000" fill-opacity=".501961" cx="0" cy="0" rx="1" ry="1" /></g><ellipse fill="#98daff" fill-opacity=".501961" cx="100" cy="198" rx="42" ry="11" /><g transform="translate(154.156072 137.020424) rotate(-44.490573) scale(17.389313 27.245336)"><ellipse fill="#94b5d3" fill-opacity=".501961" cx="0" cy="0" rx="1" ry="1" /></g><ellipse fill="#4ca479" fill-opacity=".501961" cx="41" cy="20" rx="77" ry="44" /><g transform="translate(53.985768 75.817921) rotate(259.435819) scale(14.649060 90.853605)"><ellipse fill="#04010c" fill-opacity=".501961" cx="0" cy="0" rx="1" ry="1" /></g><ellipse fill="#acd1ff" fill-opacity=".501961" cx="112" cy="139" rx="30" ry="5" /></g></svg>