<svg xmlns="http://www.w3.org/2000/svg" viewBox="0 0 1024 683"><filter id="b"><feGaussianBlur stdDeviation="12" /></filter><path d="M0 0h1024v683H0z" fill="#3e513e" /><g filter="url(#b)" transform="scale(4.000000) translate(0.5 0.5)"><g transform="translate(125.394772 26.293117) rotate(159.398826) scale(38.943353 54.514408)"><ellipse fill="#9ad7a1" fill-opacity=".501961" cx="0" cy="0" rx="1" ry="1" /></g><g transform="translate(0.000000 75.426688) rotate(244.451258) scale(155.595483 51.147308)"><ellipse fill="#0f120e" fill-opacity=".501961" cx="0" cy="0" rx="1" ry="1" /></g><g transform="translate(255.000000 84.761415) rotate(261.248068) scale(189.446782 47.979620)"><ellipse fill="#0c2905" fill-opacity=".501961" cx="0" cy="0" rx="1" ry="1" /></g><g transform="translate(126.402918 110.732223) rotate(245.034318) scale(51.985463 49.870137)"><ellipse fill="#6f6e72" fill-opacity=".501961" cx="0" cy="0" rx="1" ry="1" /></g><path d="M0 0h1024v683H0z" fill="#73a474" /><g transform="translate(69.578737 130.094272) rotate(91.331618) scale(6.480549 26.974345)"><ellipse fill="#80929a" fill-opacity=".501961" cx="0" cy="0" rx="1" ry="1" /></g><g transform="translate(206.954525 116.506778) rotate(374.002978) scale(37.951138 11.246364)"><ellipse fill="#656768" fill-opacity=".501961" cx="0" cy="0" rx="1" ry="1" /></g><path d="M0 0h1024v683H0z" fill="#203921" /></g></svg>