<svg xmlns="http://www.w3.org/2000/svg" viewBox="0 0 1024 683"><filter id="b"><feGaussianBlur stdDeviation="12" /></filter><path d="M0 0h1024v683H0z" fill="#b27f86" /><g filter="url(#b)" transform="scale(4.000000) translate(0.5 0.5)"><ellipse fill="#e6000f" fill-opacity=".501961" cx="103" cy="165" rx="77" ry="77" /><g transform="translate(139.976030 40.529408) rotate(338.632018) scale(21.956354 95.072397)"><ellipse fill="#edfff6" fill-opacity=".501961" cx="0" cy="0" rx="1" ry="1" /></g><ellipse fill="#9ac9bb" fill-opacity=".501961" cx="244" cy="83" rx="88" ry="88" /><g transform="translate(117.537088 86.590231) rotate(241.522275) scale(24.640877 23.702305)"><ellipse fill="#8c000d" fill-opacity=".501961" cx="0" cy="0" rx="1" ry="1" /></g><g transform="translate(59 111) rotate(230) scale(56 16)"><path d="M0 0h1024v683H0z" fill="#000" /></g><g transform="translate(9 155) rotate(-1) scale(23 40)"><path d="M0 0h1024v683H0z" fill="#e9ffff" /></g><g transform="translate(116.956619 153.217536) rotate(-14.273978) scale(63.132682 40.637878)"><ellipse fill="#e70044" fill-opacity=".501961" cx="0" cy="0" rx="1" ry="1" /></g><ellipse fill="#6d9c88" fill-opacity=".501961" cx="11" cy="33" rx="34" ry="105" /></g></svg>