<svg xmlns="http://www.w3.org/2000/svg" viewBox="0 0 1024 684"><filter id="b"><feGaussianBlur stdDeviation="12" /></filter><path d="M0 0h1024v684H0z" fill="#7fa2c4" /><g filter="url(#b)" transform="scale(4.000000) translate(0.5 0.5)"><g transform="translate(164.892749 138.047518) rotate(76.093992) scale(92.554769 47.634722)"><ellipse fill="#000" fill-opacity=".501961" cx="0" cy="0" rx="1" ry="1" /></g><g transform="translate(55.280730 104.886757) rotate(186.802072) scale(57.273051 178.762569)"><ellipse fill="#eff" fill-opacity=".501961" cx="0" cy="0" rx="1" ry="1" /></g><ellipse fill="#000024" fill-opacity=".501961" cx="168" cy="131" rx="52" ry="52" /><ellipse fill="#9fddff" fill-opacity=".501961" cx="231" cy="42" rx="61" ry="61" /><g transform="translate(242.833831 144.591323) rotate(-71.093336) scale(31.182403 29.802835)"><ellipse fill="azure" fill-opacity=".501961" cx="0" cy="0" rx="1" ry="1" /></g><g transform="translate(152.085018 56.284492) rotate(305.772091) scale(31.442150 37.739426)"><ellipse fill="#0d5590" fill-opacity=".501961" cx="0" cy="0" rx="1" ry="1" /></g><g transform="translate(148.588438 143.456869) rotate(140.324174) scale(53.221791 25.594454)"><ellipse fill="#000d2d" fill-opacity=".501961" cx="0" cy="0" rx="1" ry="1" /></g><path fill="#000" fill-opacity=".501961" d="M-8.057365-16 12.30305.300331 14.627597 29.367124 5.288513 41.981039z" /></g></svg>