<svg xmlns="http://www.w3.org/2000/svg" viewBox="0 0 1024 684"><filter id="b"><feGaussianBlur stdDeviation="12" /></filter><path d="M0 0h1024v684H0z" fill="#697e9c" /><g filter="url(#b)" transform="scale(4.000000) translate(0.5 0.5)"><g transform="translate(99.650404 139.622299) rotate(250.821269) scale(112.435475 52.065307)"><ellipse fill="#000" fill-opacity=".501961" cx="0" cy="0" rx="1" ry="1" /></g><path fill="#fff" fill-opacity=".501961" d="M232-16H76L151 87z" /><path fill="#fff" fill-opacity=".501961" d="M63 186-16 170V-10z" /><g transform="translate(185.055777 73.532135) rotate(306.948435) scale(74.936681 15.087203)"><ellipse fill="#000007" fill-opacity=".501961" cx="0" cy="0" rx="1" ry="1" /></g><g transform="translate(209.859640 140.519040) rotate(18.076391) scale(63.111844 22.893339)"><ellipse fill="#ddfbff" fill-opacity=".501961" cx="0" cy="0" rx="1" ry="1" /></g><g transform="translate(127.521681 104.269911) rotate(349.038188) scale(69.268454 24.788704)"><ellipse fill="#000024" fill-opacity=".501961" cx="0" cy="0" rx="1" ry="1" /></g><ellipse fill="#eff" fill-opacity=".501961" cx="151" cy="42" rx="36" ry="36" /><g transform="translate(213.356798 90.566133) rotate(18.173069) scale(10.422879 57.698613)"><ellipse fill="#efffff" fill-opacity=".501961" cx="0" cy="0" rx="1" ry="1" /></g></g></svg>