<svg xmlns="http://www.w3.org/2000/svg" viewBox="0 0 678 1024"><filter id="b"><feGaussianBlur stdDeviation="12" /></filter><path d="M0 0h678v1024H0z" fill="#9ba9b0" /><g filter="url(#b)" transform="scale(4.000000) translate(0.5 0.5)"><g transform="translate(77.203219 160.816795) rotate(89.430747) scale(81.876069 17.432880)"><ellipse fill="#000018" fill-opacity=".501961" cx="0" cy="0" rx="1" ry="1" /></g><ellipse fill="#fff" fill-opacity=".501961" cx="27" cy="220" rx="36" ry="54" /><g transform="translate(124.680966 20.181434) rotate(105.713325) scale(50.547769 29.318684)"><ellipse fill="#1d506e" fill-opacity=".501961" cx="0" cy="0" rx="1" ry="1" /></g><ellipse fill="#fff" fill-opacity=".501961" cx="125" cy="191" rx="38" ry="30" /><g transform="translate(42 70) rotate(374) scale(46 159)"><path d="M0 0h678v1024H0z" fill="#e3e8e4" /></g><ellipse fill="#1f2019" fill-opacity=".501961" cx="0" cy="34" rx="15" ry="79" /><path d="M0 0h678v1024H0z" fill="#2b2730" /><g transform="translate(36.644422 197.920922) rotate(302.052322) scale(31.531131 28.052608)"><ellipse fill="#fdfaf7" fill-opacity=".501961" cx="0" cy="0" rx="1" ry="1" /></g></g></svg>