<svg xmlns="http://www.w3.org/2000/svg" viewBox="0 0 1024 678"><filter id="b"><feGaussianBlur stdDeviation="12" /></filter><path d="M0 0h1024v678H0z" fill="#5e5c53" /><g filter="url(#b)" transform="scale(4.000000) translate(0.5 0.5)"><ellipse fill="#000" fill-opacity=".501961" cx="136" cy="163" rx="120" ry="42" /><g transform="translate(144.860434 63.778121) rotate(212.251917) scale(115.157838 33.225579)"><ellipse fill="#bfaca4" fill-opacity=".501961" cx="0" cy="0" rx="1" ry="1" /></g><g transform="translate(132.610414 142.304226) rotate(350.484952) scale(53.160445 27.215690)"><ellipse fill="#000" fill-opacity=".501961" cx="0" cy="0" rx="1" ry="1" /></g><g transform="translate(206.866651 168.000000) rotate(58.431321) scale(39.462835 11.908000)"><ellipse fill="#a5c2cb" fill-opacity=".501961" cx="0" cy="0" rx="1" ry="1" /></g><g transform="translate(159.667055 54.167259) rotate(130.230801) scale(16.723336 35.212973)"><ellipse fill="#e5d6d9" fill-opacity=".501961" cx="0" cy="0" rx="1" ry="1" /></g><g transform="translate(58 131) rotate(72) scale(16 65)"><path d="M0 0h1024v678H0z" fill="#c3bc9e" /></g><g transform="translate(61.203132 161.368412) rotate(263.865381) scale(15.875582 121.808528)"><ellipse fill="#000" fill-opacity=".501961" cx="0" cy="0" rx="1" ry="1" /></g><path fill="#2b1107" fill-opacity=".501961" d="M149.35371 99.618073 202.522846 110.683352 189.465524 79.369046 128.456497 96.442186z" /></g></svg>