<svg xmlns="http://www.w3.org/2000/svg" viewBox="0 0 1024 678"><filter id="b"><feGaussianBlur stdDeviation="12" /></filter><path d="M0 0h1024v678H0z" fill="#3c3d3a" /><g filter="url(#b)" transform="scale(4.000000) translate(0.5 0.5)"><g transform="translate(98.422872 144.681002) rotate(276.789032) scale(36.859168 187.324138)"><ellipse fill="#fefcf9" fill-opacity=".501961" cx="0" cy="0" rx="1" ry="1" /></g><g transform="translate(112.132610 36.536281) rotate(97.986531) scale(73.918059 238.314166)"><ellipse fill="#000" fill-opacity=".501961" cx="0" cy="0" rx="1" ry="1" /></g><g transform="translate(145.439429 73.298492) rotate(150.390024) scale(5.604032 46.718847)"><ellipse fill="#d8b9aa" fill-opacity=".501961" cx="0" cy="0" rx="1" ry="1" /></g><ellipse fill="#000" fill-opacity=".501961" cx="227" cy="48" rx="80" ry="80" /><g transform="translate(48.335168 26.542694) rotate(155.855745) scale(147.135072 45.513790)"><ellipse fill="#000" fill-opacity=".501961" cx="0" cy="0" rx="1" ry="1" /></g><g transform="translate(115.883211 66.145178) rotate(261.517277) scale(13.289640 28.384126)"><ellipse fill="#946f6a" fill-opacity=".501961" cx="0" cy="0" rx="1" ry="1" /></g><g transform="translate(34 105) rotate(13) scale(77 14)"><path d="M0 0h1024v678H0z" fill="#b5b3ad" /></g><g transform="translate(247.098949 151.217561) rotate(199.602537) scale(63.233150 17.165449)"><ellipse fill="#7a7a78" fill-opacity=".501961" cx="0" cy="0" rx="1" ry="1" /></g></g></svg>