<svg xmlns="http://www.w3.org/2000/svg" viewBox="0 0 684 1024"><filter id="b"><feGaussianBlur stdDeviation="12" /></filter><path d="M0 0h684v1024H0z" fill="#b5c2c5" /><g filter="url(#b)" transform="scale(4.000000) translate(0.5 0.5)"><g transform="translate(81.111788 146.715898) rotate(155.927094) scale(26.128637 71.984563)"><ellipse fill="#1b242e" fill-opacity=".501961" cx="0" cy="0" rx="1" ry="1" /></g><path d="M0 0h684v1024H0z" fill="#754d1f" /><g transform="translate(42.590126 179.472434) rotate(236.065837) scale(170.000000 19.339785)"><ellipse fill="#f6ffff" fill-opacity=".501961" cx="0" cy="0" rx="1" ry="1" /></g><g transform="translate(30 211) rotate(228) scale(24 16)"><path d="M0 0h684v1024H0z" fill="#004126" /></g><g transform="translate(76.677065 172.253519) rotate(391.388087) scale(26.247712 18.232702)"><ellipse fill="#1377d0" fill-opacity=".501961" cx="0" cy="0" rx="1" ry="1" /></g><path fill="#d14105" fill-opacity=".501961" d="M49.95035 148.901814 70.947641 66.814271 45.827411 88.71926 38.134926 143.056371z" /><g transform="translate(19.402668 83.188245) rotate(279.112175) scale(166.495516 26.469005)"><ellipse fill="#dcecf4" fill-opacity=".501961" cx="0" cy="0" rx="1" ry="1" /></g><ellipse fill="#def" fill-opacity=".501961" cx="143" cy="255" rx="143" ry="48" /></g></svg>