<svg xmlns="http://www.w3.org/2000/svg" viewBox="0 0 1024 683"><filter id="b"><feGaussianBlur stdDeviation="12" /></filter><path d="M0 0h1024v683H0z" fill="#576259" /><g filter="url(#b)" transform="scale(4.000000) translate(0.5 0.5)"><g transform="translate(67.160974 66.393831) rotate(271.647204) scale(27.950421 209.816594)"><ellipse fill="#f5fbff" fill-opacity=".501961" cx="0" cy="0" rx="1" ry="1" /></g><ellipse fill="#2b0000" fill-opacity=".501961" cx="156" cy="138" rx="255" ry="42" /><g transform="translate(122.386153 11.953837) rotate(278.353069) scale(37.026635 186.020884)"><ellipse fill="#0063b2" fill-opacity=".501961" cx="0" cy="0" rx="1" ry="1" /></g><ellipse fill="#9d5d00" fill-opacity=".501961" cx="176" cy="110" rx="116" ry="24" /><g transform="translate(20.982068 130.671117) rotate(113.921572) scale(35.183307 146.568215)"><ellipse fill="#000300" fill-opacity=".501961" cx="0" cy="0" rx="1" ry="1" /></g><ellipse fill="#ffeee2" fill-opacity=".501961" cx="66" cy="47" rx="30" ry="13" /><g transform="translate(214.324137 133.951062) rotate(348.969110) scale(94.654168 38.145491)"><ellipse fill="#422b00" fill-opacity=".501961" cx="0" cy="0" rx="1" ry="1" /></g><ellipse fill="#00476e" fill-opacity=".501961" cx="82" cy="9" rx="128" ry="27" /></g></svg>