<svg xmlns="http://www.w3.org/2000/svg" viewBox="0 0 1024 1024"><filter id="b"><feGaussianBlur stdDeviation="12" /></filter><path d="M0 0h1024v1024H0z" fill="#635f58" /><g filter="url(#b)" transform="scale(4.000000) translate(0.5 0.5)"><ellipse fill="#fdfdef" fill-opacity=".501961" cx="109" cy="45" rx="102" ry="58" /><g transform="translate(88.748376 225.263339) rotate(371.489897) scale(254.851388 69.872310)"><ellipse fill="#000" fill-opacity=".501961" cx="0" cy="0" rx="1" ry="1" /></g><g transform="translate(224.049518 38.953164) rotate(145.112348) scale(34.793520 15.366582)"><ellipse fill="#000" fill-opacity=".501961" cx="0" cy="0" rx="1" ry="1" /></g><g transform="translate(255.000000 167.467051) rotate(71.024828) scale(109.714676 22.602036)"><ellipse fill="#000" fill-opacity=".501961" cx="0" cy="0" rx="1" ry="1" /></g><g transform="translate(190 90) rotate(24) scale(26 55)"><path d="M0 0h1024v1024H0z" fill="#fff" /></g><path d="M0 0h1024v1024H0z" fill="#2f0000" /><g transform="translate(210.085387 178.116715) rotate(272.082797) scale(52.481839 15.111667)"><ellipse fill="#a7aaa3" fill-opacity=".501961" cx="0" cy="0" rx="1" ry="1" /></g><ellipse fill="#000" fill-opacity=".501961" cx="38" cy="217" rx="53" ry="53" /></g></svg>