<svg xmlns="http://www.w3.org/2000/svg" viewBox="0 0 1024 683"><filter id="b"><feGaussianBlur stdDeviation="12" /></filter><path d="M0 0h1024v683H0z" fill="#8f8e8b" /><g filter="url(#b)" transform="scale(4.000000) translate(0.5 0.5)"><g transform="translate(119 114) rotate(29) scale(23 78)"><path d="M0 0h1024v683H0z" fill="#000017" /></g><g transform="translate(164.812040 150.737826) rotate(358.361689) scale(59.732618 25.407342)"><ellipse fill="#d5e2e7" fill-opacity=".501961" cx="0" cy="0" rx="1" ry="1" /></g><g transform="translate(22.780978 21.159698) rotate(104.023205) scale(42.183217 33.305368)"><ellipse fill="#f2dac1" fill-opacity=".501961" cx="0" cy="0" rx="1" ry="1" /></g><g transform="translate(255.000000 52.931709) rotate(241.587589) scale(39.680888 32.705429)"><ellipse fill="#26323f" fill-opacity=".501961" cx="0" cy="0" rx="1" ry="1" /></g><g transform="translate(183.552397 28.230030) rotate(330.492929) scale(56.854300 22.116833)"><ellipse fill="#dcccaf" fill-opacity=".501961" cx="0" cy="0" rx="1" ry="1" /></g><ellipse fill="#55575c" fill-opacity=".501961" cx="0" cy="117" rx="56" ry="56" /><g transform="translate(93 16) rotate(131) scale(36 23)"><path d="M0 0h1024v683H0z" fill="#312d23" /></g><path fill="#000b1e" fill-opacity=".501961" d="M112.902303 130.328553 115.823697 137.905441 136.21855 120.719922 116.408628 69.618466z" /></g></svg>