<svg xmlns="http://www.w3.org/2000/svg" viewBox="0 0 1024 683"><filter id="b"><feGaussianBlur stdDeviation="12" /></filter><path d="M0 0h1024v683H0z" fill="#64707b" /><g filter="url(#b)" transform="scale(4.000000) translate(0.5 0.5)"><g transform="translate(228.721525 49.953235) rotate(54.047105) scale(67.047933 53.185039)"><ellipse fill="#baedff" fill-opacity=".501961" cx="0" cy="0" rx="1" ry="1" /></g><g transform="translate(140.296536 169.000000) rotate(163.983073) scale(117.418911 70.312084)"><ellipse fill="#542f00" fill-opacity=".501961" cx="0" cy="0" rx="1" ry="1" /></g><g transform="translate(45.369616 20.649485) rotate(162.638289) scale(83.598403 52.361393)"><ellipse fill="#1d3a70" fill-opacity=".501961" cx="0" cy="0" rx="1" ry="1" /></g><g transform="translate(31.976752 121.400550) rotate(262.475810) scale(16.661140 54.204177)"><ellipse fill="#9abad8" fill-opacity=".501961" cx="0" cy="0" rx="1" ry="1" /></g><g transform="translate(175.985563 31.241724) rotate(202.792165) scale(29.783915 67.810057)"><ellipse fill="#6b94cf" fill-opacity=".501961" cx="0" cy="0" rx="1" ry="1" /></g><ellipse fill="#bcdcff" fill-opacity=".501961" cx="247" cy="83" rx="53" ry="31" /><g transform="translate(133.374158 89.059477) rotate(76.163129) scale(35.469873 12.403481)"><ellipse fill="#4c2700" fill-opacity=".501961" cx="0" cy="0" rx="1" ry="1" /></g><g transform="translate(29.399439 158.259695) rotate(129.979575) scale(27.123594 18.095140)"><ellipse fill="#7c6100" fill-opacity=".501961" cx="0" cy="0" rx="1" ry="1" /></g></g></svg>