<svg xmlns="http://www.w3.org/2000/svg" viewBox="0 0 1024 683"><filter id="b"><feGaussianBlur stdDeviation="12" /></filter><path d="M0 0h1024v683H0z" fill="#274c6b" /><g filter="url(#b)" transform="scale(4.000000) translate(0.5 0.5)"><g transform="translate(50.775386 108.380647) rotate(4.769115) scale(100.286751 21.203613)"><ellipse fill="#79c0f8" fill-opacity=".501961" cx="0" cy="0" rx="1" ry="1" /></g><ellipse fill="#512801" fill-opacity=".501961" cx="100" cy="162" rx="250" ry="33" /><g transform="translate(78.162499 57.656577) rotate(188.818591) scale(92.510374 46.555836)"><ellipse fill="#0056a3" fill-opacity=".501961" cx="0" cy="0" rx="1" ry="1" /></g><path fill="#a4c1da" fill-opacity=".501961" d="M160.952577 127.15452 58.434634 116.633788 127.293959 144.544802 146.170896 148.818927z" /><g transform="translate(217.696055 23.387003) rotate(278.662853) scale(34.272074 186.533189)"><ellipse fill="#00295e" fill-opacity=".501961" cx="0" cy="0" rx="1" ry="1" /></g><ellipse fill="#4e3926" fill-opacity=".501961" cx="195" cy="125" rx="29" ry="67" /><path fill="#377eb8" fill-opacity=".501961" d="M99 102l65-27 18 36z" /><path fill="#120a00" fill-opacity=".501961" d="M218 185l53-19-54-49z" /></g></svg>