<svg xmlns="http://www.w3.org/2000/svg" viewBox="0 0 1024 683"><filter id="b"><feGaussianBlur stdDeviation="12" /></filter><path d="M0 0h1024v683H0z" fill="#3a4e60" /><g filter="url(#b)" transform="scale(4.000000) translate(0.5 0.5)"><g transform="translate(141.177365 57.381856) rotate(188.667305) scale(255.000000 28.704820)"><ellipse fill="#73a6d9" fill-opacity=".501961" cx="0" cy="0" rx="1" ry="1" /></g><g transform="translate(164.726222 133.320280) rotate(284.204512) scale(44.362371 170.606919)"><ellipse fill="#290e00" fill-opacity=".501961" cx="0" cy="0" rx="1" ry="1" /></g><g transform="translate(136.194462 14.452852) rotate(95.024274) scale(27.100315 245.896698)"><ellipse fill="#0051a0" fill-opacity=".501961" cx="0" cy="0" rx="1" ry="1" /></g><path fill="#cbc4bb" fill-opacity=".501961" d="M122.613788 143.532747 5.129856 147.596615 27.752431 152.832588 132.719213 157.620516z" /><g transform="translate(7.638038 59.536472) rotate(182.501182) scale(108.995041 14.892349)"><ellipse fill="#8eaec9" fill-opacity=".501961" cx="0" cy="0" rx="1" ry="1" /></g><g transform="translate(58.010287 168.467690) rotate(92.358685) scale(12.011960 125.533753)"><ellipse fill="#200a00" fill-opacity=".501961" cx="0" cy="0" rx="1" ry="1" /></g><g transform="translate(182.660374 76.486917) rotate(100.013107) scale(18.090857 78.802740)"><ellipse fill="#8c8c90" fill-opacity=".501961" cx="0" cy="0" rx="1" ry="1" /></g><g transform="translate(156.605314 127.201907) rotate(273.793476) scale(34.410217 44.163984)"><ellipse fill="#201300" fill-opacity=".501961" cx="0" cy="0" rx="1" ry="1" /></g></g></svg>