<svg xmlns="http://www.w3.org/2000/svg" viewBox="0 0 1024 684"><filter id="b"><feGaussianBlur stdDeviation="12" /></filter><path d="M0 0h1024v684H0z" fill="#969ba6" /><g filter="url(#b)" transform="scale(4.000000) translate(0.5 0.5)"><g transform="translate(42 123) rotate(175) scale(106 104)"><path d="M0 0h1024v684H0z" fill="#002a7d" /></g><path fill="#ffd" fill-opacity=".501961" d="M251 160 121-4 271-3z" /><path d="M0 0h1024v684H0z" fill="#290c0e" /><g transform="translate(108.705967 135.289456) rotate(162.155571) scale(60.507003 17.800179)"><ellipse fill="#eaffff" fill-opacity=".501961" cx="0" cy="0" rx="1" ry="1" /></g><g transform="translate(79.978190 82.342681) rotate(250.967142) scale(40.327991 25.501039)"><ellipse fill="#170e11" fill-opacity=".501961" cx="0" cy="0" rx="1" ry="1" /></g><ellipse fill="#f7e5d1" fill-opacity=".501961" cx="76" cy="20" rx="64" ry="26" /><g transform="translate(133.945859 170.000000) rotate(337.406633) scale(55.149501 27.113076)"><ellipse fill="#006ce6" fill-opacity=".501961" cx="0" cy="0" rx="1" ry="1" /></g><ellipse fill="#ffefdb" fill-opacity=".501961" cx="220" cy="72" rx="23" ry="80" /></g></svg>