<svg xmlns="http://www.w3.org/2000/svg" viewBox="0 0 1024 1024"><filter id="b"><feGaussianBlur stdDeviation="12" /></filter><path d="M0 0h1024v1024H0z" fill="#978376" /><g filter="url(#b)" transform="scale(4.000000) translate(0.5 0.5)"><g transform="translate(120 224) rotate(99) scale(146 204)"><path d="M0 0h1024v1024H0z" fill="#b5f7ff" /></g><g transform="translate(130.652481 43.959686) rotate(283.230017) scale(93.330031 142.848234)"><ellipse fill="#803601" fill-opacity=".501961" cx="0" cy="0" rx="1" ry="1" /></g><ellipse fill="#f9cdcb" fill-opacity=".501961" cx="149" cy="72" rx="25" ry="39" /><g transform="translate(94.879318 214.781717) rotate(-16.884515) scale(31.566396 127.915905)"><ellipse fill="#d4ddf6" fill-opacity=".501961" cx="0" cy="0" rx="1" ry="1" /></g><g transform="translate(139.028962 148.935848) rotate(394.420914) scale(20.216751 24.884494)"><ellipse fill="#4b2014" fill-opacity=".501961" cx="0" cy="0" rx="1" ry="1" /></g><g transform="translate(102.149018 37.187946) rotate(175.868866) scale(22.738613 49.339462)"><ellipse fill="#29170a" fill-opacity=".501961" cx="0" cy="0" rx="1" ry="1" /></g><g transform="translate(207.073513 236.461436) rotate(167.646123) scale(27.551379 88.175695)"><ellipse fill="#7db3f9" fill-opacity=".501961" cx="0" cy="0" rx="1" ry="1" /></g><g transform="translate(66.141736 120.684513) rotate(334.218776) scale(116.049979 20.413782)"><ellipse fill="#c08653" fill-opacity=".501961" cx="0" cy="0" rx="1" ry="1" /></g></g></svg>