<svg xmlns="http://www.w3.org/2000/svg" viewBox="0 0 1024 678"><filter id="b"><feGaussianBlur stdDeviation="12" /></filter><path d="M0 0h1024v678H0z" fill="#646758" /><g filter="url(#b)" transform="scale(4.000000) translate(0.5 0.5)"><g transform="translate(115.780032 84.708190) rotate(202.656630) scale(41.940964 109.045324)"><ellipse fill="#f4dfb7" fill-opacity=".501961" cx="0" cy="0" rx="1" ry="1" /></g><g transform="translate(238.123616 77.553993) rotate(399.748189) scale(69.721449 118.015705)"><ellipse fill="#00111f" fill-opacity=".501961" cx="0" cy="0" rx="1" ry="1" /></g><ellipse fill="#132500" fill-opacity=".501961" cx="71" cy="0" rx="28" ry="28" /><path fill="#dcceb9" fill-opacity=".501961" d="M142.656811-3.647143 128.110971 72.784723 169.93088 96.823989 170.797511 87.812707z" /><g transform="translate(9 163) rotate(34) scale(56 44)"><path d="M0 0h1024v678H0z" fill="#191800" /></g><g transform="translate(74.213438 74.078238) rotate(121.134689) scale(97.877728 21.117391)"><ellipse fill="#8a7d4f" fill-opacity=".501961" cx="0" cy="0" rx="1" ry="1" /></g><g transform="translate(123.136298 105.032599) rotate(231.309551) scale(35.267469 18.128044)"><ellipse fill="#ded6ca" fill-opacity=".501961" cx="0" cy="0" rx="1" ry="1" /></g><g transform="translate(154 168) rotate(75) scale(26 63)"><path d="M0 0h1024v678H0z" fill="#000" /></g></g></svg>