<svg xmlns="http://www.w3.org/2000/svg" viewBox="0 0 1024 678"><filter id="b"><feGaussianBlur stdDeviation="12" /></filter><path d="M0 0h1024v678H0z" fill="#6e8598" /><g filter="url(#b)" transform="scale(4.000000) translate(0.5 0.5)"><g transform="translate(122.096161 158.194709) rotate(190.863577) scale(181.430133 52.235495)"><ellipse fill="#02171f" fill-opacity=".501961" cx="0" cy="0" rx="1" ry="1" /></g><ellipse fill="#e9edf1" fill-opacity=".501961" cx="197" cy="56" rx="240" ry="36" /><g transform="translate(198.090901 110.479108) rotate(176.999177) scale(69.124471 11.366439)"><ellipse fill="#003362" fill-opacity=".501961" cx="0" cy="0" rx="1" ry="1" /></g><g transform="translate(143.788059 21.699640) rotate(368.529106) scale(58.602489 37.084031)"><ellipse fill="#5b83b9" fill-opacity=".501961" cx="0" cy="0" rx="1" ry="1" /></g><g transform="translate(0.000000 105.221347) rotate(374.395441) scale(48.532313 19.801859)"><ellipse fill="#00000f" fill-opacity=".501961" cx="0" cy="0" rx="1" ry="1" /></g><g transform="translate(212.940252 72.158033) rotate(265.196618) scale(15.441870 88.011689)"><ellipse fill="#fff7da" fill-opacity=".501961" cx="0" cy="0" rx="1" ry="1" /></g><g transform="translate(94.908325 123.851284) rotate(310.061456) scale(46.959840 22.107898)"><ellipse fill="#5c7e9f" fill-opacity=".501961" cx="0" cy="0" rx="1" ry="1" /></g><g transform="translate(34.483627 96.111685) rotate(191.195634) scale(57.543536 9.074698)"><ellipse fill="#116fbd" fill-opacity=".501961" cx="0" cy="0" rx="1" ry="1" /></g></g></svg>