<svg xmlns="http://www.w3.org/2000/svg" viewBox="0 0 678 1024"><filter id="b"><feGaussianBlur stdDeviation="12" /></filter><path d="M0 0h678v1024H0z" fill="#6b7a5c" /><g filter="url(#b)" transform="scale(4.000000) translate(0.5 0.5)"><g transform="translate(125.523087 45.736033) rotate(88.442841) scale(101.469769 39.053423)"><ellipse fill="#b6dc7f" fill-opacity=".501961" cx="0" cy="0" rx="1" ry="1" /></g><g transform="translate(10.626979 143.671744) rotate(85.718040) scale(164.537544 32.709851)"><ellipse fill="#0f214f" fill-opacity=".501961" cx="0" cy="0" rx="1" ry="1" /></g><g transform="translate(79.214798 106.582570) rotate(178.581515) scale(16.193999 42.435564)"><ellipse fill="#180000" fill-opacity=".501961" cx="0" cy="0" rx="1" ry="1" /></g><g transform="translate(140.019828 199.575748) rotate(189.181016) scale(43.203786 105.304185)"><ellipse fill="#88a434" fill-opacity=".501961" cx="0" cy="0" rx="1" ry="1" /></g><g transform="translate(116.931105 5.856948) rotate(48.241060) scale(37.290930 14.551779)"><ellipse fill="#cedfdf" fill-opacity=".501961" cx="0" cy="0" rx="1" ry="1" /></g><ellipse fill="#9291ac" fill-opacity=".501961" cx="54" cy="29" rx="9" ry="170" /><ellipse fill="#080900" fill-opacity=".501961" cx="0" cy="191" rx="13" ry="63" /><path d="M0 0h678v1024H0z" fill="#ffefdd" /></g></svg>