<svg xmlns="http://www.w3.org/2000/svg" viewBox="0 0 678 1024"><filter id="b"><feGaussianBlur stdDeviation="12" /></filter><path d="M0 0h678v1024H0z" fill="#4b4b3a" /><g filter="url(#b)" transform="scale(4.000000) translate(0.5 0.5)"><g transform="translate(116.389074 35.542419) rotate(193.657634) scale(43.153800 60.151218)"><ellipse fill="#ffffd5" fill-opacity=".501961" cx="0" cy="0" rx="1" ry="1" /></g><ellipse fill="#000" fill-opacity=".501961" cx="31" cy="62" rx="43" ry="120" /><g transform="translate(85.935891 227.929673) rotate(282.156869) scale(78.375940 42.394649)"><ellipse fill="#000" fill-opacity=".501961" cx="0" cy="0" rx="1" ry="1" /></g><path fill="#f2ffd1" fill-opacity=".501961" d="M184 143l-72 7 20 30z" /><g transform="translate(122.873323 10.398393) rotate(-7.374581) scale(54.451844 24.693341)"><ellipse fill="#deffad" fill-opacity=".501961" cx="0" cy="0" rx="1" ry="1" /></g><g transform="translate(142.169307 240.140583) rotate(261.526065) scale(49.774225 5.083092)"><ellipse fill="#fffcf3" fill-opacity=".501961" cx="0" cy="0" rx="1" ry="1" /></g><path fill="#b6737c" fill-opacity=".501961" d="M40 148 88 81l94-31z" /><g transform="translate(117.198884 128.295982) rotate(69.693697) scale(20.811415 37.165079)"><ellipse fill="#200004" fill-opacity=".501961" cx="0" cy="0" rx="1" ry="1" /></g></g></svg>