<svg xmlns="http://www.w3.org/2000/svg" viewBox="0 0 1024 678"><filter id="b"><feGaussianBlur stdDeviation="12" /></filter><path d="M0 0h1024v678H0z" fill="#8b908c" /><g filter="url(#b)" transform="scale(4.000000) translate(0.5 0.5)"><g transform="translate(128.635835 97.546949) rotate(35.900010) scale(51.855523 31.471930)"><ellipse fill="#000e00" fill-opacity=".501961" cx="0" cy="0" rx="1" ry="1" /></g><g transform="translate(167.179614 159.457040) rotate(174.392498) scale(174.563400 36.717456)"><ellipse fill="#dfe3e7" fill-opacity=".501961" cx="0" cy="0" rx="1" ry="1" /></g><g transform="translate(221.388299 0.944399) rotate(224.829929) scale(31.310251 53.945761)"><ellipse fill="#141310" fill-opacity=".501961" cx="0" cy="0" rx="1" ry="1" /></g><path fill="#003100" fill-opacity=".501961" d="M133.122556 53.447307 175.234299 124.0015 181.841789 150.792311 95.186499 100.718861z" /><g transform="translate(202.349378 102.249983) rotate(322.922023) scale(24.546530 107.949048)"><ellipse fill="#cbccd7" fill-opacity=".501961" cx="0" cy="0" rx="1" ry="1" /></g><g transform="translate(65.085265 99.821226) rotate(192.876010) scale(16.892932 82.951890)"><ellipse fill="#d4d1d9" fill-opacity=".501961" cx="0" cy="0" rx="1" ry="1" /></g><g transform="translate(112.821232 2.667004) rotate(96.375541) scale(66.013129 14.122143)"><ellipse fill="#2e343d" fill-opacity=".501961" cx="0" cy="0" rx="1" ry="1" /></g><g transform="translate(10.664040 45.801339) rotate(183.957235) scale(16.169881 101.011004)"><ellipse fill="#4c4f4e" fill-opacity=".501961" cx="0" cy="0" rx="1" ry="1" /></g></g></svg>