<svg xmlns="http://www.w3.org/2000/svg" viewBox="0 0 678 1024"><filter id="b"><feGaussianBlur stdDeviation="12" /></filter><path d="M0 0h678v1024H0z" fill="#3d3d35" /><g filter="url(#b)" transform="scale(4.000000) translate(0.5 0.5)"><g transform="translate(73.715600 91.558792) rotate(275.191380) scale(65.425310 22.140943)"><ellipse fill="#92a7b2" fill-opacity=".501961" cx="0" cy="0" rx="1" ry="1" /></g><ellipse fill="#161913" fill-opacity=".501961" cx="138" cy="217" rx="33" ry="255" /><g transform="translate(76.435963 179.817487) rotate(352.508752) scale(4.673558 54.667799)"><ellipse fill="#d7ac9b" fill-opacity=".501961" cx="0" cy="0" rx="1" ry="1" /></g><g transform="translate(33.540058 211.387630) rotate(98.702537) scale(22.061296 43.437173)"><ellipse fill="#070b01" fill-opacity=".501961" cx="0" cy="0" rx="1" ry="1" /></g><g transform="translate(62 105) rotate(16) scale(10 44)"><path d="M0 0h678v1024H0z" fill="#000" /></g><path fill="#abd3e6" fill-opacity=".501961" d="M77.857459 57.249852 74.67347 140.42999 53.128455 140.714343 90.81043 55.608989z" /><g transform="translate(87 92) rotate(84) scale(39 37)"><path d="M0 0h678v1024H0z" fill="#1585b4" /></g><path fill="#c19787" fill-opacity=".501961" d="M99.450849 131.669608 92.506204 139.891786 92.038455 184.838939 105.232523 256.144706z" /></g></svg>