<svg xmlns="http://www.w3.org/2000/svg" viewBox="0 0 1024 678"><filter id="b"><feGaussianBlur stdDeviation="12" /></filter><path d="M0 0h1024v678H0z" fill="#4e4b41" /><g filter="url(#b)" transform="scale(4.000000) translate(0.5 0.5)"><path fill="#ffb955" fill-opacity=".501961" d="M-11-16 223 72 6 74z" /><ellipse fill="#001129" fill-opacity=".501961" cx="255" cy="117" rx="255" ry="43" /><g transform="translate(183.053803 13.155898) rotate(66.523754) scale(7.306581 40.182580)"><ellipse fill="#f2ac64" fill-opacity=".501961" cx="0" cy="0" rx="1" ry="1" /></g><path d="M0 0h1024v678H0z" fill="#e7a13f" /><path d="M0 0h1024v678H0z" fill="#3e3a44" /><g transform="translate(193.099614 141.406139) rotate(1.125616) scale(80.868737 76.331665)"><ellipse fill="#052736" fill-opacity=".501961" cx="0" cy="0" rx="1" ry="1" /></g><g transform="translate(29.813545 3.996683) rotate(156.861716) scale(159.696981 15.142474)"><ellipse fill="#d0ba9c" fill-opacity=".501961" cx="0" cy="0" rx="1" ry="1" /></g><g transform="translate(57.900513 156.486632) rotate(277.033515) scale(23.137021 118.999520)"><ellipse fill="#3e5b69" fill-opacity=".501961" cx="0" cy="0" rx="1" ry="1" /></g></g></svg>