<svg xmlns="http://www.w3.org/2000/svg" viewBox="0 0 1024 678"><filter id="b"><feGaussianBlur stdDeviation="12" /></filter><path d="M0 0h1024v678H0z" fill="#52544d" /><g filter="url(#b)" transform="scale(4.000000) translate(0.5 0.5)"><path fill="#000" fill-opacity=".501961" d="M-16 0 271-16 4 77z" /><ellipse fill="#857c85" fill-opacity=".501961" cx="188" cy="100" rx="71" ry="83" /><path fill="#bcc9c5" fill-opacity=".501961" d="M-16 104l43 76 34-39z" /><g transform="translate(192.117670 114.744826) rotate(225.859415) scale(17.594883 36.657426)"><ellipse fill="#354f18" fill-opacity=".501961" cx="0" cy="0" rx="1" ry="1" /></g><ellipse fill="#041600" fill-opacity=".501961" cx="77" cy="7" rx="91" ry="30" /><g transform="translate(220 162) rotate(160) scale(31 35)"><path d="M0 0h1024v678H0z" fill="#ba91d2" /></g><path fill="#7e648a" fill-opacity=".501961" d="M70.360922 57.719369 53.302213 48.87475 111.696751 39.998538 61.085273 79.345141z" /><g transform="translate(251.480438 43.993530) rotate(210.945998) scale(21.254879 37.582835)"><ellipse fill="#26381b" fill-opacity=".501961" cx="0" cy="0" rx="1" ry="1" /></g></g></svg>