<svg xmlns="http://www.w3.org/2000/svg" viewBox="0 0 1024 678"><filter id="b"><feGaussianBlur stdDeviation="12" /></filter><path d="M0 0h1024v678H0z" fill="#5e5e5e" /><g filter="url(#b)" transform="scale(4.000000) translate(0.5 0.5)"><ellipse fill="#f0f0f0" fill-opacity=".501961" cx="91" cy="86" rx="64" ry="64" /><g transform="translate(224.908266 117.471267) rotate(374.768864) scale(42.600525 178.769608)"><ellipse fill="#000" fill-opacity=".501961" cx="0" cy="0" rx="1" ry="1" /></g><g transform="translate(9.616062 120.228995) rotate(153.170491) scale(28.058534 135.026940)"><ellipse fill="#000" fill-opacity=".501961" cx="0" cy="0" rx="1" ry="1" /></g><g transform="translate(139.241991 45.395458) rotate(254.211330) scale(16.192936 90.820966)"><ellipse fill="#d5d5d5" fill-opacity=".501961" cx="0" cy="0" rx="1" ry="1" /></g><path fill="#000" fill-opacity=".501961" d="M50-16 27 31 214 13z" /><g transform="translate(38.688114 44.660572) rotate(267.030484) scale(14.663087 70.518645)"><ellipse fill="#d7d7d7" fill-opacity=".501961" cx="0" cy="0" rx="1" ry="1" /></g><g transform="translate(158.424965 99.154295) rotate(228.871735) scale(17.883141 36.692128)"><ellipse fill="#1b1b1b" fill-opacity=".501961" cx="0" cy="0" rx="1" ry="1" /></g><ellipse fill="#000" fill-opacity=".501961" cx="255" cy="124" rx="70" ry="70" /></g></svg>