<svg xmlns="http://www.w3.org/2000/svg" viewBox="0 0 678 1024"><filter id="b"><feGaussianBlur stdDeviation="12" /></filter><path d="M0 0h678v1024H0z" fill="#5b5954" /><g filter="url(#b)" transform="scale(4.000000) translate(0.5 0.5)"><g transform="translate(22.952153 153.750754) rotate(256.382828) scale(168.000000 42.945251)"><ellipse fill="#c1d0d2" fill-opacity=".501961" cx="0" cy="0" rx="1" ry="1" /></g><g transform="translate(128.506534 108.512213) rotate(163.939260) scale(77.889800 168.000000)"><ellipse fill="#291b14" fill-opacity=".501961" cx="0" cy="0" rx="1" ry="1" /></g><path fill="#95cfff" fill-opacity=".501961" d="M107.813839 20.281033 98.068061 17.63071 178.842707-15.196834 26.363062-16z" /><path fill="#787e7d" fill-opacity=".501961" d="M94.310105 124.789693 108.690617 87.602777 129.022674 251.270088 97.226749 222.780271z" /><g transform="translate(29 7) rotate(320) scale(27 88)"><path d="M0 0h678v1024H0z" fill="#0e0a00" /></g><g transform="translate(85.246773 249.007014) rotate(223.535994) scale(10.246759 36.911125)"><ellipse fill="#a6afb4" fill-opacity=".501961" cx="0" cy="0" rx="1" ry="1" /></g><g transform="translate(72.796246 108.475891) rotate(268.169585) scale(11.658497 27.224389)"><ellipse fill="#b5172b" fill-opacity=".501961" cx="0" cy="0" rx="1" ry="1" /></g><ellipse fill="#000" fill-opacity=".501961" cx="83" cy="155" rx="11" ry="40" /></g></svg>