<svg xmlns="http://www.w3.org/2000/svg" viewBox="0 0 1024 678"><filter id="b"><feGaussianBlur stdDeviation="12" /></filter><path d="M0 0h1024v678H0z" fill="#43403a" /><g filter="url(#b)" transform="scale(4.000000) translate(0.5 0.5)"><g transform="translate(142.068339 141.324943) rotate(103.696764) scale(43.332401 76.799925)"><ellipse fill="#9f9991" fill-opacity=".501961" cx="0" cy="0" rx="1" ry="1" /></g><g transform="translate(20.961836 101.426642) rotate(102.355830) scale(34.769926 59.777884)"><ellipse fill="#000" fill-opacity=".501961" cx="0" cy="0" rx="1" ry="1" /></g><path fill="#0b0a03" fill-opacity=".501961" d="M271 140 105 48l162-3z" /><path fill="#d4afa3" fill-opacity=".501961" d="M59 43 28 78 64-16z" /><g transform="translate(161 89) rotate(229) scale(24 35)"><path d="M0 0h1024v678H0z" fill="#d29a99" /></g><g transform="translate(0.000000 53.951225) rotate(289.389212) scale(106.952295 24.313527)"><ellipse fill="#060000" fill-opacity=".501961" cx="0" cy="0" rx="1" ry="1" /></g><g transform="translate(85.428752 139.806125) rotate(258.677710) scale(13.850349 17.866412)"><ellipse fill="#f6b8b1" fill-opacity=".501961" cx="0" cy="0" rx="1" ry="1" /></g><ellipse fill="#e5b9ba" fill-opacity=".501961" cx="98" cy="78" rx="6" ry="21" /></g></svg>