<svg xmlns="http://www.w3.org/2000/svg" viewBox="0 0 678 1024"><filter id="b"><feGaussianBlur stdDeviation="12" /></filter><path d="M0 0h678v1024H0z" fill="#6e6763" /><g filter="url(#b)" transform="scale(4.000000) translate(0.5 0.5)"><g transform="translate(88.273718 123.145758) rotate(276.319254) scale(168.000000 21.445808)"><ellipse fill="#200304" fill-opacity=".501961" cx="0" cy="0" rx="1" ry="1" /></g><g transform="translate(52.818426 56.506607) rotate(364.445990) scale(10.661421 87.505406)"><ellipse fill="#feffff" fill-opacity=".501961" cx="0" cy="0" rx="1" ry="1" /></g><path fill="#cfcfc7" fill-opacity=".501961" d="M135 228 164 68 94 79z" /><path d="M0 0h678v1024H0z" fill="#d7edf5" /><path fill="#f83646" fill-opacity=".501961" d="M120 86 67 87 43 148z" /><g transform="translate(97.568778 179.730358) rotate(244.058416) scale(41.318090 19.507102)"><ellipse fill="#020b08" fill-opacity=".501961" cx="0" cy="0" rx="1" ry="1" /></g><g transform="translate(88.597037 41.053875) rotate(81.281243) scale(42.996409 15.473584)"><ellipse fill="#020500" fill-opacity=".501961" cx="0" cy="0" rx="1" ry="1" /></g><path fill="#cdd3ce" fill-opacity=".501961" d="M164 15 123 38l8 34z" /></g></svg>