<svg xmlns="http://www.w3.org/2000/svg" viewBox="0 0 1024 678"><filter id="b"><feGaussianBlur stdDeviation="12" /></filter><path d="M0 0h1024v678H0z" fill="#44463b" /><g filter="url(#b)" transform="scale(4.000000) translate(0.5 0.5)"><g transform="translate(119.874196 66.322858) rotate(93.756074) scale(20.066059 85.870238)"><ellipse fill="#efd192" fill-opacity=".501961" cx="0" cy="0" rx="1" ry="1" /></g><g transform="translate(126.087360 96.599680) rotate(334.742577) scale(44.201831 21.850657)"><ellipse fill="#f3c25f" fill-opacity=".501961" cx="0" cy="0" rx="1" ry="1" /></g><ellipse fill="#000" fill-opacity=".501961" cx="207" cy="147" rx="67" ry="36" /><g transform="translate(228.388963 50.393948) rotate(442.364653) scale(31.801748 40.641496)"><ellipse fill="#969681" fill-opacity=".501961" cx="0" cy="0" rx="1" ry="1" /></g><g transform="translate(41.857263 151.036575) rotate(205.151049) scale(181.534911 43.150369)"><ellipse fill="#010706" fill-opacity=".501961" cx="0" cy="0" rx="1" ry="1" /></g><g transform="translate(116.031965 4.161892) rotate(250.416384) scale(50.250029 50.750075)"><ellipse fill="#00193a" fill-opacity=".501961" cx="0" cy="0" rx="1" ry="1" /></g><g transform="translate(2.953699 10.179830) rotate(83.630394) scale(50.118246 42.724190)"><ellipse fill="#000723" fill-opacity=".501961" cx="0" cy="0" rx="1" ry="1" /></g><path d="M0 0h1024v678H0z" fill="#f0ecc3" /></g></svg>