<svg xmlns="http://www.w3.org/2000/svg" viewBox="0 0 1024 678"><filter id="b"><feGaussianBlur stdDeviation="12" /></filter><path d="M0 0h1024v678H0z" fill="#737572" /><g filter="url(#b)" transform="scale(4.000000) translate(0.5 0.5)"><g transform="translate(229.671244 133.596450) rotate(143.325851) scale(58.526657 99.720943)"><ellipse fill="#000" fill-opacity=".501961" cx="0" cy="0" rx="1" ry="1" /></g><ellipse fill="#bdbfc0" fill-opacity=".501961" cx="35" cy="3" rx="136" ry="136" /><g transform="translate(224.662747 144.601096) rotate(49.587383) scale(90.888474 42.059160)"><ellipse fill="#000" fill-opacity=".501961" cx="0" cy="0" rx="1" ry="1" /></g><ellipse fill="#222323" fill-opacity=".501961" cx="14" cy="76" rx="22" ry="20" /><ellipse fill="#9098a2" fill-opacity=".501961" cx="225" cy="18" rx="48" ry="55" /><g transform="translate(104.360988 147.872655) rotate(76.231088) scale(7.510054 90.960048)"><ellipse fill="#c7c4b9" fill-opacity=".501961" cx="0" cy="0" rx="1" ry="1" /></g><path fill="#475260" fill-opacity=".501961" d="M189.192897 36.216404 121.538069 35.183543 87.833704 48.47233 116.38985-16z" /><g transform="translate(59.153271 32.835142) rotate(325.424735) scale(29.068422 58.473994)"><ellipse fill="#c9cbc8" fill-opacity=".501961" cx="0" cy="0" rx="1" ry="1" /></g></g></svg>