<svg xmlns="http://www.w3.org/2000/svg" viewBox="0 0 683 1024"><filter id="b"><feGaussianBlur stdDeviation="12" /></filter><path d="M0 0h683v1024H0z" fill="#4d5b60" /><g filter="url(#b)" transform="scale(4.000000) translate(0.5 0.5)"><g transform="translate(32.767128 121.297529) rotate(227.573804) scale(47.329139 65.669917)"><ellipse fill="#94b6d0" fill-opacity=".501961" cx="0" cy="0" rx="1" ry="1" /></g><g transform="translate(70.144935 223.885234) rotate(181.655757) scale(26.378326 103.878066)"><ellipse fill="#080000" fill-opacity=".501961" cx="0" cy="0" rx="1" ry="1" /></g><g transform="translate(152.159076 222.948429) rotate(352.470672) scale(29.771737 122.320900)"><ellipse fill="#29200f" fill-opacity=".501961" cx="0" cy="0" rx="1" ry="1" /></g><g transform="translate(106.341487 209.202356) rotate(173.768257) scale(10.999055 62.597657)"><ellipse fill="#dac3a0" fill-opacity=".501961" cx="0" cy="0" rx="1" ry="1" /></g><g transform="translate(153.973269 44.908690) rotate(168.762014) scale(22.477202 66.126798)"><ellipse fill="#261b0b" fill-opacity=".501961" cx="0" cy="0" rx="1" ry="1" /></g><path fill="#3a99d6" fill-opacity=".501961" d="M-16 246 43 145 39 271z" /><g transform="translate(39.411400 35.920445) rotate(144.507755) scale(40.235474 50.890418)"><ellipse fill="#0e5792" fill-opacity=".501961" cx="0" cy="0" rx="1" ry="1" /></g><ellipse fill="#947858" fill-opacity=".501961" cx="110" cy="0" rx="20" ry="142" /></g></svg>