<svg xmlns="http://www.w3.org/2000/svg" viewBox="0 0 683 1024"><filter id="b"><feGaussianBlur stdDeviation="12" /></filter><path d="M0 0h683v1024H0z" fill="#4d5b60" /><g filter="url(#b)" transform="scale(4.000000) translate(0.5 0.5)"><g transform="translate(37.580231 123.417258) rotate(41.728252) scale(40.480828 62.621568)"><ellipse fill="#9bbcd7" fill-opacity=".501961" cx="0" cy="0" rx="1" ry="1" /></g><g transform="translate(70 227) rotate(179) scale(52 145)"><path d="M0 0h683v1024H0z" fill="#000" /></g><ellipse fill="#22190a" fill-opacity=".501961" cx="151" cy="231" rx="32" ry="99" /><path fill="#e6cfad" fill-opacity=".501961" d="M98 267l1-120 33 124z" /><g transform="translate(164.774576 45.094333) rotate(80.845516) scale(69.789268 32.685641)"><ellipse fill="#261b0c" fill-opacity=".501961" cx="0" cy="0" rx="1" ry="1" /></g><g transform="translate(8.427949 243.605561) rotate(202.533322) scale(23.439765 81.283435)"><ellipse fill="#3594ce" fill-opacity=".501961" cx="0" cy="0" rx="1" ry="1" /></g><g transform="translate(39.517200 30.848741) rotate(242.782995) scale(55.609451 40.891575)"><ellipse fill="#105a95" fill-opacity=".501961" cx="0" cy="0" rx="1" ry="1" /></g><ellipse fill="#987c5c" fill-opacity=".501961" cx="110" cy="51" rx="16" ry="93" /></g></svg>