<svg xmlns="http://www.w3.org/2000/svg" viewBox="0 0 683 1024"><filter id="b"><feGaussianBlur stdDeviation="12" /></filter><path d="M0 0h683v1024H0z" fill="#5a5b56" /><g filter="url(#b)" transform="scale(4.000000) translate(0.5 0.5)"><g transform="translate(17.460931 19.248809) rotate(324.368164) scale(102.380718 47.478971)"><ellipse fill="#fffffb" fill-opacity=".501961" cx="0" cy="0" rx="1" ry="1" /></g><g transform="translate(41.675603 241.020128) rotate(191.998433) scale(101.460928 120.298724)"><ellipse fill="#000" fill-opacity=".501961" cx="0" cy="0" rx="1" ry="1" /></g><g transform="translate(144.373889 56.015354) rotate(-15.644558) scale(34.998362 106.888357)"><ellipse fill="#98b0c4" fill-opacity=".501961" cx="0" cy="0" rx="1" ry="1" /></g><g transform="translate(46.093982 82.357412) rotate(287.382313) scale(40.352587 15.153213)"><ellipse fill="#d2cac3" fill-opacity=".501961" cx="0" cy="0" rx="1" ry="1" /></g><path fill="#d9ae83" fill-opacity=".501961" d="M14.161664 209.446473 119.34288 164.211096 133.412768 155.504912 73.24974 170.032151z" /><g transform="translate(33 48) rotate(188) scale(11 59)"><path d="M0 0h683v1024H0z" fill="#0c1720" /></g><g transform="translate(101 95) rotate(273) scale(41 24)"><path d="M0 0h683v1024H0z" fill="#e7c6b2" /></g><g transform="translate(119.545555 252.739487) rotate(18.429457) scale(67.012708 34.377726)"><ellipse fill="#000" fill-opacity=".501961" cx="0" cy="0" rx="1" ry="1" /></g></g></svg>