<svg xmlns="http://www.w3.org/2000/svg" viewBox="0 0 1024 683"><filter id="b"><feGaussianBlur stdDeviation="12" /></filter><path d="M0 0h1024v683H0z" fill="#5f727c" /><g filter="url(#b)" transform="scale(4.000000) translate(0.5 0.5)"><g transform="translate(25.955369 114.012499) rotate(362.227402) scale(53.007579 197.378398)"><ellipse fill="#552a00" fill-opacity=".501961" cx="0" cy="0" rx="1" ry="1" /></g><g transform="translate(158.175644 74.462303) rotate(134.670235) scale(45.163221 105.001660)"><ellipse fill="#a3b9d4" fill-opacity=".501961" cx="0" cy="0" rx="1" ry="1" /></g><g transform="translate(226.640201 26.368821) rotate(149.648596) scale(39.649884 116.878799)"><ellipse fill="#002f7c" fill-opacity=".501961" cx="0" cy="0" rx="1" ry="1" /></g><g transform="translate(116.478526 112.779722) rotate(311.495475) scale(22.511929 52.483101)"><ellipse fill="#8ba9c2" fill-opacity=".501961" cx="0" cy="0" rx="1" ry="1" /></g><g transform="translate(234.938811 28.617254) rotate(325.426762) scale(32.060985 215.109418)"><ellipse fill="#004173" fill-opacity=".501961" cx="0" cy="0" rx="1" ry="1" /></g><ellipse fill="#618eaa" fill-opacity=".501961" cx="189" cy="169" rx="114" ry="73" /><g transform="translate(194.036238 82.180371) rotate(-8.332319) scale(24.091510 49.090068)"><ellipse fill="#9aa5b3" fill-opacity=".501961" cx="0" cy="0" rx="1" ry="1" /></g><ellipse fill="#171900" fill-opacity=".501961" cx="70" cy="12" rx="6" ry="143" /></g></svg>