<svg xmlns="http://www.w3.org/2000/svg" viewBox="0 0 1024 683"><filter id="b"><feGaussianBlur stdDeviation="12" /></filter><path d="M0 0h1024v683H0z" fill="#252f2d" /><g filter="url(#b)" transform="scale(4.000000) translate(0.5 0.5)"><g transform="translate(81.279871 56.832512) rotate(240.035002) scale(62.500224 30.667147)"><ellipse fill="#c2d5d1" fill-opacity=".501961" cx="0" cy="0" rx="1" ry="1" /></g><ellipse fill="#000" fill-opacity=".501961" cx="220" cy="85" rx="96" ry="96" /><g transform="translate(196.325705 62.229864) rotate(441.745601) scale(28.851041 20.967357)"><ellipse fill="#9eb5c6" fill-opacity=".501961" cx="0" cy="0" rx="1" ry="1" /></g><g transform="translate(38.295706 103.017095) rotate(20.585101) scale(20.143822 9.951976)"><ellipse fill="#e4ffff" fill-opacity=".501961" cx="0" cy="0" rx="1" ry="1" /></g><ellipse fill="#e3e9df" fill-opacity=".501961" cx="50" cy="73" rx="18" ry="11" /><g transform="translate(98 3) rotate(85) scale(17 35)"><path d="M0 0h1024v683H0z" fill="#b8e5ff" /></g><g transform="translate(104.411034 141.428384) rotate(199.366359) scale(27.382977 9.054260)"><ellipse fill="#72beab" fill-opacity=".501961" cx="0" cy="0" rx="1" ry="1" /></g><g transform="translate(63.551379 145.257310) rotate(120.503603) scale(13.406298 101.139714)"><ellipse fill="#000" fill-opacity=".501961" cx="0" cy="0" rx="1" ry="1" /></g></g></svg>