<svg xmlns="http://www.w3.org/2000/svg" viewBox="0 0 1024 684"><filter id="b"><feGaussianBlur stdDeviation="12" /></filter><path d="M0 0h1024v684H0z" fill="#9a898a" /><g filter="url(#b)" transform="scale(4.000000) translate(0.5 0.5)"><g transform="translate(91.086387 7.567337) rotate(66.729610) scale(54.345090 108.744618)"><ellipse fill="#ffffed" fill-opacity=".501961" cx="0" cy="0" rx="1" ry="1" /></g><g transform="translate(138.441969 97.549046) rotate(39.711795) scale(25.220751 219.776859)"><ellipse fill="#2d2d4c" fill-opacity=".501961" cx="0" cy="0" rx="1" ry="1" /></g><path fill="#fff" fill-opacity=".501961" d="M-9-16-16 35 160-5z" /><ellipse fill="#6a5a68" fill-opacity=".501961" cx="93" cy="161" rx="250" ry="25" /><path fill="#0a0113" fill-opacity=".501961" d="M125.775771 80.137436 110.936682 100.390398 111.545023 57.776779 127.780875 40.005264z" /><g transform="translate(75.132921 41.901051) rotate(252.674679) scale(30.009387 71.904769)"><ellipse fill="#ffcf96" fill-opacity=".501961" cx="0" cy="0" rx="1" ry="1" /></g><path fill="#44241c" fill-opacity=".501961" d="M145 117l36-37 36 4z" /><g transform="translate(146.738596 26.816623) rotate(297.946037) scale(37.551898 15.882467)"><ellipse fill="#ffe6b9" fill-opacity=".501961" cx="0" cy="0" rx="1" ry="1" /></g></g></svg>