<svg xmlns="http://www.w3.org/2000/svg" viewBox="0 0 683 1024"><filter id="b"><feGaussianBlur stdDeviation="12" /></filter><path d="M0 0h683v1024H0z" fill="#606768" /><g filter="url(#b)" transform="scale(4.000000) translate(0.5 0.5)"><g transform="translate(118.859069 116.997258) rotate(344.647637) scale(47.125464 71.531672)"><ellipse fill="#000" fill-opacity=".501961" cx="0" cy="0" rx="1" ry="1" /></g><path fill="#a9b6b8" fill-opacity=".501961" d="M22 222 102-16-16 12z" /><g transform="translate(44.196005 172.369048) rotate(49.268514) scale(115.507312 32.926534)"><ellipse fill="#899292" fill-opacity=".501961" cx="0" cy="0" rx="1" ry="1" /></g><path fill="#02161d" fill-opacity=".501961" d="M96 46 51 94 186 213z" /><path fill="#cedff0" fill-opacity=".501961" d="M95 40 36 46 62 78z" /><g transform="translate(155.606053 223.385694) rotate(151.375782) scale(12.397673 70.649461)"><ellipse fill="#909698" fill-opacity=".501961" cx="0" cy="0" rx="1" ry="1" /></g><g transform="translate(70 137) rotate(409) scale(32 25)"><path d="M0 0h683v1024H0z" fill="#a3afb2" /></g><path fill="#493226" fill-opacity=".501961" d="M-16 271l64-17-54-92z" /></g></svg>