<svg xmlns="http://www.w3.org/2000/svg" viewBox="0 0 683 1024"><filter id="b"><feGaussianBlur stdDeviation="12" /></filter><path d="M0 0h683v1024H0z" fill="#6e6552" /><g filter="url(#b)" transform="scale(4.000000) translate(0.5 0.5)"><g transform="translate(162.508450 178.811013) rotate(275.041065) scale(170.000000 20.850202)"><ellipse fill="#000b12" fill-opacity=".501961" cx="0" cy="0" rx="1" ry="1" /></g><g transform="translate(8.031825 95.715324) rotate(343.602072) scale(44.316204 138.789124)"><ellipse fill="#d1a667" fill-opacity=".501961" cx="0" cy="0" rx="1" ry="1" /></g><g transform="translate(14.830599 29.553514) rotate(54.293279) scale(40.730826 15.479734)"><ellipse fill="#94c0ff" fill-opacity=".501961" cx="0" cy="0" rx="1" ry="1" /></g><g transform="translate(101.355589 2.577604) rotate(36.489626) scale(137.828492 63.108321)"><ellipse fill="#313c3c" fill-opacity=".501961" cx="0" cy="0" rx="1" ry="1" /></g><ellipse fill="#a4792e" fill-opacity=".501961" cx="36" cy="195" rx="58" ry="58" /><g transform="translate(97.212715 144.127157) rotate(233.744136) scale(61.348906 35.104558)"><ellipse fill="#707f8d" fill-opacity=".501961" cx="0" cy="0" rx="1" ry="1" /></g><path fill="#200000" fill-opacity=".501961" d="M84 136l-8-24 40 35z" /><g transform="translate(152 239) rotate(89) scale(63 53)"><path d="M0 0h683v1024H0z" fill="#19282e" /></g></g></svg>