<svg xmlns="http://www.w3.org/2000/svg" viewBox="0 0 1024 684"><filter id="b"><feGaussianBlur stdDeviation="12" /></filter><path d="M0 0h1024v684H0z" fill="#807971" /><g filter="url(#b)" transform="scale(4.000000) translate(0.5 0.5)"><g transform="translate(147.789511 156.962751) rotate(97.327025) scale(58.595414 255.000000)"><ellipse fill="#202e4b" fill-opacity=".501961" cx="0" cy="0" rx="1" ry="1" /></g><g transform="translate(149.667997 23.824788) rotate(258.598657) scale(69.709434 144.110527)"><ellipse fill="#d6bf98" fill-opacity=".501961" cx="0" cy="0" rx="1" ry="1" /></g><g transform="translate(37.131062 42.588054) rotate(175.649713) scale(39.717174 18.185630)"><ellipse fill="#5c684d" fill-opacity=".501961" cx="0" cy="0" rx="1" ry="1" /></g><path fill="#0d1320" fill-opacity=".501961" d="M156 115l84 33-133-2z" /><ellipse fill="#060000" fill-opacity=".501961" cx="0" cy="93" rx="37" ry="14" /><ellipse fill="#e5b39c" fill-opacity=".501961" cx="141" cy="13" rx="73" ry="24" /><path d="M0 0h1024v684H0z" fill="#001800" /><g transform="translate(102.355865 112.157438) rotate(1.508422) scale(99.389535 10.113830)"><ellipse fill="#767d88" fill-opacity=".501961" cx="0" cy="0" rx="1" ry="1" /></g></g></svg>