<svg xmlns="http://www.w3.org/2000/svg" viewBox="0 0 684 1024"><filter id="b"><feGaussianBlur stdDeviation="12" /></filter><path d="M0 0h684v1024H0z" fill="#7f8a9a" /><g filter="url(#b)" transform="scale(4.000000) translate(0.5 0.5)"><ellipse fill="#96efff" fill-opacity=".501961" cx="20" cy="40" rx="141" ry="76" /><g transform="translate(149.352684 223.554635) rotate(210.818695) scale(37.598391 86.927974)"><ellipse fill="#000" fill-opacity=".501961" cx="0" cy="0" rx="1" ry="1" /></g><g transform="translate(40.721165 145.185703) rotate(418.464650) scale(17.704970 123.254938)"><ellipse fill="#560b00" fill-opacity=".501961" cx="0" cy="0" rx="1" ry="1" /></g><g transform="translate(58.931898 87.621273) rotate(155.466974) scale(60.854574 25.619397)"><ellipse fill="#dcfeff" fill-opacity=".501961" cx="0" cy="0" rx="1" ry="1" /></g><g transform="translate(18.167173 150.586307) rotate(232.794917) scale(21.586516 48.700800)"><ellipse fill="#350b00" fill-opacity=".501961" cx="0" cy="0" rx="1" ry="1" /></g><g transform="translate(126.033006 135.363873) rotate(234.095819) scale(33.516771 160.190278)"><ellipse fill="#b3866e" fill-opacity=".501961" cx="0" cy="0" rx="1" ry="1" /></g><g transform="translate(65.619431 24.681983) rotate(75.000725) scale(42.688000 158.898083)"><ellipse fill="#5da5fe" fill-opacity=".501961" cx="0" cy="0" rx="1" ry="1" /></g><g transform="translate(129.371827 150.545564) rotate(227.284551) scale(62.302806 10.147004)"><ellipse fill="#251c24" fill-opacity=".501961" cx="0" cy="0" rx="1" ry="1" /></g></g></svg>