<svg xmlns="http://www.w3.org/2000/svg" viewBox="0 0 1024 683"><filter id="b"><feGaussianBlur stdDeviation="12" /></filter><path d="M0 0h1024v683H0z" fill="#64605a" /><g filter="url(#b)" transform="scale(4.000000) translate(0.5 0.5)"><g transform="translate(91.620700 133.969806) rotate(121.511797) scale(19.104148 117.059068)"><ellipse fill="#fff" fill-opacity=".501961" cx="0" cy="0" rx="1" ry="1" /></g><ellipse fill="#342315" fill-opacity=".501961" cx="167" cy="1" rx="217" ry="87" /><g transform="translate(216 160) rotate(10) scale(83 29)"><path d="M0 0h1024v683H0z" fill="#fff" /></g><ellipse fill="#85a4cf" fill-opacity=".501961" cx="170" cy="92" rx="19" ry="56" /><g transform="translate(139.451615 97.680993) rotate(301.212769) scale(13.179818 27.306303)"><ellipse fill="#000" fill-opacity=".501961" cx="0" cy="0" rx="1" ry="1" /></g><path fill="#ffcab8" fill-opacity=".501961" d="M101.399607 73.045553 113.697807 82.118079 55.215573 99.808446 122.724643 111.279386z" /><g transform="translate(88.305469 62.399194) rotate(212.766146) scale(19.870516 35.867933)"><ellipse fill="#02050e" fill-opacity=".501961" cx="0" cy="0" rx="1" ry="1" /></g><g transform="translate(121.580797 52.686206) rotate(330.953054) scale(20.393877 7.861946)"><ellipse fill="#fdaa90" fill-opacity=".501961" cx="0" cy="0" rx="1" ry="1" /></g></g></svg>