<svg xmlns="http://www.w3.org/2000/svg" viewBox="0 0 684 1024"><filter id="b"><feGaussianBlur stdDeviation="12" /></filter><path d="M0 0h684v1024H0z" fill="#71747e" /><g filter="url(#b)" transform="scale(4.000000) translate(0.5 0.5)"><g transform="translate(54.155696 27.232271) rotate(262.789250) scale(38.935247 114.483898)"><ellipse fill="#9fffff" fill-opacity=".501961" cx="0" cy="0" rx="1" ry="1" /></g><ellipse fill="#140b11" fill-opacity=".501961" cx="94" cy="234" rx="42" ry="115" /><g transform="translate(170.000000 115.605761) rotate(179.331379) scale(22.640491 69.778340)"><ellipse fill="#000116" fill-opacity=".501961" cx="0" cy="0" rx="1" ry="1" /></g><g transform="translate(13.896795 97.585731) rotate(250.516251) scale(22.142707 47.944117)"><ellipse fill="#4f0500" fill-opacity=".501961" cx="0" cy="0" rx="1" ry="1" /></g><ellipse fill="#caa99b" fill-opacity=".501961" cx="34" cy="159" rx="37" ry="49" /><g transform="translate(67.326423 40.396959) rotate(341.022595) scale(59.966915 22.750105)"><ellipse fill="#bfecff" fill-opacity=".501961" cx="0" cy="0" rx="1" ry="1" /></g><g transform="translate(127 106) rotate(266) scale(68 37)"><path d="M0 0h684v1024H0z" fill="#e3b596" /></g><g transform="translate(70.488814 5.454139) rotate(-10.233616) scale(170.000000 27.404199)"><ellipse fill="#51a2ff" fill-opacity=".501961" cx="0" cy="0" rx="1" ry="1" /></g></g></svg>