<svg xmlns="http://www.w3.org/2000/svg" viewBox="0 0 683 1024"><filter id="b"><feGaussianBlur stdDeviation="12" /></filter><path d="M0 0h683v1024H0z" fill="#707369" /><g filter="url(#b)" transform="scale(4.000000) translate(0.5 0.5)"><g transform="translate(48.126238 93.782263) rotate(117.568759) scale(170.000000 48.119238)"><ellipse fill="#b1c7c5" fill-opacity=".501961" cx="0" cy="0" rx="1" ry="1" /></g><ellipse fill="#312516" fill-opacity=".501961" cx="141" cy="205" rx="73" ry="155" /><g transform="translate(110.005552 131.415384) rotate(257.915681) scale(12.718604 28.233238)"><ellipse fill="#87bdf8" fill-opacity=".501961" cx="0" cy="0" rx="1" ry="1" /></g><path fill="#ded9cf" fill-opacity=".501961" d="M63 79 57 191 127-16z" /><g transform="translate(170.000000 25.525114) rotate(209.485613) scale(33.449312 38.316197)"><ellipse fill="#481e00" fill-opacity=".501961" cx="0" cy="0" rx="1" ry="1" /></g><g transform="translate(77.674425 190.169573) rotate(129.989145) scale(30.497763 7.506894)"><ellipse fill="#e7dacc" fill-opacity=".501961" cx="0" cy="0" rx="1" ry="1" /></g><ellipse fill="#728985" fill-opacity=".501961" cx="24" cy="186" rx="28" ry="115" /><g transform="translate(116.252844 19.136348) rotate(323.665630) scale(30.612913 16.816570)"><ellipse fill="#cddcd8" fill-opacity=".501961" cx="0" cy="0" rx="1" ry="1" /></g></g></svg>