<svg xmlns="http://www.w3.org/2000/svg" viewBox="0 0 683 1024"><filter id="b"><feGaussianBlur stdDeviation="12" /></filter><path d="M0 0h683v1024H0z" fill="#71736e" /><g filter="url(#b)" transform="scale(4.000000) translate(0.5 0.5)"><g transform="translate(94.720030 133.053497) rotate(174.958661) scale(22.856321 79.633516)"><ellipse fill="#001c4b" fill-opacity=".501961" cx="0" cy="0" rx="1" ry="1" /></g><g transform="translate(149.090573 75.321006) rotate(14.148980) scale(12.167754 151.908826)"><ellipse fill="#c7cfd2" fill-opacity=".501961" cx="0" cy="0" rx="1" ry="1" /></g><g transform="translate(87.854906 28.400721) rotate(21.950817) scale(15.469792 30.064772)"><ellipse fill="#eaeae8" fill-opacity=".501961" cx="0" cy="0" rx="1" ry="1" /></g><ellipse fill="#0d131b" fill-opacity=".501961" cx="44" cy="239" rx="25" ry="34" /><g transform="translate(29.049033 88.321543) rotate(-74.740419) scale(118.491175 34.459903)"><ellipse fill="#a17b43" fill-opacity=".501961" cx="0" cy="0" rx="1" ry="1" /></g><g transform="translate(79 228) rotate(187) scale(13 64)"><path d="M0 0h683v1024H0z" fill="azure" /></g><ellipse fill="#d2c9b8" fill-opacity=".501961" cx="51" cy="167" rx="10" ry="49" /><path fill="#003a5c" fill-opacity=".501961" d="M86 267l4-114 38 43z" /></g></svg>