<svg xmlns="http://www.w3.org/2000/svg" viewBox="0 0 684 1024"><filter id="b"><feGaussianBlur stdDeviation="12" /></filter><path d="M0 0h684v1024H0z" fill="#54494a" /><g filter="url(#b)" transform="scale(4.000000) translate(0.5 0.5)"><g transform="translate(99.443960 6.218764) rotate(274.378042) scale(33.476754 99.943482)"><ellipse fill="#cdf2ff" fill-opacity=".501961" cx="0" cy="0" rx="1" ry="1" /></g><g transform="translate(28.072270 166.618349) rotate(78.777154) scale(148.336273 60.154161)"><ellipse fill="#281610" fill-opacity=".501961" cx="0" cy="0" rx="1" ry="1" /></g><g transform="translate(16.106202 126.514103) rotate(275.489267) scale(73.858930 5.046123)"><ellipse fill="#9c9b99" fill-opacity=".501961" cx="0" cy="0" rx="1" ry="1" /></g><ellipse fill="#b4c1f3" fill-opacity=".501961" cx="77" cy="17" rx="65" ry="13" /><path fill="#513628" fill-opacity=".501961" d="M71.159136 164.321081 39.593512 54.711351 112.144708 27.99922 134.60285 38.102511z" /><g transform="translate(76.870829 207.769502) rotate(95.509030) scale(158.928894 5.337539)"><ellipse fill="#000001" fill-opacity=".501961" cx="0" cy="0" rx="1" ry="1" /></g><g transform="translate(137.921782 2.551149) rotate(360.797867) scale(61.936248 14.804479)"><ellipse fill="#4875be" fill-opacity=".501961" cx="0" cy="0" rx="1" ry="1" /></g><ellipse fill="#715a4f" fill-opacity=".501961" cx="132" cy="117" rx="38" ry="80" /></g></svg>