<svg xmlns="http://www.w3.org/2000/svg" viewBox="0 0 1024 684"><filter id="b"><feGaussianBlur stdDeviation="12" /></filter><path d="M0 0h1024v684H0z" fill="#837c82" /><g filter="url(#b)" transform="scale(4.000000) translate(0.5 0.5)"><g transform="translate(176.822575 19.611734) rotate(310.627461) scale(79.277179 94.006936)"><ellipse fill="#fbffff" fill-opacity=".501961" cx="0" cy="0" rx="1" ry="1" /></g><g transform="translate(49.803763 123.463556) rotate(329.007421) scale(86.759250 148.545586)"><ellipse fill="#382836" fill-opacity=".501961" cx="0" cy="0" rx="1" ry="1" /></g><ellipse fill="#3f9eff" fill-opacity=".501961" cx="191" cy="0" rx="118" ry="25" /><g transform="translate(189 69) rotate(345) scale(111 58)"><path d="M0 0h1024v684H0z" fill="#ffe4a6" /></g><g transform="translate(82.744256 138.610546) rotate(40.175309) scale(30.132249 50.154562)"><ellipse fill="#031642" fill-opacity=".501961" cx="0" cy="0" rx="1" ry="1" /></g><g transform="translate(234.616840 155.632655) rotate(34.359383) scale(68.431686 48.990129)"><ellipse fill="#51404c" fill-opacity=".501961" cx="0" cy="0" rx="1" ry="1" /></g><g transform="translate(60 69) rotate(67) scale(59 36)"><path d="M0 0h1024v684H0z" fill="#b29594" /></g><g transform="translate(132.664169 29.017691) rotate(270.230697) scale(18.935068 48.744258)"><ellipse fill="#ace1ff" fill-opacity=".501961" cx="0" cy="0" rx="1" ry="1" /></g></g></svg>