<svg xmlns="http://www.w3.org/2000/svg" viewBox="0 0 4096 2735"><filter id="b"><feGaussianBlur stdDeviation="12" /></filter><path d="M0 0h4096v2735H0z" fill="#4a728c" /><g filter="url(#b)" transform="scale(16.000000) translate(0.5 0.5)"><g transform="translate(209.946147 54.277988) rotate(178.397022) scale(91.082554 28.460877)"><ellipse fill="#ecf6f1" fill-opacity=".501961" cx="0" cy="0" rx="1" ry="1" /></g><g transform="translate(79.428268 86.187016) rotate(271.774192) scale(9.592131 165.114354)"><ellipse fill="#000" fill-opacity=".501961" cx="0" cy="0" rx="1" ry="1" /></g><g transform="translate(42.956717 25.289987) rotate(5.807055) scale(96.143840 34.215469)"><ellipse fill="#0070bf" fill-opacity=".501961" cx="0" cy="0" rx="1" ry="1" /></g><ellipse fill="#1a283c" fill-opacity=".501961" cx="42" cy="129" rx="53" ry="58" /><g transform="translate(181.656797 2.446861) rotate(190.238710) scale(85.052039 39.543983)"><ellipse fill="#4aa5d9" fill-opacity=".501961" cx="0" cy="0" rx="1" ry="1" /></g><g transform="translate(205.844702 112.575906) rotate(275.627854) scale(15.187782 90.513139)"><ellipse fill="#939bac" fill-opacity=".501961" cx="0" cy="0" rx="1" ry="1" /></g><ellipse fill="#000" fill-opacity=".501961" cx="74" cy="84" rx="82" ry="12" /><g transform="translate(255.000000 59.896272) rotate(265.030832) scale(11.987359 72.074663)"><ellipse fill="#fffcf2" fill-opacity=".501961" cx="0" cy="0" rx="1" ry="1" /></g></g></svg>