<svg xmlns="http://www.w3.org/2000/svg" viewBox="0 0 684 1024"><filter id="b"><feGaussianBlur stdDeviation="12" /></filter><path d="M0 0h684v1024H0z" fill="#7e8996" /><g filter="url(#b)" transform="scale(4.000000) translate(0.5 0.5)"><g transform="translate(76.492455 103.476824) rotate(262.910797) scale(143.264839 27.798873)"><ellipse fill="#0d141f" fill-opacity=".501961" cx="0" cy="0" rx="1" ry="1" /></g><g transform="translate(15.783813 197.891125) rotate(282.295454) scale(73.460994 25.009953)"><ellipse fill="#000" fill-opacity=".501961" cx="0" cy="0" rx="1" ry="1" /></g><ellipse fill="#dcf2ff" fill-opacity=".501961" cx="145" cy="172" rx="37" ry="252" /><g transform="translate(2.024812 46.011731) rotate(6.742876) scale(26.535483 115.496727)"><ellipse fill="#fff" fill-opacity=".501961" cx="0" cy="0" rx="1" ry="1" /></g><g transform="translate(0.000000 40.219474) rotate(186.565535) scale(25.833303 63.478083)"><ellipse fill="#fff" fill-opacity=".501961" cx="0" cy="0" rx="1" ry="1" /></g><g transform="translate(37.648429 71.194698) rotate(356.136006) scale(15.928340 21.520070)"><ellipse fill="#16151f" fill-opacity=".501961" cx="0" cy="0" rx="1" ry="1" /></g><path fill="#11171f" fill-opacity=".501961" d="M37.807074 261.340893 89.131571 256.643462 113.111244 156.82435 45.576319 254.625407z" /><ellipse fill="#949bad" fill-opacity=".501961" cx="60" cy="153" rx="14" ry="83" /></g></svg>