<svg xmlns="http://www.w3.org/2000/svg" viewBox="0 0 684 1024"><filter id="b"><feGaussianBlur stdDeviation="12" /></filter><path d="M0 0h684v1024H0z" fill="#8da0a9" /><g filter="url(#b)" transform="scale(4.000000) translate(0.5 0.5)"><g transform="translate(82.881553 126.106832) rotate(288.185129) scale(50.700914 19.190569)"><ellipse fill="#000021" fill-opacity=".501961" cx="0" cy="0" rx="1" ry="1" /></g><path fill="#f3feff" fill-opacity=".501961" d="M186 131 98 236 117 58z" /><g transform="translate(64.729338 11.645646) rotate(239.127127) scale(40.335153 8.940448)"><ellipse fill="#00030a" fill-opacity=".501961" cx="0" cy="0" rx="1" ry="1" /></g><path fill="#000001" fill-opacity=".501961" d="M105.829338 208.548941 86.439836 194.030153 35.991746 111.950101l45.650342 38.503303z" /><path fill="#003864" fill-opacity=".501961" d="M109 107 11 70l90 70z" /><ellipse fill="#201717" fill-opacity=".501961" cx="149" cy="31" rx="7" ry="53" /><g transform="translate(49 195) rotate(136) scale(53 162)"><path d="M0 0h684v1024H0z" fill="#bfcaba" /></g><g transform="translate(129.425013 24.113873) rotate(185.733747) scale(10.560064 45.565536)"><ellipse fill="#d8e4ff" fill-opacity=".501961" cx="0" cy="0" rx="1" ry="1" /></g></g></svg>