<svg xmlns="http://www.w3.org/2000/svg" viewBox="0 0 684 1024"><filter id="b"><feGaussianBlur stdDeviation="12" /></filter><path d="M0 0h684v1024H0z" fill="#8ba6b3" /><g filter="url(#b)" transform="scale(4.000000) translate(0.5 0.5)"><ellipse fill="#001549" fill-opacity=".501961" cx="77" cy="125" rx="38" ry="38" /><g transform="translate(132.483740 164.208882) rotate(221.458803) scale(28.570355 92.663617)"><ellipse fill="#fff" fill-opacity=".501961" cx="0" cy="0" rx="1" ry="1" /></g><path fill="#000624" fill-opacity=".501961" d="M80.234123 189.28972 99.816982 104.805404 75.32762 102.811875 65.607817 206.49903z" /><g transform="translate(67.837504 14.695373) rotate(-26.894654) scale(11.535817 35.399327)"><ellipse fill="#000111" fill-opacity=".501961" cx="0" cy="0" rx="1" ry="1" /></g><ellipse fill="#1a0b08" fill-opacity=".501961" cx="150" cy="3" rx="7" ry="91" /><path fill="#d0faf8" fill-opacity=".501961" d="M9.105213 102.607192 65.370368 129.023725 79.085901 114.341339 53.492358 97.084863z" /><g transform="translate(129.344469 119.850060) rotate(-20.715775) scale(13.338969 61.197236)"><ellipse fill="#f4feff" fill-opacity=".501961" cx="0" cy="0" rx="1" ry="1" /></g><g transform="translate(58.491782 93.182075) rotate(18.823471) scale(45.365514 8.212271)"><ellipse fill="#003664" fill-opacity=".501961" cx="0" cy="0" rx="1" ry="1" /></g></g></svg>