<svg xmlns="http://www.w3.org/2000/svg" viewBox="0 0 1024 678"><filter id="b"><feGaussianBlur stdDeviation="12" /></filter><path d="M0 0h1024v678H0z" fill="#5e5745" /><g filter="url(#b)" transform="scale(4.000000) translate(0.5 0.5)"><g transform="translate(91.851471 0.000000) rotate(95.571968) scale(38.731383 79.870354)"><ellipse fill="#fee495" fill-opacity=".501961" cx="0" cy="0" rx="1" ry="1" /></g><g transform="translate(221.223063 49.924623) rotate(133.545035) scale(41.926039 62.477544)"><ellipse fill="#000" fill-opacity=".501961" cx="0" cy="0" rx="1" ry="1" /></g><ellipse fill="#00001d" fill-opacity=".501961" cx="27" cy="66" rx="113" ry="25" /><g transform="translate(120.755203 141.659672) rotate(190.809923) scale(108.796221 53.056114)"><ellipse fill="#8f7a6a" fill-opacity=".501961" cx="0" cy="0" rx="1" ry="1" /></g><g transform="translate(228.910816 66.985561) rotate(162.464654) scale(42.098597 27.181384)"><ellipse fill="#000" fill-opacity=".501961" cx="0" cy="0" rx="1" ry="1" /></g><ellipse fill="#fff6a9" fill-opacity=".501961" cx="110" cy="0" rx="30" ry="30" /><g transform="translate(239 7) rotate(17) scale(26 46)"><path d="M0 0h1024v678H0z" fill="#b19e00" /></g><path d="M0 0h1024v678H0z" fill="#000" /></g></svg>