<svg xmlns="http://www.w3.org/2000/svg" viewBox="0 0 684 1024"><filter id="b"><feGaussianBlur stdDeviation="12" /></filter><path d="M0 0h684v1024H0z" fill="#8498a4" /><g filter="url(#b)" transform="scale(4.000000) translate(0.5 0.5)"><g transform="translate(33.507823 88.694662) rotate(40.085850) scale(103.620353 29.023552)"><ellipse fill="#192f27" fill-opacity=".501961" cx="0" cy="0" rx="1" ry="1" /></g><g transform="translate(0.000000 115.135258) rotate(200.357968) scale(24.022373 38.200451)"><ellipse fill="#0c080a" fill-opacity=".501961" cx="0" cy="0" rx="1" ry="1" /></g><ellipse fill="#a9b7e1" fill-opacity=".501961" cx="45" cy="218" rx="45" ry="97" /><g transform="translate(110.689340 58.846509) rotate(238.070354) scale(170.000000 28.477725)"><ellipse fill="#adc9cf" fill-opacity=".501961" cx="0" cy="0" rx="1" ry="1" /></g><path fill="#00331d" fill-opacity=".501961" d="M113.9475 170.794128 100.56247 183.816573 58.279388 109.340925 90.974333 104.382216z" /><g transform="translate(10 23) rotate(338) scale(20 57)"><path d="M0 0h684v1024H0z" fill="#292e37" /></g><path fill="#acb2b1" fill-opacity=".501961" d="M68.728898 25.001957 83.147051 97.368979 76.245936 120.933949-.606502-16z" /><ellipse fill="#a3b7be" fill-opacity=".501961" cx="139" cy="218" rx="33" ry="61" /></g></svg>