<svg xmlns="http://www.w3.org/2000/svg" viewBox="0 0 1024 684"><filter id="b"><feGaussianBlur stdDeviation="12" /></filter><path d="M0 0h1024v684H0z" fill="#a8bbc0" /><g filter="url(#b)" transform="scale(4.000000) translate(0.5 0.5)"><g transform="translate(135.153011 95.753742) rotate(305.799924) scale(61.416393 31.090977)"><ellipse fill="#082a21" fill-opacity=".501961" cx="0" cy="0" rx="1" ry="1" /></g><ellipse fill="#d9e6f9" fill-opacity=".501961" cx="19" cy="87" rx="82" ry="82" /><g transform="translate(46 122) rotate(282) scale(25 22)"><path d="M0 0h1024v684H0z" fill="#003411" /></g><path fill="#00167b" fill-opacity=".501961" d="M112.371249 46.52504 93.279197 118.505442 137.962455 60.229877 124.779478 40.508939z" /><path fill="#a90a00" fill-opacity=".501961" d="M109.360323 73.478117 150.650921 44.622066 192.83892 44.04157 136.413083 73.820794z" /><g transform="translate(205.317188 132.944180) rotate(67.270757) scale(37.173720 110.669571)"><ellipse fill="#cad9e7" fill-opacity=".501961" cx="0" cy="0" rx="1" ry="1" /></g><g transform="translate(175.432503 80.262838) rotate(365.895136) scale(28.802944 22.693443)"><ellipse fill="#a5af91" fill-opacity=".501961" cx="0" cy="0" rx="1" ry="1" /></g><g transform="translate(120.612802 111.558060) rotate(114.511837) scale(11.983506 25.820217)"><ellipse fill="#00ca96" fill-opacity=".501961" cx="0" cy="0" rx="1" ry="1" /></g></g></svg>