<svg xmlns="http://www.w3.org/2000/svg" viewBox="0 0 684 1024"><filter id="b"><feGaussianBlur stdDeviation="12" /></filter><path d="M0 0h684v1024H0z" fill="#b5c2c5" /><g filter="url(#b)" transform="scale(4.000000) translate(0.5 0.5)"><g transform="translate(81.077691 147.496780) rotate(243.012398) scale(70.514078 26.061502)"><ellipse fill="#1d232d" fill-opacity=".501961" cx="0" cy="0" rx="1" ry="1" /></g><g transform="translate(117.950231 125.748552) rotate(210.770309) scale(10.120858 18.593365)"><ellipse fill="#0b0d00" fill-opacity=".501961" cx="0" cy="0" rx="1" ry="1" /></g><g transform="translate(58.426690 203.364422) rotate(326.730281) scale(19.040482 170.000000)"><ellipse fill="#f6ffff" fill-opacity=".501961" cx="0" cy="0" rx="1" ry="1" /></g><g transform="translate(54.408830 113.097260) rotate(194.060916) scale(13.538249 39.500534)"><ellipse fill="#b94416" fill-opacity=".501961" cx="0" cy="0" rx="1" ry="1" /></g><g transform="translate(30 211) rotate(-50) scale(14 27)"><path d="M0 0h684v1024H0z" fill="#003f25" /></g><g transform="translate(123.647646 240.277657) rotate(260.148659) scale(33.234465 147.206433)"><ellipse fill="#dcedff" fill-opacity=".501961" cx="0" cy="0" rx="1" ry="1" /></g><g transform="translate(76.067598 170.584164) rotate(286.967631) scale(17.586663 24.186098)"><ellipse fill="#107ed5" fill-opacity=".501961" cx="0" cy="0" rx="1" ry="1" /></g><g transform="translate(23.308600 74.157388) rotate(6.338079) scale(25.022959 148.792078)"><ellipse fill="#ddecf2" fill-opacity=".501961" cx="0" cy="0" rx="1" ry="1" /></g></g></svg>