<svg xmlns="http://www.w3.org/2000/svg" viewBox="0 0 684 1024"><filter id="b"><feGaussianBlur stdDeviation="12" /></filter><path d="M0 0h684v1024H0z" fill="#75828b" /><g filter="url(#b)" transform="scale(4.000000) translate(0.5 0.5)"><g transform="translate(147.731765 130.048809) rotate(182.287456) scale(46.230765 170.000000)"><ellipse fill="#efffff" fill-opacity=".501961" cx="0" cy="0" rx="1" ry="1" /></g><g transform="translate(56.573233 127.964664) rotate(183.289166) scale(47.454324 132.847106)"><ellipse fill="#141913" fill-opacity=".501961" cx="0" cy="0" rx="1" ry="1" /></g><path d="M0 0h684v1024H0z" fill="#ccdefd" /><g transform="translate(0.000000 170.343081) rotate(154.242751) scale(52.352874 115.220536)"><ellipse fill="#505f65" fill-opacity=".501961" cx="0" cy="0" rx="1" ry="1" /></g><ellipse fill="#27261f" fill-opacity=".501961" cx="61" cy="103" rx="41" ry="41" /><path d="M0 0h684v1024H0z" fill="#f66aa5" /><g transform="translate(158.883781 187.677564) rotate(92.138147) scale(151.404909 24.626131)"><ellipse fill="#c9d9f8" fill-opacity=".501961" cx="0" cy="0" rx="1" ry="1" /></g><path d="M0 0h684v1024H0z" fill="#98a7c4" /></g></svg>