<svg xmlns="http://www.w3.org/2000/svg" viewBox="0 0 684 1024"><filter id="b"><feGaussianBlur stdDeviation="12" /></filter><path d="M0 0h684v1024H0z" fill="#59809e" /><g filter="url(#b)" transform="scale(4.000000) translate(0.5 0.5)"><g transform="translate(57.625862 32.360936) rotate(103.108023) scale(47.334641 20.828243)"><ellipse fill="#0c0800" fill-opacity=".501961" cx="0" cy="0" rx="1" ry="1" /></g><ellipse fill="#1b97fa" fill-opacity=".501961" cx="0" cy="157" rx="69" ry="69" /><g transform="translate(67.755193 212.454826) rotate(343.406958) scale(23.319292 46.523816)"><ellipse fill="#312b1e" fill-opacity=".501961" cx="0" cy="0" rx="1" ry="1" /></g><g transform="translate(147.758842 72.807676) rotate(95.494075) scale(32.567942 12.653058)"><ellipse fill="#0b0000" fill-opacity=".501961" cx="0" cy="0" rx="1" ry="1" /></g><ellipse fill="#a5aeb5" fill-opacity=".501961" cx="161" cy="184" rx="75" ry="75" /><ellipse fill="#349bf4" fill-opacity=".501961" cx="13" cy="107" rx="21" ry="255" /><path fill="#27211e" fill-opacity=".501961" d="M97 160 62 65 40 94z" /><g transform="translate(98.153343 84.011610) rotate(164.773361) scale(31.825644 49.464605)"><ellipse fill="#9ba6b5" fill-opacity=".501961" cx="0" cy="0" rx="1" ry="1" /></g></g></svg>