<svg xmlns="http://www.w3.org/2000/svg" viewBox="0 0 1024 684"><filter id="b"><feGaussianBlur stdDeviation="12" /></filter><path d="M0 0h1024v684H0z" fill="#8da0a8" /><g filter="url(#b)" transform="scale(4.000000) translate(0.5 0.5)"><g transform="translate(126.790462 96.054425) rotate(125.541783) scale(50.787470 38.449216)"><ellipse fill="#112d33" fill-opacity=".501961" cx="0" cy="0" rx="1" ry="1" /></g><g transform="translate(0.000000 92.710129) rotate(129.921600) scale(99.929126 51.153977)"><ellipse fill="#c8d5fa" fill-opacity=".501961" cx="0" cy="0" rx="1" ry="1" /></g><g transform="translate(145.429393 56.692528) rotate(157.633313) scale(44.843421 8.770080)"><ellipse fill="#850000" fill-opacity=".501961" cx="0" cy="0" rx="1" ry="1" /></g><ellipse fill="#00437b" fill-opacity=".501961" cx="106" cy="90" rx="17" ry="46" /><path fill="#a7bbc8" fill-opacity=".501961" d="M271 91l-94 95-69-61z" /><path fill="#002d13" fill-opacity=".501961" d="M40.560948 133.086571 45.196072 113.176427 67.524743 119.679588 56.452849 135.90709z" /><g transform="translate(48.961801 158.461865) rotate(-5.971959) scale(61.893401 22.859107)"><ellipse fill="#b0c7d8" fill-opacity=".501961" cx="0" cy="0" rx="1" ry="1" /></g><g transform="translate(181.057965 70.669986) rotate(150.035447) scale(51.670050 22.141783)"><ellipse fill="#8e9d7e" fill-opacity=".501961" cx="0" cy="0" rx="1" ry="1" /></g></g></svg>