<svg xmlns="http://www.w3.org/2000/svg" viewBox="0 0 1024 678"><filter id="b"><feGaussianBlur stdDeviation="12" /></filter><path d="M0 0h1024v678H0z" fill="#5d707e" /><g filter="url(#b)" transform="scale(4.000000) translate(0.5 0.5)"><g transform="translate(118.161635 44.304234) rotate(180.663388) scale(222.373098 19.855660)"><ellipse fill="#fff3dd" fill-opacity=".501961" cx="0" cy="0" rx="1" ry="1" /></g><g transform="translate(80.003701 130.695257) rotate(83.476944) scale(34.782844 202.634130)"><ellipse fill="#000d27" fill-opacity=".501961" cx="0" cy="0" rx="1" ry="1" /></g><g transform="translate(172.990118 30.716589) rotate(102.690449) scale(73.112980 34.146258)"><ellipse fill="#cebeb2" fill-opacity=".501961" cx="0" cy="0" rx="1" ry="1" /></g><g transform="translate(199.333856 160.631632) rotate(-12.060097) scale(146.169633 15.040774)"><ellipse fill="#9ac7fc" fill-opacity=".501961" cx="0" cy="0" rx="1" ry="1" /></g><g transform="translate(34.533597 145.678779) rotate(346.020874) scale(85.994574 16.194530)"><ellipse fill="#00010b" fill-opacity=".501961" cx="0" cy="0" rx="1" ry="1" /></g><g transform="translate(230.945250 84.300983) rotate(245.007071) scale(36.973043 21.761247)"><ellipse fill="#15222b" fill-opacity=".501961" cx="0" cy="0" rx="1" ry="1" /></g><ellipse fill="#5b87b4" fill-opacity=".501961" cx="247" cy="0" rx="71" ry="38" /><ellipse fill="#5181b1" fill-opacity=".501961" cx="116" cy="5" rx="41" ry="32" /></g></svg>