<svg xmlns="http://www.w3.org/2000/svg" viewBox="0 0 1024 678"><filter id="b"><feGaussianBlur stdDeviation="12" /></filter><path d="M0 0h1024v678H0z" fill="#6a8558" /><g filter="url(#b)" transform="scale(4.000000) translate(0.5 0.5)"><g transform="translate(83.486374 15.927401) rotate(79.468262) scale(30.727556 255.000000)"><ellipse fill="#0078ff" fill-opacity=".501961" cx="0" cy="0" rx="1" ry="1" /></g><ellipse fill="#b38900" fill-opacity=".501961" cx="133" cy="126" rx="102" ry="102" /><ellipse fill="#000" fill-opacity=".501961" cx="167" cy="84" rx="32" ry="31" /><g transform="translate(255.000000 70.906548) rotate(253.041446) scale(144.406330 30.376517)"><ellipse fill="#008efb" fill-opacity=".501961" cx="0" cy="0" rx="1" ry="1" /></g><g transform="translate(109.322154 39.553088) rotate(136.033910) scale(32.576062 19.617082)"><ellipse fill="#4fc8ff" fill-opacity=".501961" cx="0" cy="0" rx="1" ry="1" /></g><g transform="translate(64.052830 98.280387) rotate(142.532853) scale(29.641560 19.725867)"><ellipse fill="#000" fill-opacity=".501961" cx="0" cy="0" rx="1" ry="1" /></g><path fill="#b2e3ff" fill-opacity=".501961" d="M153.688752 184 185.852907 131.093228 227.170092 160.037042 246.086163 88.445722z" /><path fill="#fec200" fill-opacity=".501961" d="M165 15 82 78 223 50z" /></g></svg>