<svg xmlns="http://www.w3.org/2000/svg" viewBox="0 0 678 1024"><filter id="b"><feGaussianBlur stdDeviation="12" /></filter><path d="M0 0h678v1024H0z" fill="#542029" /><g filter="url(#b)" transform="scale(4.000000) translate(0.5 0.5)"><ellipse fill="#de5f6c" fill-opacity=".501961" cx="81" cy="169" rx="70" ry="71" /><g transform="translate(107 26) rotate(268) scale(151 244)"><path d="M0 0h678v1024H0z" fill="#000" /></g><ellipse fill="#bb3570" fill-opacity=".501961" cx="87" cy="99" rx="28" ry="57" /><g transform="translate(155.335818 73.515300) rotate(151.736064) scale(38.853921 168.000000)"><ellipse fill="#000" fill-opacity=".501961" cx="0" cy="0" rx="1" ry="1" /></g><ellipse fill="#a83769" fill-opacity=".501961" cx="156" cy="211" rx="47" ry="47" /><g transform="translate(29.476900 53.408061) rotate(111.664815) scale(132.151043 32.678692)"><ellipse fill="#000" fill-opacity=".501961" cx="0" cy="0" rx="1" ry="1" /></g><g transform="translate(102.820298 77.782650) rotate(264.665878) scale(8.243364 24.023518)"><ellipse fill="#e38a89" fill-opacity=".501961" cx="0" cy="0" rx="1" ry="1" /></g><g transform="translate(115 153) rotate(241) scale(13 36)"><path d="M0 0h678v1024H0z" fill="#ffdbd0" /></g></g></svg>