<svg xmlns="http://www.w3.org/2000/svg" viewBox="0 0 684 1024"><filter id="b"><feGaussianBlur stdDeviation="12" /></filter><path d="M0 0h684v1024H0z" fill="#afacba" /><g filter="url(#b)" transform="scale(4.000000) translate(0.5 0.5)"><ellipse fill="#730000" fill-opacity=".501961" cx="79" cy="122" rx="32" ry="56" /><ellipse fill="#edffff" fill-opacity=".501961" cx="160" cy="64" rx="50" ry="134" /><g transform="translate(117 184) rotate(119) scale(20 54)"><path d="M0 0h684v1024H0z" fill="#000" /></g><g transform="translate(56 69) rotate(43) scale(64 16)"><path d="M0 0h684v1024H0z" fill="#6a0000" /></g><g transform="translate(81.116551 27.353169) rotate(232.057560) scale(58.011504 38.964591)"><ellipse fill="#daf4ff" fill-opacity=".501961" cx="0" cy="0" rx="1" ry="1" /></g><g transform="translate(76.402550 127.860096) rotate(213.777689) scale(25.277521 58.837792)"><ellipse fill="#800e29" fill-opacity=".501961" cx="0" cy="0" rx="1" ry="1" /></g><path fill="#739baa" fill-opacity=".501961" d="M9 26 54 195 66 93z" /><g transform="translate(68.985117 215.325002) rotate(288.774714) scale(45.301017 32.838639)"><ellipse fill="#bcdbec" fill-opacity=".501961" cx="0" cy="0" rx="1" ry="1" /></g></g></svg>