<svg xmlns="http://www.w3.org/2000/svg" viewBox="0 0 684 1024"><filter id="b"><feGaussianBlur stdDeviation="12" /></filter><path d="M0 0h684v1024H0z" fill="#8da0a9" /><g filter="url(#b)" transform="scale(4.000000) translate(0.5 0.5)"><g transform="translate(82.648885 128.588446) rotate(17.154224) scale(20.186024 50.026955)"><ellipse fill="#000024" fill-opacity=".501961" cx="0" cy="0" rx="1" ry="1" /></g><g transform="translate(136.819566 143.486420) rotate(126.998123) scale(59.817575 36.138164)"><ellipse fill="#f1fcff" fill-opacity=".501961" cx="0" cy="0" rx="1" ry="1" /></g><g transform="translate(62.447354 0.000000) rotate(65.066813) scale(45.499871 12.747265)"><ellipse fill="#060b12" fill-opacity=".501961" cx="0" cy="0" rx="1" ry="1" /></g><g transform="translate(84.004574 177.123126) rotate(236.936341) scale(32.782124 9.411750)"><ellipse fill="#00080f" fill-opacity=".501961" cx="0" cy="0" rx="1" ry="1" /></g><path fill="#003760" fill-opacity=".501961" d="M-1.693518 67.174885 57.704676 102.432148l53.72942 42.243443L102.955161 102.418297z" /><ellipse fill="#1d1413" fill-opacity=".501961" cx="150" cy="0" rx="7" ry="84" /><g transform="translate(124.763714 66.694900) rotate(364.348364) scale(9.672817 84.192917)"><ellipse fill="#d8e4fc" fill-opacity=".501961" cx="0" cy="0" rx="1" ry="1" /></g><g transform="translate(56.048346 195.088923) rotate(230.060227) scale(100.109610 24.961016)"><ellipse fill="#c1ccbd" fill-opacity=".501961" cx="0" cy="0" rx="1" ry="1" /></g></g></svg>