<svg xmlns="http://www.w3.org/2000/svg" viewBox="0 0 684 1024"><filter id="b"><feGaussianBlur stdDeviation="12" /></filter><path d="M0 0h684v1024H0z" fill="#7e8996" /><g filter="url(#b)" transform="scale(4.000000) translate(0.5 0.5)"><ellipse fill="#242a36" fill-opacity=".501961" cx="67" cy="133" rx="41" ry="147" /><g transform="translate(1.007182 60.167417) rotate(99.755780) scale(113.438245 25.005570)"><ellipse fill="#fff" fill-opacity=".501961" cx="0" cy="0" rx="1" ry="1" /></g><ellipse fill="#ddf3ff" fill-opacity=".501961" cx="146" cy="187" rx="38" ry="252" /><ellipse fill="#000" fill-opacity=".501961" cx="15" cy="218" rx="20" ry="82" /><g transform="translate(55.152764 204.369985) rotate(201.334506) scale(13.467120 45.233242)"><ellipse fill="#d8e6fb" fill-opacity=".501961" cx="0" cy="0" rx="1" ry="1" /></g><g transform="translate(74.436127 26.470737) rotate(269.273113) scale(56.935056 20.370992)"><ellipse fill="#16110d" fill-opacity=".501961" cx="0" cy="0" rx="1" ry="1" /></g><g transform="translate(94.530401 181.389556) rotate(190.215316) scale(15.257560 48.394597)"><ellipse fill="#001322" fill-opacity=".501961" cx="0" cy="0" rx="1" ry="1" /></g><g transform="translate(0.000000 18.577470) rotate(362.060382) scale(34.237427 64.543425)"><ellipse fill="#fff" fill-opacity=".501961" cx="0" cy="0" rx="1" ry="1" /></g></g></svg>