<svg xmlns="http://www.w3.org/2000/svg" viewBox="0 0 684 1024"><filter id="b"><feGaussianBlur stdDeviation="12" /></filter><path d="M0 0h684v1024H0z" fill="#8ba6b3" /><g filter="url(#b)" transform="scale(4.000000) translate(0.5 0.5)"><ellipse fill="#001549" fill-opacity=".501961" cx="78" cy="125" rx="38" ry="38" /><g transform="translate(136.292264 161.632339) rotate(133.211344) scale(94.060668 28.516581)"><ellipse fill="#fff" fill-opacity=".501961" cx="0" cy="0" rx="1" ry="1" /></g><g transform="translate(64.662404 11.098636) rotate(331.383114) scale(10.700138 40.542964)"><ellipse fill="#00000c" fill-opacity=".501961" cx="0" cy="0" rx="1" ry="1" /></g><g transform="translate(55.409735 112.323965) rotate(111.740356) scale(12.872598 20.331036)"><ellipse fill="#e2ffff" fill-opacity=".501961" cx="0" cy="0" rx="1" ry="1" /></g><path fill="#00153d" fill-opacity=".501961" d="M78 86l34 38-49 88z" /><ellipse fill="#160909" fill-opacity=".501961" cx="151" cy="42" rx="7" ry="53" /><g transform="translate(125.743181 69.807323) rotate(181.663921) scale(9.427199 68.422812)"><ellipse fill="#edf6ff" fill-opacity=".501961" cx="0" cy="0" rx="1" ry="1" /></g><path fill="#004280" fill-opacity=".501961" d="M56.748978 101.046892 123.018827 149.141792 108.559926 101.674154 2.494558 71.221157z" /></g></svg>