<svg xmlns="http://www.w3.org/2000/svg" viewBox="0 0 684 1024"><filter id="b"><feGaussianBlur stdDeviation="12" /></filter><path d="M0 0h684v1024H0z" fill="#aaa49f" /><g filter="url(#b)" transform="scale(4.000000) translate(0.5 0.5)"><g transform="translate(86.958161 36.531814) rotate(369.651976) scale(159.195676 56.877083)"><ellipse fill="#c26217" fill-opacity=".501961" cx="0" cy="0" rx="1" ry="1" /></g><ellipse fill="#99dbff" fill-opacity=".501961" cx="80" cy="185" rx="77" ry="105" /><g transform="translate(86 98) rotate(278) scale(28 38)"><path d="M0 0h684v1024H0z" fill="#99461d" /></g><ellipse fill="#fff" fill-opacity=".501961" cx="89" cy="38" rx="17" ry="12" /><ellipse fill="#954816" fill-opacity=".501961" cx="28" cy="5" rx="138" ry="23" /><ellipse fill="#5a4332" fill-opacity=".501961" cx="170" cy="243" rx="13" ry="104" /><g transform="translate(71.819795 141.115083) rotate(137.388909) scale(29.509663 55.689162)"><ellipse fill="#d7e5fc" fill-opacity=".501961" cx="0" cy="0" rx="1" ry="1" /></g><g transform="translate(138.392320 171.689734) rotate(102.789635) scale(42.219297 6.410711)"><ellipse fill="#1060a5" fill-opacity=".501961" cx="0" cy="0" rx="1" ry="1" /></g></g></svg>