<svg xmlns="http://www.w3.org/2000/svg" viewBox="0 0 1024 678"><filter id="b"><feGaussianBlur stdDeviation="12" /></filter><path d="M0 0h1024v678H0z" fill="#5e5e4e" /><g filter="url(#b)" transform="scale(4.000000) translate(0.5 0.5)"><g transform="translate(130.519894 20.405986) rotate(262.931642) scale(40.413700 181.553188)"><ellipse fill="#dbe8fc" fill-opacity=".501961" cx="0" cy="0" rx="1" ry="1" /></g><g transform="translate(148.485212 148.476755) rotate(75.873595) scale(50.538008 255.000000)"><ellipse fill="#000" fill-opacity=".501961" cx="0" cy="0" rx="1" ry="1" /></g><g transform="translate(135.681145 90.367733) rotate(236.839894) scale(18.828857 86.266591)"><ellipse fill="#b4a375" fill-opacity=".501961" cx="0" cy="0" rx="1" ry="1" /></g><ellipse fill="#0e0900" fill-opacity=".501961" cx="234" cy="73" rx="35" ry="35" /><g transform="translate(172.549510 34.237383) rotate(85.992595) scale(15.833099 76.372117)"><ellipse fill="#fffcec" fill-opacity=".501961" cx="0" cy="0" rx="1" ry="1" /></g><g transform="translate(29.892653 147.646527) rotate(228.890688) scale(51.778990 34.988119)"><ellipse fill="#020000" fill-opacity=".501961" cx="0" cy="0" rx="1" ry="1" /></g><g transform="translate(190.517841 164.226717) rotate(347.927229) scale(218.906408 47.342958)"><ellipse fill="#030100" fill-opacity=".501961" cx="0" cy="0" rx="1" ry="1" /></g><ellipse fill="#506271" fill-opacity=".501961" cx="80" cy="0" rx="108" ry="20" /></g></svg>