<svg xmlns="http://www.w3.org/2000/svg" viewBox="0 0 1024 678"><filter id="b"><feGaussianBlur stdDeviation="12" /></filter><path d="M0 0h1024v678H0z" fill="#323131" /><g filter="url(#b)" transform="scale(4.000000) translate(0.5 0.5)"><g transform="translate(130.486924 65.124596) rotate(224.494341) scale(27.079295 115.470078)"><ellipse fill="#f2aa4b" fill-opacity=".501961" cx="0" cy="0" rx="1" ry="1" /></g><g transform="translate(85.831190 168.000000) rotate(196.339894) scale(12.053485 40.219829)"><ellipse fill="#ffad16" fill-opacity=".501961" cx="0" cy="0" rx="1" ry="1" /></g><g transform="translate(230.737542 112.337931) rotate(36.332919) scale(69.742333 121.381074)"><ellipse fill="#00002b" fill-opacity=".501961" cx="0" cy="0" rx="1" ry="1" /></g><g transform="translate(0.000000 55.912910) rotate(135.330447) scale(141.945147 86.266591)"><ellipse fill="#000a27" fill-opacity=".501961" cx="0" cy="0" rx="1" ry="1" /></g><path fill="#ffd55b" fill-opacity=".501961" d="M146 8l67 12-91 52z" /><g transform="translate(94 111) rotate(298) scale(111 10)"><path d="M0 0h1024v678H0z" fill="#000001" /></g><path fill="#ffffc0" fill-opacity=".501961" d="M1e2 84 74 130l-28 8z" /><path fill="#94774e" fill-opacity=".501961" d="M113.096692 55.845834 41.269766 77.750745 69.570007 105.896977 81.098529 72.817531z" /></g></svg>