<svg xmlns="http://www.w3.org/2000/svg" viewBox="0 0 1024 678"><filter id="b"><feGaussianBlur stdDeviation="12" /></filter><path d="M0 0h1024v678H0z" fill="#777d78" /><g filter="url(#b)" transform="scale(4.000000) translate(0.5 0.5)"><g transform="translate(56.943983 31.337625) rotate(49.539179) scale(59.151644 255.000000)"><ellipse fill="#fff" fill-opacity=".501961" cx="0" cy="0" rx="1" ry="1" /></g><g transform="translate(180.640738 129.182901) rotate(256.919720) scale(64.191091 150.446444)"><ellipse fill="#000" fill-opacity=".501961" cx="0" cy="0" rx="1" ry="1" /></g><ellipse fill="#fff" fill-opacity=".501961" cx="50" cy="14" rx="74" ry="74" /><path fill="#000400" fill-opacity=".501961" d="M262 61 64 184l207-7z" /><g transform="translate(180.905248 14.092073) rotate(142.838384) scale(28.187346 46.517977)"><ellipse fill="#d6d7e2" fill-opacity=".501961" cx="0" cy="0" rx="1" ry="1" /></g><g transform="translate(136.318002 66.822671) rotate(329.735543) scale(44.193635 23.971593)"><ellipse fill="#2d4040" fill-opacity=".501961" cx="0" cy="0" rx="1" ry="1" /></g><g transform="translate(75 134) rotate(62) scale(17 107)"><path d="M0 0h1024v678H0z" fill="#9f9e86" /></g><g transform="translate(122.755038 12.189327) rotate(174.161312) scale(58.351643 26.223630)"><ellipse fill="#edeff3" fill-opacity=".501961" cx="0" cy="0" rx="1" ry="1" /></g></g></svg>