<svg xmlns="http://www.w3.org/2000/svg" viewBox="0 0 1024 678"><filter id="b"><feGaussianBlur stdDeviation="12" /></filter><path d="M0 0h1024v678H0z" fill="#919390" /><g filter="url(#b)" transform="scale(4.000000) translate(0.5 0.5)"><g transform="translate(140.011102 10.093812) rotate(3.951413) scale(169.666474 47.577165)"><ellipse fill="#fff" fill-opacity=".501961" cx="0" cy="0" rx="1" ry="1" /></g><g transform="translate(119.545344 110.610638) rotate(238.755968) scale(79.562287 42.254764)"><ellipse fill="#120300" fill-opacity=".501961" cx="0" cy="0" rx="1" ry="1" /></g><g transform="translate(221.508191 156.745620) rotate(132.665198) scale(27.364311 67.562106)"><ellipse fill="#3f1900" fill-opacity=".501961" cx="0" cy="0" rx="1" ry="1" /></g><ellipse fill="#000" fill-opacity=".501961" cx="156" cy="68" rx="255" ry="8" /><ellipse fill="#f9ffff" fill-opacity=".501961" cx="103" cy="12" rx="255" ry="30" /><g transform="translate(131.494416 62.883307) rotate(226.192872) scale(56.395749 16.354683)"><ellipse fill="#95a0a6" fill-opacity=".501961" cx="0" cy="0" rx="1" ry="1" /></g><path fill="#c6def0" fill-opacity=".501961" d="M133 76l131 55 7-53z" /><g transform="translate(40.817628 102.463531) rotate(157.107763) scale(35.898516 24.122073)"><ellipse fill="#c0d6ed" fill-opacity=".501961" cx="0" cy="0" rx="1" ry="1" /></g></g></svg>