<svg xmlns="http://www.w3.org/2000/svg" viewBox="0 0 1024 678"><filter id="b"><feGaussianBlur stdDeviation="12" /></filter><path d="M0 0h1024v678H0z" fill="#3d474d" /><g filter="url(#b)" transform="scale(4.000000) translate(0.5 0.5)"><g transform="translate(129.012773 0.000000) rotate(161.688350) scale(127.529670 28.987525)"><ellipse fill="#f8e2ac" fill-opacity=".501961" cx="0" cy="0" rx="1" ry="1" /></g><g transform="translate(141.930807 153.241182) rotate(284.119857) scale(59.366273 255.000000)"><ellipse fill="#000317" fill-opacity=".501961" cx="0" cy="0" rx="1" ry="1" /></g><g transform="translate(172.167216 64.436407) rotate(235.561358) scale(27.882462 80.011897)"><ellipse fill="#7e8687" fill-opacity=".501961" cx="0" cy="0" rx="1" ry="1" /></g><g transform="translate(10.589553 24.686594) rotate(427.629411) scale(42.702000 64.858236)"><ellipse fill="#4c7daf" fill-opacity=".501961" cx="0" cy="0" rx="1" ry="1" /></g><g transform="translate(134.019833 18.101342) rotate(249.213983) scale(9.726954 57.546808)"><ellipse fill="#ffae26" fill-opacity=".501961" cx="0" cy="0" rx="1" ry="1" /></g><g transform="translate(226.397364 142.801245) rotate(153.108491) scale(114.583500 29.770038)"><ellipse fill="#000" fill-opacity=".501961" cx="0" cy="0" rx="1" ry="1" /></g><g transform="translate(139.445805 48.702435) rotate(348.549037) scale(68.761365 13.559474)"><ellipse fill="#848b90" fill-opacity=".501961" cx="0" cy="0" rx="1" ry="1" /></g><path fill="#000" fill-opacity=".501961" d="M120 66 45 166 57 70z" /></g></svg>